<svg width="155" height="63" viewBox="0 0 155 63" fill="none" xmlns="http://www.w3.org/2000/svg">
<g clip-path="url(#clip0)">
<path d="M126.365 17.8862H123.556V31.0978H126.365V17.8862Z" fill="#231F20"/>
<path d="M142.3 31.0697L135.032 23.7495L140.949 17.7861L137.257 17.8181L133.2 21.9044L133.188 21.8924L132.258 22.829V11.7146H129.453V31.0977H132.258V24.67L133.188 25.6025L133.2 25.5945L138.66 31.0977L142.3 31.0697Z" fill="#231F20"/>
<path d="M124.959 15.3087C125.983 15.3087 126.814 14.4719 126.814 13.4396C126.814 12.4074 125.983 11.5706 124.959 11.5706C123.934 11.5706 123.103 12.4074 123.103 13.4396C123.103 14.4719 123.934 15.3087 124.959 15.3087Z" fill="#231F20"/>
<path d="M115.731 17.582C113.176 17.582 112.091 18.6226 111.634 19.4071V17.8862H108.825V31.0978H111.634V22.3207C111.634 22.3207 112.234 20.1555 114.996 20.1555C117.758 20.1555 117.929 22.793 117.929 23.5454V31.0978H120.738V23.6295V23.5454C120.738 23.4254 120.738 23.1572 120.738 22.5889C120.738 21.1241 119.828 17.582 115.731 17.582Z" fill="#231F20"/>
<path d="M104.116 31.1177L107.176 31.0977L99.1292 12.7352L98.9146 12.2429H96.2402L96.0137 12.7512L88.1775 31.1257L91.2254 31.1457L93.3235 26.2229H101.97L104.116 31.1177ZM94.5315 23.3933L97.5913 16.2212L100.735 23.3933H94.5315Z" fill="#231F20"/>
<path d="M152.194 17.8863V19.1151C151.086 18.2305 149.699 17.6982 148.189 17.6982C144.557 17.6982 141.608 20.752 141.608 24.5221C141.608 28.2923 144.553 31.346 148.189 31.346C149.699 31.346 151.086 30.8137 152.194 29.9292V31.1059H155.004V17.8863H152.194ZM148.634 28.7966C146.357 28.7966 144.509 26.8795 144.509 24.5181C144.509 22.1568 146.357 20.2397 148.634 20.2397C150.152 20.2397 151.475 21.0922 152.19 22.3609V26.6754C151.479 27.9401 150.156 28.7966 148.634 28.7966Z" fill="#231F20"/>
<path d="M128.753 37.3855H127.446V50.6731H128.753V37.3855Z" fill="#231F20"/>
<path d="M89.8386 49.3562V38.0818H88.5312V49.3562V50.673H89.8386H96.0138V49.3562H89.8386Z" fill="#231F20"/>
<path d="M101.1 41.6997C97.925 41.6997 96.6335 44.009 96.6335 46.3344C96.6335 48.6597 98.231 50.8489 101.1 50.8489C103.969 50.8489 104.851 48.5236 104.986 48.1474C104.986 48.1314 103.782 48.1474 103.782 48.1474C103.782 48.1474 103.039 49.8043 101.1 49.8043C99.2642 49.8043 97.9965 48.5556 97.8694 46.5985H104.895H105.137C105.137 46.5305 105.137 46.3143 105.137 45.734C105.137 44.5894 104.275 41.6997 101.1 41.6997ZM101.1 42.7763C103.206 42.7763 103.925 44.7054 103.965 45.5539H97.9012C98.1237 43.8289 99.1807 42.7763 101.1 42.7763Z" fill="#231F20"/>
<path d="M113.788 41.8839L113.792 43.2887L113.812 43.3888C113.029 42.3602 111.813 41.6958 110.45 41.6958C108.086 41.6958 106.167 43.6849 106.167 46.1383C106.167 48.5917 108.086 50.5809 110.45 50.5809C111.809 50.5809 113.021 49.9205 113.804 48.8959L113.76 49.088C113.76 49.088 113.788 49.5683 113.788 50.2447C113.788 51.0491 113.514 53.5666 110.661 53.5666C107.808 53.5666 107.526 51.7095 107.526 51.7095H106.377C106.377 51.7095 107.049 54.6112 110.657 54.6112C114.265 54.6112 114.945 51.7655 114.945 50.0085C114.945 48.3356 114.945 41.8799 114.945 41.8799H113.788V41.8839ZM110.557 49.5243C108.757 49.5243 107.299 48.0114 107.299 46.1423C107.299 44.2733 108.757 42.7604 110.557 42.7604C112.358 42.7604 113.816 44.2733 113.816 46.1423C113.816 48.0114 112.358 49.5243 110.557 49.5243Z" fill="#231F20"/>
<path d="M124.299 41.8839L124.303 43.2887L124.323 43.3888C123.54 42.3602 122.324 41.6958 120.961 41.6958C118.597 41.6958 116.677 43.6849 116.677 46.1383C116.677 48.5917 118.597 50.5809 120.961 50.5809C122.32 50.5809 123.532 49.9205 124.315 48.8959L124.271 49.088C124.271 49.088 124.271 49.9045 124.271 50.5809H125.455C125.455 48.9079 125.455 41.8799 125.455 41.8799H124.299V41.8839ZM121.068 49.5243C119.268 49.5243 117.81 48.0114 117.81 46.1423C117.81 44.2733 119.268 42.7604 121.068 42.7604C122.868 42.7604 124.327 44.2733 124.327 46.1423C124.327 48.0114 122.868 49.5243 121.068 49.5243Z" fill="#231F20"/>
<path d="M52.0596 0H31.0663C26.8144 0 22.9718 2.56947 21.3227 6.51572L0.35719 56.6924C-0.894541 59.6901 1.29102 63 4.5177 63H24.2235C25.4117 63 26.4806 62.2796 26.9336 61.175L52.0596 0Z" fill="#438FEF"/>
<path d="M38.2712 33.5792L49.2587 61.315C49.664 62.3356 50.6415 63.004 51.7303 63.004H72.1315C75.1039 63.004 77.1146 59.9543 75.9622 57.1967L52.0601 0L38.2712 33.5792Z" fill="#438FEF" fill-opacity="0.32"/>
<path d="M52.0601 0L41.1164 40.7673L38.2712 33.5792L52.0601 0Z" fill="#438FEF" fill-opacity="0.33"/>
</g>
<defs>
<clipPath id="clip0">
<rect width="155" height="63" fill="white"/>
</clipPath>
</defs>
</svg>
