<svg width="76" height="63" xmlns="http://www.w3.org/2000/svg" fill="none">
  <path id="svg_1" fill-opacity="0.32" fill="#438FEF" d="m38.20645,33.34418l10.98742,27.7358c0.4053,1.0206 1.3829,1.689 2.4717,1.689l20.4012,0c2.9724,0 4.9831,-3.0497 3.8307,-5.8073l-23.9021,-57.1967l-13.78892,33.5792z"/>
  <path id="svg_2" fill-opacity="0.33" fill="#438FEF" d="m52.05391,-0.07435l-10.94371,40.7673l-2.84521,-7.1881l13.78892,-33.5792z"/>
  <path stroke="null" id="svg_3" fill="#438FEF" d="m52.06038,0l-20.9933,0c-4.2519,0 -8.0946,2.56947 -9.7437,6.51572l-20.96546,50.17668c-1.25173,2.9977 0.93384,6.3076 4.16052,6.3076l19.70584,0c1.1881,0 2.2571,-0.7204 2.7101,-1.825l25.126,-61.175z"/>
</svg>
