<?xml version="1.0" encoding="UTF-8"?>
<svg xmlns="http://www.w3.org/2000/svg" xmlns:xlink="http://www.w3.org/1999/xlink" width="254.92053" height="63" viewBox="0 0 254.92053 63">
<path fill-rule="nonzero" fill="rgb(25.882353%, 56.078431%, 93.72549%)" fill-opacity="1" d="M 51.933594 0 L 30.84375 0 C 26.855469 0 23.257812 2.390625 21.714844 6.066406 L 0.347656 56.875 C -0.875 59.785156 1.261719 63 4.417969 63 L 24.386719 63 C 25.484375 63 26.472656 62.335938 26.890625 61.320312 Z M 51.933594 0 "/>
<path fill-rule="nonzero" fill="rgb(76.470588%, 85.882353%, 98.039216%)" fill-opacity="1" d="M 51.933594 0 L 75.976562 56.949219 C 77.1875 59.820312 75.082031 63 71.964844 63 L 51.386719 63 C 50.503906 63 49.707031 62.457031 49.386719 61.636719 L 38.292969 33.398438 Z M 51.933594 0 "/>
<path fill-rule="nonzero" fill="rgb(60%, 76.078431%, 96.862745%)" fill-opacity="1" d="M 51.933594 0 L 41.121094 40.601562 L 38.292969 33.398438 Z M 51.933594 0 "/>
<path fill-rule="nonzero" fill="rgb(0%, 0%, 0%)" fill-opacity="1" d="M 90.566406 22.476562 L 98.539062 22.476562 L 94.554688 11.777344 Z M 99.65625 25.414062 L 89.449219 25.414062 L 87.105469 31.535156 L 83.644531 31.535156 L 92.804688 7.441406 L 96.300781 7.441406 L 105.429688 31.535156 L 102 31.535156 Z M 110.238281 22.722656 L 110.238281 31.535156 L 107.054688 31.535156 L 107.054688 15.207031 L 110.238281 15.207031 L 110.238281 17.652344 C 110.703125 16.742188 111.414062 16.054688 112.371094 15.589844 C 113.347656 15.101562 114.339844 14.855469 115.339844 14.855469 C 117.371094 14.855469 118.921875 15.484375 119.992188 16.742188 C 121.089844 18.003906 121.636719 19.785156 121.636719 22.09375 L 121.636719 31.535156 L 118.453125 31.535156 L 118.453125 22.304688 C 118.453125 20.953125 118.128906 19.890625 117.476562 19.121094 C 116.84375 18.351562 115.972656 17.96875 114.851562 17.96875 C 113.570312 17.96875 112.472656 18.363281 111.566406 19.15625 C 110.679688 19.925781 110.238281 21.113281 110.238281 22.722656 Z M 128.507812 31.535156 L 125.359375 31.535156 L 125.359375 15.207031 L 128.507812 15.207031 Z M 124.730469 9.191406 C 124.730469 9.773438 124.9375 10.261719 125.359375 10.660156 C 125.800781 11.054688 126.328125 11.253906 126.933594 11.253906 C 127.539062 11.253906 128.050781 11.054688 128.472656 10.660156 C 128.914062 10.261719 129.136719 9.773438 129.136719 9.191406 C 129.136719 8.609375 128.914062 8.117188 128.472656 7.722656 C 128.050781 7.324219 127.539062 7.128906 126.933594 7.128906 C 126.328125 7.128906 125.800781 7.324219 125.359375 7.722656 C 124.9375 8.117188 124.730469 8.609375 124.730469 9.191406 Z M 135.574219 23.5625 L 135.574219 31.535156 L 132.429688 31.535156 L 132.429688 6.324219 L 135.574219 6.324219 L 135.574219 20.90625 L 141.207031 15.207031 L 145.542969 15.207031 L 138.546875 22.269531 L 147.21875 31.535156 L 143.023438 31.535156 Z M 160.496094 31.535156 L 160.496094 29.015625 C 159.960938 29.925781 159.167969 30.636719 158.117188 31.148438 C 157.070312 31.640625 155.949219 31.882812 154.761719 31.882812 C 152.453125 31.882812 150.496094 31.09375 148.886719 29.507812 C 147.277344 27.921875 146.472656 25.871094 146.472656 23.351562 C 146.472656 20.8125 147.277344 18.761719 148.886719 17.199219 C 150.496094 15.636719 152.453125 14.855469 154.761719 14.855469 C 155.949219 14.855469 157.070312 15.101562 158.117188 15.589844 C 159.191406 16.078125 159.984375 16.765625 160.496094 17.652344 L 160.496094 15.207031 L 163.640625 15.207031 L 163.640625 31.535156 Z M 160.460938 23.316406 C 160.460938 21.664062 159.914062 20.355469 158.816406 19.402344 C 157.722656 18.445312 156.460938 17.96875 155.039062 17.96875 C 153.527344 17.96875 152.253906 18.46875 151.230469 19.472656 C 150.226562 20.449219 149.726562 21.730469 149.726562 23.316406 C 149.726562 24.902344 150.238281 26.207031 151.265625 27.234375 C 152.289062 28.257812 153.546875 28.773438 155.039062 28.773438 C 156.554688 28.773438 157.839844 28.28125 158.886719 27.304688 C 159.9375 26.324219 160.460938 24.996094 160.460938 23.316406 Z M 175.882812 7.441406 L 179.136719 7.441406 L 179.136719 28.492188 L 188.960938 28.492188 L 188.960938 31.535156 L 175.882812 31.535156 Z M 192.925781 22.09375 L 203.066406 22.09375 C 202.878906 20.742188 202.332031 19.679688 201.421875 18.910156 C 200.535156 18.121094 199.429688 17.722656 198.097656 17.722656 C 196.722656 17.722656 195.558594 18.121094 194.601562 18.910156 C 193.671875 19.679688 193.109375 20.742188 192.925781 22.09375 Z M 206.210938 23.316406 C 206.210938 23.921875 206.199219 24.34375 206.175781 24.578125 L 192.925781 24.578125 C 193.109375 25.929688 193.683594 27.011719 194.636719 27.828125 C 195.617188 28.621094 196.804688 29.015625 198.203125 29.015625 C 199.207031 29.015625 200.128906 28.796875 200.96875 28.351562 C 201.804688 27.910156 202.449219 27.292969 202.890625 26.5 C 203.191406 26.617188 203.660156 26.800781 204.289062 27.058594 C 204.917969 27.292969 205.359375 27.457031 205.617188 27.546875 C 204.941406 28.949219 203.925781 30.019531 202.574219 30.765625 C 201.222656 31.511719 199.730469 31.882812 198.097656 31.882812 C 195.722656 31.882812 193.730469 31.09375 192.121094 29.507812 C 190.535156 27.921875 189.742188 25.859375 189.742188 23.316406 C 189.742188 20.777344 190.535156 18.738281 192.121094 17.199219 C 193.730469 15.636719 195.722656 14.855469 198.097656 14.855469 C 200.453125 14.855469 202.390625 15.636719 203.90625 17.199219 C 205.441406 18.738281 206.210938 20.777344 206.210938 23.316406 Z M 211.304688 33.878906 C 211.773438 34.761719 212.4375 35.449219 213.296875 35.941406 C 214.183594 36.429688 215.09375 36.675781 216.027344 36.675781 C 219.894531 36.675781 221.832031 34.203125 221.832031 29.261719 C 221.832031 29.214844 221.820312 29.15625 221.796875 29.085938 C 221.796875 28.992188 221.796875 28.925781 221.796875 28.878906 C 221.328125 29.808594 220.546875 30.542969 219.453125 31.082031 C 218.378906 31.617188 217.25 31.882812 216.0625 31.882812 C 213.753906 31.882812 211.796875 31.105469 210.1875 29.542969 C 208.578125 27.980469 207.773438 25.941406 207.773438 23.421875 C 207.773438 20.882812 208.578125 18.820312 210.1875 17.234375 C 211.796875 15.648438 213.753906 14.855469 216.0625 14.855469 C 217.25 14.855469 218.367188 15.113281 219.417969 15.625 C 220.488281 16.136719 221.28125 16.847656 221.796875 17.757812 L 221.796875 15.207031 L 224.941406 15.207031 L 224.941406 29.050781 C 224.941406 36.140625 221.96875 39.683594 216.027344 39.683594 C 214.488281 39.683594 213.066406 39.296875 211.761719 38.527344 C 210.453125 37.757812 209.417969 36.675781 208.648438 35.277344 C 208.8125 35.207031 209.277344 34.960938 210.046875 34.542969 C 210.816406 34.121094 211.234375 33.902344 211.304688 33.878906 Z M 221.761719 23.386719 C 221.761719 21.710938 221.234375 20.390625 220.1875 19.4375 C 219.136719 18.457031 217.855469 17.96875 216.339844 17.96875 C 214.847656 17.96875 213.589844 18.480469 212.5625 19.507812 C 211.539062 20.53125 211.027344 21.824219 211.027344 23.386719 C 211.027344 25.019531 211.527344 26.324219 212.53125 27.304688 C 213.554688 28.28125 214.824219 28.773438 216.339844 28.773438 C 217.761719 28.773438 219.019531 28.28125 220.117188 27.304688 C 221.210938 26.324219 221.761719 25.019531 221.761719 23.386719 Z M 241.773438 31.535156 L 241.773438 29.015625 C 241.238281 29.925781 240.445312 30.636719 239.394531 31.148438 C 238.347656 31.640625 237.226562 31.882812 236.039062 31.882812 C 233.730469 31.882812 231.773438 31.09375 230.164062 29.507812 C 228.554688 27.921875 227.75 25.871094 227.75 23.351562 C 227.75 20.8125 228.554688 18.761719 230.164062 17.199219 C 231.773438 15.636719 233.730469 14.855469 236.039062 14.855469 C 237.226562 14.855469 238.347656 15.101562 239.394531 15.589844 C 240.46875 16.078125 241.261719 16.765625 241.773438 17.652344 L 241.773438 15.207031 L 244.921875 15.207031 L 244.921875 31.535156 Z M 241.738281 23.316406 C 241.738281 21.664062 241.191406 20.355469 240.09375 19.402344 C 239 18.445312 237.742188 17.96875 236.320312 17.96875 C 234.804688 17.96875 233.53125 18.46875 232.507812 19.472656 C 231.503906 20.449219 231.003906 21.730469 231.003906 23.316406 C 231.003906 24.902344 231.515625 26.207031 232.542969 27.234375 C 233.566406 28.257812 234.828125 28.773438 236.320312 28.773438 C 237.832031 28.773438 239.117188 28.28125 240.164062 27.304688 C 241.214844 26.324219 241.738281 24.996094 241.738281 23.316406 Z M 248.847656 6.324219 L 252.027344 6.324219 L 252.027344 31.535156 L 248.847656 31.535156 Z M 248.847656 6.324219 "/>
<path fill-rule="nonzero" fill="rgb(25.882353%, 56.078431%, 93.72549%)" fill-opacity="1" d="M 86.738281 48.78125 C 85.882812 48.550781 85.253906 48.207031 84.84375 47.746094 C 84.4375 47.289062 84.273438 46.664062 84.347656 45.875 C 84.410156 45.222656 84.742188 44.683594 85.34375 44.25 C 85.941406 43.816406 86.640625 43.597656 87.445312 43.597656 C 88.273438 43.597656 88.976562 43.808594 89.546875 44.230469 C 90.132812 44.636719 90.464844 45.269531 90.542969 46.121094 L 88.878906 46.121094 C 88.828125 45.804688 88.667969 45.554688 88.402344 45.378906 C 88.148438 45.199219 87.839844 45.109375 87.484375 45.109375 C 87.152344 45.109375 86.859375 45.1875 86.605469 45.339844 C 86.363281 45.480469 86.210938 45.671875 86.144531 45.914062 C 86.070312 46.191406 86.074219 46.429688 86.164062 46.621094 C 86.304688 46.914062 86.65625 47.140625 87.214844 47.308594 L 88.535156 47.632812 C 90.078125 48.015625 90.847656 48.882812 90.847656 50.234375 C 90.847656 51.035156 90.511719 51.6875 89.835938 52.183594 C 89.171875 52.667969 88.355469 52.910156 87.386719 52.910156 C 86.535156 52.910156 85.769531 52.648438 85.09375 52.125 C 84.429688 51.601562 84.085938 50.910156 84.0625 50.042969 L 85.648438 50.042969 C 85.726562 50.511719 85.96875 50.851562 86.375 51.054688 C 86.769531 51.296875 87.242188 51.398438 87.789062 51.359375 C 88.199219 51.335938 88.523438 51.214844 88.765625 50.996094 C 89.007812 50.78125 89.132812 50.511719 89.148438 50.195312 C 89.160156 49.890625 89.058594 49.648438 88.839844 49.46875 C 88.625 49.289062 88.332031 49.15625 87.960938 49.066406 Z M 99.726562 51.609375 C 98.824219 52.476562 97.71875 52.910156 96.421875 52.910156 C 95.121094 52.910156 94.019531 52.476562 93.113281 51.609375 C 92.207031 50.742188 91.753906 49.613281 91.753906 48.226562 C 91.753906 46.847656 92.203125 45.734375 93.09375 44.878906 C 94 44.027344 95.109375 43.597656 96.421875 43.597656 C 97.734375 43.597656 98.84375 44.027344 99.746094 44.878906 C 100.652344 45.734375 101.105469 46.847656 101.105469 48.226562 C 101.105469 49.601562 100.644531 50.730469 99.726562 51.609375 Z M 94.316406 50.40625 C 94.890625 50.953125 95.59375 51.226562 96.421875 51.226562 C 97.25 51.226562 97.941406 50.953125 98.503906 50.40625 C 99.078125 49.84375 99.363281 49.117188 99.363281 48.226562 C 99.363281 47.347656 99.078125 46.640625 98.503906 46.105469 C 97.941406 45.570312 97.25 45.300781 96.421875 45.300781 C 95.59375 45.300781 94.890625 45.570312 94.316406 46.105469 C 93.757812 46.640625 93.476562 47.347656 93.476562 48.226562 C 93.476562 49.117188 93.757812 49.84375 94.316406 50.40625 Z M 108.597656 49.46875 L 108.597656 52.71875 L 106.855469 52.71875 L 106.855469 43.789062 L 108.597656 43.789062 L 108.597656 45.796875 C 109.027344 44.332031 109.859375 43.597656 111.082031 43.597656 C 111.78125 43.597656 112.296875 43.714844 112.628906 43.945312 L 112.363281 45.570312 C 111.941406 45.363281 111.503906 45.261719 111.042969 45.261719 C 110.226562 45.261719 109.617188 45.652344 109.207031 46.429688 C 108.800781 47.195312 108.597656 48.207031 108.597656 49.46875 Z M 114.558594 47.558594 L 120.101562 47.558594 C 120 46.816406 119.699219 46.238281 119.203125 45.816406 C 118.71875 45.382812 118.113281 45.167969 117.386719 45.167969 C 116.632812 45.167969 115.996094 45.382812 115.476562 45.816406 C 114.964844 46.238281 114.660156 46.816406 114.558594 47.558594 Z M 121.820312 48.226562 C 121.820312 48.558594 121.816406 48.785156 121.804688 48.914062 L 114.558594 48.914062 C 114.660156 49.652344 114.972656 50.246094 115.492188 50.691406 C 116.03125 51.125 116.679688 51.34375 117.445312 51.34375 C 117.992188 51.34375 118.496094 51.222656 118.953125 50.980469 C 119.414062 50.738281 119.761719 50.398438 120.003906 49.964844 C 120.171875 50.03125 120.425781 50.132812 120.769531 50.273438 C 121.113281 50.398438 121.355469 50.488281 121.496094 50.539062 C 121.128906 51.304688 120.574219 51.890625 119.832031 52.296875 C 119.09375 52.707031 118.277344 52.910156 117.386719 52.910156 C 116.085938 52.910156 114.996094 52.476562 114.117188 51.609375 C 113.25 50.742188 112.816406 49.613281 112.816406 48.226562 C 112.816406 46.835938 113.25 45.722656 114.117188 44.878906 C 114.996094 44.027344 116.085938 43.597656 117.386719 43.597656 C 118.675781 43.597656 119.730469 44.027344 120.558594 44.878906 C 121.402344 45.722656 121.820312 46.835938 121.820312 48.226562 Z M 125.007812 47.902344 L 125.007812 52.71875 L 123.269531 52.71875 L 123.269531 43.789062 L 125.007812 43.789062 L 125.007812 45.128906 C 125.261719 44.632812 125.652344 44.253906 126.175781 44 C 126.710938 43.734375 127.25 43.597656 127.800781 43.597656 C 128.910156 43.597656 129.753906 43.945312 130.34375 44.632812 C 130.941406 45.320312 131.242188 46.296875 131.242188 47.558594 L 131.242188 52.71875 L 129.5 52.71875 L 129.5 47.671875 C 129.5 46.933594 129.324219 46.351562 128.964844 45.929688 C 128.621094 45.511719 128.144531 45.300781 127.53125 45.300781 C 126.832031 45.300781 126.230469 45.515625 125.734375 45.949219 C 125.25 46.371094 125.007812 47.019531 125.007812 47.902344 Z M 135.683594 43.789062 L 137.578125 43.789062 L 137.578125 45.261719 L 135.683594 45.261719 L 135.683594 52.71875 L 133.945312 52.71875 L 133.945312 45.261719 L 132.339844 45.261719 L 132.339844 43.789062 L 133.945312 43.789062 L 133.945312 40.425781 L 135.683594 40.425781 Z M 139.800781 47.558594 L 145.34375 47.558594 C 145.242188 46.816406 144.945312 46.238281 144.445312 45.816406 C 143.960938 45.382812 143.355469 45.167969 142.628906 45.167969 C 141.878906 45.167969 141.242188 45.382812 140.71875 45.816406 C 140.207031 46.238281 139.902344 46.816406 139.800781 47.558594 Z M 147.066406 48.226562 C 147.066406 48.558594 147.058594 48.785156 147.046875 48.914062 L 139.800781 48.914062 C 139.902344 49.652344 140.214844 50.246094 140.738281 50.691406 C 141.273438 51.125 141.921875 51.34375 142.6875 51.34375 C 143.234375 51.34375 143.738281 51.222656 144.199219 50.980469 C 144.65625 50.738281 145.007812 50.398438 145.25 49.964844 C 145.414062 50.03125 145.671875 50.132812 146.015625 50.273438 C 146.359375 50.398438 146.601562 50.488281 146.742188 50.539062 C 146.371094 51.304688 145.816406 51.890625 145.078125 52.296875 C 144.339844 52.707031 143.523438 52.910156 142.628906 52.910156 C 141.332031 52.910156 140.242188 52.476562 139.363281 51.609375 C 138.496094 50.742188 138.0625 49.613281 138.0625 48.226562 C 138.0625 46.835938 138.496094 45.722656 139.363281 44.878906 C 140.242188 44.027344 141.332031 43.597656 142.628906 43.597656 C 143.917969 43.597656 144.976562 44.027344 145.804688 44.878906 C 146.644531 45.722656 147.066406 46.835938 147.066406 48.226562 Z M 150.253906 49.46875 L 150.253906 52.71875 L 148.511719 52.71875 L 148.511719 43.789062 L 150.253906 43.789062 L 150.253906 45.796875 C 150.6875 44.332031 151.515625 43.597656 152.738281 43.597656 C 153.4375 43.597656 153.953125 43.714844 154.285156 43.945312 L 154.019531 45.570312 C 153.597656 45.363281 153.15625 45.261719 152.699219 45.261719 C 151.882812 45.261719 151.273438 45.652344 150.863281 46.429688 C 150.457031 47.195312 150.253906 48.207031 150.253906 49.46875 Z M 157.242188 48.78125 C 156.386719 48.550781 155.757812 48.207031 155.351562 47.746094 C 154.941406 47.289062 154.777344 46.664062 154.851562 45.875 C 154.917969 45.222656 155.246094 44.683594 155.847656 44.25 C 156.445312 43.816406 157.148438 43.597656 157.949219 43.597656 C 158.777344 43.597656 159.480469 43.808594 160.050781 44.230469 C 160.640625 44.636719 160.96875 45.269531 161.046875 46.121094 L 159.382812 46.121094 C 159.332031 45.804688 159.171875 45.554688 158.90625 45.378906 C 158.648438 45.199219 158.34375 45.109375 157.988281 45.109375 C 157.65625 45.109375 157.363281 45.1875 157.109375 45.339844 C 156.867188 45.480469 156.714844 45.671875 156.648438 45.914062 C 156.574219 46.191406 156.578125 46.429688 156.667969 46.621094 C 156.808594 46.914062 157.160156 47.140625 157.71875 47.308594 L 159.039062 47.632812 C 160.582031 48.015625 161.351562 48.882812 161.351562 50.234375 C 161.351562 51.035156 161.015625 51.6875 160.339844 52.183594 C 159.675781 52.667969 158.859375 52.910156 157.890625 52.910156 C 157.039062 52.910156 156.273438 52.648438 155.597656 52.125 C 154.933594 51.601562 154.589844 50.910156 154.566406 50.042969 L 156.152344 50.042969 C 156.230469 50.511719 156.472656 50.851562 156.878906 51.054688 C 157.273438 51.296875 157.746094 51.398438 158.292969 51.359375 C 158.703125 51.335938 159.027344 51.214844 159.269531 50.996094 C 159.511719 50.78125 159.636719 50.511719 159.652344 50.195312 C 159.664062 49.890625 159.5625 49.648438 159.34375 49.46875 C 159.128906 49.289062 158.835938 49.15625 158.464844 49.066406 Z M 169.238281 43.789062 L 171.132812 43.789062 L 171.132812 45.261719 L 169.238281 45.261719 L 169.238281 52.71875 L 167.5 52.71875 L 167.5 45.261719 L 165.894531 45.261719 L 165.894531 43.789062 L 167.5 43.789062 L 167.5 40.425781 L 169.238281 40.425781 Z M 174.078125 47.902344 L 174.078125 52.71875 L 172.339844 52.71875 L 172.339844 38.933594 L 174.078125 38.933594 L 174.078125 45.128906 C 174.320312 44.632812 174.726562 44.253906 175.300781 44 C 175.886719 43.734375 176.460938 43.597656 177.023438 43.597656 C 178.144531 43.597656 179.03125 43.949219 179.679688 44.652344 C 180.328125 45.339844 180.648438 46.308594 180.636719 47.558594 L 180.636719 52.71875 L 178.894531 52.71875 L 178.894531 47.671875 C 178.894531 46.945312 178.699219 46.371094 178.304688 45.949219 C 177.921875 45.515625 177.417969 45.300781 176.792969 45.300781 C 176.078125 45.300781 175.449219 45.515625 174.898438 45.949219 C 174.351562 46.371094 174.078125 47.019531 174.078125 47.902344 Z M 184.402344 49.46875 L 184.402344 52.71875 L 182.664062 52.71875 L 182.664062 43.789062 L 184.402344 43.789062 L 184.402344 45.796875 C 184.835938 44.332031 185.664062 43.597656 186.886719 43.597656 C 187.589844 43.597656 188.105469 43.714844 188.4375 43.945312 L 188.167969 45.570312 C 187.75 45.363281 187.308594 45.261719 186.851562 45.261719 C 186.035156 45.261719 185.421875 45.652344 185.015625 46.429688 C 184.605469 47.195312 184.402344 48.207031 184.402344 49.46875 Z M 191.160156 52.71875 L 189.441406 52.71875 L 189.441406 43.789062 L 191.160156 43.789062 Z M 189.097656 40.503906 C 189.097656 40.820312 189.210938 41.089844 189.441406 41.304688 C 189.683594 41.523438 189.96875 41.628906 190.300781 41.628906 C 190.632812 41.628906 190.914062 41.523438 191.144531 41.304688 C 191.386719 41.089844 191.503906 40.820312 191.503906 40.503906 C 191.503906 40.183594 191.386719 39.914062 191.144531 39.699219 C 190.914062 39.484375 190.632812 39.375 190.300781 39.375 C 189.96875 39.375 189.683594 39.484375 189.441406 39.699219 C 189.210938 39.914062 189.097656 40.183594 189.097656 40.503906 Z M 192.179688 43.789062 L 194.015625 43.789062 L 196.730469 50.5 L 199.425781 43.789062 L 201.277344 43.789062 L 197.550781 52.71875 L 197.570312 52.71875 L 195.886719 52.71875 Z M 203.230469 47.558594 L 208.773438 47.558594 C 208.671875 46.816406 208.371094 46.238281 207.875 45.816406 C 207.390625 45.382812 206.785156 45.167969 206.058594 45.167969 C 205.304688 45.167969 204.667969 45.382812 204.148438 45.816406 C 203.636719 46.238281 203.332031 46.816406 203.230469 47.558594 Z M 210.492188 48.226562 C 210.492188 48.558594 210.488281 48.785156 210.476562 48.914062 L 203.230469 48.914062 C 203.332031 49.652344 203.644531 50.246094 204.164062 50.691406 C 204.703125 51.125 205.351562 51.34375 206.117188 51.34375 C 206.664062 51.34375 207.167969 51.222656 207.625 50.980469 C 208.085938 50.738281 208.4375 50.398438 208.675781 49.964844 C 208.84375 50.03125 209.097656 50.132812 209.441406 50.273438 C 209.785156 50.398438 210.027344 50.488281 210.167969 50.539062 C 209.800781 51.304688 209.246094 51.890625 208.503906 52.296875 C 207.765625 52.707031 206.949219 52.910156 206.058594 52.910156 C 204.757812 52.910156 203.667969 52.476562 202.789062 51.609375 C 201.921875 50.742188 201.488281 49.613281 201.488281 48.226562 C 201.488281 46.835938 201.921875 45.722656 202.789062 44.878906 C 203.667969 44.027344 204.757812 43.597656 206.058594 43.597656 C 207.347656 43.597656 208.402344 44.027344 209.230469 44.878906 C 210.074219 45.722656 210.492188 46.835938 210.492188 48.226562 Z M 210.492188 48.226562 "/>
</svg>
