<?xml version="1.0" encoding="UTF-8"?>
<svg xmlns="http://www.w3.org/2000/svg" xmlns:xlink="http://www.w3.org/1999/xlink" width="39.979573" height="33" viewBox="0 0 39.979573 33">
<path fill-rule="nonzero" fill="rgb(25.882353%, 56.078431%, 93.72549%)" fill-opacity="1" d="M 27.203125 0 L 16.15625 0 C 14.066406 0 12.183594 1.253906 11.375 3.175781 L 0.183594 29.792969 C -0.457031 31.316406 0.660156 33 2.3125 33 L 12.773438 33 C 13.347656 33 13.867188 32.652344 14.085938 32.121094 Z M 27.203125 0 "/>
<path fill-rule="nonzero" fill="rgb(76.470588%, 85.882353%, 98.039216%)" fill-opacity="1" d="M 27.203125 0 L 39.796875 29.832031 C 40.433594 31.335938 39.328125 33 37.695312 33 L 26.917969 33 C 26.453125 33 26.039062 32.714844 25.867188 32.285156 L 20.058594 17.496094 Z M 27.203125 0 "/>
<path fill-rule="nonzero" fill="rgb(60%, 76.078431%, 96.862745%)" fill-opacity="1" d="M 27.203125 0 L 21.539062 21.265625 L 20.058594 17.496094 Z M 27.203125 0 "/>
</svg>
