<svg width="80" height="33" viewBox="0 0 80 33" fill="none" xmlns="http://www.w3.org/2000/svg">
<g clip-path="url(#clip0)">
<path d="M49.6445 6.85547L45.3853 16.4148H47.0519L48.1482 13.9126H52.5186L53.6297 16.4148H55.3038L51.0445 6.85547H49.6445ZM48.763 12.5055L50.3334 8.96608L51.9038 12.5055H48.763Z" fill="white"/>
<path d="M60.8223 16.4144H62.3334V12.3891C62.3334 10.6556 61.2889 9.5459 59.6371 9.5459C58.8297 9.5459 58.0815 9.82876 57.6149 10.3945V9.6837H56.1038V16.4144H57.6149V11.9611C57.9038 11.3446 58.4963 10.8949 59.3038 10.8949C60.2667 10.8949 60.8149 11.5695 60.8149 12.6284V16.4144H60.8223Z" fill="white"/>
<path d="M65.2369 9.68408H63.7258V16.4148H65.2369V9.68408Z" fill="white"/>
<path d="M64.4814 6.50732C63.9333 6.50732 63.4814 6.94975 63.4814 7.48647C63.4814 8.0377 63.9333 8.48013 64.4814 8.48013C65.0444 8.48013 65.4963 8.0377 65.4963 7.48647C65.4963 6.94975 65.0444 6.50732 64.4814 6.50732Z" fill="white"/>
<path d="M72.7704 9.68392H70.8592L68.2296 12.237V6.58691H66.7185V16.4147H68.2296V13.1508L71.5185 16.4147H73.4518L69.7037 12.6794L72.7704 9.68392Z" fill="white"/>
<path d="M78.4888 9.6837V10.3002C78.0074 9.81426 77.2962 9.5459 76.4814 9.5459C74.4444 9.5459 73.0592 11.1488 73.0592 13.0491C73.0592 14.9493 74.4444 16.5522 76.4814 16.5522C77.2962 16.5522 78.0074 16.2839 78.4888 15.7834V16.4144H79.9999V9.6837H78.4888ZM78.4888 14.2603C78.1333 14.797 77.5407 15.2032 76.6592 15.2032C75.4518 15.2032 74.6074 14.2313 74.6074 13.0491C74.6074 11.8668 75.4444 10.8949 76.6592 10.8949C77.5407 10.8949 78.1333 11.3011 78.4888 11.8233V14.2603Z" fill="white"/>
<path d="M46.3408 19.9106H45.6445V26.286H49.5927V25.6405H46.3408V19.9106Z" fill="white"/>
<path d="M52.126 21.7095C50.6889 21.7095 49.8223 22.7394 49.8223 24.0449C49.8223 25.3795 50.7778 26.3804 52.0963 26.3804C53.2667 26.3804 53.963 25.7131 54.1852 24.9515H53.526C53.2149 25.568 52.7037 25.7929 52.0963 25.7929C51.2593 25.7929 50.5037 25.1474 50.4815 24.219H54.2593C54.3778 22.928 53.5852 21.7095 52.126 21.7095ZM50.5186 23.675C50.6815 22.6596 51.4149 22.2897 52.0963 22.2897C52.8593 22.2897 53.4519 22.7684 53.6 23.675H50.5186Z" fill="white"/>
<path d="M58.6668 22.5508C58.3335 22.0649 57.6964 21.7095 56.9927 21.7095C55.689 21.7095 54.7261 22.7176 54.7261 23.9942C54.7261 25.2779 55.689 26.2861 56.9927 26.2861C57.6964 26.2861 58.3409 25.9307 58.6668 25.4447V25.9742C58.6668 27.0767 58.0002 27.6787 57.089 27.6787C56.2816 27.6787 55.7113 27.374 55.4964 26.743H54.8668C55.0224 27.6279 55.8742 28.2516 57.0816 28.2516C58.3483 28.2516 59.3113 27.4683 59.3113 26.0105V21.8038H58.6668V22.5508ZM57.052 25.6986C56.052 25.6986 55.3853 24.966 55.3853 23.9942C55.3853 23.0223 56.052 22.2897 57.052 22.2897C58.052 22.2897 58.7187 23.0223 58.7187 23.9942C58.7187 24.966 58.052 25.6986 57.052 25.6986Z" fill="white"/>
<path d="M64.1113 22.5508C63.778 22.0649 63.1187 21.7095 62.415 21.7095C61.1113 21.7095 60.1335 22.7612 60.1335 24.0449C60.1335 25.3287 61.1113 26.3804 62.415 26.3804C63.1187 26.3804 63.778 26.025 64.1113 25.539V26.2933H64.7558V21.8038H64.1113V22.5508ZM62.4817 25.7929C61.4817 25.7929 60.7928 25.0096 60.7928 24.0449C60.7928 23.073 61.4817 22.297 62.4817 22.297C63.4817 22.297 64.1706 23.0803 64.1706 24.0449C64.1632 25.0096 63.4817 25.7929 62.4817 25.7929Z" fill="white"/>
<path d="M66.4223 19.5552H65.7778V26.2859H66.4223V19.5552Z" fill="white"/>
<path d="M37.3852 32.5742H27.2741C26.5482 32.5742 25.8741 32.0883 25.5482 31.3195L21.1482 20.9913L26.8741 0.574219L39.1112 29.2886C39.7556 30.7972 38.8223 32.5742 37.3852 32.5742Z" fill="#BBCDE5"/>
<path d="M26.8745 0.574219L19.6597 17.5026L18.8079 19.5044L13.7708 31.3195C13.4449 32.0883 12.7708 32.5742 12.0449 32.5742H1.9338C0.496765 32.5742 -0.429161 30.7972 0.207876 29.2886L10.7782 4.48356C11.2523 3.37386 12.0153 2.45273 12.9634 1.78546C14.0523 1.01665 15.3782 0.574219 16.7782 0.574219H26.8745Z" fill="#0075C4"/>
<path d="M26.8742 0.574219L21.1483 20.9985L19.6594 17.5026L26.8742 0.574219Z" fill="#A6BFDF"/>
</g>
<defs>
<clipPath id="clip0">
<rect width="80" height="32" fill="white" transform="translate(0 0.574219)"/>
</clipPath>
</defs>
</svg>
