<?xml version="1.0" encoding="UTF-8"?>
<svg xmlns="http://www.w3.org/2000/svg" xmlns:xlink="http://www.w3.org/1999/xlink" width="76" height="63" viewBox="0 0 76 63">
<path fill-rule="nonzero" fill="rgb(25.882353%, 56.078431%, 93.72549%)" fill-opacity="1" d="M 51.710938 0 L 30.710938 0 C 26.742188 0 23.160156 2.390625 21.621094 6.066406 L 0.347656 56.875 C -0.871094 59.785156 1.257812 63 4.398438 63 L 24.28125 63 C 25.378906 63 26.363281 62.335938 26.777344 61.320312 Z M 51.710938 0 "/>
<path fill-rule="nonzero" fill="rgb(76.470588%, 85.882353%, 98.039216%)" fill-opacity="1" d="M 51.710938 0 L 75.652344 56.949219 C 76.859375 59.820312 74.761719 63 71.660156 63 L 51.167969 63 C 50.289062 63 49.496094 62.457031 49.175781 61.636719 L 38.128906 33.398438 Z M 51.710938 0 "/>
<path fill-rule="nonzero" fill="rgb(60%, 76.078431%, 96.862745%)" fill-opacity="1" d="M 51.710938 0 L 40.949219 40.601562 L 38.128906 33.398438 Z M 51.710938 0 "/>
</svg>
