<svg width="610" height="365" viewBox="0 0 610 365" fill="none" xmlns="http://www.w3.org/2000/svg">
<path opacity="0.1" d="M602.861 338.645C600.5 345.052 597.591 351.198 594.177 357.003C592.575 359.771 590.818 362.427 588.916 364.955C588.899 364.98 588.879 365.003 588.857 365.024H0.68689L0.766275 364.955C1.29552 364.501 4.40216 361.738 9.23412 357.003C12.7006 353.611 17.051 349.203 21.9359 343.898C61.8882 300.707 138.633 198.477 74.717 104.826C15.2993 17.7655 79.2737 1.96699 121.475 0.123057C137.69 -0.57508 153.866 2.33127 169.033 8.66797C188.53 16.8115 224.164 29.2944 270.589 35.0183C272.114 35.2044 273.648 35.3905 275.203 35.5591C299.782 38.3097 324.527 38.804 349.181 37.0366C349.906 36.9902 350.636 36.9319 351.372 36.8737C375.76 34.9916 399.964 30.8764 423.73 24.5711C425.27 24.1581 426.788 23.7684 428.302 23.3787C507.492 3.24088 580.496 71.8736 562.243 149.435C555.494 178.123 557.209 208.703 579.707 233.442C616.542 273.823 612.081 313.592 602.861 338.645Z" fill="#014FE7"/>
<path d="M602.86 338.645C600.498 345.051 597.589 351.197 594.175 357.002C592.573 359.77 590.816 362.426 588.915 364.954H0.764404C1.29364 364.5 4.40028 361.737 9.23225 357.002C12.6988 353.612 17.0492 349.201 21.934 343.897L83.9238 329.82C84.7248 329.639 85.5406 329.547 86.3583 329.547L152.445 329.442H152.513L185.247 329.396H185.322L212.947 329.36H231.032H249.554L325.458 329.244H325.58H331.46H341.791H354.689H358.118L371.153 329.081H375.462L413.376 329.024H425.484H431.307L475.102 328.959H488.141L529.624 328.896L564.638 328.849C565.613 328.849 566.585 328.977 567.533 329.227L602.86 338.645Z" fill="#454B69"/>
<path opacity="0.4" d="M9.23225 357.002H594.175C592.573 359.77 590.816 362.426 588.915 364.954H0.764404C1.28306 364.471 4.3897 361.708 9.23225 357.002Z" fill="black"/>
<path d="M388.735 176.099L387.56 176.349L334.446 187.563C319.019 190.821 303.369 194.096 287.699 192.845C276.346 191.937 265.74 188.239 254.833 184.993C248.667 183.155 242.13 182.422 240.04 174.837C237.155 164.366 241.85 148.864 242.956 138.254C244.015 127.842 244.639 117.168 242.755 106.878C242.336 104.566 241.785 102.285 241.104 100.049C239.215 93.8894 236.246 87.4852 237.849 81.2321C239.114 76.2703 242.972 72.7279 246.582 69.4472C253.653 63.0487 260.871 55.8765 263.677 46.2845C265.052 41.6311 265.312 36.6229 266.793 32.0043C269.604 23.2209 276.664 16.6536 284.517 13.1752C292.371 9.69674 301.009 8.95801 309.482 8.95801C316.964 8.95846 324.436 9.5045 331.852 10.5925C339.939 11.7559 348.1 13.6696 355.208 18.0788C362.315 22.4879 368.307 29.7125 369.964 38.5191C372.307 50.973 365.798 64.2353 369.292 76.3285C371.048 82.442 375.113 87.3805 377.933 92.9763C380.233 97.6571 381.654 102.799 382.109 108.095C382.562 113.392 382.043 118.734 380.58 123.805C377.204 135.305 368.936 146.939 373.17 158.09C375.864 165.181 382.745 168.968 387.54 174.586C387.967 175.09 388.365 175.595 388.735 176.099Z" fill="#454B69"/>
<path opacity="0.1" d="M387.562 174.633V176.349L334.448 187.563C319.02 190.821 303.371 194.096 287.7 192.845C276.348 191.937 265.742 188.239 254.834 184.993C248.668 183.155 242.133 182.422 240.042 174.837C237.158 164.366 241.851 148.864 242.957 138.254C244.016 127.842 260.312 89.8293 258.427 79.5393L355.807 84.1928C356.464 89.8757 382.201 118.402 380.597 123.852C377.22 135.352 368.954 146.985 373.188 158.136C375.888 165.227 382.767 169.013 387.562 174.633Z" fill="black"/>
<path d="M288.064 145.851C288.641 149.452 288.949 153.413 287.276 156.554C285.049 160.766 280.189 162.108 275.845 163.063L260.761 166.378C259.735 166.606 258.644 166.861 257.876 167.635C256.972 168.525 256.664 169.933 256.532 171.259C255.924 177.262 257.855 183.177 259.618 188.895C263.179 200.477 266.17 212.302 270.674 223.477C275.177 234.651 281.36 245.319 290.181 252.788C299.004 260.256 310.679 264.235 321.481 261.315C330.891 258.773 338.608 251.473 345.26 243.731C350.747 237.332 355.881 230.351 358.544 222.051C360.379 216.352 360.978 210.278 361.555 204.263C362.447 195.041 363.34 185.82 364.233 176.598C364.651 172.271 364.926 167.402 362.37 164.081C361.248 162.621 359.724 161.65 358.167 160.748C352.378 157.368 346.281 154.576 340.894 150.504C335.505 146.433 330.727 140.825 329.091 133.868C328.113 129.692 328.287 125.143 326.619 121.252C324.756 116.889 320.798 113.934 316.564 112.637C312.33 111.34 307.863 111.514 303.502 112.055C299.142 112.596 282.332 113.981 280.528 119.384C279.56 122.293 283.577 128.534 284.529 131.396C286.097 136.089 287.281 140.927 288.064 145.851Z" fill="#EFB7B9"/>
<path opacity="0.1" d="M288.064 145.851C288.641 149.452 288.949 153.413 287.276 156.554C285.049 160.766 280.189 162.108 275.845 163.063L260.761 166.378C259.735 166.606 258.644 166.861 257.876 167.635C256.972 168.525 256.664 169.933 256.532 171.259C255.924 177.262 257.855 183.177 259.618 188.895C263.179 200.477 266.17 212.302 270.674 223.477C275.177 234.651 281.36 245.319 290.181 252.788C299.004 260.256 310.679 264.235 321.481 261.315C330.891 258.773 338.608 251.473 345.26 243.731C350.747 237.332 355.881 230.351 358.544 222.051C360.379 216.352 360.978 210.278 361.555 204.263C362.447 195.041 363.34 185.82 364.233 176.598C364.651 172.271 364.926 167.402 362.37 164.081C361.248 162.621 359.724 161.65 358.167 160.748C352.378 157.368 346.281 154.576 340.894 150.504C335.505 146.433 330.727 140.825 329.091 133.868C328.113 129.692 328.287 125.143 326.619 121.252C324.756 116.889 320.798 113.934 316.564 112.637C312.33 111.34 307.863 111.514 303.502 112.055C299.142 112.596 282.332 113.981 280.528 119.384C279.56 122.293 283.577 128.534 284.529 131.396C286.097 136.089 287.281 140.927 288.064 145.851Z" fill="black"/>
<path d="M324.366 209.103L333.21 188.524C337.353 178.879 341.588 168.746 341.148 158.096C341.063 155.979 341.042 153.332 342.736 152.372C343.471 152.042 344.272 151.929 345.059 152.047C354.369 152.57 363.557 154.612 372.32 158.107C374.019 158.783 375.76 159.561 376.951 161.051C378.142 162.54 378.623 164.541 379.031 166.46C380.419 172.951 381.431 179.53 382.063 186.162C383.651 202.577 382.863 219.137 382.063 235.605L379.714 285.88C379.726 286.593 379.594 287.3 379.327 287.95C378.745 289.113 377.432 289.504 376.252 289.724C371.706 290.579 367.059 290.406 362.455 290.213C330.065 288.864 297.507 286.794 265.329 291.109C265.474 285.878 265.398 280.643 265.101 275.403C263.826 252.782 258.492 230.713 253.252 208.795C250.197 195.998 247.24 182.039 252.157 169.98C252.879 168.075 253.918 166.336 255.22 164.849C257.311 162.598 260.164 161.411 262.99 160.562C267.864 159.104 272.913 158.476 277.962 158.701L311.331 238.549C312.854 242.202 314.109 246.046 315.628 249.653C316.994 243.423 315.352 236.123 316.994 229.369C318.761 222.36 321.544 215.653 324.366 209.103Z" fill="white"/>
<path d="M320.878 264.043C326.847 264.456 332.648 261.094 336.754 256.342C340.862 251.589 343.571 245.564 345.863 239.473C349.158 230.792 351.776 221.819 353.69 212.652C355.278 204.857 356.405 196.789 355.31 188.889C353.796 177.983 348.181 168.072 347.223 157.089C347.058 155.17 347.164 152.925 348.567 151.766C349.435 151.051 350.578 150.953 351.658 150.882C361.639 150.231 372.606 150.353 380.338 157.317C382.693 159.433 384.604 162.08 386.905 164.261C392.388 169.496 400.137 172.161 403.656 179.111C404.883 181.532 405.471 184.271 406.329 186.877C408.35 193.043 411.849 198.465 415.326 203.798C411.955 219.434 408.08 235.081 404.709 250.717C402.735 259.891 400.745 269.099 397.644 277.881C395.611 283.64 393.056 289.514 393.679 295.68C393.928 298.107 394.664 300.427 395.305 302.766C397.55 310.973 398.602 319.518 398.422 328.087L247.409 328.494C254.643 317.093 256.765 303.108 256.03 289.235C255.675 282.587 254.309 275.898 251.266 270.145C246.472 261.129 238.036 255.254 229.721 250.223C223.9 246.733 217.649 266.37 211.357 264.118C212.372 256.22 212.838 225.728 212.415 217.777C212.277 215.171 212.066 212.495 212.797 210.005C213.294 208.3 214.209 206.777 214.828 205.12C217.311 198.482 214.945 189.995 218.957 184.346C221.729 180.42 226.593 179.304 230.547 176.883C234.605 174.395 237.745 170.485 241.28 167.146C248.216 160.672 256.693 156.513 265.71 155.158C268.339 159.718 269.939 164.903 270.371 170.282C270.642 173.662 270.446 177.087 270.874 180.45C271.462 185.004 273.177 189.28 274.876 193.491C281.952 211.052 289.055 228.665 298.019 245.156C300.554 249.809 303.311 254.462 306.985 258.087C310.658 261.711 315.946 264.299 320.878 264.043Z" fill="#138799"/>
<path opacity="0.1" d="M320.878 264.043C326.847 264.456 332.648 261.094 336.754 256.342C340.862 251.589 343.571 245.564 345.863 239.473C349.158 230.792 351.776 221.819 353.69 212.652C355.278 204.857 356.405 196.789 355.31 188.889C353.796 177.983 348.181 168.072 347.223 157.089C347.058 155.17 347.164 152.925 348.567 151.766C349.435 151.051 350.578 150.953 351.658 150.882C361.639 150.231 372.606 150.353 380.338 157.317C382.693 159.433 384.604 162.08 386.905 164.261C392.388 169.496 400.137 172.161 403.656 179.111C404.883 181.532 405.471 184.271 406.329 186.877C408.35 193.043 411.849 198.465 415.326 203.798C411.955 219.434 408.08 235.081 404.709 250.717C402.735 259.891 400.745 269.099 397.644 277.881C395.611 283.64 393.056 289.514 393.679 295.68C393.928 298.107 394.664 300.427 395.305 302.766C397.55 310.973 398.602 319.518 398.422 328.087L247.409 328.494C254.643 317.093 256.765 303.108 256.03 289.235C255.675 282.587 254.309 275.898 251.266 270.145C246.472 261.129 238.036 255.254 229.721 250.223C223.9 246.733 217.649 266.37 211.357 264.118C212.372 256.22 212.838 225.728 212.415 217.777C212.277 215.171 212.066 212.495 212.797 210.005C213.294 208.3 214.209 206.777 214.828 205.12C217.311 198.482 214.945 189.995 218.957 184.346C221.729 180.42 226.593 179.304 230.547 176.883C234.605 174.395 237.745 170.485 241.28 167.146C248.216 160.672 256.693 156.513 265.71 155.158C268.339 159.718 269.939 164.903 270.371 170.282C270.642 173.662 270.446 177.087 270.874 180.45C271.462 185.004 273.177 189.28 274.876 193.491C281.952 211.052 289.055 228.665 298.019 245.156C300.554 249.809 303.311 254.462 306.985 258.087C310.658 261.711 315.946 264.299 320.878 264.043Z" fill="black"/>
<path d="M312.89 144.531C337.945 144.531 358.257 122.207 358.257 94.6691C358.257 67.1312 337.945 44.8074 312.89 44.8074C287.836 44.8074 267.525 67.1312 267.525 94.6691C267.525 122.207 287.836 144.531 312.89 144.531Z" fill="#EFB7B9"/>
<path d="M289.086 161.115C290.33 148.213 285.45 135.591 279.924 124.126C277.278 118.646 274.442 113.184 273.114 107.164C271.785 101.143 272.166 94.326 275.563 89.3759C278.454 85.1645 283.037 82.8901 287.276 80.418C299.242 73.4378 310.181 63.1769 315.441 49.455C312.467 51.2349 313.24 56.5457 315.866 58.89C318.49 61.2341 322.068 61.6878 325.296 62.8047C337.066 66.8764 344.127 79.7781 349.79 91.8306C350.716 93.7966 351.658 95.8734 351.647 98.0895C351.636 100.306 350.716 102.272 349.753 104.156C346.958 109.624 343.54 114.877 342.269 120.99C340.814 127.971 342.349 135.311 344.344 142.158C346.461 149.44 349.27 156.781 354.352 162.004C359.433 167.228 367.313 169.823 373.563 166.449C367.323 154.658 360.862 141.483 363.296 128.116C364.471 121.717 367.631 115.901 368.974 109.537C371.537 97.3973 367.271 84.9086 363.085 73.3215L350.573 38.7405C348.662 33.4529 346.487 27.8107 342.106 24.815C339.141 22.7965 335.554 22.2729 332.082 21.9066C320.904 20.8129 309.324 21.1736 298.919 25.7457C279.961 34.0695 268.074 54.5913 258.644 74.4964C255.818 80.4588 253.029 86.7932 253.144 93.5175C253.209 97.2053 254.146 100.794 254.907 104.389C258.009 119.024 258.178 134.189 258.336 149.214C258.459 160.742 257.913 171.609 253.324 182.108C259.613 183.481 268.731 187.186 274.955 184.475C283.069 180.95 288.064 170.09 289.086 161.115Z" fill="#454B69"/>
<g opacity="0.1">
<path opacity="0.1" d="M258.312 148.969C258.332 147.329 258.332 145.673 258.312 144.002C258.152 128.977 257.983 113.812 254.882 99.177C254.189 96.3291 253.649 93.4389 253.263 90.5215C253.154 91.5233 253.106 92.5318 253.12 93.5404C253.183 97.2283 254.12 100.817 254.882 104.412C257.968 118.96 258.158 134.031 258.312 148.969Z" fill="black"/>
<path opacity="0.1" d="M368.976 109.537C369.671 106.138 369.902 102.645 369.664 99.1711C369.56 100.899 369.33 102.615 368.976 104.302C367.631 110.7 364.472 116.465 363.298 122.881C362.791 125.71 362.648 128.604 362.873 131.478C362.958 130.349 363.1 129.227 363.298 128.116C364.472 121.7 367.631 115.912 368.976 109.537Z" fill="black"/>
<path opacity="0.1" d="M351.236 95.4192C351.495 94.5931 351.635 93.7275 351.65 92.854C351.65 90.6378 350.718 88.5612 349.792 86.5951C344.129 74.5427 337.09 61.6526 325.299 57.5691C322.07 56.4524 318.498 55.9985 315.867 53.6544C315.19 53.0137 314.636 52.2309 314.239 51.352C313.841 50.473 313.606 49.5154 313.55 48.5356C307.812 60.1111 297.957 68.9643 287.278 75.1825C283.044 77.6547 278.455 79.929 275.566 84.1403C272.851 88.0959 272.063 93.2438 272.534 98.2229C272.8 95.0273 273.849 91.9705 275.566 89.3755C278.455 85.1642 283.039 82.8898 287.278 80.4177C297.957 74.1995 307.812 65.3463 313.55 53.7708C313.606 54.7506 313.841 55.708 314.239 56.5871C314.636 57.4661 315.19 58.2489 315.867 58.8896C318.513 61.2162 322.07 61.6874 325.299 62.8043C337.069 66.8761 344.129 79.7778 349.792 91.8302C350.365 92.9789 350.849 94.1797 351.236 95.4192Z" fill="black"/>
<path opacity="0.1" d="M354.354 156.769C349.273 151.534 346.473 144.205 344.346 136.922C343.069 132.831 342.217 128.595 341.806 124.294C341.313 130.268 342.663 136.381 344.346 142.158C346.462 149.44 349.273 156.781 354.354 162.004C359.434 167.228 367.315 169.822 373.564 166.448C372.813 165.035 372.067 163.599 371.326 162.149C365.52 163.947 358.852 161.388 354.354 156.769Z" fill="black"/>
<path opacity="0.1" d="M289.087 155.879C288.065 164.855 283.07 175.714 274.935 179.263C269.288 181.723 261.248 178.897 255.114 177.331C254.586 178.965 253.983 180.567 253.305 182.131C259.591 183.503 268.711 187.209 274.935 184.499C283.07 180.95 288.065 170.09 289.087 161.114C289.297 158.869 289.336 156.608 289.202 154.356C289.171 154.861 289.124 155.374 289.087 155.879Z" fill="black"/>
</g>
<path d="M353.215 300.101C345.037 298.677 336.739 295.925 328.631 297.775C323.931 298.845 319.633 301.416 315.729 304.523C317.877 306.413 320.386 308.099 321.75 310.73C322.598 312.549 323.235 314.476 323.645 316.47C324.502 319.96 325.365 323.52 325.498 327.15C325.63 330.779 324.968 334.56 322.999 337.486C333.31 338.604 343.301 335.811 353.358 333.084C354.507 332.862 355.601 332.376 356.57 331.658C358.156 330.286 358.622 327.843 358.633 325.615C358.633 321.636 357.618 317.755 356.585 313.939C355.358 309.362 354.447 304.65 353.215 300.101Z" fill="white"/>
<path d="M408.425 201.99C412.485 202.571 415.634 206.172 417.952 209.871C424.456 220.168 427.261 232.65 430.384 244.708C434.265 259.704 438.828 274.464 444.075 288.985C445.204 292.339 446.578 295.588 448.181 298.7C449.489 301.103 451.077 303.412 451.653 306.14C453.05 312.736 448.103 318.936 442.942 322.613C440.192 324.651 437.189 326.241 434.025 327.336C430.944 328.348 427.732 328.732 424.541 329.115L395.162 332.606C381.64 334.224 367.996 335.841 354.469 334.281C353.617 331.023 355.289 328.72 355.167 325.33C355.083 322.904 354.109 320.647 353.241 318.413C351.64 314.436 350.584 310.218 350.103 305.902C349.949 304.314 349.897 302.685 349.346 301.207C348.795 299.73 347.615 298.403 346.171 298.299C354.109 297.431 360.138 295.786 368.076 294.913C371.024 294.587 374.088 294.22 376.602 292.499C379.72 290.365 381.466 286.513 382.852 282.779C386.287 273.53 388.499 263.34 386.695 253.544C385.212 245.511 381.08 238.03 381.1 229.834C381.1 224.955 382.614 220.225 384.403 215.757C386.298 211.035 388.769 206.207 392.929 203.81C397.089 201.414 403.731 201.292 408.425 201.99Z" fill="#138799"/>
<path opacity="0.08" d="M408.425 201.99C412.485 202.571 415.634 206.172 417.952 209.871C424.456 220.168 427.261 232.65 430.384 244.708C434.265 259.704 438.828 274.464 444.075 288.985C445.204 292.339 446.578 295.588 448.181 298.7C449.489 301.103 451.077 303.412 451.653 306.14C453.05 312.736 448.103 318.936 442.942 322.613C440.192 324.651 437.189 326.241 434.025 327.336C430.944 328.348 427.732 328.732 424.541 329.115L395.162 332.606C381.64 334.224 367.996 335.841 354.469 334.281C353.617 331.023 355.289 328.72 355.167 325.33C355.083 322.904 354.109 320.647 353.241 318.413C351.64 314.436 350.584 310.218 350.103 305.902C349.949 304.314 349.897 302.685 349.346 301.207C348.795 299.73 347.615 298.403 346.171 298.299C354.109 297.431 360.138 295.786 368.076 294.913C371.024 294.587 374.088 294.22 376.602 292.499C379.72 290.365 381.466 286.513 382.852 282.779C386.287 273.53 388.499 263.34 386.695 253.544C385.212 245.511 381.08 238.03 381.1 229.834C381.1 224.955 382.614 220.225 384.403 215.757C386.298 211.035 388.769 206.207 392.929 203.81C397.089 201.414 403.731 201.292 408.425 201.99Z" fill="black"/>
<path d="M224.454 194.433C226.376 189.418 228.328 184.242 228.382 178.803C228.439 172.923 226.265 167.339 224.602 161.754C222.547 154.921 221.179 147.863 220.522 140.703C220.386 140.017 220.479 139.3 220.787 138.685C221.227 138.004 222.073 137.865 222.819 137.684C226.482 136.765 229.249 133.514 231.536 130.239C235.082 125.181 238.077 119.683 240.458 113.859C242.21 109.572 244.581 104.342 248.858 104.302C247.136 113.189 245.001 121.974 242.464 130.623C246.936 129.366 251.187 127.54 255.659 126.283C256.534 125.979 257.45 125.846 258.368 125.888C261.046 126.196 262.686 130.181 261.131 132.595C263.317 135.41 266.952 136.166 269.81 138.097C272.669 140.029 274.721 144.81 272.181 147.236C271.683 147.707 271.054 148.038 270.694 148.643C269.466 150.726 272.472 153.116 272.223 155.582C272.023 157.602 269.667 158.543 267.883 158.009C266.1 157.473 264.708 156.007 263.12 154.93C261.533 153.855 259.459 153.185 257.919 154.303C257.505 159.777 257.061 165.356 254.907 170.34C254.119 172.161 253.107 173.865 252.473 175.755C251.865 177.817 251.488 179.951 251.35 182.114L249.429 201.42C240.263 203.438 232.043 200.418 224.454 194.433Z" fill="#EFB7B9"/>
<path d="M222.216 211.738L220.527 199.18C220.365 198.157 220.276 197.123 220.257 196.085C220.257 193.177 221.422 190.402 222.548 187.755C231.889 192.548 241.987 194.252 252.293 194.259C253.653 194.259 255.202 194.12 256.05 192.949C257.802 195.166 257.854 198.732 257.108 201.546C256.362 204.362 254.928 206.899 253.976 209.644C253.493 211.035 253.102 212.552 252.181 213.623C250.752 215.315 248.433 215.606 246.327 215.594C244.111 215.579 241.901 215.347 239.723 214.902C234.081 213.751 227.857 210.628 222.216 211.738Z" fill="white"/>
<path d="M257.056 211.226C249.806 210.319 242.603 209.04 235.448 207.388C231.939 206.58 228.398 205.678 224.821 205.834C222.492 205.938 219.989 206.451 217.94 205.183C219.935 212.646 220.057 220.51 217.67 227.834C216.257 232.196 214.103 236.262 213.066 240.752C210.906 250.147 213.871 260.39 211.171 269.616C210.885 270.821 210.325 271.927 209.54 272.827C208.715 273.658 207.588 274.089 206.826 274.991C205.705 276.317 205.636 278.313 205.63 280.121L205.582 296.146C205.551 306.35 205.672 317.168 210.574 325.812C216.161 335.701 227.927 340.826 238.168 337.818C240.891 337.053 243.441 335.681 245.662 333.787C249.218 330.681 251.483 326.191 253.701 321.815C256.347 316.58 258.993 311.229 259.845 305.338C260.448 301.166 260.11 296.908 259.676 292.715C257.284 269.447 252.092 246.378 253.209 223.023C253.375 218.754 254.717 214.641 257.056 211.226Z" fill="#138799"/>
<path d="M287.362 307.786C283.683 308.018 279.979 308.252 276.316 307.786C273.67 307.437 271.087 306.721 268.462 306.232C261.293 304.961 253.959 305.407 246.962 307.544C239.965 309.681 233.472 313.457 227.928 318.61C225.895 320.518 223.842 323.444 224.964 326.114C226.171 328.987 229.86 328.906 232.701 328.372C229.633 329.981 226.924 332.31 224.763 335.194C223.969 336.259 223.217 337.521 223.371 338.9C223.694 341.779 227.251 342.302 229.881 342.052C229.023 343.065 229.6 344.856 230.69 345.542C231.781 346.23 233.135 346.089 234.369 345.839C237.095 345.29 239.729 344.289 242.181 342.866C241.682 344.292 242.545 345.961 243.768 346.672C244.991 347.38 246.478 347.328 247.848 347.083C254.316 345.92 259.714 340.976 266.023 339.034C276.11 335.933 286.663 340.877 297.147 341.227C300.429 341.337 303.795 340.97 306.785 339.482C310.453 337.649 313.411 334.212 317.285 332.99C321.588 331.64 326.526 333.194 330.463 330.86C333.326 329.168 330.744 316.122 330.013 313.609C328.675 309.013 327.33 305.965 322.869 305.499C311.579 304.283 298.735 307.065 287.362 307.786Z" fill="#EFB7B9"/>
<path d="M315.521 304.226C315.521 304.226 332.611 320.123 322.75 337.47L341.803 330.239V315.063C341.803 314.342 334.568 303.505 334.568 303.505L326.022 302.056L315.521 304.226Z" fill="white"/>
<path d="M136.59 303.243H142.998C146.509 303.243 149.873 304.775 152.354 307.502C154.836 310.229 156.23 313.927 156.23 317.785V339.372H123.359V317.785C123.359 315.874 123.701 313.985 124.366 312.22C125.031 310.455 126.006 308.852 127.234 307.502C128.463 306.152 129.921 305.08 131.527 304.35C133.132 303.618 134.852 303.243 136.59 303.243Z" fill="#3F3D56"/>
<path opacity="0.1" d="M136.59 303.243H142.998C146.509 303.243 149.873 304.775 152.354 307.502C154.836 310.229 156.23 313.927 156.23 317.785V339.372H123.359V317.785C123.359 315.874 123.701 313.985 124.366 312.22C125.031 310.455 126.006 308.852 127.234 307.502C128.463 306.152 129.921 305.08 131.527 304.35C133.132 303.618 134.852 303.243 136.59 303.243Z" fill="black"/>
<path d="M138.48 311.188C139.933 311.188 141.111 309.894 141.111 308.298C141.111 306.701 139.933 305.407 138.48 305.407C137.027 305.407 135.85 306.701 135.85 308.298C135.85 309.894 137.027 311.188 138.48 311.188Z" fill="#3F3D56"/>
<path d="M138.48 307.576C139.933 307.576 141.111 306.282 141.111 304.685C141.111 303.089 139.933 301.795 138.48 301.795C137.027 301.795 135.85 303.089 135.85 304.685C135.85 306.282 137.027 307.576 138.48 307.576Z" fill="#3F3D56"/>
<path d="M138.48 303.964C139.933 303.964 141.111 302.67 141.111 301.072C141.111 299.477 139.933 298.183 138.48 298.183C137.027 298.183 135.85 299.477 135.85 301.072C135.85 302.67 137.027 303.964 138.48 303.964Z" fill="#3F3D56"/>
<path d="M138.48 300.352C139.933 300.352 141.111 299.057 141.111 297.462C141.111 295.864 139.933 294.57 138.48 294.57C137.027 294.57 135.85 295.864 135.85 297.462C135.85 299.057 137.027 300.352 138.48 300.352Z" fill="#3F3D56"/>
<path d="M138.48 296.739C139.933 296.739 141.111 295.445 141.111 293.849C141.111 292.252 139.933 290.958 138.48 290.958C137.027 290.958 135.85 292.252 135.85 293.849C135.85 295.445 137.027 296.739 138.48 296.739Z" fill="#3F3D56"/>
<path d="M138.48 293.127C139.933 293.127 141.111 291.833 141.111 290.237C141.111 288.64 139.933 287.346 138.48 287.346C137.027 287.346 135.85 288.64 135.85 290.237C135.85 291.833 137.027 293.127 138.48 293.127Z" fill="#3F3D56"/>
<path d="M138.48 289.51C139.933 289.51 141.111 288.214 141.111 286.619C141.111 285.021 139.933 283.727 138.48 283.727C137.027 283.727 135.85 285.021 135.85 286.619C135.85 288.214 137.027 289.51 138.48 289.51Z" fill="#3F3D56"/>
<path d="M142.427 290.958C143.88 290.958 145.058 289.664 145.058 288.067C145.058 286.471 143.88 285.175 142.427 285.175C140.975 285.175 139.797 286.471 139.797 288.067C139.797 289.664 140.975 290.958 142.427 290.958Z" fill="#3F3D56"/>
<path d="M145.056 289.51C146.51 289.51 147.687 288.214 147.687 286.619C147.687 285.021 146.51 283.727 145.056 283.727C143.604 283.727 142.427 285.021 142.427 286.619C142.427 288.214 143.604 289.51 145.056 289.51Z" fill="#3F3D56"/>
<path d="M147.69 288.067C149.142 288.067 150.32 286.772 150.32 285.175C150.32 283.579 149.142 282.285 147.69 282.285C146.237 282.285 145.059 283.579 145.059 285.175C145.059 286.772 146.237 288.067 147.69 288.067Z" fill="#3F3D56"/>
<path d="M138.48 285.896C139.933 285.896 141.111 284.602 141.111 283.006C141.111 281.409 139.933 280.115 138.48 280.115C137.027 280.115 135.85 281.409 135.85 283.006C135.85 284.602 137.027 285.896 138.48 285.896Z" fill="#3F3D56"/>
<path d="M138.48 282.285C139.933 282.285 141.111 280.991 141.111 279.394C141.111 277.797 139.933 276.503 138.48 276.503C137.027 276.503 135.85 277.797 135.85 279.394C135.85 280.991 137.027 282.285 138.48 282.285Z" fill="#3F3D56"/>
<path d="M138.48 278.673C139.933 278.673 141.111 277.379 141.111 275.782C141.111 274.184 139.933 272.89 138.48 272.89C137.027 272.89 135.85 274.184 135.85 275.782C135.85 277.379 137.027 278.673 138.48 278.673Z" fill="#3F3D56"/>
<path d="M138.48 275.061C139.933 275.061 141.111 273.765 141.111 272.169C141.111 270.572 139.933 269.278 138.48 269.278C137.027 269.278 135.85 270.572 135.85 272.169C135.85 273.765 137.027 275.061 138.48 275.061Z" fill="#3F3D56"/>
<path d="M149.405 262.845C148.748 262.949 148.093 263.025 147.436 263.072C148.046 262.486 148.612 261.848 149.13 261.164C148.764 259.949 148.229 258.805 147.542 257.773C146.889 258.176 146.169 258.425 145.425 258.506C144.773 258.61 144.118 258.686 143.461 258.738C144.324 257.965 145.128 256.802 145.975 255.83C144.078 253.939 141.648 252.824 139.091 252.669C136.534 252.514 134.006 253.33 131.932 254.978C129.857 256.628 128.361 259.011 127.694 261.728C127.027 264.446 127.23 267.331 128.269 269.904C129.308 272.476 131.12 274.578 133.401 275.857C135.682 277.136 138.293 277.515 140.797 276.93C143.302 276.344 145.548 274.83 147.158 272.642C148.769 270.455 149.645 267.725 149.642 264.91C149.642 264.201 149.586 263.495 149.473 262.799L149.405 262.845Z" fill="#138799"/>
<path d="M158.173 277.207C157.502 277.661 156.744 277.937 155.961 278.015C155.31 278.119 154.653 278.201 153.996 278.248C154.694 277.56 155.345 276.818 155.944 276.026C154.359 275.572 152.676 275.783 151.224 276.62C149.773 277.457 148.657 278.858 148.097 280.552C147.536 282.245 147.569 284.106 148.192 285.772C148.812 287.439 149.978 288.792 151.459 289.564C152.938 290.336 154.628 290.475 156.196 289.952C157.765 289.428 159.099 288.281 159.938 286.735C160.778 285.187 161.062 283.352 160.735 281.587C160.408 279.821 159.494 278.254 158.173 277.189V277.207Z" fill="#138799"/>
<path d="M134.536 290.958C135.988 290.958 137.166 289.664 137.166 288.067C137.166 286.471 135.988 285.175 134.536 285.175C133.083 285.175 131.905 286.471 131.905 288.067C131.905 289.664 133.083 290.958 134.536 290.958Z" fill="#3F3D56"/>
<path d="M131.906 289.51C133.359 289.51 134.536 288.214 134.536 286.619C134.536 285.021 133.359 283.727 131.906 283.727C130.453 283.727 129.276 285.021 129.276 286.619C129.276 288.214 130.453 289.51 131.906 289.51Z" fill="#3F3D56"/>
<path d="M129.276 288.067C130.729 288.067 131.907 286.772 131.907 285.175C131.907 283.579 130.729 282.285 129.276 282.285C127.824 282.285 126.646 283.579 126.646 285.175C126.646 286.772 127.824 288.067 129.276 288.067Z" fill="#3F3D56"/>
<path d="M118.792 277.207C119.463 277.661 120.22 277.937 121.005 278.015C121.656 278.119 122.312 278.201 122.968 278.248C122.269 277.561 121.618 276.819 121.02 276.026C122.606 275.572 124.289 275.783 125.741 276.62C127.192 277.457 128.307 278.858 128.868 280.552C129.428 282.245 129.395 284.106 128.773 285.772C128.152 287.439 126.987 288.792 125.507 289.564C124.026 290.336 122.337 290.475 120.769 289.952C119.2 289.428 117.866 288.281 117.027 286.735C116.187 285.187 115.903 283.352 116.23 281.587C116.556 279.821 117.47 278.254 118.792 277.189V277.207Z" fill="#138799"/>
<path d="M136.59 305.383H142.998C146.507 305.383 149.873 306.915 152.354 309.642C154.836 312.371 156.23 316.069 156.23 319.926V339.046C156.23 339.699 155.994 340.327 155.572 340.79C155.152 341.253 154.581 341.512 153.985 341.512H125.587C124.992 341.512 124.421 341.253 124 340.79C123.579 340.327 123.343 339.699 123.343 339.046V319.926C123.343 318.015 123.685 316.122 124.351 314.357C125.017 312.591 125.993 310.988 127.224 309.636C128.454 308.286 129.914 307.216 131.521 306.486C133.128 305.756 134.851 305.382 136.59 305.383Z" fill="#3F3D56"/>
<g opacity="0.1">
<path opacity="0.1" d="M149.585 263.636C149.318 263.948 149.035 264.244 148.738 264.52C149.039 264.52 149.336 264.468 149.638 264.434C149.627 264.165 149.611 263.898 149.585 263.636Z" fill="black"/>
<path opacity="0.1" d="M144.788 260.18C145.449 260.135 146.1 260.058 146.757 259.954C147.345 259.872 147.921 259.699 148.466 259.443C148.198 258.86 147.891 258.302 147.546 257.773C147.216 257.993 146.86 258.159 146.487 258.268C145.969 258.954 145.4 259.593 144.788 260.18Z" fill="black"/>
<path opacity="0.1" d="M128.62 266.387C128.616 264.182 129.154 262.016 130.175 260.118C131.197 258.221 132.666 256.661 134.427 255.603C136.187 254.545 138.175 254.03 140.18 254.109C142.185 254.189 144.134 254.862 145.82 256.057L145.991 255.859C144.889 254.782 143.606 253.956 142.212 253.428C140.821 252.898 139.346 252.678 137.876 252.778C136.405 252.879 134.968 253.298 133.645 254.011C132.322 254.725 131.142 255.719 130.17 256.937C129.199 258.155 128.456 259.571 127.986 261.106C127.515 262.64 127.325 264.262 127.427 265.877C127.529 267.492 127.92 269.07 128.579 270.518C129.238 271.966 130.152 273.257 131.266 274.316C129.555 272.103 128.617 269.292 128.62 266.387Z" fill="black"/>
</g>
<g opacity="0.1">
<path opacity="0.1" d="M153.998 279.691C154.654 279.644 155.31 279.569 155.961 279.463C156.745 279.384 157.502 279.104 158.173 278.649C158.916 279.251 159.536 280.017 159.992 280.899C160.448 281.782 160.73 282.759 160.819 283.768C160.845 283.515 160.857 283.261 160.856 283.006C160.861 281.877 160.624 280.761 160.165 279.752C159.705 278.741 159.036 277.863 158.21 277.189C157.539 277.643 156.782 277.919 155.998 277.997L155.469 278.073C155.017 278.654 154.525 279.195 153.998 279.691Z" fill="black"/>
<path opacity="0.1" d="M154.261 277.224C154.481 277.227 154.701 277.245 154.918 277.276C155.263 276.875 155.601 276.445 155.944 276.026C154.972 275.741 153.952 275.705 152.964 275.922C151.977 276.139 151.048 276.602 150.25 277.278C149.451 277.952 148.806 278.819 148.362 279.813C147.917 280.807 147.687 281.899 147.689 283.006C147.689 283.251 147.689 283.489 147.72 283.727C147.884 281.944 148.642 280.293 149.851 279.091C151.06 277.889 152.632 277.224 154.261 277.224Z" fill="black"/>
</g>
<g opacity="0.1">
<path opacity="0.1" d="M122.967 279.691C122.311 279.644 121.655 279.569 121.004 279.463C120.219 279.384 119.462 279.104 118.792 278.649C118.049 279.251 117.429 280.017 116.973 280.899C116.517 281.782 116.235 282.759 116.145 283.768C116.12 283.515 116.108 283.261 116.108 283.006C116.103 281.877 116.34 280.761 116.8 279.752C117.26 278.741 117.929 277.863 118.755 277.189C119.425 277.643 120.183 277.919 120.967 277.997L121.496 278.073C121.945 278.657 122.437 279.198 122.967 279.691Z" fill="black"/>
<path opacity="0.1" d="M122.702 277.224C122.481 277.227 122.26 277.245 122.04 277.276C121.702 276.875 121.363 276.445 121.019 276.026C121.992 275.741 123.012 275.705 123.999 275.922C124.987 276.139 125.915 276.602 126.714 277.278C127.512 277.952 128.158 278.819 128.602 279.813C129.046 280.807 129.277 281.899 129.275 283.006C129.275 283.251 129.275 283.489 129.243 283.727C129.081 281.944 128.321 280.293 127.112 279.091C125.904 277.889 124.332 277.224 122.702 277.224Z" fill="black"/>
</g>
<path d="M104.868 348.504H53.1611C52.5786 348.504 52.0199 348.25 51.608 347.797C51.1961 347.345 50.9647 346.731 50.9647 346.09V319.193C50.9646 318.786 51.0583 318.384 51.2372 318.028C51.4159 317.671 51.6739 317.369 51.9872 317.152C52.3004 316.935 52.6587 316.807 53.0287 316.783C53.3987 316.758 53.7683 316.837 54.1031 317.012C68.9589 324.76 84.9632 327.417 103.852 317.134C104.187 316.952 104.558 316.867 104.931 316.887C105.304 316.906 105.666 317.03 105.983 317.246C106.301 317.461 106.563 317.763 106.746 318.12C106.929 318.478 107.025 318.882 107.027 319.292V346.049C107.032 346.366 106.98 346.681 106.874 346.977C106.768 347.271 106.611 347.541 106.41 347.768C106.21 347.996 105.97 348.179 105.706 348.304C105.441 348.431 105.156 348.498 104.868 348.504Z" fill="#138799"/>
<path opacity="0.1" d="M104.868 348.504H53.1611C52.5786 348.504 52.0199 348.25 51.608 347.797C51.1961 347.345 50.9647 346.731 50.9647 346.09V319.193C50.9646 318.786 51.0583 318.384 51.2372 318.028C51.4159 317.671 51.6739 317.369 51.9872 317.152C52.3004 316.935 52.6587 316.807 53.0287 316.783C53.3987 316.758 53.7683 316.837 54.1031 317.012C68.9589 324.76 84.9632 327.417 103.852 317.134C104.187 316.952 104.558 316.867 104.931 316.887C105.304 316.906 105.666 317.03 105.983 317.246C106.301 317.461 106.563 317.763 106.746 318.12C106.929 318.478 107.025 318.882 107.027 319.292V346.049C107.032 346.366 106.98 346.681 106.874 346.977C106.768 347.271 106.611 347.541 106.41 347.768C106.21 347.996 105.97 348.179 105.706 348.304C105.441 348.431 105.156 348.498 104.868 348.504Z" fill="black"/>
<path d="M78.6543 328.057C80.3437 328.057 81.7134 326.085 81.7134 323.654C81.7134 321.223 80.3437 319.25 78.6543 319.25C76.9648 319.25 75.5952 321.223 75.5952 323.654C75.5952 326.085 76.9648 328.057 78.6543 328.057Z" fill="#3F3D56"/>
<path d="M78.6543 322.677C80.3437 322.677 81.7134 320.705 81.7134 318.274C81.7134 315.841 80.3437 313.87 78.6543 313.87C76.9648 313.87 75.5952 315.841 75.5952 318.274C75.5952 320.705 76.9648 322.677 78.6543 322.677Z" fill="#3F3D56"/>
<path d="M78.6543 317.291C80.3437 317.291 81.7134 315.319 81.7134 312.887C81.7134 310.455 80.3437 308.484 78.6543 308.484C76.9648 308.484 75.5952 310.455 75.5952 312.887C75.5952 315.319 76.9648 317.291 78.6543 317.291Z" fill="#3F3D56"/>
<path d="M78.6543 311.909C80.3437 311.909 81.7134 309.938 81.7134 307.507C81.7134 305.075 80.3437 303.103 78.6543 303.103C76.9648 303.103 75.5952 305.075 75.5952 307.507C75.5952 309.938 76.9648 311.909 78.6543 311.909Z" fill="#3F3D56"/>
<path d="M78.6543 306.523C80.3437 306.523 81.7134 304.552 81.7134 302.121C81.7134 299.688 80.3437 297.717 78.6543 297.717C76.9648 297.717 75.5952 299.688 75.5952 302.121C75.5952 304.552 76.9648 306.523 78.6543 306.523Z" fill="#3F3D56"/>
<path d="M78.6543 301.137C80.3437 301.137 81.7134 299.166 81.7134 296.735C81.7134 294.302 80.3437 292.331 78.6543 292.331C76.9648 292.331 75.5952 294.302 75.5952 296.735C75.5952 299.166 76.9648 301.137 78.6543 301.137Z" fill="#3F3D56"/>
<path d="M78.6543 295.757C80.3437 295.757 81.7134 293.786 81.7134 291.353C81.7134 288.922 80.3437 286.95 78.6543 286.95C76.9648 286.95 75.5952 288.922 75.5952 291.353C75.5952 293.786 76.9648 295.757 78.6543 295.757Z" fill="#3F3D56"/>
<path d="M90.1273 254.509C90.5426 253.922 90.9226 253.307 91.2651 252.666L83.2207 251.21L91.9213 251.281C92.7607 249.281 93.2188 247.116 93.267 244.915C93.3152 242.713 92.9528 240.524 92.2019 238.484L80.5322 245.138L91.2969 236.413C90.2889 234.497 88.9327 232.831 87.3129 231.516C85.6931 230.2 83.8443 229.267 81.8819 228.772C79.9193 228.277 77.885 228.231 75.9056 228.638C73.9263 229.045 72.0445 229.896 70.3773 231.135C68.7101 232.377 67.2934 233.983 66.2153 235.852C65.1371 237.721 64.4207 239.814 64.1108 242.001C63.8008 244.188 63.904 246.42 64.4137 248.562C64.9234 250.702 65.8288 252.705 67.0735 254.446C66.4196 255.354 65.8588 256.339 65.4011 257.382L75.8378 263.409L64.7237 259.28C63.9447 261.818 63.753 264.53 64.1662 267.169C64.5791 269.81 65.5837 272.296 67.0895 274.403C65.3879 276.78 64.3295 279.637 64.0352 282.644C63.7408 285.652 64.2223 288.689 65.4248 291.41C66.6272 294.131 68.502 296.425 70.8347 298.03C73.1675 299.635 75.8641 300.485 78.6163 300.485C81.3684 300.485 84.0651 299.635 86.3978 298.03C88.7306 296.425 90.6054 294.131 91.8078 291.41C93.0102 288.689 93.4918 285.652 93.1974 282.644C92.9029 279.637 91.8446 276.78 90.1431 274.403C92.1759 271.561 93.281 268.053 93.281 264.438C93.281 260.824 92.1759 257.316 90.1431 254.474L90.1273 254.509Z" fill="#138799"/>
<path opacity="0.1" d="M63.9253 264.474C63.9205 268.088 65.0263 271.599 67.0636 274.438C65.3622 276.815 64.3038 279.671 64.0094 282.679C63.7151 285.686 64.1967 288.724 65.3991 291.445C66.6015 294.166 68.4763 296.46 70.809 298.065C73.1418 299.67 75.8384 300.522 78.5906 300.522C81.3427 300.522 84.0394 299.67 86.3721 298.065C88.7049 296.46 90.5797 294.166 91.7821 291.445C92.9845 288.724 93.4661 285.686 93.1717 282.679C92.8774 279.671 91.8189 276.815 90.1174 274.438C92.0809 271.699 63.9253 262.664 63.9253 264.474Z" fill="black"/>
<path d="M104.868 349.928H53.1611C52.5786 349.928 52.0199 349.675 51.608 349.222C51.1961 348.77 50.9647 348.154 50.9647 347.515V319.193C50.9646 318.786 51.0583 318.384 51.2372 318.028C51.4159 317.671 51.6739 317.369 51.9872 317.152C52.3004 316.935 52.6587 316.807 53.0287 316.783C53.3987 316.758 53.7683 316.837 54.1031 317.012C68.9589 324.76 80.7397 333.793 103.852 317.134C105.222 316.145 107.027 317.494 107.027 319.292V347.503C107.03 348.138 106.805 348.749 106.401 349.203C105.996 349.658 105.446 349.918 104.868 349.928Z" fill="#138799"/>
<path d="M488.556 341.919L412.272 353.012L408.457 353.564L371.16 331.67V326.545L487.71 312.573L488.556 341.919Z" fill="#9C9CA1"/>
<path d="M392.775 333.996L475.415 323.288L474.569 340.058L410.197 345.246L392.775 333.996Z" fill="#939498"/>
<path opacity="0.4" d="M412.272 347.503V353.006L408.455 353.587L371.155 331.67V326.545L406.757 347.486C406.757 347.486 411.426 347.969 412.272 347.503Z" fill="black"/>
<path d="M426.916 260.164L409.791 347.445C409.618 348.319 409.638 349.225 409.853 350.088C410.066 350.951 410.464 351.746 411.015 352.403C411.567 353.061 412.254 353.563 413.019 353.868C413.783 354.172 414.604 354.269 415.411 354.151L523.762 338.388C524.706 338.251 525.596 337.826 526.33 337.159C527.063 336.492 527.611 335.612 527.911 334.619L551.287 257.138C551.546 256.278 551.61 255.363 551.476 254.47C551.34 253.577 551.009 252.734 550.511 252.013C550.013 251.291 549.363 250.714 548.617 250.33C547.871 249.947 547.052 249.767 546.229 249.81L431.637 255.79C430.523 255.847 429.456 256.307 428.603 257.097C427.75 257.888 427.157 258.966 426.916 260.164Z" fill="#3F3D56"/>
<path d="M486.454 292.364C486.719 289.584 485.618 287.178 483.994 286.991C482.368 286.803 480.835 288.904 480.57 291.683C480.303 294.463 481.405 296.869 483.031 297.056C484.656 297.244 486.188 295.143 486.454 292.364Z" fill="white"/>
</svg>
