<svg width="608" height="480" viewBox="0 0 608 480" fill="none" xmlns="http://www.w3.org/2000/svg">
<g clip-path="url(#clip0)">
<path d="M301.545 125.186C329.516 120.275 362.019 121.129 397.069 125.186C389.957 84.8387 389.632 45.3197 397.069 6.7583H301.545C294.491 45.9187 294.491 86.0259 301.545 125.186Z" fill="#F2F2F2"/>
<path d="M330.063 10.9079H363.29V0H330.063V10.9079Z" fill="#3F3D56"/>
<path opacity="0.1" d="M227.189 359.017C255.158 354.105 287.661 354.959 322.711 359.017C315.601 318.668 315.275 279.149 322.711 240.589H227.189C220.133 279.749 220.133 319.855 227.189 359.017Z" fill="black"/>
<path d="M222.895 353.491C250.866 348.581 283.369 349.434 318.419 353.491C311.308 313.144 310.983 273.625 318.419 235.063H222.895C215.841 274.224 215.841 314.331 222.895 353.491Z" fill="#F2F2F2"/>
<path d="M251.398 239.213H284.625V228.305H251.398V239.213Z" fill="#3F3D56"/>
<path d="M140.809 160.176C140.809 160.176 177.859 55.3253 260.398 54.3984" stroke="#3F3D56" stroke-width="2" stroke-miterlimit="10"/>
<path d="M267.804 54.5948C264.288 55.8225 259.92 57.9157 257.184 60.193L259.429 54.4046L257.453 48.5178C260.079 50.9179 264.349 53.2321 267.804 54.5948Z" fill="#3F3D56"/>
<path d="M143.877 200.074C143.877 200.074 140.527 284.441 188.698 295.925" stroke="#3F3D56" stroke-width="2" stroke-miterlimit="10"/>
<path d="M196.024 297.061C192.373 297.773 187.754 299.253 184.73 301.124L187.754 295.705L186.612 289.604C188.882 292.341 192.791 295.22 196.024 297.061Z" fill="#3F3D56"/>
<path d="M153.691 172.451C153.691 172.451 414.196 129.004 458.903 182.753" stroke="#3F3D56" stroke-width="2" stroke-miterlimit="10"/>
<path d="M462.897 189.026C459.891 186.834 455.663 184.447 452.24 183.501L458.265 182.034L461.945 177.044C461.498 180.58 462.05 185.404 462.897 189.026Z" fill="#3F3D56"/>
<g opacity="0.1">
<path opacity="0.1" d="M304 479.672C471.55 479.672 607.377 470.603 607.377 459.415C607.377 448.228 471.55 439.159 304 439.159C136.45 439.159 0.622925 448.228 0.622925 459.415C0.622925 470.603 136.45 479.672 304 479.672Z" fill="#38D39F"/>
</g>
<path opacity="0.1" d="M570.419 308.429C545.639 322.302 520.964 343.486 496.345 368.769C476.393 332.995 451.718 302.144 421.613 276.933L495.688 216.593C525.869 242.505 551.177 273.606 570.419 308.429Z" fill="black"/>
<path d="M571.647 303.519C546.869 317.391 522.194 338.575 497.573 363.859C477.623 328.084 452.948 297.233 422.843 272.023L496.917 211.682C527.097 237.593 552.407 268.695 571.647 303.519Z" fill="#F2F2F2"/>
<path d="M470.56 224.463L444.792 245.451L451.674 253.911L477.442 232.921L470.56 224.463Z" fill="#3F3D56"/>
<path d="M506.907 249.138L461.234 286.342L466.27 292.53L511.943 255.326L506.907 249.138Z" fill="#138799"/>
<path d="M576.486 451.613C576.129 451.047 575.679 450.545 575.156 450.128C572.474 447.599 571.228 443.874 570.567 440.233C569.904 436.593 569.713 432.867 568.652 429.294C568.074 427.466 567.351 425.687 566.493 423.973C565.879 422.665 565.106 420.087 563.984 419.172C563.762 418.983 563.496 418.852 563.21 418.791C562.682 417.665 561.925 416.659 560.99 415.84C559.235 414.25 557.094 412.985 555.923 410.928C555.6 410.213 555.204 409.534 554.738 408.902C553.947 408.031 552.694 407.675 551.964 406.754C551.014 405.563 551.229 403.863 551.351 402.34C551.475 400.819 551.351 399.007 550.038 398.216C549.253 397.73 548.242 397.774 547.425 397.35C546.198 396.736 545.714 395.184 545.737 393.802C545.762 392.422 546.192 391.077 546.302 389.702C546.646 385.306 543.75 380.936 544.866 376.676C545.29 375.061 546.259 373.656 546.977 372.158C547.225 371.657 547.43 371.135 547.591 370.6C549.504 371.36 551.516 371.843 553.567 372.036C550.185 364.455 551.045 355.634 549.467 347.482L549.671 347.199C551.264 345.101 552.169 342.559 552.26 339.925C552.26 336.857 550.842 334.051 550.204 331.086C549.658 328.558 549.683 325.924 548.977 323.438C548.488 321.897 547.838 320.411 547.038 319.006C546.273 317.59 545.469 316.195 544.627 314.819C543.842 312.217 543.055 309.614 542.265 307.011C541.161 303.328 540.026 299.646 537.879 296.491C537.093 295.33 536.854 292.991 535.645 292.286C534.664 291.78 533.55 291.587 532.456 291.733C530.75 290.776 529.253 289.394 529.038 287.504C529.017 287.091 529.058 286.677 529.161 286.276H529.37C532.068 286.024 533.436 283.643 534.842 281.561C537.112 278.18 536.247 273.612 534.842 269.77C534.492 268.558 533.861 267.445 533.002 266.523C531.032 264.682 527.916 265.093 525.376 264.202C524.553 263.84 523.711 263.522 522.854 263.251C521.167 262.852 519.4 263.405 517.854 264.183C516.308 264.963 514.866 265.97 513.247 266.59C511.627 267.21 509.627 267.689 509.229 269.353C509.116 269.913 509.164 270.493 509.363 271.028C509.737 272.094 510.392 273.037 511.259 273.759C510.569 275.183 510.197 276.738 510.166 278.319C510.134 279.902 510.447 281.47 511.081 282.919C511.715 284.368 512.655 285.661 513.837 286.712C515.02 287.762 516.415 288.543 517.927 289.002C518.393 289.744 518.83 290.506 519.228 291.292C519.94 292.666 520.541 294.287 520.296 295.76C519.852 296.229 519.443 296.73 519.069 297.257C517.308 299.713 516.308 302.598 515.388 305.465C514.151 309.134 513.161 312.883 512.424 316.686C510.928 319.865 509.099 322.91 508.014 326.255C506.069 326.26 504.134 326.001 502.259 325.488L497.081 324.309C495.277 323.904 493.399 323.456 491.989 322.271C491.24 321.658 490.657 320.841 489.897 320.228C489.136 319.614 487.608 318.907 486.774 319.412C486.622 319.504 486.48 319.612 486.35 319.737C485.59 318.196 483.725 322.124 482.842 320.67C481.577 318.576 477.142 321.001 474.75 320.608C473.288 320.374 471.793 320.72 470.583 321.572C469.185 322.573 468.308 324.641 469.357 326.041C469.618 326.355 469.902 326.649 470.209 326.918C470.921 327.733 471.555 328.613 472.106 329.546C473.994 332.264 478.344 329.865 481.646 330.49C481.572 330.7 483.958 325.525 483.884 325.74C483.448 327.01 482.523 328.558 482.756 329.884L505.786 337.771C507.264 338.372 508.832 338.717 510.425 338.79C511.045 338.784 511.663 338.703 512.265 338.55V339.729V339.772C512.326 347.868 511.038 355.917 510.798 364.006C510.756 365.48 510.798 367.076 511.732 368.23C512.774 369.494 514.627 369.74 516.241 369.457C516.626 369.395 517.007 369.311 517.382 369.205C517.927 371.24 518.321 373.312 518.559 375.405L520.087 386.307C520.283 387.429 520.363 388.569 520.327 389.708C520.149 392.273 518.792 394.582 517.812 396.958C516.83 399.333 516.247 402.168 517.535 404.391C517.94 405.079 518.498 405.668 518.861 406.379C519.32 407.48 519.53 408.669 519.474 409.86C519.568 413.175 519.658 416.486 519.744 419.793C519.475 419.753 519.202 419.81 518.97 419.952C517.694 420.94 517.835 425.678 517.743 427.146C517.646 429.602 517.743 432.106 517.609 434.585C517.437 437.938 516.885 441.26 515.964 444.487C515.743 445.534 515.26 446.507 514.56 447.317C513.841 447.939 512.985 448.382 512.063 448.612C509.006 449.567 505.81 450.001 502.609 449.895C501.315 449.858 499.964 449.729 498.762 450.226C497.559 450.724 496.59 452.068 497.026 453.295C497.4 454.327 498.535 454.818 499.559 455.205C501.898 456.02 504.157 457.048 506.308 458.274C507.137 458.837 508.009 459.334 508.916 459.759C509.786 460.073 510.686 460.295 511.602 460.422L522.48 462.263C524.706 462.651 527.388 462.877 528.805 461.036C529.572 460.042 529.683 458.691 529.645 457.433C529.584 454.977 529.093 452.473 529.412 450.023C529.655 448.571 530.036 447.144 530.553 445.764L533.805 436.267C534.897 433.033 536.002 429.774 536.425 426.385C536.579 425.158 536.566 423.763 535.627 422.99C535.389 422.798 535.113 422.656 534.817 422.572C534.781 419.615 534.395 416.656 534.56 413.697C534.603 412.954 534.676 412.218 534.737 411.481C535.308 412.02 535.816 412.621 536.253 413.273C537.303 414.913 537.689 417.085 539.29 418.184C540.652 419.111 542.67 419.068 543.628 420.418C543.933 420.935 544.165 421.493 544.314 422.075C544.87 423.524 545.704 424.851 546.769 425.98C547.135 427.327 547.644 428.631 548.284 429.871L550.984 435.58C551.902 437.63 552.925 439.633 554.051 441.577C554.907 442.803 555.597 444.136 556.106 445.543C556.972 448.582 555.56 451.908 553.327 454.136C551.093 456.365 548.149 457.653 545.246 458.851C544.94 458.951 544.66 459.12 544.425 459.341C544.174 459.64 544.04 460.02 544.05 460.41C544.05 461.828 545.216 463.037 546.553 463.479C547.921 463.84 549.353 463.893 550.745 463.632C558.585 462.682 566.401 460.759 573.333 456.954C574.368 456.458 575.286 455.75 576.026 454.874C576.396 454.425 576.634 453.883 576.717 453.309C576.798 452.733 576.718 452.146 576.486 451.613Z" fill="url(#paint0_linear)"/>
<path d="M543.353 313.978C544.662 315.984 545.889 318.043 547.034 320.154C547.833 321.546 548.483 323.02 548.973 324.549C549.684 327.004 549.666 329.626 550.2 332.136C550.813 335.083 552.248 337.894 552.248 340.907C552.155 343.525 551.25 346.047 549.659 348.126C548.072 350.188 546.257 352.064 544.248 353.719C539.616 341.71 537.028 329.01 536.592 316.145C536.531 314.36 536.519 312.524 537.169 310.86C537.568 309.823 539.482 306.963 540.715 308.085C541.162 308.498 541.279 310.345 541.556 310.965C542.076 312.015 542.677 313.022 543.353 313.978Z" fill="#2F2E41"/>
<path opacity="0.1" d="M543.353 313.978C544.662 315.984 545.889 318.043 547.034 320.154C547.833 321.546 548.483 323.02 548.973 324.549C549.684 327.004 549.666 329.626 550.2 332.136C550.813 335.083 552.248 337.894 552.248 340.907C552.155 343.525 551.25 346.047 549.659 348.126C548.072 350.188 546.257 352.064 544.248 353.719C539.616 341.71 537.028 329.01 536.592 316.145C536.531 314.36 536.519 312.524 537.169 310.86C537.568 309.823 539.482 306.963 540.715 308.085C541.162 308.498 541.279 310.345 541.556 310.965C542.076 312.015 542.677 313.022 543.353 313.978Z" fill="black"/>
<path d="M477.492 320.681C475.093 320.289 472.431 320.48 470.566 322.038C469.439 322.995 468.728 324.349 468.577 325.82C468.418 327.526 469.406 329.54 471.111 329.674C471.523 329.679 471.933 329.652 472.339 329.595C473.416 329.588 474.492 329.677 475.553 329.859C477.642 330.056 479.749 329.748 481.695 328.962C483.641 328.176 485.371 326.933 486.738 325.341C488.204 323.53 486.272 322.707 484.541 322.34C482.173 321.836 479.86 321.075 477.492 320.681Z" fill="#FBBEBE"/>
<path d="M518.524 376.112L520.046 386.927C520.24 388.041 520.318 389.172 520.28 390.304C520.102 392.85 518.746 395.14 517.771 397.497C516.795 399.855 516.199 402.672 517.494 404.863C517.893 405.545 518.451 406.128 518.813 406.834C519.272 407.928 519.482 409.111 519.426 410.297L519.844 425.642C524.579 425.968 529.333 425.943 534.064 425.569C534.25 425.575 534.433 425.517 534.58 425.403C534.705 425.246 534.767 425.049 534.758 424.85C534.966 421.259 534.341 417.662 534.543 414.072C534.616 412.757 534.801 411.444 534.826 410.13C534.899 404.784 532.26 399.548 533.059 394.257C533.309 392.923 533.637 391.606 534.04 390.31C536.561 381.133 536.028 371.428 535.47 361.926C535.48 361.77 535.436 361.617 535.346 361.49C535.256 361.401 535.141 361.339 535.015 361.312C532.331 360.508 529.492 360.362 526.74 360.888C523.988 361.412 521.401 362.591 519.2 364.325C518.531 364.866 516.844 365.382 516.403 366.026C515.788 366.928 516.592 367.819 516.948 368.776C517.736 371.157 518.264 373.616 518.524 376.112Z" fill="#3F3D56"/>
<path opacity="0.1" d="M518.524 376.112L520.046 386.927C520.24 388.041 520.318 389.172 520.28 390.304C520.102 392.85 518.746 395.14 517.771 397.497C516.795 399.855 516.199 402.672 517.494 404.863C517.893 405.545 518.451 406.128 518.813 406.834C519.272 407.928 519.482 409.111 519.426 410.297L519.844 425.642C524.579 425.968 529.333 425.943 534.064 425.569C534.25 425.575 534.433 425.517 534.58 425.403C534.705 425.246 534.767 425.049 534.758 424.85C534.966 421.259 534.341 417.662 534.543 414.072C534.616 412.757 534.801 411.444 534.826 410.13C534.899 404.784 532.26 399.548 533.059 394.257C533.309 392.923 533.637 391.606 534.04 390.31C536.561 381.133 536.028 371.428 535.47 361.926C535.48 361.77 535.436 361.617 535.346 361.49C535.256 361.401 535.141 361.339 535.015 361.312C532.331 360.508 529.492 360.362 526.74 360.888C523.988 361.412 521.401 362.591 519.2 364.325C518.531 364.866 516.844 365.382 516.403 366.026C515.788 366.928 516.592 367.819 516.948 368.776C517.736 371.157 518.264 373.616 518.524 376.112Z" fill="black"/>
<path d="M546.946 372.865C546.228 374.356 545.265 375.749 544.835 377.351C543.719 381.581 546.608 385.946 546.264 390.279C546.155 391.642 545.731 392.98 545.7 394.349C545.67 395.717 546.173 397.233 547.387 397.866C548.203 398.29 549.228 398.246 549.995 398.725C551.289 399.511 551.436 401.316 551.308 402.82C551.179 404.324 550.964 406.018 551.921 407.202C552.651 408.118 553.903 408.466 554.688 409.332C555.155 409.955 555.553 410.629 555.873 411.34C557.044 413.384 559.186 414.642 560.94 416.214C562.694 417.785 564.179 420.185 563.394 422.407C562.817 424.046 561.198 425.047 559.639 425.821C556.796 427.225 553.795 428.284 550.701 428.975C550.368 429.079 550.017 429.099 549.676 429.03C549.331 428.904 549.023 428.694 548.78 428.417C546.971 426.649 545.099 424.789 544.265 422.394C544.115 421.816 543.883 421.263 543.578 420.75C542.62 419.412 540.602 419.454 539.24 418.533C537.645 417.447 537.259 415.287 536.216 413.659C535.172 412.033 533.645 411.069 532.535 409.633C530.657 407.252 530.197 404.072 528.854 401.352C528.211 400.237 527.626 399.09 527.099 397.915C526.64 396.473 526.357 394.981 526.259 393.471C525.393 386.307 523.192 379.082 524.577 371.986C524.885 370.422 525.357 368.918 525.553 367.309C525.89 364.522 525.357 361.68 525.768 358.9C525.777 358.552 525.865 358.211 526.026 357.903C526.187 357.594 526.415 357.326 526.694 357.119C527.025 356.968 527.385 356.892 527.749 356.899C531.386 356.707 535.033 356.789 538.657 357.144C540.498 357.328 542.559 357.702 543.664 359.2C544.602 360.489 544.554 362.22 544.854 363.786C545.228 365.707 546.203 366.762 547.227 368.272C548.253 369.783 547.725 371.305 546.946 372.865Z" fill="#3F3D56"/>
<path d="M532.836 422.763C533.805 422.763 534.879 422.702 535.628 423.321C536.56 424.082 536.572 425.488 536.425 426.685C535.996 430.049 534.898 433.285 533.799 436.507L530.536 446.083C530.02 447.452 529.638 448.868 529.395 450.312C529.076 452.768 529.567 455.223 529.628 457.678C529.628 458.905 529.548 460.268 528.781 461.25C527.395 463.037 524.689 462.829 522.463 462.479L511.597 460.637C510.68 460.513 509.779 460.291 508.91 459.974C508 459.56 507.128 459.069 506.302 458.507C504.153 457.277 501.893 456.25 499.554 455.438C498.535 455.051 497.394 454.566 497.026 453.541C496.59 452.313 497.56 450.969 498.762 450.472C499.965 449.975 501.308 450.103 502.609 450.147C505.807 450.249 509.002 449.815 512.057 448.863C512.976 448.637 513.83 448.198 514.547 447.58C515.249 446.782 515.732 445.816 515.953 444.776C516.878 441.576 517.429 438.281 517.597 434.954C517.726 432.499 517.64 430.043 517.738 427.587C517.799 426.127 517.658 421.45 518.934 420.449C519.91 419.699 523.922 421.763 525.241 422.069C527.734 422.616 530.286 422.849 532.836 422.763Z" fill="#2F2E41"/>
<path d="M568.611 429.571C569.672 433.094 569.838 436.808 570.526 440.424C571.212 444.038 572.427 447.733 575.108 450.244C575.631 450.658 576.081 451.156 576.439 451.718C576.666 452.244 576.743 452.822 576.662 453.387C576.58 453.954 576.344 454.488 575.979 454.929C575.236 455.798 574.318 456.501 573.285 456.991C566.359 460.778 558.561 462.681 550.703 463.626C549.314 463.892 547.885 463.842 546.519 463.479C545.182 463.024 543.997 461.822 544.022 460.409C544.009 460.024 544.14 459.648 544.391 459.354C544.627 459.132 544.91 458.964 545.218 458.863C548.114 457.678 551.052 456.407 553.292 454.186C555.531 451.963 556.935 448.66 556.071 445.678C555.565 444.28 554.875 442.957 554.016 441.743C552.894 439.811 551.871 437.824 550.949 435.789L548.249 430.123C547.458 428.466 546.661 426.759 546.525 424.93C549.916 425.085 553.304 424.542 556.476 423.334C557.958 422.732 559.339 421.903 560.568 420.878C561.611 420.007 562.562 418.38 563.967 419.522C565.096 420.431 565.807 422.984 566.47 424.286C567.325 425.986 568.041 427.754 568.611 429.571Z" fill="#2F2E41"/>
<path d="M529.051 288.891C529.321 291.242 531.604 292.802 533.782 293.728L519.996 298.154C520.885 296.447 520.168 294.367 519.284 292.63C518.565 291.259 517.746 289.946 516.83 288.7C516.695 288.505 516.542 288.265 516.639 288.05C516.728 287.905 516.865 287.798 517.027 287.75C519.861 286.485 522.782 285.177 525.879 284.717C526.775 284.581 528.468 284.226 529.137 285.135C529.806 286.043 528.923 287.804 529.051 288.891Z" fill="#FBBEBE"/>
<path opacity="0.1" d="M529.051 288.891C529.321 291.242 531.604 292.802 533.782 293.728L519.996 298.154C520.885 296.447 520.168 294.367 519.284 292.63C518.565 291.259 517.746 289.946 516.83 288.7C516.695 288.505 516.542 288.265 516.639 288.05C516.728 287.905 516.865 287.798 517.027 287.75C519.861 286.485 522.782 285.177 525.879 284.717C526.775 284.581 528.468 284.226 529.137 285.135C529.806 286.043 528.923 287.804 529.051 288.891Z" fill="black"/>
<path d="M521.038 290.8C527.009 290.8 531.848 285.958 531.848 279.984C531.848 274.011 527.009 269.168 521.038 269.168C515.068 269.168 510.228 274.011 510.228 279.984C510.228 285.958 515.068 290.8 521.038 290.8Z" fill="#FBBEBE"/>
<path d="M511.696 368.991C512.745 370.218 514.591 370.489 516.204 370.218C519.977 369.604 523.063 366.823 526.757 365.817C531.285 364.589 536.075 366.173 540.351 368.1C544.628 370.028 548.879 372.366 553.554 372.735C549.328 363.306 551.745 351.957 547.702 342.448C546.714 340.122 545.334 337.881 545.113 335.364C544.837 332.241 546.395 329.226 546.634 326.12C546.855 323.351 546.02 320.595 545.223 317.963C544.237 314.721 543.252 311.478 542.266 308.234C541.161 304.605 540.026 300.923 537.886 297.798C537.094 296.65 536.855 294.329 535.653 293.63C533.027 292.114 529.045 294.029 526.198 294.134C523.352 294.237 520.757 296.263 519.094 298.547C517.333 301.002 516.333 303.85 515.413 306.699C513.947 310.94 512.853 315.299 512.143 319.731C512.051 320.394 511.971 321.056 511.91 321.725C511.297 328.03 512.193 334.37 512.241 340.699V340.742C512.302 348.778 511.014 356.763 510.775 364.792C510.75 366.29 510.75 367.867 511.696 368.991Z" fill="#2F2E41"/>
<path opacity="0.1" d="M512.236 340.706C514.353 340.171 516.267 338.802 517.911 337.311C519.332 336.044 520.596 334.612 521.678 333.045C523.038 330.902 524.128 328.599 524.923 326.188C527.196 319.796 528.639 313.139 529.218 306.38C529.377 304.538 529.426 302.567 528.328 301.106C527.713 300.314 526.847 299.753 525.871 299.516C524.897 299.278 523.87 299.378 522.96 299.799C521.512 300.512 520.574 301.942 519.703 303.304C517.979 306.023 516.242 308.767 515.132 311.787C514.641 313.125 514.279 314.507 513.8 315.851C513.313 317.177 512.751 318.474 512.119 319.736C512.027 320.4 511.947 321.063 511.886 321.732C511.315 328.036 512.186 334.37 512.236 340.706Z" fill="black"/>
<path d="M528.296 299.94C529.394 301.401 529.345 303.396 529.192 305.213C528.612 311.974 527.168 318.633 524.897 325.027C524.106 327.438 523.016 329.739 521.651 331.878C520.571 333.446 519.307 334.878 517.885 336.144C515.798 338.053 513.259 339.747 510.431 339.779C508.839 339.7 507.271 339.357 505.792 338.766L482.781 330.939C482.546 329.626 483.473 328.097 483.909 326.832L485.135 323.186C485.485 322.179 485.89 321.099 486.805 320.553C487.719 320.006 489.167 320.755 489.927 321.357C490.688 321.958 491.265 322.768 492.013 323.389C493.431 324.567 495.302 325.003 497.106 325.408L502.278 326.574C504.153 327.083 506.089 327.339 508.031 327.336C509.474 322.934 512.216 319.049 513.769 314.685C514.247 313.34 514.608 311.959 515.106 310.627C516.209 307.601 517.952 304.857 519.677 302.144C520.541 300.774 521.48 299.344 522.934 298.639C523.843 298.215 524.868 298.114 525.843 298.35C526.817 298.587 527.682 299.147 528.296 299.94Z" fill="#2F2E41"/>
<path d="M524.487 282.421C524.404 281.71 524.182 281.022 523.837 280.395C523.655 280.084 523.378 279.837 523.048 279.691C522.717 279.546 522.349 279.508 521.995 279.585C520.916 279.923 520.554 281.599 519.425 281.654C518.665 281.691 518.118 280.917 517.879 280.187C517.64 279.456 517.511 278.64 516.941 278.124C516.543 277.826 516.087 277.617 515.603 277.511C512.984 276.681 510.278 275.147 509.407 272.539C509.201 272.009 509.153 271.431 509.266 270.875C509.665 269.223 511.719 268.732 513.284 268.131C514.849 267.529 516.351 266.517 517.885 265.75C519.419 264.982 521.198 264.424 522.885 264.816C523.742 265.088 524.583 265.403 525.407 265.762C527.947 266.639 531.057 266.228 533.027 268.063C533.886 268.977 534.517 270.082 534.867 271.286C536.241 275.098 537.113 279.628 534.837 282.985C533.432 285.055 532.07 287.418 529.37 287.664C526.229 287.939 524.984 285.072 524.487 282.421Z" fill="#2F2E41"/>
<g opacity="0.1">
<path opacity="0.1" d="M519.689 278.885C519.45 278.161 519.32 277.339 518.756 276.823C518.36 276.526 517.904 276.316 517.419 276.209C514.793 275.381 512.094 273.846 511.217 271.237C511.016 270.706 510.969 270.13 511.081 269.573C511.144 269.312 511.254 269.065 511.406 268.843C510.407 269.279 509.535 269.856 509.29 270.875C509.178 271.431 509.226 272.009 509.432 272.539C510.303 275.148 513.007 276.682 515.628 277.511C516.112 277.618 516.568 277.827 516.966 278.124C517.535 278.64 517.658 279.462 517.904 280.187C518.149 280.911 518.689 281.691 519.45 281.654C520.21 281.618 520.579 280.924 521.063 280.334C520.394 280.255 519.91 279.554 519.689 278.885Z" fill="black"/>
<path opacity="0.1" d="M531.174 286.35C528.021 286.639 526.775 283.772 526.266 281.121C526.199 280.413 525.99 279.726 525.652 279.101C525.47 278.788 525.195 278.542 524.865 278.394C524.533 278.247 524.166 278.209 523.812 278.285C523.229 278.468 522.855 279.045 522.456 279.512C522.737 279.538 523.008 279.629 523.249 279.777C523.489 279.924 523.692 280.126 523.843 280.366C524.188 280.992 524.41 281.68 524.493 282.391C524.991 285.043 526.235 287.916 529.401 287.62C530.652 287.487 531.808 286.889 532.64 285.945C532.178 286.161 531.682 286.298 531.174 286.35Z" fill="black"/>
</g>
<path d="M156.384 234.965C128.421 230.055 95.9113 230.914 60.8618 234.965C67.9723 194.624 68.3036 155.105 60.8618 116.537H156.384C163.44 155.698 163.44 195.805 156.384 234.965Z" fill="#F2F2F2"/>
<path d="M127.887 109.785H94.6593V120.693H127.887V109.785Z" fill="#3F3D56"/>
<path d="M297.56 266.056H238.664V274.036H297.56V266.056Z" fill="#138799"/>
<path d="M297.56 282.63H238.664V290.61H297.56V282.63Z" fill="#138799"/>
<path d="M376.088 26.6592H317.192V34.6391H376.088V26.6592Z" fill="#138799"/>
<path d="M376.088 43.2329H317.192V51.2128H376.088V43.2329Z" fill="#138799"/>
<path d="M140.5 138.377H81.604V146.357H140.5V138.377Z" fill="#138799"/>
<path d="M78.8809 442.769L90.6233 435.863C89.0353 433.149 87.0053 430.719 84.6172 428.675L62.4636 435.567L79.8257 425.353C75.5279 422.997 70.6909 421.803 65.7911 421.885C60.8914 421.968 56.0975 423.326 51.8815 425.826C47.6655 428.325 44.1727 431.879 41.7467 436.139C39.3208 440.4 38.0454 445.219 38.0461 450.122C38.0461 465.719 50.6782 466.26 66.2673 466.26C81.8564 466.26 94.4884 465.719 94.4884 450.122C94.4938 446.176 93.6682 442.273 92.0651 438.668L78.8809 442.769Z" fill="#138799"/>
<path opacity="0.1" d="M81.87 457.93C80.6203 456.675 79.2237 455.578 77.7104 454.658C75.5754 453.24 73.3731 451.798 70.8577 451.313C68.6491 450.896 66.373 451.252 64.1092 451.122C60.2046 450.881 56.5291 449.196 53.7962 446.395C52.1948 444.732 50.9311 442.712 49.0047 441.43C46.9249 440.061 44.2869 439.766 41.8206 440.11C41.1048 440.212 40.3959 440.358 39.6978 440.546C38.5901 443.617 38.0255 446.858 38.0292 450.122C38.0292 465.719 50.6611 466.26 66.2502 466.26C73.8147 466.26 80.6798 466.13 85.7474 464.215L84.9191 462.663C84.1092 460.961 83.0845 459.37 81.87 457.93Z" fill="black"/>
<path d="M367.338 420.246L351.76 411.1C353.872 407.502 356.567 404.28 359.737 401.567L389.118 410.708L366.092 397.166C371.792 394.041 378.206 392.456 384.705 392.566C391.202 392.675 397.56 394.476 403.151 397.79C408.742 401.106 413.374 405.82 416.591 411.469C419.808 417.119 421.5 423.511 421.497 430.013C421.497 450.692 404.744 451.405 384.074 451.405C363.405 451.405 346.651 450.692 346.651 430.013C346.634 424.768 347.724 419.578 349.847 414.783L367.338 420.246Z" fill="#138799"/>
<path opacity="0.1" d="M363.37 440.349C365.033 438.691 366.887 437.234 368.892 436.01C371.72 434.137 374.646 432.216 377.977 431.578C380.903 431.02 383.922 431.492 386.897 431.32C392.078 431.007 396.957 428.772 400.579 425.053C402.702 422.849 404.376 420.142 406.935 418.466C409.689 416.625 413.186 416.268 416.456 416.717C417.407 416.858 418.349 417.05 419.278 417.294C420.745 421.369 421.492 425.669 421.487 430.001C421.487 450.68 404.732 451.393 384.063 451.393C374.032 451.393 364.928 451.227 358.204 448.692L359.327 446.592C360.406 444.35 361.764 442.252 363.37 440.349Z" fill="black"/>
</g>
<defs>
<linearGradient id="paint0_linear" x1="525.911" y1="464.664" x2="517.782" y2="263.255" gradientUnits="userSpaceOnUse">
<stop stop-color="#808080" stop-opacity="0.25"/>
<stop offset="0.54" stop-color="#808080" stop-opacity="0.12"/>
<stop offset="1" stop-color="#808080" stop-opacity="0.1"/>
</linearGradient>
<clipPath id="clip0">
<rect width="608" height="479.672" fill="white"/>
</clipPath>
</defs>
</svg>
