<svg width="536" height="442" viewBox="0 0 536 442" fill="none" xmlns="http://www.w3.org/2000/svg">
<path d="M535.33 422.086V424.83C535.329 426.292 535.022 427.734 534.43 429.07C533.839 430.404 532.974 431.601 531.894 432.583C530.814 433.565 529.541 434.311 528.156 434.771C526.771 435.233 525.305 435.401 523.852 435.263C502.361 433.22 480.969 429.42 459.407 430.085C419.653 431.298 379.571 447.561 341.09 437.514C330.238 434.682 319.507 429.757 308.341 430.816C298.323 431.766 289.408 437.431 279.704 440.089C250.187 448.193 220.133 427.714 189.535 428.543C169.368 429.092 150.056 438.914 129.911 437.821C118.235 437.196 107.113 432.924 95.7231 430.294C67.3653 423.739 38.1622 427.401 8.94245 429.674C7.88818 429.754 6.82856 429.617 5.82991 429.269C4.83125 428.922 3.91503 428.372 3.13858 427.654C2.36212 426.936 1.74211 426.065 1.31736 425.097C0.892603 424.128 0.672238 423.082 0.670044 422.026V419.675C0.670044 417.636 1.47971 415.681 2.92094 414.24C4.36217 412.799 6.3169 411.988 8.35509 411.988L524.857 411.572C526.234 411.573 527.598 411.848 528.871 412.377C530.143 412.907 531.298 413.681 532.271 414.658C533.244 415.634 534.014 416.793 534.539 418.068C535.065 419.341 535.333 420.708 535.33 422.086Z" fill="#3F3D56"/>
<path opacity="0.1" d="M535.33 422.086V424.83C535.329 426.292 535.022 427.734 534.43 429.07C533.839 430.404 532.974 431.601 531.894 432.583C530.814 433.565 529.541 434.311 528.156 434.771C526.771 435.233 525.305 435.401 523.852 435.263C502.361 433.22 480.969 429.42 459.407 430.085C419.653 431.298 379.571 447.561 341.09 437.514C330.238 434.682 319.507 429.757 308.341 430.816C298.323 431.766 289.408 437.431 279.704 440.089C250.187 448.193 220.133 427.714 189.535 428.543C169.368 429.092 150.056 438.914 129.911 437.821C118.235 437.196 107.113 432.924 95.7231 430.294C67.3653 423.739 38.1622 427.401 8.94245 429.674C7.88818 429.754 6.82856 429.617 5.82991 429.269C4.83125 428.922 3.91503 428.372 3.13858 427.654C2.36212 426.936 1.74211 426.065 1.31736 425.097C0.892603 424.128 0.672238 423.082 0.670044 422.026V419.675C0.670044 417.636 1.47971 415.681 2.92094 414.24C4.36217 412.799 6.3169 411.988 8.35509 411.988L524.857 411.572C526.234 411.573 527.598 411.848 528.871 412.377C530.143 412.907 531.298 413.681 532.271 414.658C533.244 415.634 534.014 416.793 534.539 418.068C535.065 419.341 535.333 420.708 535.33 422.086Z" fill="black"/>
<path d="M535.33 417.067V419.813C535.33 420.195 535.31 420.575 535.27 420.955C534.978 423.7 533.615 426.219 531.478 427.967C529.34 429.714 526.6 430.548 523.852 430.288C502.361 428.24 480.969 424.442 459.407 425.106C419.653 426.325 379.571 442.588 341.09 432.535C330.238 429.702 319.507 424.777 308.341 425.836C298.323 426.786 289.408 432.451 279.704 435.115C250.187 443.197 220.134 422.717 189.536 423.54C169.368 424.09 150.056 433.913 129.911 432.825C118.235 432.194 107.114 427.928 95.7232 425.292C67.371 418.743 38.1622 422.405 8.94255 424.678C7.04215 424.824 5.15501 424.26 3.64762 423.093C2.14023 421.925 1.12013 420.24 0.785415 418.364C0.706427 417.918 0.667845 417.465 0.670141 417.012V414.663C0.670141 412.624 1.47981 410.669 2.92104 409.228C4.36227 407.785 6.31699 406.976 8.3552 406.976L137.81 406.872L402.291 406.652L524.857 406.553C526.234 406.556 527.598 406.829 528.871 407.359C530.143 407.888 531.298 408.664 532.271 409.64C533.244 410.617 534.014 411.775 534.539 413.049C535.065 414.324 535.333 415.689 535.33 417.067Z" fill="#3F3D56"/>
<path opacity="0.1" d="M408.85 408.227C408.85 409.441 406.457 410.605 402.043 411.698C384.372 416.063 334.42 419.209 275.46 419.209C217.454 419.209 168.099 416.162 149.754 411.901C144.814 410.753 142.068 409.518 142.068 408.227C142.068 407.777 142.398 407.332 143.046 406.893L407.528 406.673C408.4 407.184 408.85 407.678 408.85 408.227Z" fill="black"/>
<g opacity="0.5">
<path opacity="0.5" d="M513.905 0H314.127C308.357 0 303.68 4.67795 303.68 10.4485V55.9871C303.68 61.7577 308.357 66.4355 314.127 66.4355H513.905C519.673 66.4355 524.351 61.7577 524.351 55.9871V10.4485C524.351 4.67795 519.673 0 513.905 0Z" fill="#E1E1E1"/>
<path opacity="0.5" d="M381.628 14.2754H330.577V25.8056H381.628V14.2754Z" fill="#0147D0"/>
<path opacity="0.3" d="M487.023 32.9432H330.577V38.9828H487.023V32.9432Z" fill="#0147D0"/>
<path opacity="0.3" d="M393.155 46.1206H330.577V52.1602H393.155V46.1206Z" fill="#0147D0"/>
</g>
<g opacity="0.5">
<path opacity="0.5" d="M237.244 54.0874H37.466C31.6968 54.0874 27.0199 58.7652 27.0199 64.5359V110.074C27.0199 115.845 31.6968 120.523 37.466 120.523H237.244C243.014 120.523 247.691 115.845 247.691 110.074V64.5359C247.691 58.7652 243.014 54.0874 237.244 54.0874Z" fill="#36334A"/>
<path opacity="0.5" d="M104.967 68.3628H53.9166V79.893H104.967V68.3628Z" fill="#36334A"/>
<path opacity="0.5" d="M210.363 87.0306H53.9166V93.0702H210.363V87.0306Z" fill="#36334A"/>
<path opacity="0.5" d="M116.495 100.208H53.9166V106.248H116.495V100.208Z" fill="#36334A"/>
<path opacity="0.5" d="M237.244 54.0874H37.466C31.6968 54.0874 27.0199 58.7652 27.0199 64.5359V110.074C27.0199 115.845 31.6968 120.523 37.466 120.523H237.244C243.014 120.523 247.691 115.845 247.691 110.074V64.5359C247.691 58.7652 243.014 54.0874 237.244 54.0874Z" fill="white"/>
<path opacity="0.5" d="M104.967 68.3628H53.9166V79.893H104.967V68.3628Z" fill="#0147D0"/>
<path opacity="0.3" d="M210.363 87.0306H53.9166V93.0702H210.363V87.0306Z" fill="#0147D0"/>
<path opacity="0.3" d="M116.495 100.208H53.9166V106.248H116.495V100.208Z" fill="#0147D0"/>
</g>
<path d="M371.528 116.147H368.383C367.689 116.147 367.127 116.71 367.127 117.404V161.57C367.127 162.265 367.689 162.827 368.383 162.827H371.528C372.223 162.827 372.785 162.265 372.785 161.57V117.404C372.785 116.71 372.223 116.147 371.528 116.147Z" fill="#3F3D56"/>
<path d="M181.297 79.5745H179.766C179.311 79.5745 178.942 79.9432 178.942 80.3981V94.1189C178.942 94.5738 179.311 94.9425 179.766 94.9425H181.297C181.752 94.9425 182.121 94.5738 182.121 94.1189V80.3981C182.121 79.9432 181.752 79.5745 181.297 79.5745Z" fill="#3F3D56"/>
<path d="M181.479 107.708H179.754C179.242 107.708 178.827 108.124 178.827 108.636V133.53C178.827 134.043 179.242 134.458 179.754 134.458H181.479C181.991 134.458 182.406 134.043 182.406 133.53V108.636C182.406 108.124 181.991 107.708 181.479 107.708Z" fill="#3F3D56"/>
<path d="M181.405 143.819H179.764C179.275 143.819 178.879 144.215 178.879 144.703V169.916C178.879 170.404 179.275 170.8 179.764 170.8H181.405C181.893 170.8 182.288 170.404 182.288 169.916V144.703C182.288 144.215 181.893 143.819 181.405 143.819Z" fill="#3F3D56"/>
<path d="M350.588 28.7869H200.334C189.515 28.7869 180.743 37.5602 180.743 48.3827V394.281C180.743 405.104 189.515 413.877 200.334 413.877H350.588C361.409 413.877 370.179 405.104 370.179 394.281V48.3827C370.179 37.5602 361.409 28.7869 350.588 28.7869Z" fill="#3F3D56"/>
<path d="M282.244 40.2896H258.58C257.811 40.2896 257.186 40.9141 257.186 41.6842V44.2703C257.186 45.0405 257.811 45.6649 258.58 45.6649H282.244C283.015 45.6649 283.639 45.0405 283.639 44.2703V41.6842C283.639 40.9141 283.015 40.2896 282.244 40.2896Z" fill="#E6E8EC"/>
<path d="M290.686 46.0217C292.368 46.0217 293.732 44.6574 293.732 42.9745C293.732 41.2915 292.368 39.9272 290.686 39.9272C289.003 39.9272 287.639 41.2915 287.639 42.9745C287.639 44.6574 289.003 46.0217 290.686 46.0217Z" fill="#E6E8EC"/>
<path d="M358.481 53.8677V388.791C358.478 392.781 356.893 396.608 354.071 399.429C351.25 402.251 347.423 403.835 343.434 403.835H207.486C203.496 403.835 199.669 402.251 196.849 399.429C194.027 396.608 192.44 392.781 192.439 388.791V53.8677C192.439 49.8763 194.024 46.0484 196.846 43.2261C199.668 40.4038 203.495 38.8182 207.486 38.8182H227.829V41.4591C227.831 44.7453 229.136 47.8965 231.46 50.22C233.782 52.5437 236.933 53.8498 240.218 53.8513H309.383C312.665 53.844 315.809 52.5352 318.127 50.212C320.444 47.8888 321.746 44.741 321.746 41.4591V38.8456H343.434C347.419 38.8456 351.242 40.4275 354.064 43.2438C356.885 46.0603 358.473 49.881 358.481 53.8677Z" fill="#138799"/>
<path d="M214.203 70.8281H197.186V73.0243H214.203V70.8281Z" fill="#3F3D56"/>
<path d="M214.203 74.6715H197.186V76.8677H214.203V74.6715Z" fill="#3F3D56"/>
<path d="M214.203 78.5147H197.186V80.711H214.203V78.5147Z" fill="#3F3D56"/>
<path d="M214.203 70.8281H197.186V73.0243H214.203V70.8281Z" fill="white"/>
<path d="M214.203 74.6715H197.186V76.8677H214.203V74.6715Z" fill="white"/>
<path d="M214.203 78.5147H197.186V80.711H214.203V78.5147Z" fill="white"/>
<path d="M350.702 76.3187H350.204L350.011 76.1594C350.642 75.4071 350.988 74.4565 350.989 73.4745C350.984 72.6665 350.74 71.8782 350.288 71.2087C349.835 70.5395 349.195 70.0194 348.447 69.7141C347.699 69.409 346.878 69.3325 346.086 69.4945C345.295 69.6563 344.569 70.0492 344.001 70.6236C343.433 71.1979 343.048 71.9279 342.894 72.7212C342.741 73.5144 342.827 74.3353 343.139 75.08C343.453 75.8248 343.979 76.46 344.653 76.9052C345.327 77.3504 346.118 77.5857 346.926 77.5814C347.906 77.5745 348.852 77.2292 349.605 76.6041L349.791 76.7633V77.2684L352.943 80.4255L353.886 79.4811L350.702 76.3187ZM346.926 76.3187C346.363 76.3208 345.812 76.1558 345.343 75.8447C344.874 75.5335 344.509 75.09 344.292 74.5705C344.074 74.0511 344.017 73.4789 344.125 72.9264C344.234 72.374 344.503 71.8663 344.901 71.4674C345.298 71.0685 345.804 70.7965 346.357 70.6858C346.909 70.5752 347.481 70.6309 348.001 70.8459C348.521 71.0609 348.966 71.4253 349.279 71.8933C349.591 72.3613 349.759 72.9115 349.759 73.4745C349.761 73.8478 349.689 74.2176 349.547 74.563C349.406 74.9083 349.197 75.2222 348.935 75.4865C348.671 75.7509 348.358 75.9607 348.014 76.1034C347.668 76.2462 347.3 76.3193 346.926 76.3187Z" fill="white"/>
<path d="M248.238 109.811H197.186V121.341H248.238V109.811Z" fill="white"/>
<path opacity="0.3" d="M353.633 128.479H197.186V134.518H353.633V128.479Z" fill="white"/>
<path opacity="0.3" d="M259.764 141.656H197.186V147.696H259.764V141.656Z" fill="white"/>
<path d="M248.238 243.78H197.186V255.31H248.238V243.78Z" fill="white"/>
<path opacity="0.3" d="M353.633 262.448H197.186V268.488H353.633V262.448Z" fill="white"/>
<path opacity="0.3" d="M259.764 275.626H197.186V281.665H259.764V275.626Z" fill="white"/>
<path d="M248.238 310.765H197.186V322.296H248.238V310.765Z" fill="white"/>
<path opacity="0.3" d="M353.633 329.433H197.186V335.473H353.633V329.433Z" fill="white"/>
<path opacity="0.3" d="M259.764 342.61H197.186V348.65H259.764V342.61Z" fill="white"/>
<path d="M325.639 389.829C335.946 389.829 344.302 381.471 344.302 371.161C344.302 360.851 335.946 352.494 325.639 352.494C315.331 352.494 306.975 360.851 306.975 371.161C306.975 381.471 315.331 389.829 325.639 389.829Z" fill="white"/>
<path d="M335.151 369.689V378.711C335.151 378.892 335.079 379.067 334.95 379.196C334.822 379.324 334.646 379.397 334.465 379.397H316.075C315.893 379.397 315.719 379.324 315.59 379.196C315.461 379.067 315.389 378.892 315.389 378.711V364.342C315.389 364.16 315.461 363.984 315.59 363.856C315.719 363.727 315.893 363.655 316.075 363.655H328.871" stroke="#138799" stroke-miterlimit="10" stroke-linecap="round"/>
<path d="M318.87 368.964H331.31" stroke="#138799" stroke-miterlimit="10" stroke-linecap="round"/>
<path d="M319.051 371.529H331.495" stroke="#138799" stroke-miterlimit="10" stroke-linecap="round"/>
<path d="M319.231 374.087H331.675" stroke="#138799" stroke-miterlimit="10" stroke-linecap="round"/>
<path d="M332.773 362.925V369.146" stroke="#138799" stroke-miterlimit="10"/>
<path d="M335.886 366.038H329.661" stroke="#138799" stroke-miterlimit="10"/>
<path d="M332.773 362.925V369.146" stroke="#138799" stroke-miterlimit="10" stroke-linecap="round"/>
<path d="M335.886 366.038H329.661" stroke="#138799" stroke-miterlimit="10" stroke-linecap="round"/>
<path d="M488.451 409.139C490.098 406.114 488.232 402.402 486.096 399.706C483.961 397.011 481.37 394.216 481.425 390.763C481.508 385.82 486.75 382.905 490.937 380.281C494.047 378.339 496.915 376.033 499.48 373.412C500.554 372.404 501.441 371.214 502.103 369.898C502.97 367.965 502.949 365.77 502.894 363.655C502.706 356.606 502.358 349.562 501.845 342.522" stroke="#3F3D56" stroke-width="4" stroke-miterlimit="10"/>
<path d="M509.81 342.137C509.751 340.848 509.369 339.593 508.696 338.489C508.025 337.385 507.087 336.468 505.967 335.824L504.243 339.239L504.298 335.104C503.474 334.863 502.615 334.759 501.756 334.798C500.241 334.873 498.78 335.395 497.561 336.299C496.341 337.203 495.417 338.449 494.904 339.878C494.392 341.307 494.313 342.855 494.68 344.329C495.046 345.803 495.84 347.135 496.963 348.157C498.085 349.18 499.485 349.847 500.986 350.075C502.487 350.302 504.021 350.08 505.396 349.436C506.771 348.792 507.924 347.755 508.711 346.456C509.497 345.158 509.881 343.655 509.815 342.137H509.81Z" fill="#138799"/>
<path d="M496.069 394.292C495.261 395.859 493.939 397.101 492.325 397.808C490.711 398.517 488.903 398.648 487.203 398.18C485.504 397.713 484.016 396.676 482.991 395.242C481.965 393.809 481.462 392.066 481.569 390.306C481.675 388.546 482.381 386.877 483.573 385.577C484.762 384.276 486.364 383.426 488.107 383.166C489.849 382.906 491.63 383.253 493.147 384.149C494.665 385.045 495.828 386.437 496.443 388.088L491.629 392.003L496.926 390.779C496.924 392.002 496.631 393.206 496.069 394.292Z" fill="#138799"/>
<path d="M492.268 379.331C490.353 379.466 488.458 378.88 486.953 377.688C485.45 376.497 484.446 374.785 484.139 372.89C483.834 370.995 484.247 369.054 485.298 367.449C486.352 365.843 487.965 364.69 489.825 364.216L489.781 367.389L491.527 363.935C492.537 363.887 493.548 364.037 494.5 364.379C495.453 364.721 496.328 365.249 497.076 365.929C497.825 366.611 498.43 367.435 498.861 368.351C499.289 369.267 499.535 370.259 499.579 371.271C499.624 372.16 499.513 373.051 499.251 373.901C498.787 375.415 497.868 376.749 496.617 377.721C495.369 378.694 493.849 379.255 492.268 379.331Z" fill="#138799"/>
<path d="M510.97 366.884C509.787 366.927 508.61 366.697 507.532 366.21C506.453 365.724 505.5 364.996 504.75 364.082C503.998 363.167 503.469 362.09 503.201 360.939C502.934 359.785 502.937 358.585 503.209 357.433C503.481 356.281 504.016 355.209 504.77 354.296C505.526 353.386 506.481 352.661 507.563 352.18C508.643 351.698 509.82 351.473 511.004 351.521C512.186 351.571 513.341 351.891 514.379 352.46L513.018 356.193L515.817 353.504C517.319 354.872 518.217 356.782 518.315 358.813C518.351 359.527 518.287 360.242 518.123 360.937C517.744 362.574 516.839 364.042 515.548 365.116C514.256 366.189 512.648 366.81 510.97 366.884Z" fill="#138799"/>
<path opacity="0.1" d="M508.773 344.192C506.994 344.384 505.264 344.938 503.481 345.048C501.696 345.158 499.737 344.735 498.606 343.346C498.003 342.6 497.695 341.655 497.184 340.837C496.696 340.076 496.029 339.449 495.241 339.009C494.776 339.98 494.522 341.039 494.492 342.116C494.463 343.193 494.66 344.264 495.071 345.26C495.482 346.256 496.097 347.153 496.879 347.896C497.659 348.639 498.587 349.208 499.602 349.568C500.617 349.93 501.696 350.073 502.769 349.989C503.844 349.906 504.888 349.597 505.835 349.084C506.783 348.571 507.611 347.863 508.267 347.01C508.924 346.156 509.393 345.173 509.645 344.125C509.355 344.137 509.065 344.159 508.773 344.192Z" fill="black"/>
<path opacity="0.1" d="M510.97 366.884C509.641 366.951 508.317 366.672 507.128 366.075C505.94 365.478 504.927 364.582 504.188 363.474C503.45 362.368 503.011 361.089 502.915 359.761C502.819 358.434 503.07 357.104 503.642 355.902C504.253 356.314 504.778 356.84 505.189 357.451C505.739 358.28 506.074 359.242 506.716 359.998C507.918 361.41 509.965 361.871 511.826 361.789C513.686 361.706 515.482 361.174 517.315 361.003C517.574 361.003 517.831 360.965 518.095 360.96C517.713 362.587 516.811 364.047 515.525 365.116C514.24 366.185 512.64 366.806 510.97 366.884Z" fill="black"/>
<path opacity="0.1" d="M492.266 379.331C490.951 379.398 489.639 379.125 488.458 378.538C487.278 377.952 486.269 377.072 485.526 375.981C484.784 374.892 484.335 373.629 484.221 372.317C484.107 371.003 484.334 369.682 484.878 368.482C485.517 368.899 486.076 369.429 486.525 370.046C487.124 370.892 487.496 371.869 488.2 372.649C489.499 374.093 491.685 374.603 493.649 374.56C495.615 374.516 497.399 374.049 499.293 373.901C498.827 375.421 497.901 376.761 496.643 377.733C495.385 378.706 493.856 379.264 492.266 379.331Z" fill="black"/>
<path opacity="0.1" d="M496.071 394.292C495.237 396.157 493.699 397.611 491.792 398.34C489.885 399.067 487.768 399.008 485.905 398.175C484.043 397.341 482.588 395.802 481.859 393.894C481.131 391.987 481.191 389.869 482.025 388.006C482.66 388.422 483.229 388.931 483.715 389.516C484.45 390.405 484.934 391.422 485.78 392.262C487.354 393.81 489.896 394.457 492.163 394.506C493.468 394.513 494.774 394.442 496.071 394.292Z" fill="black"/>
<path d="M476.831 405.653C476.831 405.653 482.913 405.465 484.746 404.159C486.579 402.852 494.078 401.299 494.55 403.391C495.023 405.483 503.69 413.823 496.828 413.855C489.967 413.889 480.876 412.79 479.043 411.659C477.209 410.528 476.831 405.653 476.831 405.653Z" fill="#656380"/>
<path opacity="0.2" d="M496.948 413.131C490.082 413.186 480.997 412.061 479.169 410.934C477.774 410.084 477.221 407.042 477.033 405.637H476.831C476.831 405.637 477.216 410.544 479.026 411.676C480.838 412.807 489.944 413.91 496.812 413.873C498.794 413.873 499.474 413.153 499.435 412.11C499.178 412.725 498.425 413.115 496.948 413.131Z" fill="black"/>
<path d="M353.085 181.753V227.292C353.085 230.058 351.986 232.713 350.029 234.669C348.073 236.625 345.421 237.724 342.654 237.724H192.439V171.288H342.654C344.028 171.288 345.386 171.559 346.654 172.085C347.922 172.612 349.073 173.383 350.041 174.356C351.01 175.328 351.778 176.481 352.299 177.751C352.822 179.021 353.089 180.38 353.085 181.753Z" fill="#3F3D56"/>
<path d="M325.072 161.972H125.294C119.524 161.972 114.847 166.649 114.847 172.42V217.958C114.847 223.728 119.524 228.407 125.294 228.407H325.072C330.841 228.407 335.519 223.728 335.519 217.958V172.42C335.519 166.649 330.841 161.972 325.072 161.972Z" fill="#F2F2F2"/>
<path d="M325.072 161.972H125.294C119.524 161.972 114.847 166.649 114.847 172.42V217.958C114.847 223.728 119.524 228.407 125.294 228.407H325.072C330.841 228.407 335.519 223.728 335.519 217.958V172.42C335.519 166.649 330.841 161.972 325.072 161.972Z" fill="#F2F2F2"/>
<path d="M192.798 176.247H141.747V187.776H192.798V176.247Z" fill="#138799"/>
<path opacity="0.3" d="M298.193 194.914H141.747V200.955H298.193V194.914Z" fill="#0147D0"/>
<path opacity="0.3" d="M204.325 208.092H141.747V214.132H204.325V208.092Z" fill="#0147D0"/>
<path d="M51.3578 155.157C62.196 155.157 70.9821 146.369 70.9821 135.529C70.9821 124.688 62.196 115.9 51.3578 115.9C40.5195 115.9 31.7334 124.688 31.7334 135.529C31.7334 146.369 40.5195 155.157 51.3578 155.157Z" fill="#3F3D56"/>
<path d="M39.9747 288.22C42.0002 302.435 39.5301 316.931 35.682 330.762C34.963 333.336 34.189 335.933 32.844 338.245C31.4992 340.557 29.6273 342.545 28.0464 344.718C24.7528 349.254 22.8205 354.602 21.0146 359.894C16.0356 374.54 11.8538 389.445 8.48793 404.544C8.28511 405.163 8.28511 405.83 8.48793 406.448C8.96551 407.547 10.4147 407.69 11.6059 407.685L27.0089 407.602C27.5578 406.548 26.5423 405.405 25.911 404.395C23.7153 400.98 25.8232 396.544 27.761 392.969C32.4704 384.288 36.116 375.07 38.6189 365.517C39.6728 361.492 40.529 357.38 42.2418 353.585C44.3112 348.984 47.5555 345.027 50.1903 340.722C53.2534 335.719 55.4875 330.289 57.7052 324.838C60.8012 317.272 63.9246 309.612 65.1432 301.53C66.2906 293.942 65.7251 286.211 64.9786 278.574C65.0133 278.346 64.9934 278.114 64.9208 277.896C64.848 277.678 64.7246 277.481 64.5605 277.32C64.3965 277.159 64.1965 277.039 63.977 276.971C63.7577 276.902 63.5252 276.888 63.2989 276.926L42.6315 275.862C38.3718 275.642 37.3618 274.708 38.0096 278.893C38.4597 282.016 39.5246 285.058 39.9747 288.22Z" fill="#3F3D56"/>
<path opacity="0.1" d="M39.9747 288.22C42.0002 302.435 39.5301 316.931 35.682 330.762C34.963 333.336 34.189 335.933 32.844 338.245C31.4992 340.557 29.6273 342.545 28.0464 344.718C24.7528 349.254 22.8205 354.602 21.0146 359.894C16.0356 374.54 11.8538 389.445 8.48793 404.544C8.28511 405.163 8.28511 405.83 8.48793 406.448C8.96551 407.547 10.4147 407.69 11.6059 407.685L27.0089 407.602C27.5578 406.548 26.5423 405.405 25.911 404.395C23.7153 400.98 25.8232 396.544 27.761 392.969C32.4704 384.288 36.116 375.07 38.6189 365.517C39.6728 361.492 40.529 357.38 42.2418 353.585C44.3112 348.984 47.5555 345.027 50.1903 340.722C53.2534 335.719 55.4875 330.289 57.7052 324.838C60.8012 317.272 63.9246 309.612 65.1432 301.53C66.2906 293.942 65.7251 286.211 64.9786 278.574C65.0133 278.346 64.9934 278.114 64.9208 277.896C64.848 277.678 64.7246 277.481 64.5605 277.32C64.3965 277.159 64.1965 277.039 63.977 276.971C63.7577 276.902 63.5252 276.888 63.2989 276.926L42.6315 275.862C38.3718 275.642 37.3618 274.708 38.0096 278.893C38.4597 282.016 39.5246 285.058 39.9747 288.22Z" fill="black"/>
<path d="M44.0354 253.657C39.8359 259.698 35.4335 266.648 36.8278 273.879C37.8873 279.369 42.0701 283.625 46.017 287.605C61.7933 303.452 77.3061 321.054 82.6747 342.77C84.0579 348.38 84.7277 354.14 85.9188 359.791C88.0816 370.057 91.9571 379.875 95.7996 389.631L106.076 415.645C109.27 415.724 112.41 414.817 115.071 413.049C117.733 411.281 119.786 408.738 120.952 405.763C119.601 405.658 117.839 404.351 117.049 403.253C112.657 397.175 111.757 389.356 110.632 381.944C109.386 373.753 107.722 365.626 106.054 357.506L98.698 321.587C97.8471 317.442 96.9963 313.291 95.8875 309.211C91.5948 293.382 83.4596 278.464 82.2026 262.097C82.0159 259.692 81.9007 257.051 80.2703 255.267C78.5576 253.383 75.7471 253.07 73.2056 252.922C62.924 252.241 54.0533 251.237 44.0354 253.657Z" fill="#3F3D56"/>
<path d="M16.2983 404.176C15.1787 403.91 14.0344 403.763 12.884 403.736C11.7814 403.775 10.7032 404.071 9.73505 404.6C8.76688 405.129 7.93542 405.877 7.30681 406.783C6.6655 407.812 6.16169 408.92 5.80822 410.078L4.32062 414.35C3.88148 415.602 3.45331 417.046 4.10653 418.194C4.58899 418.914 5.289 419.462 6.10465 419.758C9.70564 421.361 13.7622 421.448 17.6871 421.833C21.4967 422.206 25.2733 422.876 29.0335 423.585C30.329 423.826 31.619 424.074 32.931 424.205C35.8623 424.502 38.8155 424.205 41.7468 423.941L44.7714 423.65C45.7839 423.607 46.7853 423.423 47.7466 423.101C48.2269 422.939 48.6691 422.679 49.0465 422.342C49.4239 422.003 49.7287 421.59 49.9423 421.131C50.689 419.28 49.0861 417.09 47.1263 416.738C46.3304 416.578 45.5071 416.651 44.7001 416.546C43.7856 416.389 42.8934 416.122 42.0433 415.749C38.1732 414.229 34.2649 412.691 30.8615 410.298C29.9174 409.634 28.9293 408.705 29.0335 407.552C29.1317 407.058 29.296 406.58 29.5221 406.13C29.9836 404.952 29.9992 403.646 29.566 402.457C29.3794 401.952 29.017 401.419 28.5066 401.359C27.0574 401.183 27.2331 403.297 27.019 404.105C26.728 405.203 26.201 405.301 25.1691 405.203C22.2049 404.884 19.2407 404.735 16.2983 404.176Z" fill="#F2F2F2"/>
<path d="M102.959 418.906C102.985 421.052 103.723 423.128 105.056 424.809C105.463 425.311 105.972 425.72 106.549 426.012C107.409 426.365 108.339 426.514 109.266 426.446C111.879 426.388 114.461 425.866 116.891 424.903C117.747 424.514 118.627 424.182 119.526 423.909C120.657 423.677 121.801 423.512 122.951 423.415C127.491 422.761 131.476 420.082 135.861 418.725C137.172 418.401 138.457 417.979 139.704 417.462C141.44 416.645 142.844 415.267 144.222 413.932C145.034 413.212 145.733 412.377 146.297 411.451C147.104 409.946 147.153 408.156 147.187 406.454C147.216 406.189 147.171 405.921 147.054 405.68C146.93 405.507 146.758 405.372 146.561 405.29C145.227 404.631 143.645 404.96 142.169 405.219C136.834 406.169 131.372 405.993 125.954 405.818C125.44 405.887 124.917 405.787 124.466 405.53C124.015 405.272 123.662 404.873 123.462 404.395L121.403 401.1C120.816 400.156 119.882 399.075 118.818 399.399C117.967 399.656 117.621 400.7 117.654 401.595C117.687 402.491 117.961 403.38 117.791 404.252C117.67 404.733 117.451 405.184 117.149 405.577C116.847 405.969 116.468 406.296 116.035 406.537C115.17 407.007 114.247 407.361 113.29 407.591C110.26 408.447 106.736 409.419 104.392 411.648C102.695 413.251 102.855 416.793 102.959 418.906Z" fill="#F2F2F2"/>
<path d="M101.893 201.097C103.075 200.194 104.089 199.089 104.89 197.835C105.58 196.421 106.013 194.894 106.169 193.328L107.031 187.881C107.508 184.878 108.068 181.698 110.072 179.409C112.075 177.12 116.066 176.302 118.103 178.564C118.992 179.546 119.343 180.897 119.563 182.21C120.189 186.122 119.931 190.126 118.809 193.927C117.686 197.727 115.726 201.228 113.074 204.172C110.61 206.873 107.585 209.019 104.978 211.573C102.705 213.769 100.734 216.289 98.6374 218.678C93.5664 224.446 87.7583 229.524 81.3625 233.776C81.4394 229.691 81.9608 225.31 81.3625 221.253C80.9179 218.321 79.7158 216.739 82.5538 214.823C89.141 210.342 95.7884 206.291 101.893 201.097Z" fill="#FBBEBE"/>
<path d="M46.5393 160.917C46.3254 163.837 45.1121 166.824 42.6969 168.51C49.5365 170.904 56.2829 173.544 62.936 176.428C61.6515 175.193 61.2618 173.299 61.2014 171.519C61.0312 166.868 62.6396 162.296 64.989 158.287C65.3627 157.779 65.5785 157.171 65.6093 156.542C65.5325 155.245 63.9954 154.646 62.7328 154.345C58.4254 153.299 54.0293 152.661 49.6025 152.439C47.7086 152.379 45.4635 151.78 45.8917 154.191C46.2979 156.443 46.7095 158.638 46.5393 160.917Z" fill="#FBBEBE"/>
<path d="M59.7681 162.482C68.6296 162.482 75.8134 155.296 75.8134 146.433C75.8134 137.569 68.6296 130.384 59.7681 130.384C50.9065 130.384 43.7228 137.569 43.7228 146.433C43.7228 155.296 50.9065 162.482 59.7681 162.482Z" fill="#FBBEBE"/>
<path d="M75.6548 189.78C75.0945 188.576 74.4121 187.431 73.6181 186.366C70.7088 182.187 67.7227 178.015 63.99 174.555C61.1624 172.033 58.1021 169.784 54.8502 167.841C53.0956 166.638 51.1664 165.711 49.1303 165.095C47.9221 164.827 46.6938 164.66 45.458 164.595L41.2916 164.255C40.9263 164.207 40.5555 164.218 40.1937 164.287C39.0629 164.574 38.5468 165.979 38.7884 167.116C39.0299 168.252 39.8863 169.175 40.6438 170.036C40.8305 178.541 37.0483 186.931 36.5378 195.426C35.6431 210.25 44.7059 224.091 45.4306 238.955C45.5052 239.626 45.434 240.306 45.2219 240.948C45.1012 241.254 44.92 241.534 44.7828 241.837C44.3547 242.771 44.371 243.83 44.2942 244.856C43.9951 248.518 42.3921 251.951 39.7766 254.53C40.4563 255.374 41.3301 256.041 42.3235 256.474C44.0746 257.237 46.1661 257.303 48.0269 257.836C52.8795 259.253 57.8529 260.68 62.8976 260.378C63.5243 259.015 63.9124 257.552 64.0448 256.057C64.7584 255.613 65.5819 256.562 65.6916 257.397C65.8014 258.231 65.6422 259.204 66.2405 259.808C66.8389 260.412 67.5964 260.318 68.3265 260.224C71.406 259.834 74.3648 258.796 77.3838 258.1C80.4029 257.402 83.6307 257.067 86.5675 258.066C87.1603 257.315 86.9078 256.199 86.4248 255.377C85.9417 254.553 85.2555 253.829 84.9811 252.911C84.8429 252.383 84.7838 251.837 84.8054 251.292C84.8054 246.597 85.7715 241.853 84.8548 237.247C84.5859 235.895 84.1576 234.577 83.8832 233.222C83.3343 230.591 83.4166 227.879 83.488 225.195C83.5593 222.509 83.2354 219.606 83.1806 216.881C83.1789 215.756 83.1056 214.633 82.961 213.517C82.7743 212.346 82.4121 211.205 82.3132 210.024C82.0168 207.026 83.2244 204.05 83.0433 201.042C82.7414 196.473 77.4332 193.992 75.6548 189.78Z" fill="#3F3D56"/>
<path d="M39.4415 187.629C35.5551 197.94 33.6558 208.877 31.7565 219.737L27.365 245.246C26.1189 252.456 24.8674 259.708 24.9168 267.022C24.9168 269.075 25.0486 271.167 24.5105 273.149C23.808 275.752 22.0624 277.92 20.7394 280.287C18.0551 285.119 17.1609 290.744 18.2143 296.171C18.6644 298.449 19.8941 301.035 22.2051 301.299C24.1044 301.508 25.7456 299.997 26.8545 298.438C29.4015 294.865 30.6641 290.549 31.7949 286.299C35.4353 272.411 37.9809 258.259 39.4087 243.972C39.5443 242.164 39.7991 240.366 40.1717 238.592C40.6565 236.762 41.2766 234.971 42.027 233.233C43.7067 229.067 45.3883 224.902 47.0717 220.736C50.9526 211.111 54.8555 201.442 60.1856 192.537C54.9159 191.022 49.4321 189.243 44.1623 187.744C42.6418 187.294 41.0114 187.562 39.4415 187.629Z" fill="#FBBEBE"/>
<path d="M48.575 195.447C44.8861 194.651 41.071 194.898 37.3053 194.804C36.7705 194.843 36.2378 194.705 35.7903 194.409C35.0273 193.755 35.3512 192.531 35.7353 191.603L37.5579 187.211C37.857 186.303 38.356 185.474 39.0179 184.784C39.9458 183.96 41.2521 183.758 42.4817 183.609C46.4835 183.149 50.6005 182.995 54.4814 184.076C58.3623 185.158 62.0127 187.617 63.7474 191.257C64.472 192.774 64.8068 194.684 63.8461 196.062C62.419 198.11 59.2187 200.4 56.8308 199.279C53.9709 197.94 51.7806 196.145 48.575 195.447Z" fill="#3F3D56"/>
<path d="M68.1893 121.506C65.0229 121.472 61.9161 122.368 59.2527 124.081C56.7288 121.689 53.6148 120.01 50.2293 119.217C46.8439 118.424 43.3086 118.545 39.9852 119.568C39.6312 117.544 38.7287 115.657 37.376 114.112C36.0234 112.567 34.2724 111.422 32.3143 110.804C30.356 110.186 28.2657 110.117 26.2711 110.606C24.2766 111.094 22.4544 112.121 21.0033 113.574C19.5522 115.028 18.528 116.851 18.0421 118.847C17.5562 120.843 17.6275 122.933 18.2482 124.891C18.8687 126.849 20.015 128.599 21.5616 129.95C23.1083 131.301 24.9963 132.201 27.0194 132.553C26.1861 135.055 25.8657 137.7 26.0772 140.33C26.289 142.959 27.0284 145.52 28.2513 147.857C29.4741 150.194 31.1554 152.261 33.1948 153.933C35.2341 155.605 37.5897 156.85 40.1207 157.592C42.6516 158.334 45.3061 158.557 47.9254 158.249C50.5448 157.943 53.0753 157.11 55.3659 155.802C57.6564 154.495 59.6599 152.739 61.2568 150.639C62.8535 148.54 64.0109 146.14 64.6597 143.583C65.8176 143.82 66.9964 143.939 68.1783 143.941C75.9183 143.941 82.1981 138.917 82.1981 132.723C82.1981 126.53 75.9183 121.506 68.1893 121.506Z" fill="#3F3D56"/>
<path opacity="0.1" d="M70.9835 138.329C69.8015 138.333 68.6223 138.212 67.4648 137.972C66.9151 139.98 66.0479 141.887 64.8959 143.622C65.9813 143.831 67.0841 143.938 68.1895 143.941C75.4244 143.941 81.3638 139.547 82.1268 133.925C79.5524 136.605 75.5176 138.329 70.9835 138.329Z" fill="black"/>
<path opacity="0.1" d="M48.5531 152.368C45.4827 152.364 42.456 151.639 39.7157 150.255C36.9754 148.868 34.5978 146.861 32.7737 144.389C30.9495 141.92 29.7295 139.056 29.2114 136.029C28.6935 133.001 28.8918 129.895 29.7907 126.958C27.1934 126.501 24.8401 125.143 23.1444 123.122C21.4489 121.102 20.5194 118.549 20.5193 115.911C20.518 115.237 20.5788 114.564 20.7004 113.901C19.3312 115.381 18.386 117.202 17.9641 119.173C17.5423 121.145 17.6596 123.193 18.3033 125.104C18.947 127.014 20.0937 128.716 21.6225 130.03C23.1514 131.343 25.006 132.221 26.9912 132.569C25.4798 137.533 25.9948 142.893 28.4232 147.478C30.8517 152.063 34.9963 155.498 39.9509 157.036C44.9054 158.572 50.2667 158.085 54.8628 155.679C59.4589 153.274 62.9158 149.146 64.4777 144.198C62.6633 146.728 60.2724 148.788 57.503 150.209C54.7336 151.63 51.6656 152.369 48.5531 152.368Z" fill="black"/>
</svg>
