<svg width="610" height="410" viewBox="0 0 610 410" fill="none" xmlns="http://www.w3.org/2000/svg">
<g clip-path="url(#clip0)">
<path opacity="0.1" d="M410.751 409.373C452.426 409.373 486.212 406.994 486.212 404.06C486.212 401.126 452.426 398.748 410.751 398.748C369.075 398.748 335.29 401.126 335.29 404.06C335.29 406.994 369.075 409.373 410.751 409.373Z" fill="#E2E9F7"/>
<path opacity="0.1" d="M609.42 241.242C609.407 261.842 604.925 282.195 596.281 300.896C587.636 319.596 575.036 336.198 559.35 349.558C543.664 362.918 525.265 372.716 505.423 378.278C485.581 383.838 464.769 385.029 444.422 381.768H218.726C210.008 382.964 201.219 383.565 192.42 383.565C186.103 383.565 179.863 383.263 173.698 382.661C126.269 378.057 82.2554 355.954 50.2471 320.661C18.2386 285.369 0.531323 239.42 0.579934 191.782C0.579934 85.8611 86.4723 0 192.42 0C277.749 0 350.053 55.6965 374.971 132.707C400.675 110.846 433.334 98.8659 467.081 98.9193C545.682 98.9193 609.42 162.638 609.42 241.242Z" fill="#D2D2D2"/>
<path opacity="0.1" d="M554.734 353.373C539.286 365.432 521.518 374.176 502.538 379.062C483.558 383.947 463.775 384.869 444.423 381.768H218.726C210.009 382.964 201.22 383.565 192.421 383.565C186.105 383.565 179.864 383.263 173.699 382.661C136.321 378.997 100.841 364.448 71.6525 340.821C42.4643 317.193 20.8519 285.524 9.49274 249.737C27.869 210.482 75.0798 182.549 130.432 182.549C184.371 182.549 230.603 209.079 249.899 246.761C259.401 245.034 269.039 244.168 278.696 244.174C334.601 244.174 382.2 272.686 400.172 312.531C415.06 308.02 430.535 305.743 446.091 305.778C491.687 305.799 531.76 324.75 554.734 353.373Z" fill="#0147D0"/>
<path d="M187.479 357.655C187.479 371.266 182.254 378.656 173.699 382.661C141.471 379.55 110.565 368.292 83.89 349.946C84.5738 345.319 85.8843 340.807 87.7853 336.532L112.119 344.098L90.4476 331.347C93.3784 326.345 97.1231 321.868 101.528 318.098L142.409 330.806L110.381 311.999C116.976 308.386 124.275 306.244 131.777 305.72C139.279 305.196 146.807 306.302 153.841 308.963C160.874 311.624 167.248 315.776 172.523 321.134C177.799 326.493 181.851 332.929 184.401 340.002L184.513 340.321C184.598 340.56 184.683 340.799 184.763 341.043C185.05 341.889 185.314 342.745 185.555 343.609C185.645 343.917 185.73 344.226 185.804 344.539C185.878 344.852 185.958 345.134 186.028 345.431C186.096 345.729 186.156 345.963 186.208 346.206C186.246 346.366 186.283 346.525 186.314 346.685C186.374 346.939 186.426 347.216 186.474 347.455C186.549 347.826 186.623 348.205 186.687 348.576C186.75 348.948 186.819 349.351 186.878 349.74C186.936 350.127 187.006 350.6 187.059 351.035C187.111 351.471 187.154 351.811 187.191 352.2C187.191 352.321 187.218 352.439 187.228 352.56C187.265 352.9 187.292 353.241 187.319 353.581C187.321 353.625 187.321 353.669 187.319 353.713C187.351 354.139 187.378 354.563 187.399 354.989C187.42 355.413 187.436 355.827 187.446 356.232C187.45 356.273 187.45 356.313 187.446 356.354C187.473 356.778 187.479 357.214 187.479 357.655Z" fill="#138799"/>
<path opacity="0.1" d="M187.478 357.655C187.478 371.266 182.254 378.656 173.698 382.661C152.857 380.655 132.489 375.227 113.415 366.596L114.286 366.017C118.224 363.408 122.295 360.742 126.929 359.855C131.004 359.073 135.208 359.732 139.348 359.499C146.554 359.058 153.338 355.95 158.377 350.78C161.338 347.721 163.691 343.965 167.226 341.627C171.062 339.109 175.93 338.567 180.479 339.194C181.801 339.387 183.11 339.654 184.401 339.996L184.512 340.315C184.597 340.554 184.683 340.793 184.763 341.038C185.049 341.884 185.314 342.739 185.554 343.604C185.644 343.911 185.73 344.22 185.804 344.533C185.878 344.847 185.958 345.128 186.027 345.426C186.096 345.723 186.154 345.957 186.208 346.202C186.245 346.361 186.282 346.521 186.314 346.68C186.372 346.935 186.426 347.211 186.473 347.45C186.548 347.822 186.622 348.199 186.686 348.571C186.749 348.942 186.819 349.347 186.877 349.734C186.936 350.122 187.004 350.595 187.058 351.031C187.111 351.466 187.154 351.807 187.191 352.194C187.191 352.316 187.218 352.433 187.228 352.556C187.265 352.895 187.292 353.235 187.319 353.575C187.321 353.619 187.321 353.663 187.319 353.708C187.35 354.133 187.377 354.559 187.398 354.983C187.42 355.407 187.435 355.823 187.446 356.226C187.449 356.267 187.449 356.307 187.446 356.348C187.473 356.778 187.478 357.214 187.478 357.655Z" fill="black"/>
<path d="M497.717 366.491C497.722 367.875 497.579 369.258 497.293 370.612C497.239 370.867 497.18 371.118 497.122 371.361C495.613 377.413 491.356 381.838 486.276 382.12C486.106 382.12 485.936 382.12 485.744 382.12C480.373 382.12 475.829 377.487 474.329 371.106C474.288 370.937 474.251 370.766 474.214 370.575C473.926 369.221 473.784 367.838 473.788 366.452C473.788 357.809 479.139 350.808 485.744 350.808C492.35 350.808 497.717 357.846 497.717 366.491Z" fill="#3F3D56"/>
<path opacity="0.1" d="M497.717 366.489C497.721 367.875 497.578 369.258 497.292 370.612C497.238 370.867 497.18 371.117 497.121 371.361C496.941 371.361 496.765 371.361 496.59 371.361C495.274 371.291 493.965 371.113 492.679 370.83C491.538 371.183 490.373 371.449 489.192 371.627C488.288 371.764 487.376 371.848 486.461 371.882C486.153 371.882 485.845 371.882 485.537 371.882C484.442 371.882 483.348 371.809 482.263 371.664C480.508 371.43 478.785 371.003 477.124 370.389C476.215 370.692 475.289 370.94 474.35 371.133C474.307 370.964 474.27 370.793 474.233 370.602C473.947 369.246 473.804 367.865 473.809 366.479C473.809 357.836 479.16 350.833 485.765 350.833C492.371 350.833 497.717 357.846 497.717 366.489Z" fill="black"/>
<path d="M523.223 337.345C523.229 333.541 522.337 329.791 520.62 326.396L506.559 330.768L518.904 323.517C516.833 320.526 514.119 318.038 510.958 316.236C507.798 314.435 504.273 313.367 500.644 313.11C500.067 312.234 499.433 311.396 498.747 310.602L478.553 316.887L495.117 307.149C491.949 304.718 488.23 303.105 484.289 302.453C480.348 301.802 476.308 302.131 472.525 303.411C468.742 304.693 465.333 306.886 462.6 309.798C459.867 312.71 457.894 316.25 456.856 320.106L474.153 340.012L455.389 326.444C450.636 329.814 447.252 334.78 445.854 340.436C444.456 346.09 445.138 352.06 447.774 357.256C450.41 362.451 454.825 366.528 460.215 368.741C465.605 370.954 471.611 371.158 477.139 369.316C482.14 371.154 487.605 371.304 492.699 369.746C496.251 370.524 499.932 370.495 503.47 369.663C507.01 368.831 510.317 367.216 513.15 364.939C515.983 362.661 518.269 359.777 519.841 356.5C521.412 353.221 522.228 349.634 522.231 346C522.231 345.468 522.231 344.936 522.177 344.405C522.872 342.117 523.226 339.737 523.223 337.345Z" fill="#138799"/>
<path opacity="0.1" d="M522.806 341.85C515.38 340.444 507.765 340.346 500.306 341.564C491.862 342.96 483.231 346.031 474.973 343.789C470.127 342.472 465.939 339.422 461.204 337.728C456.636 336.134 451.715 335.84 446.99 336.878C445.189 341.185 444.666 345.919 445.484 350.515C446.303 355.11 448.428 359.373 451.604 362.795C454.782 366.214 458.877 368.649 463.401 369.806C467.925 370.962 472.685 370.792 477.115 369.317C482.116 371.154 487.58 371.306 492.675 369.747C496.228 370.529 499.911 370.503 503.454 369.674C506.997 368.843 510.308 367.23 513.144 364.952C515.98 362.673 518.269 359.787 519.842 356.508C521.414 353.228 522.231 349.637 522.232 346C522.232 345.469 522.232 344.938 522.179 344.405C522.435 343.566 522.644 342.713 522.806 341.85Z" fill="black"/>
<path d="M379.754 133.037H377.48C376.807 133.037 376.262 133.581 376.262 134.253V170.612C376.262 171.284 376.807 171.829 377.48 171.829H379.754C380.425 171.829 380.971 171.284 380.971 170.612V134.253C380.971 133.581 380.425 133.037 379.754 133.037Z" fill="#3A3768"/>
<path d="M221.218 102.643H221.011C220.339 102.643 219.794 103.188 219.794 103.86V114.198C219.794 114.87 220.339 115.415 221.011 115.415H221.218C221.89 115.415 222.435 114.87 222.435 114.198V103.86C222.435 103.188 221.89 102.643 221.218 102.643Z" fill="#3A3768"/>
<path d="M221.456 126.029H220.914C220.241 126.029 219.696 126.574 219.696 127.245V147.04C219.696 147.712 220.241 148.257 220.914 148.257H221.456C222.128 148.257 222.672 147.712 222.672 147.04V127.245C222.672 126.574 222.128 126.029 221.456 126.029Z" fill="#3A3768"/>
<path d="M221.362 156.034H220.964C220.291 156.034 219.746 156.579 219.746 157.251V177.236C219.746 177.908 220.291 178.453 220.964 178.453H221.362C222.034 178.453 222.579 177.908 222.579 177.236V157.251C222.579 156.579 222.034 156.034 221.362 156.034Z" fill="#3A3768"/>
<path d="M358.083 60.4407H242.011C230.568 60.4407 221.291 69.7144 221.291 81.1542V359.748C221.291 371.189 230.568 380.461 242.011 380.461H358.083C369.525 380.461 378.802 371.189 378.802 359.748V81.1542C378.802 69.7144 369.525 60.4407 358.083 60.4407Z" fill="#3F3D56"/>
<path d="M304.794 69.9978H286.911C285.776 69.9978 284.855 70.9183 284.855 72.0537V72.4043C284.855 73.5397 285.776 74.4603 286.911 74.4603H304.794C305.929 74.4603 306.85 73.5397 306.85 72.4043V72.0537C306.85 70.9183 305.929 69.9978 304.794 69.9978Z" fill="#E6E8EC"/>
<path d="M312.706 74.7632C314.106 74.7632 315.241 73.6286 315.241 72.2291C315.241 70.8296 314.106 69.6951 312.706 69.6951C311.306 69.6951 310.171 70.8296 310.171 72.2291C310.171 73.6286 311.306 74.7632 312.706 74.7632Z" fill="#E6E8EC"/>
<path d="M356.547 68.7759H338.531V70.9487C338.531 73.6793 337.447 76.298 335.515 78.2288C333.584 80.1597 330.964 81.2444 328.233 81.2444H270.745C268.014 81.2444 265.394 80.1597 263.463 78.2288C261.531 76.298 260.446 73.6793 260.446 70.9487V68.7759H243.526C241.884 68.7759 240.256 69.0993 238.74 69.7279C237.223 70.3564 235.844 71.2777 234.682 72.439C233.521 73.6003 232.6 74.979 231.972 76.4962C231.344 78.0134 231.021 79.6396 231.022 81.2816V359.62C231.021 361.263 231.344 362.888 231.972 364.406C232.6 365.923 233.521 367.302 234.682 368.463C235.844 369.625 237.223 370.546 238.74 371.174C240.256 371.803 241.884 372.127 243.526 372.127H356.547C359.865 372.127 363.046 370.809 365.392 368.463C367.738 366.118 369.057 362.937 369.057 359.62V81.2816C369.057 77.9648 367.738 74.7839 365.392 72.4387C363.046 70.0934 359.865 68.7759 356.547 68.7759Z" fill="#138799"/>
<path opacity="0.1" d="M315.989 118.719H236.809V131.469H315.989V118.719Z" fill="black" stroke="#38D39F" stroke-miterlimit="10"/>
<path opacity="0.1" d="M255.939 205.845C265.33 205.845 272.944 198.234 272.944 188.845C272.944 179.456 265.33 171.845 255.939 171.845C246.547 171.845 238.933 179.456 238.933 188.845C238.933 198.234 246.547 205.845 255.939 205.845Z" fill="black" stroke="#38D39F" stroke-miterlimit="10"/>
<path d="M251.158 185.657V192.032H255.409L260.723 197.583V180.1L255.409 185.657H251.158Z" fill="white"/>
<path opacity="0.1" d="M301.11 205.845C310.502 205.845 318.115 198.234 318.115 188.845C318.115 179.456 310.502 171.845 301.11 171.845C291.718 171.845 284.105 179.456 284.105 188.845C284.105 198.234 291.718 205.845 301.11 205.845Z" fill="black" stroke="#38D39F" stroke-miterlimit="10"/>
<path d="M301.11 195.942C300.709 195.94 300.316 196.057 299.98 196.279C299.645 196.5 299.384 196.817 299.228 197.188C299.073 197.558 299.031 197.966 299.108 198.36C299.185 198.755 299.378 199.118 299.661 199.403C299.945 199.687 300.307 199.882 300.7 199.961C301.094 200.041 301.504 200 301.875 199.847C302.246 199.694 302.563 199.434 302.787 199.1C303.011 198.766 303.131 198.373 303.131 197.972C303.131 197.435 302.918 196.92 302.539 196.54C302.161 196.16 301.647 195.945 301.11 195.942ZM295.159 177.689C294.756 177.685 294.363 177.801 294.027 178.023C293.691 178.243 293.429 178.56 293.272 178.93C293.117 179.301 293.074 179.709 293.15 180.103C293.227 180.499 293.419 180.862 293.702 181.147C293.985 181.432 294.347 181.627 294.741 181.707C295.136 181.786 295.544 181.748 295.916 181.593C296.288 181.44 296.606 181.18 296.83 180.846C297.054 180.513 297.173 180.119 297.173 179.717C297.173 179.182 296.961 178.669 296.584 178.288C296.207 177.908 295.695 177.692 295.159 177.689ZM295.159 183.776C294.756 183.774 294.362 183.89 294.027 184.111C293.691 184.333 293.427 184.648 293.272 185.019C293.115 185.39 293.074 185.798 293.15 186.194C293.228 186.588 293.42 186.951 293.703 187.236C293.988 187.522 294.349 187.717 294.745 187.795C295.139 187.874 295.548 187.835 295.92 187.681C296.292 187.526 296.61 187.265 296.832 186.931C297.056 186.596 297.174 186.203 297.173 185.801C297.173 185.265 296.961 184.752 296.584 184.373C296.206 183.994 295.695 183.779 295.159 183.776ZM295.159 189.86C294.756 189.856 294.363 189.972 294.027 190.194C293.691 190.414 293.429 190.731 293.272 191.101C293.117 191.472 293.074 191.88 293.15 192.274C293.227 192.67 293.419 193.033 293.702 193.318C293.985 193.603 294.347 193.798 294.741 193.878C295.136 193.957 295.544 193.917 295.916 193.764C296.288 193.611 296.606 193.352 296.83 193.018C297.054 192.684 297.173 192.29 297.173 191.888C297.173 191.353 296.961 190.84 296.584 190.459C296.207 190.079 295.695 189.863 295.159 189.86ZM307.063 181.746C307.464 181.749 307.859 181.632 308.194 181.41C308.529 181.189 308.791 180.872 308.945 180.502C309.101 180.131 309.142 179.723 309.066 179.328C308.988 178.934 308.796 178.571 308.513 178.286C308.229 178.002 307.868 177.807 307.474 177.728C307.079 177.649 306.67 177.689 306.299 177.842C305.928 177.995 305.61 178.255 305.386 178.589C305.162 178.923 305.043 179.316 305.043 179.717C305.043 179.984 305.094 180.247 305.196 180.493C305.297 180.739 305.445 180.961 305.632 181.15C305.82 181.338 306.043 181.489 306.288 181.591C306.533 181.693 306.796 181.746 307.063 181.746ZM301.11 189.86C300.709 189.857 300.316 189.974 299.98 190.196C299.645 190.417 299.384 190.734 299.228 191.104C299.073 191.475 299.031 191.883 299.108 192.278C299.185 192.672 299.378 193.035 299.661 193.32C299.945 193.604 300.307 193.799 300.7 193.878C301.094 193.957 301.504 193.917 301.875 193.764C302.246 193.611 302.563 193.352 302.787 193.018C303.011 192.684 303.131 192.29 303.131 191.888C303.131 191.352 302.918 190.837 302.539 190.457C302.161 190.077 301.647 189.862 301.11 189.86ZM307.063 189.86C306.661 189.857 306.268 189.974 305.932 190.196C305.597 190.417 305.335 190.734 305.18 191.104C305.024 191.475 304.983 191.883 305.06 192.278C305.137 192.672 305.329 193.035 305.613 193.32C305.896 193.604 306.258 193.799 306.653 193.878C307.046 193.957 307.455 193.917 307.826 193.764C308.198 193.611 308.516 193.352 308.739 193.018C308.963 192.684 309.082 192.29 309.082 191.888C309.082 191.352 308.87 190.837 308.492 190.457C308.113 190.077 307.599 189.862 307.063 189.86ZM307.063 183.776C306.661 183.775 306.266 183.892 305.931 184.113C305.596 184.335 305.334 184.651 305.179 185.023C305.024 185.394 304.983 185.803 305.06 186.197C305.138 186.592 305.331 186.955 305.615 187.239C305.899 187.523 306.261 187.718 306.655 187.795C307.05 187.874 307.459 187.834 307.83 187.681C308.202 187.526 308.519 187.265 308.742 186.93C308.965 186.595 309.083 186.202 309.082 185.801C309.082 185.265 308.87 184.75 308.491 184.371C308.113 183.992 307.599 183.778 307.063 183.776ZM301.11 183.776C300.709 183.775 300.315 183.892 299.98 184.113C299.645 184.335 299.382 184.651 299.227 185.023C299.073 185.394 299.031 185.803 299.109 186.197C299.186 186.592 299.379 186.955 299.663 187.239C299.947 187.523 300.309 187.718 300.703 187.795C301.098 187.874 301.507 187.834 301.878 187.681C302.25 187.526 302.567 187.265 302.79 186.93C303.013 186.595 303.132 186.202 303.131 185.801C303.131 185.265 302.917 184.75 302.539 184.371C302.161 183.992 301.647 183.778 301.11 183.776ZM301.11 177.689C300.709 177.686 300.316 177.803 299.98 178.025C299.645 178.246 299.384 178.563 299.228 178.933C299.073 179.304 299.031 179.712 299.108 180.107C299.185 180.501 299.378 180.864 299.661 181.149C299.945 181.433 300.307 181.628 300.7 181.707C301.094 181.786 301.504 181.746 301.875 181.593C302.246 181.44 302.563 181.18 302.787 180.846C303.011 180.513 303.131 180.119 303.131 179.717C303.131 179.181 302.918 178.666 302.539 178.286C302.161 177.906 301.647 177.691 301.11 177.689Z" fill="white"/>
<g opacity="0.4">
<path opacity="0.1" d="M255.939 256.845C265.33 256.845 272.944 249.234 272.944 239.845C272.944 230.456 265.33 222.845 255.939 222.845C246.547 222.845 238.933 230.456 238.933 239.845C238.933 249.234 246.547 256.845 255.939 256.845Z" fill="black" stroke="#38D39F" stroke-miterlimit="10"/>
<path opacity="0.4" d="M263.908 240.907H257V247.813H254.874V240.907H247.966V238.782H254.874V231.875H257V238.782H263.908V240.907Z" fill="white"/>
</g>
<path opacity="0.1" d="M346.279 205.845C355.672 205.845 363.285 198.234 363.285 188.845C363.285 179.456 355.672 171.845 346.279 171.845C336.888 171.845 329.275 179.456 329.275 188.845C329.275 198.234 336.888 205.845 346.279 205.845Z" fill="black" stroke="#38D39F" stroke-miterlimit="10"/>
<path d="M346.282 178.479C345.008 178.496 343.751 178.764 342.581 179.266C341.412 179.768 340.352 180.496 339.464 181.408C338.577 182.319 337.876 183.397 337.404 184.58C336.933 185.761 336.699 187.024 336.715 188.297V195.932C336.711 196.355 336.788 196.776 336.945 197.17C337.103 197.565 337.336 197.924 337.632 198.228C337.928 198.532 338.281 198.774 338.671 198.941C339.061 199.109 339.48 199.199 339.905 199.203H343.093V190.432H338.841V188.308C338.841 186.335 339.625 184.444 341.02 183.049C342.415 181.654 344.308 180.871 346.282 180.871C348.254 180.871 350.147 181.654 351.542 183.049C352.937 184.444 353.721 186.335 353.721 188.308V190.432H349.47V199.199H352.658C353.082 199.194 353.502 199.105 353.893 198.938C354.282 198.771 354.636 198.528 354.932 198.224C355.229 197.919 355.462 197.56 355.618 197.166C355.775 196.771 355.853 196.35 355.847 195.926V188.297C355.863 187.024 355.63 185.761 355.158 184.58C354.686 183.397 353.987 182.319 353.098 181.408C352.21 180.496 351.151 179.768 349.981 179.266C348.811 178.764 347.554 178.496 346.282 178.479Z" fill="white"/>
<g opacity="0.4">
<path opacity="0.1" d="M301.11 256.845C310.502 256.845 318.115 249.234 318.115 239.845C318.115 230.456 310.502 222.845 301.11 222.845C291.718 222.845 284.105 230.456 284.105 239.845C284.105 249.234 291.718 256.845 301.11 256.845Z" fill="black" stroke="#38D39F" stroke-miterlimit="10"/>
<path opacity="0.4" d="M307.486 238.022V233.773C307.484 233.611 307.45 233.451 307.387 233.304C307.323 233.156 307.231 233.021 307.115 232.909C307 232.796 306.864 232.708 306.714 232.648C306.564 232.589 306.404 232.558 306.243 232.561H291.182C290.858 232.558 290.546 232.684 290.314 232.911C290.082 233.138 289.948 233.448 289.945 233.773V245.89C289.949 246.214 290.083 246.523 290.315 246.75C290.547 246.977 290.859 247.103 291.182 247.101H306.237C306.562 247.104 306.875 246.978 307.108 246.752C307.341 246.525 307.476 246.215 307.481 245.89V241.64L312.263 246.485V233.178L307.486 238.022Z" fill="white"/>
</g>
<path opacity="0.1" d="M346.279 256.845C355.672 256.845 363.285 249.234 363.285 239.845C363.285 230.456 355.672 222.845 346.279 222.845C336.888 222.845 329.275 230.456 329.275 239.845C329.275 249.234 336.888 256.845 346.279 256.845Z" fill="black" stroke="#38D39F" stroke-miterlimit="10"/>
<path d="M345.441 244.223C344.526 244.741 343.493 245.014 342.441 245.014C341.389 245.014 340.356 244.741 339.441 244.223C337.092 244.939 335.652 247.314 335.121 249.402H349.761C349.23 247.314 347.795 244.939 345.441 244.223ZM342.443 233.066C341.399 233.065 340.378 233.374 339.509 233.952C338.64 234.532 337.963 235.356 337.564 236.321C337.164 237.284 337.059 238.345 337.262 239.369C337.466 240.393 337.968 241.334 338.707 242.071C339.445 242.809 340.386 243.312 341.41 243.515C342.434 243.719 343.495 243.614 344.46 243.214C345.425 242.814 346.248 242.138 346.828 241.269C347.408 240.4 347.716 239.38 347.715 238.336C347.715 236.939 347.16 235.598 346.17 234.61C345.182 233.621 343.842 233.066 342.443 233.066ZM342.443 242.352C341.65 242.337 340.879 242.091 340.223 241.644C339.568 241.197 339.058 240.567 338.755 239.834H346.126C345.825 240.567 345.316 241.197 344.662 241.646C344.008 242.093 343.236 242.342 342.443 242.358V242.352Z" fill="white"/>
<path d="M349.597 246.214H357.441C357.197 245.112 356.67 244.092 355.913 243.253C355.156 242.415 354.193 241.787 353.12 241.432C352.205 241.952 351.171 242.225 350.118 242.225C349.412 242.231 348.71 242.112 348.046 241.874C347.676 242.524 347.206 243.112 346.653 243.616C347.869 244.174 348.893 245.077 349.597 246.214ZM348.801 237.05H353.806C353.502 237.782 352.992 238.408 352.336 238.853C351.681 239.3 350.91 239.543 350.118 239.557C349.687 239.555 349.26 239.48 348.853 239.335C348.788 239.76 348.679 240.179 348.529 240.584C349.255 240.814 350.023 240.886 350.779 240.793C351.535 240.7 352.262 240.444 352.91 240.043C353.559 239.642 354.112 239.106 354.533 238.471C354.954 237.835 355.232 237.117 355.348 236.363C355.465 235.611 355.417 234.842 355.208 234.109C354.998 233.377 354.633 232.699 354.136 232.12C353.64 231.543 353.024 231.079 352.332 230.761C351.638 230.444 350.886 230.281 350.124 230.282C349.237 230.283 348.364 230.508 347.586 230.935C346.809 231.362 346.152 231.977 345.675 232.725C346.472 233.185 347.163 233.807 347.701 234.553C348.24 235.299 348.615 236.15 348.801 237.05Z" fill="white"/>
<path d="M301.11 324.845C310.502 324.845 318.115 317.234 318.115 307.845C318.115 298.456 310.502 290.845 301.11 290.845C291.718 290.845 284.105 298.456 284.105 307.845C284.105 317.234 291.718 324.845 301.11 324.845Z" fill="#FF6F61"/>
<path d="M292.378 312.042C293.308 311.164 294.367 310.432 295.518 309.874C295.697 309.795 295.848 309.665 295.953 309.501C296.058 309.336 296.112 309.145 296.109 308.95L296.199 305.646C299.449 304.68 302.922 304.773 306.114 305.912L306.025 309.216C306.022 309.408 306.069 309.597 306.163 309.764C306.256 309.932 306.392 310.073 306.556 310.172C307.71 310.773 308.756 311.563 309.649 312.509C309.744 312.611 309.86 312.692 309.988 312.75C310.115 312.807 310.252 312.838 310.393 312.842C310.532 312.847 310.671 312.822 310.802 312.772C310.932 312.722 311.051 312.648 311.153 312.552L313.852 309.991C314.056 309.798 314.176 309.532 314.182 309.251C314.191 308.971 314.087 308.698 313.895 308.493C312.263 306.771 310.308 305.386 308.14 304.42C305.974 303.453 303.637 302.922 301.266 302.858C298.893 302.794 296.532 303.198 294.316 304.046C292.1 304.895 290.072 306.171 288.35 307.803C288.248 307.899 288.167 308.014 288.11 308.142C288.053 308.269 288.023 308.407 288.02 308.546C288.016 308.687 288.041 308.825 288.091 308.956C288.14 309.086 288.216 309.205 288.313 309.306L290.869 312.005C290.965 312.105 291.08 312.187 291.208 312.243C291.335 312.3 291.473 312.332 291.612 312.335C291.753 312.339 291.892 312.314 292.022 312.264C292.153 312.213 292.271 312.138 292.372 312.042H292.378Z" fill="white"/>
<path opacity="0.1" d="M348.406 142.625C355.742 142.625 361.691 136.679 361.691 129.344C361.691 122.009 355.742 116.062 348.406 116.062C341.069 116.062 335.121 122.009 335.121 129.344C335.121 136.679 341.069 142.625 348.406 142.625Z" fill="black" stroke="#38D39F" stroke-miterlimit="10"/>
<path d="M351.408 132.325C350.491 132.843 349.457 133.116 348.405 133.116C347.352 133.116 346.318 132.843 345.403 132.325C343.053 133.041 341.614 135.416 341.082 137.51H355.727C355.196 135.416 353.756 133.041 351.408 132.325ZM348.405 121.168C347.361 121.167 346.34 121.476 345.472 122.054C344.604 122.633 343.926 123.457 343.526 124.421C343.125 125.385 343.021 126.445 343.224 127.469C343.427 128.493 343.929 129.434 344.666 130.171C345.404 130.91 346.344 131.413 347.368 131.617C348.392 131.821 349.453 131.717 350.417 131.318C351.382 130.918 352.207 130.242 352.786 129.374C353.366 128.507 353.676 127.486 353.676 126.444C353.675 125.045 353.119 123.706 352.131 122.717C351.143 121.727 349.803 121.171 348.405 121.168ZM348.405 130.46C347.612 130.444 346.841 130.197 346.185 129.75C345.53 129.303 345.02 128.674 344.717 127.941H352.093C351.789 128.674 351.279 129.303 350.624 129.751C349.97 130.199 349.198 130.447 348.405 130.465V130.46Z" fill="white"/>
<path opacity="0.1" d="M215.579 35.2699C214.342 34.5527 212.667 35.238 211.817 36.3908C210.967 37.5437 210.755 39.0471 210.515 40.4443C210.043 43.584 209.697 47.1912 211.817 49.5606C208.352 39.0577 198.389 31.0093 187.372 29.8352" stroke="#0147D0" stroke-width="3" stroke-miterlimit="10"/>
<path opacity="0.1" d="M430.287 208.591C429.49 208.128 428.416 208.591 427.869 209.313C427.384 210.101 427.095 210.994 427.029 211.917C426.726 213.941 426.498 216.257 427.869 217.761C426.702 214.388 424.611 211.412 421.835 209.171C419.058 206.929 415.708 205.511 412.165 205.079" stroke="#0147D0" stroke-width="3" stroke-miterlimit="10"/>
<path opacity="0.1" d="M159.531 139.91C158.735 139.453 157.661 139.91 157.113 140.633C156.627 141.423 156.34 142.317 156.274 143.242C155.971 145.26 155.742 147.577 157.113 149.086C155.945 145.715 153.855 142.739 151.078 140.497C148.302 138.255 144.953 136.837 141.411 136.405" stroke="#0147D0" stroke-width="3" stroke-miterlimit="10"/>
<path d="M370.895 388.33C371.426 389.334 372.425 389.95 373.387 390.497C380.069 394.328 387.111 397.496 394.41 399.958C394.591 400.064 394.795 400.127 395.004 400.144C395.214 400.16 395.424 400.129 395.62 400.052C395.816 399.977 395.992 399.857 396.136 399.704C396.28 399.551 396.388 399.368 396.45 399.167C397.29 397.754 398.209 395.448 397.991 393.583C398.683 393.165 399.184 392.494 399.389 391.714C399.676 390.765 400.115 389.868 400.685 389.057C401.679 387.56 402.881 386.056 403.04 384.234C403.026 383.584 403.088 382.935 403.226 382.299C403.508 381.461 404.257 380.908 404.82 380.239C405.696 379.176 406.116 377.806 406.515 376.472C408.174 370.931 409.832 365.39 411.213 359.764C411.66 357.942 412.074 356.115 412.685 354.345C413.217 352.794 413.897 351.307 414.572 349.819C416.985 344.427 419.794 339.221 422.974 334.243C423.47 335.915 424.072 337.555 424.775 339.152C425.136 339.975 425.524 340.788 425.89 341.612C427.277 344.714 427.028 348.698 428.734 351.615C429.442 352.812 430.14 354.008 430.827 355.201C431.218 355.785 431.52 356.424 431.726 357.097C431.837 357.564 431.848 358.054 431.928 358.527C432.289 360.651 434.016 362.15 434.973 364.046C435.85 365.778 436.035 367.765 436.566 369.672C437.826 374.082 440.919 377.911 441.233 382.507C441.272 383.748 441.242 384.989 441.142 386.226C441.062 388.391 441.207 390.56 441.573 392.696C441.602 392.912 441.659 393.123 441.743 393.324C439.02 397.374 434.827 400.205 430.051 401.218C429.148 401.398 428.112 401.59 427.639 402.418C427.071 403.407 427.713 404.766 428.701 405.297C429.69 405.829 430.827 405.776 431.89 405.68C439.514 405.042 447.057 403.651 454.406 401.526C454.777 401.45 455.118 401.264 455.384 400.995C455.646 400.606 455.76 400.137 455.708 399.672C455.705 397.955 455.305 396.262 454.539 394.726L455.07 394.54C455.368 392.415 454.274 390.359 453.424 388.388C451.946 384.951 451.138 381.237 449.969 377.662C447.716 370.756 444.075 364.311 443.199 357.087C442.96 355.1 442.365 353.081 442.237 351.084C441.982 347.015 441.705 342.923 440.818 338.96C440.074 335.698 438.9 332.586 438.161 329.286C437.422 325.987 437.183 322.518 438.268 319.363C438.575 318.459 438.99 317.603 439.272 316.706C440.334 313.194 439.319 309.391 438.288 305.863C437.963 304.747 437.64 303.635 437.321 302.527C436.891 301.066 436.465 299.599 435.998 298.15C436.062 298.09 436.12 298.032 436.184 297.964C437.119 296.901 437.109 295.276 437.778 294.006C438.108 293.352 438.607 292.816 438.958 292.178C439.621 290.799 439.791 289.236 439.441 287.747C439.161 286.26 438.597 284.847 438.171 283.397C437.017 279.416 436.929 275.203 437.916 271.177C438.346 269.462 438.98 267.777 439.07 266.009C439.1 264.826 438.991 263.644 438.745 262.487C437.922 258.024 436.307 253.498 433.027 250.549C431.279 248.955 428.915 247.558 428.728 245.135C428.446 245.027 428.135 245.016 427.847 245.104C427.697 244.553 427.597 243.989 427.549 243.42H427.575C427.738 243.439 427.902 243.439 428.065 243.42C428.201 243.411 428.336 243.373 428.458 243.309C428.526 243.267 428.59 243.219 428.649 243.165C428.856 242.953 429.034 242.715 429.18 242.459C429.398 242.097 429.594 241.71 429.759 241.444C429.924 241.178 430.19 240.753 430.397 240.381C431.017 239.318 431.592 238.239 432.124 237.14V237.097C432.177 236.997 432.226 236.891 432.273 236.79L432.337 236.646L432.432 236.428C432.432 236.375 432.481 236.317 432.502 236.264C432.522 236.21 432.56 236.131 432.586 236.062L432.66 235.887C432.687 235.823 432.709 235.759 432.735 235.69C432.761 235.632 432.785 235.571 432.804 235.51C432.831 235.446 432.852 235.382 432.874 235.318C432.895 235.255 432.916 235.196 432.942 235.132C432.969 235.068 432.979 235.005 433.001 234.942L433.065 234.75C433.065 234.686 433.097 234.627 433.117 234.563L433.171 234.367L433.218 234.181L433.267 233.979C433.267 233.921 433.267 233.863 433.304 233.799C433.341 233.735 433.304 233.661 433.341 233.592C433.378 233.522 433.341 233.475 433.341 233.417L433.373 233.209V233.034C433.373 232.96 433.373 232.89 433.373 232.822C433.373 232.752 433.373 232.704 433.373 232.646C433.373 232.587 433.373 232.503 433.373 232.433V232.311C433.373 232.237 433.373 232.168 433.373 232.093C433.373 232.019 433.373 231.988 433.373 231.934C433.373 231.881 433.373 231.785 433.373 231.711C433.373 231.636 433.373 231.61 433.373 231.562C433.347 231.355 433.306 231.148 433.251 230.946C432.892 229.709 432.166 228.61 431.168 227.795C430.202 227.007 429.128 226.361 427.979 225.877C427.699 225.771 427.443 225.609 427.225 225.405C426.969 225.034 426.756 224.634 426.592 224.216C426.124 223.397 425.19 223.03 424.312 222.812C423.435 222.594 422.495 222.456 421.762 221.898C421.696 221.843 421.62 221.799 421.538 221.771C421.425 221.763 421.313 221.786 421.214 221.84L419.169 222.748C419.148 222.622 419.102 222.5 419.034 222.391C418.967 222.282 418.877 222.187 418.772 222.113C418.668 222.038 418.549 221.984 418.424 221.956C418.299 221.927 418.169 221.924 418.041 221.946C417.537 222.069 417.078 222.332 416.718 222.707C416.656 222.643 416.611 222.564 416.591 222.478C416.569 222.392 416.571 222.302 416.596 222.217L415.002 223.28C414.806 223.407 414.444 223.44 414.471 223.195C413.583 224.163 412.815 225.234 412.18 226.383C411.982 226.733 411.815 227.102 411.68 227.482C411.68 227.562 411.633 227.641 411.612 227.721C411.609 227.738 411.609 227.754 411.612 227.769C411.612 227.838 411.58 227.913 411.569 227.987C411.567 228.008 411.567 228.03 411.569 228.051C411.569 228.141 411.569 228.236 411.569 228.327C411.563 228.43 411.563 228.532 411.569 228.635C411.585 228.931 411.679 229.216 411.84 229.464C412.002 229.711 412.225 229.913 412.489 230.048C412.692 230.124 412.909 230.158 413.127 230.149C413.583 230.095 414.035 230.002 414.476 229.873C414.619 229.838 414.765 229.813 414.911 229.798C414.981 229.794 415.049 229.794 415.119 229.798C415.397 229.792 415.667 229.884 415.884 230.059L415.916 230.091C414.755 230.926 413.812 232.026 413.165 233.302C412.518 234.576 412.185 235.988 412.196 237.416C412.194 238.823 412.514 240.211 413.131 241.475C412.919 241.592 412.744 241.768 412.627 241.98C412.51 242.193 412.454 242.433 412.467 242.676C412.329 242.268 412.254 241.842 412.25 241.411C411.378 241.236 410.746 242.257 410.431 243.132C409.787 245.114 409.288 247.14 408.939 249.194C408.668 250.56 408.407 251.925 408.131 253.29C407.855 254.655 407.599 256.122 407.398 257.541C406.928 261.224 407.095 264.959 407.892 268.585C407.838 268.703 407.791 268.824 407.743 268.941C407.583 269.366 407.132 269.728 407.079 270.179C406.791 272.883 408.503 275.321 410.118 277.441C410.251 277.658 410.433 277.84 410.649 277.972C410.886 278.071 411.145 278.104 411.399 278.068C412.043 278.037 412.685 277.973 413.323 277.877C413.36 278.238 413.403 278.594 413.445 278.939C413.902 282.753 414.683 286.568 414.678 290.409C414.672 294.25 413.944 298.144 415.417 301.565C415.66 302.149 416.134 302.628 416.181 303.234H416.272C415.372 305.067 414.636 306.976 414.072 308.939C413.487 311.245 413.365 313.667 412.711 315.952C412.154 317.891 411.224 319.67 410.474 321.562C409.254 324.634 408.536 327.883 408.349 331.182C408.329 332.698 408.022 334.196 407.445 335.597C406.586 337.279 405.833 339.011 405.192 340.788C404.13 343.944 402.338 346.935 402.004 350.276C401.817 352.167 402.089 354.186 401.297 355.897C400.989 356.566 400.531 357.145 400.17 357.778C399.643 358.79 399.231 359.859 398.942 360.965L393.682 378.406C393.482 379.364 393.039 380.255 392.396 380.992C391.906 381.461 391.264 381.715 390.801 382.199C390.058 382.954 389.871 384.059 389.867 385.185C389.303 385.287 388.756 385.465 388.239 385.716C386.015 386.666 383.62 387.156 381.201 387.156C378.782 387.156 376.387 386.666 374.163 385.716C373.313 385.349 372.346 384.913 371.506 385.333C370.523 385.843 370.363 387.326 370.895 388.33ZM412.808 256.217C413.122 254.773 413.715 253.404 414.551 252.185C415.741 250.225 416.995 248.286 418.132 246.283L418.457 245.97C418.547 246.225 418.632 246.501 418.712 246.74C418.909 247.421 419.067 248.113 419.184 248.811C419.352 249.687 419.402 250.58 419.333 251.468L419.259 251.526C418.829 251.802 418.482 252.191 418.255 252.648C418.105 253.104 418.105 253.594 418.255 254.05L418.206 254.103L418.259 254.066C418.446 254.799 418.791 255.554 418.679 256.297C418.557 257.195 417.835 257.849 417.383 258.619C416.32 260.473 416.66 263.289 414.911 264.426L414.88 264.5C414.504 264.412 414.155 264.238 413.857 263.993C413.559 263.748 413.323 263.438 413.164 263.086C413.302 260.818 412.452 258.491 412.808 256.217Z" fill="url(#paint0_linear)"/>
<path d="M456.404 399.773C456.461 400.233 456.341 400.698 456.07 401.075C455.787 401.344 455.433 401.528 455.05 401.606C447.377 403.705 439.524 405.078 431.592 405.707C430.456 405.791 429.254 405.855 428.25 405.33C427.246 404.803 426.577 403.459 427.188 402.487C427.682 401.67 428.781 401.479 429.701 401.303C434.678 400.333 439.088 397.478 442.009 393.334C442.358 392.74 442.811 392.215 443.348 391.782C444.368 391.086 445.723 391.251 446.929 391.491C449.055 391.926 451.877 392.442 453.795 393.482C455.714 394.524 456.373 397.738 456.404 399.773Z" fill="#3F3D56"/>
<path opacity="0.1" d="M456.404 399.773C456.461 400.233 456.341 400.698 456.07 401.075C455.787 401.344 455.433 401.528 455.05 401.606C447.377 403.705 439.524 405.078 431.592 405.707C430.456 405.791 429.254 405.855 428.25 405.33C427.246 404.803 426.577 403.459 427.188 402.487C427.682 401.67 428.781 401.479 429.701 401.303C434.678 400.333 439.088 397.478 442.009 393.334C442.358 392.74 442.811 392.215 443.348 391.782C444.368 391.086 445.723 391.251 446.929 391.491C449.055 391.926 451.877 392.442 453.795 393.482C455.714 394.524 456.373 397.738 456.404 399.773Z" fill="black"/>
<path d="M394.65 399.258C394.443 399.674 394.089 400 393.656 400.172C393.275 400.235 392.882 400.19 392.525 400.038C384.947 397.62 377.613 394.495 370.62 390.705C369.621 390.173 368.579 389.557 368.021 388.579C367.464 387.602 367.633 386.099 368.659 385.605C369.52 385.191 370.53 385.605 371.411 385.982C376.117 387.879 381.374 387.879 386.079 385.982C386.696 385.672 387.364 385.478 388.05 385.408C389.277 385.381 390.335 386.247 391.238 387.114C392.79 388.639 394.868 390.609 395.91 392.521C396.951 394.434 395.729 397.531 394.65 399.258Z" fill="#3F3D56"/>
<path opacity="0.1" d="M394.65 399.258C394.443 399.674 394.089 400 393.656 400.172C393.275 400.235 392.882 400.19 392.525 400.038C384.947 397.62 377.613 394.495 370.62 390.705C369.621 390.173 368.579 389.557 368.021 388.579C367.464 387.602 367.633 386.099 368.659 385.605C369.52 385.191 370.53 385.605 371.411 385.982C376.117 387.879 381.374 387.879 386.079 385.982C386.696 385.672 387.364 385.478 388.05 385.408C389.277 385.381 390.335 386.247 391.238 387.114C392.79 388.639 394.868 390.609 395.91 392.521C396.951 394.434 395.729 397.531 394.65 399.258Z" fill="black"/>
<path d="M435.154 297.522C435.946 299.648 436.61 301.773 437.28 303.897L438.29 307.192C439.352 310.671 440.415 314.421 439.315 317.891C439.023 318.789 438.592 319.633 438.253 320.547C437.125 323.661 437.386 327.119 438.14 330.344C438.895 333.568 440.117 336.666 440.893 339.906C441.834 343.816 442.105 347.875 442.371 351.865C442.504 353.836 443.12 355.827 443.375 357.788C444.289 364.912 448.077 371.298 450.427 378.088C451.644 381.61 452.483 385.27 454.03 388.664C454.912 390.609 456.055 392.622 455.747 394.731C451.426 396.261 446.638 396.234 442.568 394.137C442.31 394.044 442.089 393.877 441.929 393.655C441.77 393.435 441.681 393.171 441.675 392.898C441.301 390.795 441.159 388.658 441.249 386.523C441.351 385.308 441.381 384.088 441.34 382.869C441.015 378.337 437.79 374.56 436.483 370.204C435.952 368.35 435.707 366.368 434.793 364.657C433.794 362.788 431.997 361.294 431.604 359.212C431.519 358.744 431.509 358.266 431.396 357.804C431.178 357.135 430.862 356.503 430.456 355.928L428.288 352.375C426.508 349.495 426.768 345.564 425.328 342.503C424.945 341.69 424.537 340.91 424.159 340.081C423.43 338.508 422.804 336.889 422.284 335.237C418.974 340.121 416.043 345.253 413.515 350.584C412.783 352.038 412.127 353.53 411.548 355.053C410.91 356.794 410.486 358.601 410.013 360.396C408.578 365.948 406.825 371.415 405.119 376.865C404.704 378.183 404.263 379.522 403.354 380.584C402.769 381.243 401.993 381.785 401.697 382.618C401.555 383.242 401.49 383.881 401.505 384.52C401.335 386.321 400.086 387.803 399.05 389.302C398.455 390.105 397.998 391.004 397.7 391.959C397.577 392.385 397.365 392.782 397.076 393.121C396.789 393.459 396.43 393.732 396.028 393.921C395.624 394.11 395.186 394.21 394.742 394.215C394.297 394.22 393.856 394.13 393.449 393.95H393.406C392.985 393.74 392.579 393.499 392.194 393.227C391.189 392.596 390.234 391.886 389.341 391.103C388.55 390.34 387.838 389.5 387.215 388.596C387.108 388.441 387.038 388.264 387.011 388.078C386.985 387.893 387.001 387.704 387.06 387.525C387.118 387.347 387.218 387.185 387.35 387.052C387.482 386.919 387.643 386.818 387.821 386.757C387.709 385.28 387.677 383.596 388.74 382.577C389.235 382.098 389.904 381.843 390.414 381.386C391.078 380.669 391.54 379.79 391.753 378.837C393.567 373.128 395.377 367.418 397.184 361.709C397.487 360.61 397.916 359.551 398.466 358.552C398.843 357.926 399.316 357.358 399.639 356.699C400.464 355.01 400.172 353.023 400.373 351.152C400.719 347.853 402.568 344.911 403.689 341.797C404.359 340.039 405.144 338.326 406.037 336.67C406.638 335.297 406.958 333.818 406.979 332.32C407.175 329.053 407.923 325.843 409.189 322.826C409.965 320.977 410.937 319.209 411.517 317.29C412.202 315.038 412.324 312.647 412.941 310.384C413.532 308.434 414.302 306.541 415.242 304.732C416.013 303.138 416.804 301.507 418.074 300.27C420.158 298.24 423.224 297.576 426.13 297.485C429.038 297.395 432.258 297.825 435.154 297.522Z" fill="#3F3D56"/>
<path d="M417.315 256.149C421.057 253.938 424.757 251.657 428.416 249.307C427.54 248.126 427.056 246.701 427.029 245.232C427.029 245.174 427.029 245.114 427.029 245.056C426.977 243.628 427.518 242.4 425.717 242.586C423.986 242.809 422.275 243.164 420.6 243.649C420.121 243.77 415.976 245.295 415.817 245.141C416.74 246.237 417.423 247.515 417.82 248.891C418.024 249.563 418.189 250.246 418.314 250.937C418.676 252.765 418.692 254.91 417.315 256.149Z" fill="#A0616A"/>
<path d="M412.292 280.656C412.769 284.416 413.583 288.183 413.578 291.966C413.572 295.748 412.812 299.6 414.348 302.989C414.603 303.563 415.092 304.01 415.146 304.636C417.271 305.002 419.344 304.01 421.369 303.292C423.225 302.642 425.151 302.211 427.108 302.007C428.701 301.847 430.339 301.836 431.922 301.534C433.5 301.287 434.958 300.542 436.083 299.409C437.056 298.346 437.045 296.752 437.725 295.504C438.07 294.861 438.591 294.335 438.958 293.703C439.643 292.352 439.82 290.801 439.457 289.331C439.089 287.878 438.648 286.446 438.134 285.038C436.929 281.124 436.837 276.953 437.869 272.99C438.315 271.295 438.963 269.632 439.07 267.884C439.101 266.716 438.989 265.549 438.735 264.409C437.874 260.011 436.189 255.544 432.778 252.637C430.955 251.081 428.489 249.684 428.298 247.325C427.511 247.016 426.666 247.543 425.991 248.041L418.414 253.625C417.964 253.891 417.596 254.275 417.35 254.735C416.878 255.867 417.967 257.11 417.792 258.333C417.664 259.22 416.91 259.862 416.442 260.628C415.327 262.45 415.687 265.228 413.864 266.348C413.699 266.688 413.545 267.04 413.407 267.412C412.757 269.269 412.319 271.192 412.106 273.149C411.851 275.649 411.914 278.172 412.292 280.656Z" fill="#3F3D56"/>
<path opacity="0.1" d="M415.837 245.152C416.761 246.247 417.444 247.525 417.841 248.902C418.444 249.038 419.061 249.105 419.679 249.104C422.772 249.104 424.844 245.561 426.381 243.128C426.332 241.699 427.517 242.41 425.716 242.597C423.986 242.819 422.274 243.175 420.598 243.659C420.121 243.781 415.975 245.306 415.837 245.152Z" fill="black"/>
<path d="M419.679 248.377C424.481 248.377 428.373 244.485 428.373 239.685C428.373 234.885 424.481 230.994 419.679 230.994C414.878 230.994 410.986 234.885 410.986 239.685C410.986 244.485 414.878 248.377 419.679 248.377Z" fill="#A0616A"/>
<path d="M413.028 245.839L415.038 248.04C415.696 248.762 416.817 248.813 417.538 248.154L424.289 241.994C425.011 241.335 425.062 240.216 424.402 239.495L422.393 237.293C421.734 236.572 420.615 236.521 419.893 237.18L413.143 243.34C412.42 243.999 412.369 245.118 413.028 245.839Z" fill="#3F3D56"/>
<path opacity="0.1" d="M413.028 245.839L415.038 248.04C415.696 248.762 416.817 248.813 417.538 248.154L424.289 241.994C425.011 241.335 425.062 240.216 424.402 239.495L422.393 237.293C421.734 236.572 420.615 236.521 419.893 237.18L413.143 243.34C412.42 243.999 412.369 245.118 413.028 245.839Z" fill="black"/>
<path d="M420.223 242.039C420.622 242.039 420.945 241.715 420.945 241.316C420.945 240.918 420.622 240.594 420.223 240.594C419.823 240.594 419.499 240.918 419.499 241.316C419.499 241.715 419.823 242.039 420.223 242.039Z" fill="white"/>
<path opacity="0.1" d="M412.293 280.656C418.999 279.668 425.089 275.64 429.75 270.646C430.621 269.825 431.294 268.818 431.721 267.698C431.955 266.763 432.035 265.795 431.96 264.835L431.849 260.999C431.801 259.321 431.732 257.578 430.919 256.112C430.106 254.645 428.293 253.588 426.731 254.2C422.623 255.793 419.95 259.437 417.601 263.166C416.929 264.33 416.196 265.454 415.407 266.54C415.008 267.044 414.466 267.56 413.812 267.491C413.674 267.479 413.539 267.443 413.414 267.385C412.762 269.242 412.325 271.167 412.112 273.122C411.853 275.631 411.915 278.162 412.293 280.656Z" fill="black"/>
<path d="M411.691 258.257C412.025 256.822 412.642 255.467 413.509 254.274C416.107 250.209 419.031 246.24 420.418 241.613C418.393 241.98 418.074 245.465 416.022 245.619L416.181 243.107C416.181 242.681 416.181 242.166 415.837 241.943C415.491 241.72 414.874 242.012 414.646 242.432C414.417 242.852 414.37 243.361 414.158 243.791C413.944 244.223 413.445 244.604 413.004 244.413L412.823 243.579C412.634 243.54 412.438 243.543 412.25 243.591C412.062 243.638 411.887 243.729 411.74 243.853C411.591 243.978 411.474 244.134 411.395 244.312C411.317 244.489 411.28 244.682 411.287 244.876C411.142 244.475 411.066 244.053 411.059 243.627C410.15 243.457 409.491 244.462 409.167 245.327C408.495 247.276 407.972 249.274 407.605 251.304L406.77 255.346C406.478 256.744 406.192 258.141 406 259.549C405.499 263.286 405.698 267.083 406.585 270.747C407.698 270.13 408.779 269.454 409.82 268.723C410.623 268.044 411.522 267.273 411.824 266.237C412.573 263.623 411.25 260.887 411.691 258.257Z" fill="#A0616A"/>
<path d="M426.732 253.115C428.294 252.504 430.107 253.562 430.92 255.028C431.733 256.495 431.802 258.216 431.85 259.916L431.955 263.761C432.035 264.723 431.957 265.69 431.722 266.625C431.294 267.743 430.623 268.749 429.755 269.574C424.601 275.094 417.709 279.423 410.162 279.789C409.898 279.824 409.629 279.792 409.382 279.694C409.167 279.559 408.985 279.377 408.85 279.163C407.166 277.07 405.386 274.662 405.662 271.996C405.709 271.55 406.193 271.189 406.353 270.774C407.365 268.359 409.222 266.395 411.576 265.249L412.033 265.037C412.209 265.388 412.461 265.697 412.771 265.939C413.08 266.182 413.441 266.352 413.824 266.439C414.461 266.503 415.009 265.993 415.418 265.488C416.209 264.401 416.941 263.273 417.613 262.11C419.951 258.343 422.629 254.714 426.732 253.115Z" fill="#3F3D56"/>
<path d="M426.195 245.37C425.456 244.987 425.339 244.005 425.265 243.176C425.182 242.211 425.034 241.253 424.824 240.306C424.596 239.244 424.218 238.151 423.315 237.587C422.998 237.391 422.636 237.279 422.263 237.26C421.89 237.241 421.519 237.318 421.184 237.481C420.849 237.646 420.561 237.892 420.348 238.197C420.133 238.503 420.001 238.858 419.962 239.229C419.972 239.405 419.919 239.581 419.812 239.723C419.742 239.789 419.653 239.836 419.557 239.855C419.141 239.95 418.702 239.888 418.33 239.677C417.958 239.467 417.677 239.125 417.544 238.719C417.39 238.188 417.507 237.502 417.129 237.066C416.752 236.63 416.305 236.642 415.939 236.354C415.716 236.135 415.547 235.868 415.444 235.574C415.339 235.279 415.303 234.965 415.338 234.654C415.338 233.863 415.445 232.917 414.807 232.429C413.844 231.68 412.399 232.869 411.268 232.429C410.954 232.276 410.694 232.033 410.521 231.731C410.347 231.429 410.268 231.081 410.295 230.734C410.361 230.039 410.597 229.371 410.986 228.79C411.651 227.651 412.453 226.597 413.372 225.65C413.372 225.883 413.739 225.857 413.941 225.729L415.62 224.71C415.592 224.794 415.59 224.885 415.613 224.972C415.636 225.058 415.685 225.134 415.752 225.193C416.134 224.823 416.61 224.566 417.129 224.449C417.39 224.4 417.659 224.457 417.878 224.604C418.098 224.753 418.251 224.981 418.303 225.241L420.429 224.321C420.515 224.262 420.621 224.235 420.724 224.246C420.828 224.257 420.926 224.304 420.997 224.38C421.763 224.912 422.74 225.066 423.654 225.278C424.569 225.49 425.541 225.857 426.031 226.665C426.204 227.079 426.428 227.471 426.695 227.833C426.929 228.04 427.202 228.2 427.496 228.306C428.694 228.777 429.822 229.411 430.844 230.192C431.872 230.983 432.63 232.069 433.019 233.305C433.592 235.372 432.764 237.556 431.801 239.462C431.067 240.92 430.244 242.33 429.336 243.686C428.996 244.217 428.527 245.221 427.98 245.53C427.386 245.694 426.751 245.638 426.195 245.37Z" fill="#3F3D56"/>
<path opacity="0.1" d="M411.284 230.261C412.416 230.696 413.861 229.506 414.822 230.261C415.445 230.749 415.354 231.696 415.354 232.486C415.32 232.797 415.355 233.112 415.459 233.406C415.563 233.699 415.732 233.967 415.955 234.187C416.322 234.473 416.842 234.543 417.145 234.899C417.448 235.255 417.405 235.998 417.559 236.551C417.693 236.957 417.973 237.299 418.346 237.509C418.719 237.719 419.156 237.783 419.573 237.688C419.67 237.668 419.758 237.622 419.828 237.554C419.935 237.413 419.987 237.238 419.977 237.06C420.016 236.69 420.15 236.335 420.363 236.029C420.578 235.724 420.865 235.478 421.2 235.314C421.536 235.15 421.907 235.074 422.279 235.092C422.651 235.111 423.013 235.223 423.331 235.419C424.234 235.982 424.611 237.097 424.839 238.139C425.051 239.084 425.198 240.043 425.281 241.008C425.356 241.837 425.473 242.819 426.21 243.202C426.776 243.478 427.423 243.535 428.029 243.361C428.56 243.054 429.043 242.033 429.383 241.518C430.292 240.154 431.116 238.735 431.849 237.268C432.459 236.134 432.899 234.917 433.157 233.655C433.538 235.611 432.752 237.64 431.849 239.441C431.116 240.898 430.291 242.309 429.383 243.665C429.043 244.196 428.576 245.199 428.029 245.508C427.423 245.681 426.776 245.625 426.21 245.349C425.473 244.966 425.356 243.983 425.281 243.155C425.198 242.19 425.051 241.231 424.839 240.285C424.611 239.223 424.234 238.128 423.331 237.566C423.013 237.369 422.651 237.256 422.279 237.239C421.907 237.22 421.536 237.297 421.2 237.46C420.865 237.624 420.578 237.871 420.363 238.176C420.15 238.482 420.016 238.836 419.977 239.207C419.987 239.384 419.935 239.559 419.828 239.701C419.758 239.768 419.67 239.813 419.573 239.834C419.156 239.929 418.719 239.866 418.346 239.656C417.973 239.445 417.693 239.104 417.559 238.697C417.405 238.165 417.522 237.48 417.145 237.045C416.768 236.609 416.322 236.62 415.955 236.333C415.732 236.113 415.563 235.846 415.459 235.552C415.355 235.257 415.32 234.943 415.354 234.633C415.354 233.841 415.46 232.896 414.822 232.406C413.861 231.658 412.416 232.848 411.284 232.406C410.97 232.255 410.71 232.011 410.536 231.709C410.363 231.407 410.284 231.06 410.311 230.712C410.329 230.329 410.42 229.953 410.576 229.602C410.729 229.897 410.979 230.129 411.284 230.261Z" fill="black"/>
</g>
<defs>
<linearGradient id="paint0_linear" x1="413.158" y1="405.744" x2="413.158" y2="221.76" gradientUnits="userSpaceOnUse">
<stop stop-color="#808080" stop-opacity="0.25"/>
<stop offset="0.54" stop-color="#808080" stop-opacity="0.12"/>
<stop offset="1" stop-color="#808080" stop-opacity="0.1"/>
</linearGradient>
<clipPath id="clip0">
<rect width="610" height="409.373" fill="white"/>
</clipPath>
</defs>
</svg>
