<svg width="70" height="70" viewBox="0 0 70 70" fill="none" xmlns="http://www.w3.org/2000/svg">
<g clip-path="url(#clip0)">
<path d="M9.80005 4.20001V65.8H11.2H12.6H55.3985L52.8829 63H39.5993H12.6V7.00001H43.4V21H57.4V25.2V26.6V32.6621L60.2 35.4621V26.6V25.2V19.0203L45.3797 4.20001H9.80005ZM46.2 8.9797L55.4204 18.2H46.2V8.9797ZM44.4008 25.211C43.4263 25.211 42.4514 25.5782 41.7157 26.3129C40.2416 27.7848 40.2416 30.2168 41.7157 31.6887L41.8688 31.8418L31.8418 41.866L31.6887 41.7129C30.9528 40.977 29.9762 40.611 29.0008 40.611C28.0263 40.611 27.0514 40.9782 26.3157 41.7129C24.8416 43.1848 24.8416 45.6168 26.3157 47.0887L38.3141 59.0871C39.0501 59.8231 40.0296 60.2 40.9993 60.2C41.9683 60.2 42.9502 59.8241 43.6872 59.0871C45.1612 57.6153 45.1612 55.1859 43.6872 53.7141L43.6188 53.6457L46.0934 51.1711L61.7915 68.7231L61.8188 68.7504C63.6584 70.5901 66.6941 70.4149 68.5536 68.5535C70.4118 66.6934 70.5901 63.6584 68.7504 61.8188L68.7231 61.7914L51.1711 46.0934L53.6458 43.6188L53.7141 43.6871C54.4501 44.4231 55.4296 44.8 56.3993 44.8C57.3683 44.8 58.3502 44.424 59.0872 43.6871C60.5612 42.2153 60.5612 39.7859 59.0872 38.3141L47.0887 26.3129C46.3528 25.577 45.3762 25.211 44.4008 25.211ZM44.4036 27.9918C44.656 27.9918 44.907 28.0933 45.109 28.2953L57.1075 40.2938C57.5094 40.6951 57.5094 41.3061 57.1075 41.7074C56.9063 41.9085 56.6566 42 56.3993 42C56.1397 42 55.8959 41.9095 55.6938 41.7074L43.6926 29.7063C43.2907 29.3049 43.2907 28.6967 43.6926 28.2953H43.6954C43.8974 28.0933 44.1512 27.9918 44.4036 27.9918ZM43.8485 33.8215L51.6661 41.6391L41.6391 51.666L33.8215 43.8485L43.8485 33.8215ZM29.0036 43.3918C29.256 43.3918 29.507 43.4933 29.709 43.6953L41.7075 55.6938C42.1094 56.0951 42.1094 56.7061 41.7075 57.1074C41.5063 57.3085 41.2566 57.4 40.9993 57.4C40.7397 57.4 40.4959 57.3095 40.2938 57.1074L28.2926 45.1063C27.8907 44.7049 27.8907 44.0967 28.2926 43.6953H28.2954C28.4974 43.4933 28.7512 43.3918 29.0036 43.3918ZM49.1887 48.0758L66.7735 63.8067C67.4448 64.4855 67.4458 65.7011 66.5739 66.5738C65.7032 67.4454 64.4855 67.4448 63.8067 66.7735L48.0758 49.1887L49.1887 48.0758Z" fill="#438FEF"/>
</g>
<defs>
<clipPath id="clip0">
<rect width="70" height="70" fill="white"/>
</clipPath>
</defs>
</svg>
