<svg width="70" height="70" viewBox="0 0 70 70" fill="none" xmlns="http://www.w3.org/2000/svg">
<path d="M35.0842 3.11298C34.8843 3.12349 34.6845 3.14453 34.4952 3.19711C33.6434 3.36538 32.9282 3.92277 32.5601 4.71153L23.8101 22.5481L3.95436 25.4928C2.9763 25.6716 2.1665 26.3762 1.87203 27.3332C1.56704 28.2903 1.81945 29.3314 2.52407 30.0361L16.7428 44.0024L13.4616 63.6899C13.2933 64.689 13.6929 65.7091 14.5133 66.3191C15.3336 66.9186 16.4273 67.0132 17.3318 66.5505L35 57.2115L52.6683 66.5505C53.5728 67.0132 54.6665 66.9186 55.4868 66.3191C56.3071 65.7091 56.7068 64.689 56.5385 63.6899L53.2572 44.0024L67.476 30.0361C68.1806 29.3314 68.433 28.2903 68.128 27.3332C67.8336 26.3762 67.0238 25.6716 66.0457 25.4928L46.1899 22.5481L37.4399 4.71153C37.0193 3.77554 36.1148 3.15504 35.0842 3.11298ZM35 12.0312L42.0673 26.25C42.467 27.0282 43.2242 27.5646 44.0866 27.6803L59.8197 30.0361L48.4616 41.1418C47.8095 41.7413 47.494 42.6247 47.6202 43.4976L50.3125 59.2308L36.2621 51.8269C35.4733 51.4062 34.5268 51.4062 33.738 51.8269L19.6875 59.2308L22.3798 43.4976C22.506 42.6247 22.1905 41.7413 21.5385 41.1418L10.1803 30.0361L25.9135 27.6803C26.7759 27.5646 27.5331 27.0282 27.9327 26.25L35 12.0312Z" fill="#438FEF"/>
</svg>
