<svg width="88" height="68" viewBox="0 0 88 68" fill="none" xmlns="http://www.w3.org/2000/svg">
<path fill-rule="evenodd" clip-rule="evenodd" d="M64 52V60H68C79.0457 60 88 51.0457 88 40C88 29.9398 80.5723 21.6145 70.9018 20.209C67.5 8.42248 56.6345 0 44 0C34.6137 0 26.0361 4.66029 20.8796 12.2011C9.06812 13.7338 0 23.8351 0 36C0 49.2548 10.7452 60 24 60V52C15.1634 52 8 44.8366 8 36C8 27.4018 14.7974 20.3486 23.3586 20.0126L25.5626 19.926L26.6657 18.0159C30.2172 11.8657 36.7696 8 44 8C53.8045 8 62.1214 15.1051 63.7238 24.6646L64.295 28.0727L67.75 28.0025C67.8122 28.0015 67.8434 28.001 67.8746 28.0006C67.9059 28.0003 67.9372 28.0002 68 28C74.6274 28 80 33.3726 80 40C80 46.6274 74.6274 52 68 52H64ZM47.9986 68V41.6569L57.1701 50.8285L62.827 45.1716L43.9986 26.3432L25.1701 45.1716L30.827 50.8285L39.9986 41.6569V68H47.9986Z" fill="#98D0CE"/>
</svg>
