<?xml version="1.0" encoding="UTF-8"?>
<svg xmlns="http://www.w3.org/2000/svg" xmlns:xlink="http://www.w3.org/1999/xlink" width="534.272476" height="441" viewBox="0 0 534.272476 441">
<path fill-rule="nonzero" fill="rgb(25.882353%, 56.078431%, 93.72549%)" fill-opacity="1" d="M 363.535156 0 L 215.90625 0 C 187.996094 0 162.808594 16.738281 151.996094 42.457031 L 2.445312 398.132812 C -6.113281 418.492188 8.835938 441 30.921875 441 L 170.707031 441 C 178.398438 441 185.316406 436.347656 188.234375 429.230469 Z M 363.535156 0 "/>
<path fill-rule="nonzero" fill="rgb(76.470588%, 85.882353%, 98.039216%)" fill-opacity="1" d="M 363.535156 0 L 531.839844 398.652344 C 540.324219 418.75 525.570312 440.988281 503.757812 440.988281 L 359.699219 440.988281 C 353.515625 440.988281 347.960938 437.203125 345.703125 431.457031 L 268.050781 233.789062 Z M 363.535156 0 "/>
<path fill-rule="nonzero" fill="rgb(60%, 76.078431%, 96.862745%)" fill-opacity="1" d="M 363.535156 0 L 287.855469 284.207031 L 268.050781 233.796875 Z M 363.535156 0 "/>
</svg>
