<?xml version="1.0" encoding="UTF-8"?>
<svg xmlns="http://www.w3.org/2000/svg" xmlns:xlink="http://www.w3.org/1999/xlink" width="129.483444" height="32" viewBox="0 0 129.483444 32">
<path fill-rule="nonzero" fill="rgb(25.882353%, 56.078431%, 93.72549%)" fill-opacity="1" d="M 26.378906 0 L 15.667969 0 C 13.640625 0 11.8125 1.214844 11.027344 3.082031 L 0.175781 28.890625 C -0.445312 30.367188 0.640625 32 2.242188 32 L 12.386719 32 C 12.945312 32 13.445312 31.664062 13.660156 31.144531 Z M 26.378906 0 "/>
<path fill-rule="nonzero" fill="rgb(76.470588%, 85.882353%, 98.039216%)" fill-opacity="1" d="M 26.378906 0 L 38.589844 28.925781 C 39.207031 30.386719 38.136719 32 36.554688 32 L 26.101562 32 C 25.652344 32 25.25 31.722656 25.085938 31.308594 L 19.449219 16.964844 Z M 26.378906 0 "/>
<path fill-rule="nonzero" fill="rgb(60%, 76.078431%, 96.862745%)" fill-opacity="1" d="M 26.378906 0 L 20.886719 20.621094 L 19.449219 16.964844 Z M 26.378906 0 "/>
<path fill-rule="nonzero" fill="rgb(0%, 0%, 0%)" fill-opacity="1" d="M 46.003906 11.417969 L 50.050781 11.417969 L 48.027344 5.984375 Z M 50.621094 12.910156 L 45.433594 12.910156 L 44.242188 16.019531 L 42.484375 16.019531 L 47.140625 3.78125 L 48.914062 3.78125 L 53.550781 16.019531 L 51.808594 16.019531 Z M 55.992188 11.542969 L 55.992188 16.019531 L 54.375 16.019531 L 54.375 7.722656 L 55.992188 7.722656 L 55.992188 8.964844 C 56.230469 8.503906 56.589844 8.15625 57.078125 7.917969 C 57.574219 7.671875 58.078125 7.546875 58.585938 7.546875 C 59.617188 7.546875 60.402344 7.867188 60.949219 8.503906 C 61.503906 9.144531 61.785156 10.050781 61.785156 11.222656 L 61.785156 16.019531 L 60.167969 16.019531 L 60.167969 11.328125 C 60.167969 10.640625 60 10.101562 59.667969 9.710938 C 59.351562 9.320312 58.90625 9.125 58.335938 9.125 C 57.6875 9.125 57.128906 9.328125 56.667969 9.730469 C 56.21875 10.121094 55.992188 10.726562 55.992188 11.542969 Z M 65.273438 16.019531 L 63.675781 16.019531 L 63.675781 7.722656 L 65.273438 7.722656 Z M 63.355469 4.667969 C 63.355469 4.964844 63.460938 5.214844 63.675781 5.414062 C 63.898438 5.617188 64.164062 5.714844 64.472656 5.714844 C 64.78125 5.714844 65.042969 5.617188 65.253906 5.414062 C 65.480469 5.214844 65.59375 4.964844 65.59375 4.667969 C 65.59375 4.371094 65.480469 4.125 65.253906 3.921875 C 65.042969 3.722656 64.78125 3.621094 64.472656 3.621094 C 64.164062 3.621094 63.898438 3.722656 63.675781 3.921875 C 63.460938 4.125 63.355469 4.371094 63.355469 4.667969 Z M 68.863281 11.96875 L 68.863281 16.019531 L 67.265625 16.019531 L 67.265625 3.210938 L 68.863281 3.210938 L 68.863281 10.617188 L 71.722656 7.722656 L 73.925781 7.722656 L 70.375 11.3125 L 74.777344 16.019531 L 72.648438 16.019531 Z M 81.523438 16.019531 L 81.523438 14.738281 C 81.25 15.199219 80.847656 15.5625 80.3125 15.824219 C 79.78125 16.070312 79.210938 16.195312 78.609375 16.195312 C 77.4375 16.195312 76.441406 15.792969 75.625 14.988281 C 74.808594 14.183594 74.398438 13.140625 74.398438 11.863281 C 74.398438 10.570312 74.808594 9.527344 75.625 8.734375 C 76.441406 7.941406 77.4375 7.546875 78.609375 7.546875 C 79.210938 7.546875 79.78125 7.671875 80.3125 7.917969 C 80.859375 8.167969 81.261719 8.515625 81.523438 8.964844 L 81.523438 7.722656 L 83.121094 7.722656 L 83.121094 16.019531 Z M 81.503906 11.84375 C 81.503906 11.003906 81.226562 10.339844 80.667969 9.855469 C 80.113281 9.371094 79.472656 9.125 78.75 9.125 C 77.980469 9.125 77.335938 9.382812 76.816406 9.890625 C 76.304688 10.386719 76.050781 11.039062 76.050781 11.84375 C 76.050781 12.648438 76.3125 13.3125 76.832031 13.832031 C 77.355469 14.355469 77.992188 14.613281 78.75 14.613281 C 79.519531 14.613281 80.171875 14.367188 80.703125 13.867188 C 81.238281 13.371094 81.503906 12.695312 81.503906 11.84375 Z M 89.335938 3.78125 L 90.988281 3.78125 L 90.988281 14.472656 L 95.980469 14.472656 L 95.980469 16.019531 L 89.335938 16.019531 Z M 97.992188 11.222656 L 103.144531 11.222656 C 103.050781 10.535156 102.769531 9.996094 102.308594 9.605469 C 101.859375 9.203125 101.296875 9.003906 100.621094 9.003906 C 99.921875 9.003906 99.332031 9.203125 98.847656 9.605469 C 98.371094 9.996094 98.089844 10.535156 97.992188 11.222656 Z M 104.742188 11.84375 C 104.742188 12.152344 104.738281 12.363281 104.726562 12.484375 L 97.992188 12.484375 C 98.089844 13.171875 98.378906 13.71875 98.863281 14.136719 C 99.359375 14.539062 99.964844 14.738281 100.675781 14.738281 C 101.183594 14.738281 101.652344 14.625 102.078125 14.402344 C 102.503906 14.175781 102.832031 13.863281 103.054688 13.460938 C 103.210938 13.519531 103.445312 13.613281 103.765625 13.746094 C 104.085938 13.863281 104.308594 13.945312 104.441406 13.992188 C 104.097656 14.703125 103.582031 15.246094 102.894531 15.628906 C 102.207031 16.003906 101.449219 16.195312 100.621094 16.195312 C 99.414062 16.195312 98.402344 15.792969 97.585938 14.988281 C 96.78125 14.183594 96.378906 13.132812 96.378906 11.84375 C 96.378906 10.554688 96.78125 9.515625 97.585938 8.734375 C 98.402344 7.941406 99.414062 7.546875 100.621094 7.546875 C 101.816406 7.546875 102.800781 7.941406 103.570312 8.734375 C 104.351562 9.515625 104.742188 10.554688 104.742188 11.84375 Z M 107.328125 17.207031 C 107.566406 17.65625 107.902344 18.007812 108.34375 18.253906 C 108.792969 18.503906 109.253906 18.628906 109.726562 18.628906 C 111.691406 18.628906 112.675781 17.375 112.675781 14.863281 C 112.675781 14.839844 112.667969 14.808594 112.65625 14.773438 C 112.65625 14.726562 112.65625 14.691406 112.65625 14.667969 C 112.421875 15.140625 112.023438 15.515625 111.46875 15.785156 C 110.921875 16.058594 110.347656 16.195312 109.746094 16.195312 C 108.574219 16.195312 107.578125 15.796875 106.761719 15.003906 C 105.945312 14.210938 105.535156 13.175781 105.535156 11.898438 C 105.535156 10.605469 105.945312 9.558594 106.761719 8.753906 C 107.578125 7.949219 108.574219 7.546875 109.746094 7.546875 C 110.347656 7.546875 110.917969 7.675781 111.449219 7.9375 C 111.996094 8.195312 112.398438 8.558594 112.65625 9.019531 L 112.65625 7.722656 L 114.257812 7.722656 L 114.257812 14.757812 C 114.257812 18.355469 112.746094 20.15625 109.726562 20.15625 C 108.945312 20.15625 108.222656 19.960938 107.5625 19.570312 C 106.898438 19.179688 106.371094 18.628906 105.980469 17.917969 C 106.0625 17.882812 106.300781 17.757812 106.691406 17.546875 C 107.082031 17.332031 107.292969 17.21875 107.328125 17.207031 Z M 112.640625 11.878906 C 112.640625 11.027344 112.375 10.359375 111.839844 9.871094 C 111.308594 9.375 110.65625 9.125 109.886719 9.125 C 109.128906 9.125 108.488281 9.386719 107.96875 9.90625 C 107.449219 10.429688 107.1875 11.085938 107.1875 11.878906 C 107.1875 12.707031 107.441406 13.371094 107.953125 13.867188 C 108.472656 14.367188 109.117188 14.613281 109.886719 14.613281 C 110.609375 14.613281 111.25 14.367188 111.804688 13.867188 C 112.363281 13.371094 112.640625 12.707031 112.640625 11.878906 Z M 122.804688 16.019531 L 122.804688 14.738281 C 122.53125 15.199219 122.128906 15.5625 121.597656 15.824219 C 121.066406 16.070312 120.496094 16.195312 119.890625 16.195312 C 118.71875 16.195312 117.726562 15.792969 116.910156 14.988281 C 116.089844 14.183594 115.683594 13.140625 115.683594 11.863281 C 115.683594 10.570312 116.089844 9.527344 116.910156 8.734375 C 117.726562 7.941406 118.71875 7.546875 119.890625 7.546875 C 120.496094 7.546875 121.066406 7.671875 121.597656 7.917969 C 122.140625 8.167969 122.546875 8.515625 122.804688 8.964844 L 122.804688 7.722656 L 124.402344 7.722656 L 124.402344 16.019531 Z M 122.789062 11.84375 C 122.789062 11.003906 122.507812 10.339844 121.953125 9.855469 C 121.394531 9.371094 120.757812 9.125 120.035156 9.125 C 119.265625 9.125 118.621094 9.382812 118.097656 9.890625 C 117.589844 10.386719 117.335938 11.039062 117.335938 11.84375 C 117.335938 12.648438 117.59375 13.3125 118.117188 13.832031 C 118.636719 14.355469 119.277344 14.613281 120.035156 14.613281 C 120.804688 14.613281 121.457031 14.367188 121.988281 13.867188 C 122.519531 13.371094 122.789062 12.695312 122.789062 11.84375 Z M 126.398438 3.210938 L 128.015625 3.210938 L 128.015625 16.019531 L 126.398438 16.019531 Z M 126.398438 3.210938 "/>
<path fill-rule="nonzero" fill="rgb(25.882353%, 56.078431%, 93.72549%)" fill-opacity="1" d="M 44.058594 24.777344 C 43.625 24.660156 43.304688 24.484375 43.097656 24.253906 C 42.890625 24.019531 42.804688 23.703125 42.84375 23.300781 C 42.875 22.972656 43.042969 22.695312 43.347656 22.476562 C 43.652344 22.253906 44.007812 22.144531 44.417969 22.144531 C 44.835938 22.144531 45.195312 22.253906 45.484375 22.464844 C 45.78125 22.671875 45.949219 22.992188 45.988281 23.425781 L 45.144531 23.425781 C 45.121094 23.265625 45.039062 23.140625 44.902344 23.046875 C 44.773438 22.957031 44.617188 22.914062 44.4375 22.914062 C 44.269531 22.914062 44.117188 22.953125 43.988281 23.03125 C 43.867188 23.101562 43.789062 23.199219 43.757812 23.320312 C 43.71875 23.464844 43.71875 23.582031 43.765625 23.679688 C 43.835938 23.828125 44.015625 23.945312 44.300781 24.03125 L 44.96875 24.195312 C 45.753906 24.390625 46.144531 24.828125 46.144531 25.515625 C 46.144531 25.921875 45.972656 26.253906 45.628906 26.503906 C 45.292969 26.75 44.878906 26.875 44.386719 26.875 C 43.953125 26.875 43.566406 26.742188 43.222656 26.476562 C 42.886719 26.210938 42.710938 25.859375 42.699219 25.417969 L 43.503906 25.417969 C 43.542969 25.65625 43.664062 25.828125 43.871094 25.933594 C 44.074219 26.054688 44.3125 26.109375 44.589844 26.089844 C 44.796875 26.074219 44.964844 26.011719 45.085938 25.902344 C 45.210938 25.792969 45.273438 25.65625 45.28125 25.496094 C 45.289062 25.339844 45.234375 25.21875 45.125 25.125 C 45.015625 25.035156 44.867188 24.96875 44.679688 24.921875 Z M 50.65625 26.214844 C 50.195312 26.65625 49.636719 26.875 48.976562 26.875 C 48.316406 26.875 47.753906 26.65625 47.296875 26.214844 C 46.835938 25.773438 46.605469 25.203125 46.605469 24.496094 C 46.605469 23.796875 46.832031 23.230469 47.285156 22.796875 C 47.746094 22.363281 48.308594 22.144531 48.976562 22.144531 C 49.640625 22.144531 50.207031 22.363281 50.664062 22.796875 C 51.125 23.230469 51.355469 23.796875 51.355469 24.496094 C 51.355469 25.195312 51.121094 25.769531 50.65625 26.214844 Z M 47.90625 25.601562 C 48.199219 25.882812 48.554688 26.019531 48.976562 26.019531 C 49.394531 26.019531 49.75 25.882812 50.035156 25.601562 C 50.324219 25.316406 50.472656 24.949219 50.472656 24.496094 C 50.472656 24.050781 50.324219 23.691406 50.035156 23.417969 C 49.75 23.144531 49.394531 23.011719 48.976562 23.011719 C 48.554688 23.011719 48.199219 23.144531 47.90625 23.417969 C 47.621094 23.691406 47.480469 24.050781 47.480469 24.496094 C 47.480469 24.949219 47.621094 25.316406 47.90625 25.601562 Z M 55.160156 25.125 L 55.160156 26.777344 L 54.277344 26.777344 L 54.277344 22.242188 L 55.160156 22.242188 L 55.160156 23.261719 C 55.378906 22.519531 55.800781 22.144531 56.421875 22.144531 C 56.777344 22.144531 57.039062 22.203125 57.207031 22.320312 L 57.074219 23.144531 C 56.859375 23.042969 56.636719 22.992188 56.402344 22.992188 C 55.988281 22.992188 55.675781 23.1875 55.46875 23.582031 C 55.261719 23.972656 55.160156 24.484375 55.160156 25.125 Z M 58.1875 24.15625 L 61.003906 24.15625 C 60.953125 23.78125 60.800781 23.484375 60.546875 23.273438 C 60.300781 23.050781 59.992188 22.941406 59.625 22.941406 C 59.242188 22.941406 58.917969 23.050781 58.652344 23.273438 C 58.394531 23.484375 58.238281 23.78125 58.1875 24.15625 Z M 61.878906 24.496094 C 61.878906 24.664062 61.875 24.78125 61.867188 24.84375 L 58.1875 24.84375 C 58.238281 25.21875 58.398438 25.523438 58.664062 25.75 C 58.933594 25.96875 59.265625 26.078125 59.652344 26.078125 C 59.933594 26.078125 60.1875 26.015625 60.421875 25.894531 C 60.652344 25.769531 60.832031 25.597656 60.957031 25.378906 C 61.039062 25.410156 61.167969 25.464844 61.34375 25.535156 C 61.519531 25.597656 61.640625 25.644531 61.710938 25.671875 C 61.523438 26.058594 61.242188 26.355469 60.867188 26.5625 C 60.492188 26.769531 60.078125 26.875 59.625 26.875 C 58.964844 26.875 58.410156 26.65625 57.964844 26.214844 C 57.523438 25.773438 57.304688 25.203125 57.304688 24.496094 C 57.304688 23.789062 57.523438 23.222656 57.964844 22.796875 C 58.410156 22.363281 58.964844 22.144531 59.625 22.144531 C 60.277344 22.144531 60.816406 22.363281 61.238281 22.796875 C 61.664062 23.222656 61.878906 23.789062 61.878906 24.496094 Z M 63.496094 24.332031 L 63.496094 26.777344 L 62.613281 26.777344 L 62.613281 22.242188 L 63.496094 22.242188 L 63.496094 22.921875 C 63.625 22.671875 63.824219 22.480469 64.089844 22.347656 C 64.359375 22.214844 64.636719 22.144531 64.914062 22.144531 C 65.476562 22.144531 65.90625 22.320312 66.207031 22.671875 C 66.511719 23.019531 66.660156 23.515625 66.660156 24.15625 L 66.660156 26.777344 L 65.777344 26.777344 L 65.777344 24.214844 C 65.777344 23.839844 65.6875 23.542969 65.507812 23.332031 C 65.332031 23.117188 65.089844 23.011719 64.777344 23.011719 C 64.421875 23.011719 64.117188 23.121094 63.863281 23.339844 C 63.621094 23.554688 63.496094 23.882812 63.496094 24.332031 Z M 68.917969 22.242188 L 69.878906 22.242188 L 69.878906 22.992188 L 68.917969 22.992188 L 68.917969 26.777344 L 68.035156 26.777344 L 68.035156 22.992188 L 67.21875 22.992188 L 67.21875 22.242188 L 68.035156 22.242188 L 68.035156 20.535156 L 68.917969 20.535156 Z M 71.011719 24.15625 L 73.824219 24.15625 C 73.773438 23.78125 73.621094 23.484375 73.371094 23.273438 C 73.125 23.050781 72.816406 22.941406 72.445312 22.941406 C 72.066406 22.941406 71.742188 23.050781 71.476562 23.273438 C 71.21875 23.484375 71.0625 23.78125 71.011719 24.15625 Z M 74.699219 24.496094 C 74.699219 24.664062 74.695312 24.78125 74.691406 24.84375 L 71.011719 24.84375 C 71.0625 25.21875 71.21875 25.523438 71.484375 25.75 C 71.757812 25.96875 72.089844 26.078125 72.476562 26.078125 C 72.753906 26.078125 73.011719 26.015625 73.242188 25.894531 C 73.476562 25.769531 73.65625 25.597656 73.777344 25.378906 C 73.863281 25.410156 73.992188 25.464844 74.167969 25.535156 C 74.339844 25.597656 74.464844 25.644531 74.535156 25.671875 C 74.347656 26.058594 74.066406 26.355469 73.691406 26.5625 C 73.316406 26.769531 72.902344 26.875 72.445312 26.875 C 71.785156 26.875 71.234375 26.65625 70.785156 26.214844 C 70.347656 25.773438 70.125 25.203125 70.125 24.496094 C 70.125 23.789062 70.347656 23.222656 70.785156 22.796875 C 71.234375 22.363281 71.785156 22.144531 72.445312 22.144531 C 73.101562 22.144531 73.636719 22.363281 74.058594 22.796875 C 74.488281 23.222656 74.699219 23.789062 74.699219 24.496094 Z M 76.320312 25.125 L 76.320312 26.777344 L 75.433594 26.777344 L 75.433594 22.242188 L 76.320312 22.242188 L 76.320312 23.261719 C 76.539062 22.519531 76.960938 22.144531 77.582031 22.144531 C 77.9375 22.144531 78.199219 22.203125 78.367188 22.320312 L 78.230469 23.144531 C 78.019531 23.042969 77.792969 22.992188 77.5625 22.992188 C 77.148438 22.992188 76.835938 23.1875 76.628906 23.582031 C 76.421875 23.972656 76.320312 24.484375 76.320312 25.125 Z M 79.867188 24.777344 C 79.433594 24.660156 79.113281 24.484375 78.90625 24.253906 C 78.699219 24.019531 78.617188 23.703125 78.65625 23.300781 C 78.6875 22.972656 78.855469 22.695312 79.160156 22.476562 C 79.464844 22.253906 79.820312 22.144531 80.226562 22.144531 C 80.648438 22.144531 81.003906 22.253906 81.296875 22.464844 C 81.59375 22.671875 81.761719 22.992188 81.800781 23.425781 L 80.957031 23.425781 C 80.929688 23.265625 80.851562 23.140625 80.714844 23.046875 C 80.585938 22.957031 80.429688 22.914062 80.246094 22.914062 C 80.078125 22.914062 79.929688 22.953125 79.800781 23.03125 C 79.679688 23.101562 79.601562 23.199219 79.566406 23.320312 C 79.527344 23.464844 79.53125 23.582031 79.578125 23.679688 C 79.648438 23.828125 79.828125 23.945312 80.113281 24.03125 L 80.78125 24.195312 C 81.566406 24.390625 81.957031 24.828125 81.957031 25.515625 C 81.957031 25.921875 81.785156 26.253906 81.441406 26.503906 C 81.105469 26.75 80.691406 26.875 80.199219 26.875 C 79.765625 26.875 79.378906 26.742188 79.035156 26.476562 C 78.699219 26.210938 78.523438 25.859375 78.507812 25.417969 L 79.316406 25.417969 C 79.355469 25.65625 79.476562 25.828125 79.683594 25.933594 C 79.886719 26.054688 80.125 26.109375 80.402344 26.089844 C 80.609375 26.074219 80.777344 26.011719 80.898438 25.902344 C 81.019531 25.792969 81.085938 25.65625 81.09375 25.496094 C 81.097656 25.339844 81.046875 25.21875 80.9375 25.125 C 80.828125 25.035156 80.679688 24.96875 80.492188 24.921875 Z M 85.960938 22.242188 L 86.925781 22.242188 L 86.925781 22.992188 L 85.960938 22.992188 L 85.960938 26.777344 L 85.078125 26.777344 L 85.078125 22.992188 L 84.261719 22.992188 L 84.261719 22.242188 L 85.078125 22.242188 L 85.078125 20.535156 L 85.960938 20.535156 Z M 88.421875 24.332031 L 88.421875 26.777344 L 87.535156 26.777344 L 87.535156 19.777344 L 88.421875 19.777344 L 88.421875 22.921875 C 88.542969 22.671875 88.75 22.480469 89.042969 22.347656 C 89.339844 22.214844 89.632812 22.144531 89.914062 22.144531 C 90.484375 22.144531 90.933594 22.324219 91.265625 22.679688 C 91.597656 23.03125 91.757812 23.519531 91.75 24.15625 L 91.75 26.777344 L 90.867188 26.777344 L 90.867188 24.214844 C 90.867188 23.84375 90.765625 23.554688 90.566406 23.339844 C 90.371094 23.121094 90.117188 23.011719 89.800781 23.011719 C 89.4375 23.011719 89.117188 23.121094 88.839844 23.339844 C 88.558594 23.554688 88.421875 23.882812 88.421875 24.332031 Z M 93.664062 25.125 L 93.664062 26.777344 L 92.78125 26.777344 L 92.78125 22.242188 L 93.664062 22.242188 L 93.664062 23.261719 C 93.886719 22.519531 94.304688 22.144531 94.925781 22.144531 C 95.285156 22.144531 95.546875 22.203125 95.714844 22.320312 L 95.578125 23.144531 C 95.363281 23.042969 95.140625 22.992188 94.90625 22.992188 C 94.492188 22.992188 94.183594 23.1875 93.976562 23.582031 C 93.769531 23.972656 93.664062 24.484375 93.664062 25.125 Z M 97.097656 26.777344 L 96.222656 26.777344 L 96.222656 22.242188 L 97.097656 22.242188 Z M 96.050781 20.574219 C 96.050781 20.734375 96.109375 20.871094 96.222656 20.980469 C 96.347656 21.089844 96.492188 21.144531 96.660156 21.144531 C 96.828125 21.144531 96.972656 21.089844 97.089844 20.980469 C 97.210938 20.871094 97.273438 20.734375 97.273438 20.574219 C 97.273438 20.410156 97.210938 20.273438 97.089844 20.164062 C 96.972656 20.054688 96.828125 20 96.660156 20 C 96.492188 20 96.347656 20.054688 96.222656 20.164062 C 96.109375 20.273438 96.050781 20.410156 96.050781 20.574219 Z M 97.613281 22.242188 L 98.546875 22.242188 L 99.925781 25.652344 L 101.292969 22.242188 L 102.238281 22.242188 L 100.34375 26.777344 L 100.351562 26.777344 L 99.5 26.777344 Z M 103.226562 24.15625 L 106.042969 24.15625 C 105.992188 23.78125 105.839844 23.484375 105.585938 23.273438 C 105.339844 23.050781 105.035156 22.941406 104.664062 22.941406 C 104.28125 22.941406 103.960938 23.050781 103.695312 23.273438 C 103.433594 23.484375 103.277344 23.78125 103.226562 24.15625 Z M 106.917969 24.496094 C 106.917969 24.664062 106.914062 24.78125 106.90625 24.84375 L 103.226562 24.84375 C 103.277344 25.21875 103.4375 25.523438 103.703125 25.75 C 103.976562 25.96875 104.304688 26.078125 104.695312 26.078125 C 104.972656 26.078125 105.226562 26.015625 105.460938 25.894531 C 105.695312 25.769531 105.871094 25.597656 105.996094 25.378906 C 106.078125 25.410156 106.207031 25.464844 106.382812 25.535156 C 106.558594 25.597656 106.679688 25.644531 106.753906 25.671875 C 106.566406 26.058594 106.285156 26.355469 105.90625 26.5625 C 105.53125 26.769531 105.117188 26.875 104.664062 26.875 C 104.003906 26.875 103.449219 26.65625 103.003906 26.214844 C 102.5625 25.773438 102.34375 25.203125 102.34375 24.496094 C 102.34375 23.789062 102.5625 23.222656 103.003906 22.796875 C 103.449219 22.363281 104.003906 22.144531 104.664062 22.144531 C 105.320312 22.144531 105.855469 22.363281 106.277344 22.796875 C 106.703125 23.222656 106.917969 23.789062 106.917969 24.496094 Z M 106.917969 24.496094 "/>
</svg>
