<?xml version="1.0" encoding="utf-8"?>
<!-- Generator: Adobe Illustrator 23.0.6, SVG Export Plug-In . SVG Version: 6.00 Build 0)  -->
<svg version="1.1" id="Layer_1" xmlns="http://www.w3.org/2000/svg" xmlns:xlink="http://www.w3.org/1999/xlink" x="0px" y="0px"
	 viewBox="0 0 1080 441.2" style="enable-background:new 0 0 1080 441.2;" xml:space="preserve">
<style type="text/css">
	.st0{fill:#FFFFFF;}
	.st1{opacity:0.5;fill:#FFFFFF;}
	.st2{opacity:0.4;fill:#2A7586;}
</style>
<g>
	<g>
		<path class="st0" d="M670.2,86.6l-57.5,131.8h22.5l14.8-34.5h59l15,34.5h22.6L689.1,86.6H670.2z M658.3,164.5l21.2-48.8l21.2,48.8
			H658.3z"/>
		<path class="st0" d="M821.1,218.4h20.4v-55.5c0-23.9-14.1-39.2-36.4-39.2c-10.9,0-21,3.9-27.3,11.7v-9.8h-20.4v92.8h20.4v-61.4
			c3.9-8.5,11.9-14.7,22.8-14.7c13,0,20.4,9.3,20.4,23.9V218.4z"/>
		<rect x="860.3" y="125.6" class="st0" width="20.4" height="92.8"/>
		<path class="st0" d="M870.5,81.8c-7.4,0-13.5,6.1-13.5,13.5c0,7.6,6.1,13.7,13.5,13.7c7.6,0,13.7-6.1,13.7-13.7
			C884.2,87.9,878.1,81.8,870.5,81.8z"/>
		<polygon class="st0" points="982.4,125.6 956.6,125.6 921.1,160.8 921.1,82.9 900.7,82.9 900.7,218.4 921.1,218.4 921.1,173.4 
			965.5,218.4 991.6,218.4 941,166.9 		"/>
		<path class="st0" d="M1059.6,125.6v8.5c-6.5-6.7-16.1-10.4-27.1-10.4c-27.5,0-46.2,22.1-46.2,48.3s18.7,48.3,46.2,48.3
			c11,0,20.6-3.7,27.1-10.6v8.7h20.4v-92.8H1059.6z M1059.6,188.7c-4.8,7.4-12.8,13-24.7,13c-16.3,0-27.7-13.4-27.7-29.7
			s11.3-29.7,27.7-29.7c11.9,0,19.9,5.6,24.7,12.8V188.7z"/>
		<polygon class="st0" points="633.6,266.6 624.2,266.6 624.2,354.5 677.5,354.5 677.5,345.6 633.6,345.6 		"/>
		<path class="st0" d="M711.7,291.4c-19.4,0-31.1,14.2-31.1,32.2c0,18.4,12.9,32.2,30.7,32.2c15.8,0,25.2-9.2,28.2-19.7h-8.9
			c-4.2,8.5-11.1,11.6-19.3,11.6c-11.3,0-21.5-8.9-21.8-21.7h51C742.1,308.2,731.4,291.4,711.7,291.4z M690,318.5
			c2.2-14,12.1-19.1,21.3-19.1c10.3,0,18.3,6.6,20.3,19.1H690z"/>
		<path class="st0" d="M800,303c-4.5-6.7-13.1-11.6-22.6-11.6c-17.6,0-30.6,13.9-30.6,31.5c0,17.7,13,31.6,30.6,31.6
			c9.5,0,18.2-4.9,22.6-11.6v7.3c0,15.2-9,23.5-21.3,23.5c-10.9,0-18.6-4.2-21.5-12.9h-8.5c2.1,12.2,13.6,20.8,29.9,20.8
			c17.1,0,30.1-10.8,30.1-30.9v-58H800V303z M778.2,346.4c-13.5,0-22.5-10.1-22.5-23.5c0-13.4,9-23.5,22.5-23.5
			c13.5,0,22.5,10.1,22.5,23.5C800.7,336.3,791.7,346.4,778.2,346.4z"/>
		<path class="st0" d="M873.5,303c-4.5-6.7-13.4-11.6-22.9-11.6c-17.6,0-30.8,14.5-30.8,32.2c0,17.7,13.2,32.2,30.8,32.2
			c9.5,0,18.4-4.9,22.9-11.6v10.4h8.7v-61.9h-8.7V303z M851.5,347.7c-13.5,0-22.8-10.8-22.8-24.1c0-13.4,9.3-24.1,22.8-24.1
			s22.8,10.8,22.8,24.1C874.2,336.9,865,347.7,851.5,347.7z"/>
		<rect x="896" y="261.7" class="st0" width="8.7" height="92.8"/>
	</g>
	<g>
		<path class="st1" d="M504.7,441.2H368.2c-9.8,0-18.9-6.7-23.3-17.3l-59.4-142.4l-20.1-48.1L175,16.7C189.7,6.1,207.6,0,226.5,0
			h136.4L528,395.9C536.7,416.7,524.1,441.2,504.7,441.2z"/>
		<path class="st0" d="M362.8,0l-97.4,233.4L253.9,261l-68,162.9c-4.4,10.6-13.5,17.3-23.3,17.3H26.1c-19.4,0-31.9-24.5-23.3-45.3
			l142.7-342c6.4-15.3,16.7-28,29.5-37.2C189.7,6.1,207.6,0,226.5,0H362.8z"/>
		<polygon class="st2" points="265.4,233.4 285.5,281.6 362.8,0 		"/>
	</g>
</g>
</svg>
