<svg width="24" height="25" viewBox="0 0 24 25" fill="none" xmlns="http://www.w3.org/2000/svg">
<path opacity="0.1" fill-rule="evenodd" clip-rule="evenodd" d="M0 12.5742C0 5.9468 5.37258 0.574219 12 0.574219C18.6274 0.574219 24 5.9468 24 12.5742C24 19.2016 18.6274 24.5742 12 24.5742C5.37258 24.5742 0 19.2016 0 12.5742Z" fill="white"/>
<path fill-rule="evenodd" clip-rule="evenodd" d="M18.4001 12.5654C18.4001 12.9983 18.356 13.4305 18.2695 13.8518C18.1851 14.2631 18.0601 14.6669 17.8963 15.0529C17.7363 15.4321 17.5379 15.7975 17.306 16.1383C17.0776 16.4769 16.8144 16.7946 16.5253 17.0842C16.2356 17.3725 15.9169 17.6349 15.5784 17.8643C15.2365 18.0946 14.8706 18.2928 14.4912 18.4535C14.1046 18.6164 13.6999 18.7412 13.2889 18.8255C12.867 18.9122 12.4333 18.9565 11.9998 18.9565C11.566 18.9565 11.1323 18.9122 10.711 18.8255C10.2994 18.7412 9.89471 18.6164 9.50844 18.4535C9.12905 18.2928 8.76277 18.0946 8.42088 17.8643C8.08243 17.635 7.76366 17.3725 7.47458 17.0842C7.1852 16.7946 6.92205 16.4769 6.69329 16.1383C6.46265 15.7975 6.26388 15.4321 6.10326 15.0529C5.93948 14.6669 5.81418 14.2631 5.72948 13.8518C5.64386 13.4305 5.6001 12.9983 5.6001 12.5654C5.6001 12.1323 5.64384 11.6992 5.72951 11.2788C5.8142 10.8675 5.9395 10.463 6.10328 10.0776C6.2639 9.69818 6.46268 9.33245 6.69332 8.99165C6.92207 8.65276 7.18523 8.33568 7.47461 8.04577C7.76369 7.75741 8.08245 7.49561 8.42091 7.26656C8.76279 7.0353 9.12908 6.83716 9.50846 6.67612C9.89474 6.51288 10.2994 6.38776 10.711 6.30414C11.1323 6.21802 11.5661 6.17432 11.9998 6.17432C12.4333 6.17432 12.8671 6.21802 13.2889 6.30414C13.6999 6.38779 14.1046 6.51291 14.4912 6.67612C14.8706 6.83714 15.2366 7.0353 15.5784 7.26656C15.9169 7.49561 16.2357 7.75741 16.5254 8.04577C16.8144 8.33568 17.0776 8.65276 17.306 8.99165C17.5379 9.33245 17.7363 9.6982 17.8963 10.0776C18.0601 10.463 18.1851 10.8675 18.2695 11.2788C18.356 11.6992 18.4001 12.1323 18.4001 12.5654ZM9.66779 7.62885C8.14363 8.34756 7.00607 9.74997 6.65136 11.4401C6.79545 11.4414 9.07307 11.4701 11.6973 10.7738C10.7513 9.09555 9.74061 7.72593 9.66779 7.62885ZM12.1501 11.6143C9.33589 12.4556 6.63543 12.395 6.53856 12.3913C6.53698 12.45 6.53417 12.5068 6.53417 12.5654C6.53417 13.9675 7.06389 15.2457 7.93456 16.2122C7.93268 16.2094 9.4284 13.5597 12.3779 12.6073C12.4492 12.5835 12.5217 12.5623 12.5936 12.5417C12.4564 12.2315 12.3067 11.9207 12.1501 11.6143ZM15.6094 8.46926C14.6471 7.62198 13.3836 7.10804 11.9998 7.10804C11.5557 7.10804 11.1247 7.16172 10.7119 7.26095C10.7938 7.37081 11.8204 8.73078 12.7551 10.4446C14.8174 9.67258 15.5959 8.48922 15.6094 8.46926ZM12.9661 13.4461C12.9539 13.4501 12.9418 13.4536 12.9299 13.4579C9.70507 14.5805 8.65196 16.8429 8.64057 16.8676C9.56845 17.5881 10.7323 18.0228 11.9998 18.0228C12.7567 18.0228 13.4777 17.869 14.1337 17.5903C14.0527 17.1135 13.7352 15.4421 12.9661 13.4461ZM15.054 17.0916C16.2812 16.2647 17.1528 14.9515 17.396 13.4305C17.2835 13.3943 15.7543 12.9109 13.9902 13.1933C14.7071 15.1606 14.9984 16.7627 15.054 17.0916ZM13.1758 11.2579C13.3027 11.5181 13.4255 11.783 13.539 12.0493C13.5793 12.1448 13.6187 12.2384 13.6571 12.332C15.5347 12.0961 17.3845 12.493 17.4635 12.5092C17.451 11.2154 16.9876 10.028 16.2207 9.09838C16.2104 9.11302 15.3338 10.3778 13.1758 11.2579Z" fill="white"/>
</svg>
