<svg width="24" height="25" viewBox="0 0 24 25" fill="none" xmlns="http://www.w3.org/2000/svg">
<path fill-rule="evenodd" clip-rule="evenodd" d="M16.9394 3.57422C18.2804 3.57422 19.5704 4.10422 20.5194 5.05522C21.4694 6.00422 22.0004 7.28422 22.0004 8.62422V16.5242C22.0004 19.3142 19.7304 21.5742 16.9394 21.5742H7.06037C4.26937 21.5742 2.00037 19.3142 2.00037 16.5242V8.62422C2.00037 5.83422 4.25937 3.57422 7.06037 3.57422H16.9394ZM18.5304 10.1142L18.6104 10.0342C18.8494 9.74422 18.8494 9.32422 18.5994 9.03422C18.4604 8.88522 18.2694 8.79422 18.0704 8.77422C17.8604 8.76322 17.6604 8.83422 17.5094 8.97422L13.0004 12.5742C12.4204 13.0552 11.5894 13.0552 11.0004 12.5742L6.50037 8.97422C6.18937 8.74422 5.75937 8.77422 5.50037 9.04422C5.23037 9.31422 5.20037 9.74422 5.42937 10.0442L5.56037 10.1742L10.1104 13.7242C10.6704 14.1642 11.3494 14.4042 12.0604 14.4042C12.7694 14.4042 13.4604 14.1642 14.0194 13.7242L18.5304 10.1142Z" fill="#BBCDE5"/>
</svg>
