<svg width="24" height="25" viewBox="0 0 24 25" fill="none" xmlns="http://www.w3.org/2000/svg">
<path opacity="0.1" fill-rule="evenodd" clip-rule="evenodd" d="M0 12.5742C0 5.9468 5.37258 0.574219 12 0.574219C18.6274 0.574219 24 5.9468 24 12.5742C24 19.2016 18.6274 24.5742 12 24.5742C5.37258 24.5742 0 19.2016 0 12.5742Z" fill="white"/>
<path fill-rule="evenodd" clip-rule="evenodd" d="M12.0007 6.17432C10.2625 6.17432 10.0444 6.18192 9.36174 6.21298C8.6804 6.24418 8.21533 6.35205 7.80839 6.51032C7.38745 6.67379 7.03038 6.89246 6.67464 7.24833C6.31864 7.60406 6.09997 7.96113 5.93597 8.38194C5.7773 8.78901 5.6693 9.25422 5.63863 9.93529C5.6081 10.618 5.6001 10.8362 5.6001 12.5744C5.6001 14.3125 5.60783 14.53 5.63876 15.2127C5.6701 15.894 5.77797 16.3591 5.9361 16.766C6.0997 17.187 6.31837 17.544 6.67424 17.8998C7.02985 18.2558 7.38692 18.475 7.80759 18.6384C8.21479 18.7967 8.68 18.9046 9.3612 18.9358C10.0439 18.9668 10.2619 18.9744 11.9999 18.9744C13.7382 18.9744 13.9557 18.9668 14.6383 18.9358C15.3197 18.9046 15.7853 18.7967 16.1925 18.6384C16.6133 18.475 16.9698 18.2558 17.3254 17.8998C17.6814 17.544 17.9001 17.187 18.0641 16.7662C18.2214 16.3591 18.3294 15.8939 18.3614 15.2128C18.3921 14.5301 18.4001 14.3125 18.4001 12.5744C18.4001 10.8362 18.3921 10.6181 18.3614 9.93542C18.3294 9.25408 18.2214 8.78901 18.0641 8.38207C17.9001 7.96114 17.6814 7.60406 17.3254 7.24833C16.9694 6.89232 16.6134 6.67365 16.1921 6.51032C15.7841 6.35205 15.3187 6.24418 14.6374 6.21298C13.9547 6.18192 13.7374 6.17432 11.9987 6.17432H12.0007ZM11.4265 7.32764C11.5969 7.32738 11.7871 7.32764 12.0007 7.32764C13.7095 7.32764 13.912 7.33378 14.5868 7.36444C15.2108 7.39298 15.5495 7.49725 15.7751 7.58485C16.0738 7.70085 16.2867 7.83952 16.5106 8.06352C16.7346 8.28752 16.8733 8.50086 16.9895 8.79953C17.0771 9.02486 17.1815 9.36353 17.2099 9.98754C17.2406 10.6622 17.2473 10.8649 17.2473 12.5729C17.2473 14.2809 17.2406 14.4836 17.2099 15.1583C17.1814 15.7823 17.0771 16.1209 16.9895 16.3463C16.8735 16.6449 16.7346 16.8576 16.5106 17.0815C16.2866 17.3055 16.0739 17.4441 15.7751 17.5602C15.5498 17.6482 15.2108 17.7522 14.5868 17.7807C13.9122 17.8114 13.7095 17.818 12.0007 17.818C10.2917 17.818 10.0892 17.8114 9.41451 17.7807C8.7905 17.7519 8.45183 17.6476 8.2261 17.56C7.92743 17.444 7.71409 17.3053 7.49009 17.0813C7.26609 16.8573 7.12742 16.6445 7.01115 16.3457C6.92355 16.1204 6.81915 15.7817 6.79075 15.1577C6.76008 14.4831 6.75395 14.2804 6.75395 12.5713C6.75395 10.8622 6.76008 10.6606 6.79075 9.98594C6.81928 9.36193 6.92355 9.02326 7.01115 8.79766C7.12715 8.49899 7.26609 8.28565 7.49009 8.06165C7.71409 7.83765 7.92743 7.69898 8.2261 7.58271C8.4517 7.49471 8.7905 7.39071 9.41451 7.36204C10.0049 7.33538 10.2337 7.32738 11.4265 7.32604V7.32764ZM15.417 8.39032C14.993 8.39032 14.649 8.73393 14.649 9.15807C14.649 9.58207 14.993 9.92607 15.417 9.92607C15.841 9.92607 16.185 9.58207 16.185 9.15807C16.185 8.73406 15.841 8.39032 15.417 8.39032ZM12.0007 9.28766C10.1856 9.28766 8.71401 10.7593 8.71401 12.5744C8.71401 14.3895 10.1856 15.8604 12.0007 15.8604C13.8158 15.8604 15.2869 14.3895 15.2869 12.5744C15.2869 10.7593 13.8158 9.28766 12.0007 9.28766ZM12.0007 10.441C13.1788 10.441 14.134 11.3961 14.134 12.5744C14.134 13.7525 13.1788 14.7077 12.0007 14.7077C10.8224 14.7077 9.86733 13.7525 9.86733 12.5744C9.86733 11.3961 10.8224 10.441 12.0007 10.441Z" fill="white"/>
</svg>
