<svg width="24" height="25" viewBox="0 0 24 25" fill="none" xmlns="http://www.w3.org/2000/svg">
<path fill-rule="evenodd" clip-rule="evenodd" d="M12.03 2.57424C14.29 2.58424 16.45 3.48424 18.03 5.06424C19.62 6.65424 20.51 8.80424 20.5 11.0342V11.0842C20.44 14.1142 18.74 16.9042 16.62 19.0842C15.42 20.3142 14.09 21.4042 12.64 22.3242C12.25 22.6542 11.68 22.6542 11.29 22.3242C9.14 20.9242 7.24 19.1642 5.7 17.1142C4.35 15.3342 3.58 13.1942 3.5 10.9642C3.52 6.31424 7.34 2.56424 12.03 2.57424ZM12.03 13.8342C12.74 13.8342 13.42 13.5642 13.92 13.0742C14.44 12.5642 14.731 11.8852 14.731 11.1742C14.731 9.69424 13.52 8.50424 12.03 8.50424C10.54 8.50424 9.34 9.69424 9.34 11.1742C9.34 12.6352 10.52 13.8142 12 13.8342H12.03Z" fill="#BBCDE5"/>
</svg>
