<svg width="24" height="25" viewBox="0 0 24 25" fill="none" xmlns="http://www.w3.org/2000/svg">
<path fill-rule="evenodd" clip-rule="evenodd" d="M5.00846 11.269C5.00846 10.6504 5.01591 10.0317 5.02339 9.41022L5.02339 9.4102C5.02719 9.09511 5.03099 8.77928 5.03384 8.46234C5.03384 5.05704 7.16556 2.57422 10.1094 2.57422H13.8906C16.8344 2.57422 18.9662 5.05704 18.9662 8.46234C18.9915 9.82643 19 11.1905 19 12.5644C19 13.9383 18.9915 15.322 18.9662 16.6861C18.9662 20.0914 16.8344 22.5742 13.8906 22.5742H10.1094C7.16556 22.5742 5.03384 20.0914 5.03384 16.6763C5.01692 15.3907 5 14.0757 5 12.741L5.00846 11.269ZM13.28 20.2145V20.3745C13.28 21.0481 12.7168 21.5745 12 21.5745C11.3003 21.5745 10.72 21.0481 10.72 20.3745V20.2145C10.72 19.5585 11.3003 19.0145 12 19.0145C12.7168 19.0145 13.28 19.5585 13.28 20.2145ZM7.01671 9.01786C7.01136 9.42185 7.00604 9.82396 7.00604 10.2261L7 11.1829C7 12.0504 7.01208 12.9052 7.02417 13.7408C7.02417 15.9606 8.54683 17.5745 10.6495 17.5745H13.3505C15.4532 17.5745 16.9758 15.9606 16.9758 13.7472C16.994 12.8605 17 11.9611 17 11.0681C17 10.1751 16.994 9.2884 16.9758 8.40174C16.9758 6.1883 15.4532 4.57446 13.3505 4.57446H10.6495C8.54683 4.57446 7.02417 6.1883 7.02417 8.40174C7.02214 8.60776 7.01942 8.81305 7.01671 9.01786Z" fill="#BBCDE5"/>
</svg>
