<svg width="24" height="25" viewBox="0 0 24 25" fill="none" xmlns="http://www.w3.org/2000/svg">
<path opacity="0.1" fill-rule="evenodd" clip-rule="evenodd" d="M0 12.5742C0 5.9468 5.37258 0.574219 12 0.574219C18.6274 0.574219 24 5.9468 24 12.5742C24 19.2016 18.6274 24.5742 12 24.5742C5.37258 24.5742 0 19.2016 0 12.5742Z" fill="white"/>
<path fill-rule="evenodd" clip-rule="evenodd" d="M11.6406 10.3282L11.6658 10.7434L11.2461 10.6925C9.71843 10.4976 8.38383 9.83667 7.25067 8.72657L6.69668 8.17576L6.55399 8.58252C6.25181 9.48924 6.44487 10.4468 7.0744 11.0908C7.41015 11.4467 7.33461 11.4976 6.75544 11.2857C6.55399 11.2179 6.37772 11.1671 6.36093 11.1925C6.30218 11.2518 6.50363 12.023 6.66311 12.328C6.88134 12.7517 7.32621 13.167 7.81305 13.4127L8.22434 13.6076L7.73751 13.6161C7.26746 13.6161 7.25067 13.6246 7.30103 13.8025C7.46891 14.3533 8.13201 14.938 8.87066 15.1923L9.39108 15.3702L8.93781 15.6414C8.26631 16.0312 7.4773 16.2515 6.68829 16.2685C6.31057 16.2769 6 16.3108 6 16.3362C6 16.421 7.02404 16.8955 7.61999 17.082C9.40786 17.6328 11.5315 17.3955 13.1263 16.4549C14.2595 15.7854 15.3926 14.455 15.9214 13.167C16.2068 12.4806 16.4922 11.2264 16.4922 10.6248C16.4922 10.235 16.5174 10.1841 16.9874 9.71804C17.2644 9.44687 17.5246 9.15028 17.575 9.06554C17.6589 8.90453 17.6505 8.90453 17.2224 9.04859C16.509 9.30281 16.4083 9.26891 16.7608 8.88758C17.021 8.61641 17.3316 8.12492 17.3316 7.98086C17.3316 7.95544 17.2057 7.99781 17.063 8.07407C16.9119 8.15881 16.5761 8.28593 16.3243 8.36219L15.8711 8.50625L15.4598 8.22661C15.2331 8.07407 14.9142 7.90459 14.7463 7.85375C14.3182 7.73511 13.6635 7.75206 13.2774 7.88765C12.2282 8.26898 11.5651 9.25196 11.6406 10.3282Z" fill="white"/>
</svg>
