<svg width="24" height="25" viewBox="0 0 24 25" fill="none" xmlns="http://www.w3.org/2000/svg">
<path opacity="0.1" fill-rule="evenodd" clip-rule="evenodd" d="M0 12.5742C0 5.9468 5.37258 0.574219 12 0.574219C18.6274 0.574219 24 5.9468 24 12.5742C24 19.2016 18.6274 24.5742 12 24.5742C5.37258 24.5742 0 19.2016 0 12.5742Z" fill="white"/>
<path fill-rule="evenodd" clip-rule="evenodd" d="M17.0008 8.44898C17.5515 8.60011 17.9853 9.04542 18.1325 9.61093C18.4 10.6358 18.4 12.7743 18.4 12.7743C18.4 12.7743 18.4 14.9127 18.1325 15.9377C17.9853 16.5032 17.5515 16.9485 17.0008 17.0997C16.0027 17.3743 12 17.3743 12 17.3743C12 17.3743 7.99728 17.3743 6.9991 17.0997C6.44834 16.9485 6.01459 16.5032 5.86739 15.9377C5.59998 14.9127 5.59998 12.7743 5.59998 12.7743C5.59998 12.7743 5.59998 10.6358 5.86739 9.61093C6.01459 9.04542 6.44834 8.60011 6.9991 8.44898C7.99728 8.17432 12 8.17432 12 8.17432C12 8.17432 16.0027 8.17432 17.0008 8.44898ZM10.8 10.9743V14.9743L14 12.9744L10.8 10.9743Z" fill="white"/>
</svg>
