<svg width="70" height="70" viewBox="0 0 70 70" fill="none" xmlns="http://www.w3.org/2000/svg">
<g clip-path="url(#clip0)">
<path d="M35 4.19995C26.5114 4.19995 19.6 11.1113 19.6 19.6C19.6 28.0886 26.5114 35 35 35C43.4886 35 50.4 28.0886 50.4 19.6C50.4 11.1113 43.4886 4.19995 35 4.19995ZM35 6.99995C41.9753 6.99995 47.6 12.6246 47.6 19.6C47.6 26.5753 41.9753 32.2 35 32.2C28.0246 32.2 22.4 26.5753 22.4 19.6C22.4 12.6246 28.0246 6.99995 35 6.99995ZM33.6 9.79995V12.2773C29.8928 12.8989 29.7746 16.1933 29.7746 16.5839C29.7746 20.0503 32.5805 20.6764 34.8359 21.1804C36.8603 21.634 38.0051 21.9579 38.0051 23.3187C38.0051 24.1349 37.6151 25.5062 35.0027 25.5062C34.9453 25.5062 33.5871 25.4961 32.7359 24.6449C32.2333 24.1423 31.9902 23.4157 32.014 22.4875L32.0168 22.4H29.4164L29.4191 22.4902C29.5031 25.4302 30.8783 27.1101 33.6027 27.6281V29.4H33.7367H36.2851H36.4V27.6718C40.3844 27.025 40.6 23.9366 40.6 23.2996C40.6014 19.9522 37.7954 19.3086 35.5414 18.7906C33.517 18.3258 32.3722 17.9989 32.3722 16.7179C32.3722 15.1849 33.2196 14.4703 35.041 14.4703C37.0234 14.4703 37.5454 15.6898 37.6168 16.8H40.2144C40.2158 15.7136 39.7746 14.5449 38.9976 13.6937C38.3172 12.9503 37.4234 12.4718 36.3972 12.28V9.79995H36.2851H33.734H33.6ZM18.8508 35C14.8791 35 13.0755 35.9615 11.0879 36.7472C11.087 36.7472 11.086 36.7472 11.0851 36.7472C7.2956 38.2489 0.792942 41.3765 0.792942 41.3765C0.626992 41.4562 0.478364 41.5678 0.355549 41.7049C0.232734 41.8421 0.138138 42.002 0.0771625 42.1757C0.0161874 42.3494 -0.00997171 42.5334 0.000179408 42.7173C0.0103305 42.9011 0.0565929 43.0811 0.136324 43.247C0.216056 43.4129 0.327694 43.5615 0.464863 43.6843C0.602032 43.8071 0.762044 43.9016 0.93576 43.9626C1.10948 44.0235 1.29349 44.0496 1.4773 44.0394C1.66111 44.0292 1.8411 43.9829 2.007 43.9031C2.007 43.9031 8.54938 40.7639 12.116 39.3503C14.3004 38.4869 15.2876 37.7999 18.8508 37.7999C26.7141 37.7999 26.5014 41.3301 29.7226 43.2632C29.7235 43.2632 29.7245 43.2632 29.7254 43.2632C30.881 43.9563 32.669 44.5237 34.7129 45.0433C34.9242 45.1614 35.1626 45.2226 35.4047 45.221H35.4074C37.7055 45.777 40.1373 46.2 42 46.2C43.6362 46.2 44.7922 46.5138 45.407 46.9C46.0218 47.2861 46.2 47.6048 46.2 48.2999C46.2 49.1149 46.0124 49.3932 45.3988 49.7574C44.7852 50.1216 43.6108 50.4 42 50.4H33.8789C30.4507 50.4 25.5855 49.0546 25.5855 49.0546C25.4069 48.9974 25.2187 48.9767 25.0319 48.9936C24.8452 49.0105 24.6637 49.0648 24.4984 49.1532C24.333 49.2415 24.187 49.3623 24.0692 49.5081C23.9514 49.654 23.864 49.822 23.8124 50.0023C23.7607 50.1825 23.7458 50.3713 23.7685 50.5575C23.7912 50.7436 23.851 50.9233 23.9445 51.0859C24.0379 51.2484 24.1631 51.3906 24.3125 51.5038C24.462 51.6171 24.6327 51.6992 24.8144 51.7453C24.8144 51.7453 29.7583 53.2 33.8789 53.2H42C43.8948 53.2 45.5189 52.9439 46.8289 52.1664C47.2227 51.9326 47.5692 51.63 47.8707 51.2859C47.9759 51.2461 48.076 51.1938 48.1687 51.13L60.7605 42.6617C62.9438 41.3664 64.4493 40.9985 65.3461 41.0156C66.2431 41.0327 66.5827 41.3167 66.8691 41.691C67.2843 42.234 67.3168 42.5221 67.0469 43.1621C66.7769 43.8021 66.0052 44.7256 64.6543 45.6832C62.9733 46.8759 44.4748 59.1634 42.3008 60.4214C40.692 61.3538 39.3949 62.3465 37.9121 62.7675C36.4298 63.1884 34.6763 63.1837 31.809 61.7886H31.8062C29.8911 60.8557 21.8017 56.631 19.1761 55.2753C17.7253 54.5255 16.5021 54.1112 15.2523 54.1816C14.0026 54.252 12.9441 54.7971 11.8316 55.5078C11.828 55.5105 11.8243 55.5132 11.8207 55.516L8.0445 57.9796C7.88815 58.079 7.75305 58.2083 7.64704 58.3602C7.54103 58.5121 7.46621 58.6835 7.42692 58.8645C7.38763 59.0455 7.38465 59.2326 7.41815 59.4147C7.45165 59.5969 7.52096 59.7706 7.62208 59.9258C7.72319 60.081 7.85409 60.2146 8.00721 60.3189C8.16032 60.4231 8.33259 60.4959 8.51405 60.5331C8.69551 60.5703 8.88254 60.5712 9.06432 60.5356C9.24609 60.5 9.419 60.4286 9.57302 60.3257L13.3519 57.8621C14.3165 57.2475 14.8872 57.0084 15.4109 56.9789C15.9381 56.9492 16.6413 57.1177 17.891 57.7636C20.4926 59.1069 28.4765 63.279 30.5812 64.3042C33.8876 65.9136 36.5464 66.066 38.6777 65.4609C40.809 64.8557 42.3289 63.6407 43.7035 62.8441C46.6198 61.1565 64.1656 49.4617 66.273 47.9664V47.9691C67.8789 46.8308 69.0396 45.639 69.6254 44.2503C70.2111 42.8617 70.0224 41.207 69.0922 39.9902C68.3607 39.0344 67.0542 38.2471 65.398 38.2156C64.2268 38.1933 62.8256 38.636 61.2828 39.3285C61.2245 39.0484 61.3605 38.7394 61.2363 38.4699C60.7604 37.4374 59.6996 36.71 58.5074 36.4738C58.5065 36.4738 58.5056 36.4738 58.5047 36.4738C56.9407 36.1646 55.1694 36.6464 53.416 37.4527C53.2911 37.0726 53.1959 36.6741 52.9429 36.3726C52.1922 35.4778 51.1122 35.1599 50.1074 35.082C48.0978 34.9262 46.0074 35.5823 44.4965 36.482C42.3994 37.7299 36.1329 41.6962 35.2215 42.2734C33.3501 41.769 31.6634 41.1594 31.1636 40.8597V40.8624C29.8825 40.0935 27.6782 35 18.8508 35ZM49.8914 37.8738C50.4509 37.9172 50.7185 38.0789 50.7965 38.1718C50.8558 38.2425 50.9486 38.3744 50.9058 38.7871L43.9933 43.5531C43.367 43.4606 42.7127 43.4 42 43.4C41.2591 43.4 40.2452 43.2887 39.1398 43.1128C41.5757 41.5763 44.5947 39.6781 45.9265 38.8855C46.8656 38.3263 48.7723 37.787 49.8914 37.8738ZM57.0308 39.1972C57.4011 39.163 57.7205 39.1711 57.9633 39.2191C58.5448 39.3343 58.6009 39.4424 58.6933 39.6429C58.762 39.7919 58.7831 40.167 58.7343 40.6492L48.8715 47.2828C48.6269 46.2731 48.0297 45.3716 47.1953 44.7453L52.973 40.764C53.0227 40.7306 53.0702 40.6941 53.1152 40.6546C54.4482 39.7613 55.9548 39.2966 57.0308 39.1972Z" fill="#438FEF"/>
</g>
<defs>
<clipPath id="clip0">
<rect width="70" height="70" fill="white"/>
</clipPath>
</defs>
</svg>
