<svg width="70" height="70" viewBox="0 0 70 70" fill="none" xmlns="http://www.w3.org/2000/svg">
<path d="M50.4004 0.820312L33.0207 18.2H43.4004V22.4H22.4004C17.0027 22.4 12.6004 26.8023 12.6004 32.2V51.8H2.2207L19.6004 69.1797L36.9801 51.8H26.6004V47.6H47.6004C52.998 47.6 57.4004 43.1977 57.4004 37.8V18.2H67.7801L50.4004 0.820312ZM50.4004 4.77969L61.0207 15.4H54.6004V37.8C54.6004 41.6828 51.4832 44.8 47.6004 44.8H26.6004V36.4H46.2004V15.4H39.7801L50.4004 4.77969ZM22.4004 25.2H43.4004V33.6H23.8004V54.6H30.2207L19.6004 65.2203L8.98008 54.6H15.4004V32.2C15.4004 28.3172 18.5176 25.2 22.4004 25.2Z" fill="#438FEF"/>
</svg>
