<svg width="65" height="65" viewBox="0 0 65 65" fill="none" xmlns="http://www.w3.org/2000/svg">
<path d="M48.0102 3.89995C45.5666 3.94449 43.6035 4.65479 42.2668 5.9439C40.9301 7.233 40.3068 9.02281 40.2609 10.9001C40.2609 10.901 40.2609 10.9018 40.2609 10.9027C40.2314 12.126 40.4849 13.2297 40.7764 14.4447C40.4409 14.9508 40.2047 15.5649 40.3016 16.3769C40.3016 16.3778 40.3016 16.3786 40.3016 16.3794C40.4139 17.3122 40.6715 18.0303 41.0988 18.5757C41.2946 18.8256 41.5815 18.8442 41.8326 18.9947C42.0979 19.8713 42.4593 20.7032 42.965 21.3687C43.2884 21.7943 43.6197 22.1744 43.9223 22.4834C43.9948 22.5575 44.0831 22.6018 44.1457 22.6662C44.151 23.3265 44.1534 23.9461 44.1051 24.6314C43.9482 24.9737 43.4669 25.3859 42.4344 25.8121C41.8507 26.053 41.1511 26.2933 40.4108 26.5535C40.4499 26.2004 40.4793 25.8277 40.4844 25.4109C40.4844 25.41 40.4844 25.4092 40.4844 25.4084C40.4986 24.1812 40.2989 22.878 39.6109 21.7292C38.9732 20.6643 37.8058 19.8562 36.3483 19.5558C35.4225 18.631 34.121 18.2 32.6565 18.2C32.6488 18.1999 32.6412 18.1999 32.6336 18.2C30.19 18.2445 28.2269 18.9548 26.8902 20.2439C25.5536 21.533 24.9328 23.3228 24.8869 25.2001C24.8869 25.201 24.8869 25.2018 24.8869 25.2027C24.8758 25.6628 24.9152 26.1048 24.9707 26.5433C24.0868 26.2423 23.2265 25.9707 22.5154 25.7029C21.448 25.3008 20.9449 24.8836 20.8193 24.6314C20.7717 23.95 20.7732 23.3325 20.7787 22.6738C20.8416 22.6094 20.9293 22.5651 21.0022 22.491C21.3057 22.1823 21.637 21.8043 21.9619 21.3789C22.4698 20.7139 22.8325 19.8796 23.0994 19.0023C23.3525 18.8515 23.6417 18.8344 23.8383 18.5834C24.2654 18.0378 24.5206 17.3186 24.633 16.3871V16.3845C24.7308 15.5693 24.4932 14.9499 24.1531 14.4421C24.3977 13.5263 24.6412 12.5282 24.6584 11.1185C24.6727 9.8913 24.4729 8.58563 23.785 7.43687C23.1472 6.37192 21.9799 5.56382 20.5223 5.26343C19.5969 4.33893 18.2972 3.90757 16.833 3.90757C16.8246 3.90749 16.8161 3.90749 16.8076 3.90757C14.3641 3.95282 12.4032 4.66229 11.0668 5.95152C9.73044 7.24074 9.10757 9.03074 9.06095 10.9078C9.06095 10.9086 9.06095 10.9095 9.06095 10.9103C9.03138 12.1336 9.28491 13.2373 9.57638 14.4523C9.24086 14.9584 9.0047 15.5725 9.10157 16.3845C9.10157 16.3854 9.10157 16.3862 9.10157 16.3871C9.21389 17.3202 9.4706 18.0405 9.89884 18.5859C10.0955 18.8364 10.3852 18.8519 10.6377 19.0023C10.9033 19.8775 11.2599 20.7116 11.765 21.3763C12.0884 21.8019 12.4197 22.1795 12.7223 22.4884C12.7948 22.5625 12.8831 22.6069 12.9457 22.6712C12.951 23.3349 12.954 23.9546 12.9051 24.6441C12.7742 24.9288 12.4615 25.252 11.7092 25.6089C10.9126 25.9869 9.79203 26.338 8.60899 26.7693C7.42596 27.2006 6.16724 27.7143 5.05685 28.5517C3.94646 29.3892 2.99561 30.6108 2.63204 32.2232C2.58567 32.3927 2.57412 32.5698 2.59811 32.7438C2.62209 32.9179 2.68111 33.0853 2.77159 33.2359C2.86207 33.3865 2.98213 33.5172 3.12454 33.6201C3.26694 33.723 3.42873 33.796 3.60013 33.8347C3.77153 33.8733 3.94898 33.8768 4.12177 33.8449C4.29455 33.8131 4.45909 33.7465 4.60545 33.6493C4.7518 33.5521 4.87693 33.4262 4.97328 33.2793C5.06963 33.1324 5.1352 32.9675 5.16603 32.7945C5.38681 31.8153 5.871 31.1942 6.62091 30.6287C7.37082 30.0631 8.39914 29.6133 9.50021 29.2119C10.6013 28.8105 11.7622 28.4601 12.8213 27.9576C13.8804 27.4551 14.9485 26.7453 15.4137 25.4947C15.454 25.386 15.4796 25.2724 15.4899 25.157C15.5987 23.9477 15.5584 23.0978 15.5584 22.1C15.5582 21.863 15.4934 21.6307 15.3707 21.428C15.2481 21.2253 15.0725 21.0599 14.8627 20.9498C15.0746 21.0608 14.7986 20.8928 14.5809 20.6705C14.3632 20.4481 14.0922 20.138 13.8369 19.8021C13.3264 19.1303 12.9267 18.2657 12.9051 18.0628C12.877 17.7989 12.7687 17.5498 12.5948 17.3492C12.421 17.1486 12.1899 17.006 11.9326 16.9406C11.8895 16.8803 11.7541 16.6609 11.6838 16.0773C11.6671 15.9376 11.6888 15.8683 11.7092 15.8285C11.9156 15.674 12.0714 15.4617 12.1569 15.2184C12.2423 14.9752 12.2535 14.7121 12.1891 14.4625C11.8117 13.0103 11.6336 12.1009 11.6609 10.9712C11.6954 9.60485 12.0991 8.56854 12.8721 7.8228C13.642 7.08002 14.87 6.54863 16.833 6.50757H16.8356C18.1465 6.50853 18.8174 6.92969 18.9024 7.07886C19.001 7.25218 19.1381 7.40049 19.3032 7.51232C19.4683 7.62415 19.657 7.6965 19.8545 7.72378C20.8029 7.85543 21.2179 8.20843 21.5557 8.77241C21.8934 9.3364 22.0689 10.1871 22.0584 11.088C22.0405 12.5607 21.8049 13.6742 21.5709 14.3761C21.4842 14.6359 21.4816 14.9164 21.5637 15.1776C21.6458 15.4389 21.8083 15.6675 22.0279 15.831C22.0481 15.8711 22.0698 15.9386 22.0533 16.0748C21.983 16.6599 21.8473 16.8805 21.8045 16.9406C21.5472 17.006 21.3161 17.1486 21.1423 17.3492C20.9684 17.5498 20.8602 17.7989 20.832 18.0628C20.8108 18.2622 20.4109 19.1276 19.8977 19.7996C19.641 20.1356 19.3675 20.4453 19.1486 20.6679C18.9297 20.8906 18.6516 21.0599 18.8617 20.9498C18.652 21.0599 18.4763 21.2253 18.3537 21.428C18.2311 21.6307 18.1662 21.863 18.166 22.1C18.166 23.0954 18.1257 23.9476 18.2346 25.157C18.2448 25.2724 18.2704 25.386 18.3108 25.4947C18.8753 27.0084 20.2843 27.6427 21.5988 28.1378C22.7886 28.586 24.0383 28.9372 25.0926 29.3541C24.9465 29.7328 24.8661 30.162 24.9275 30.6769C24.9275 30.6778 24.9275 30.6786 24.9275 30.6794C25.0398 31.6122 25.2949 32.3303 25.7223 32.8757C25.9191 33.127 26.2084 33.1465 26.4611 33.2972C26.7268 34.1723 27.0859 35.0041 27.591 35.6687C27.9144 36.0943 28.2432 36.4744 28.5457 36.7834C28.6183 36.8575 28.7065 36.9018 28.7691 36.9662C28.7745 37.6256 28.7766 38.2448 28.7285 38.9289C28.566 39.2843 28.0441 39.7141 26.9486 40.1552C26.1922 40.4598 25.2629 40.7562 24.2953 41.115C24.4804 40.3524 24.6448 39.5249 24.6584 38.4109C24.6727 37.1837 24.4729 35.878 23.785 34.7292C23.1464 33.663 21.9774 32.8526 20.5172 32.5533C19.592 31.6318 18.2942 31.2 16.833 31.2C16.8254 31.1999 16.8178 31.1999 16.8102 31.2C14.3666 31.2445 12.4035 31.9548 11.0668 33.2439C9.73015 34.533 9.10683 36.3228 9.06095 38.2001C9.06095 38.201 9.06095 38.2018 9.06095 38.2027C9.03138 39.426 9.28491 40.5297 9.57638 41.7447C9.24086 42.2508 9.0047 42.8649 9.10157 43.6769C9.10157 43.6778 9.10157 43.6786 9.10157 43.6794C9.21385 44.6122 9.47145 45.3303 9.89884 45.8757C10.0946 46.1256 10.3815 46.1442 10.6326 46.2947C10.8979 47.1713 11.2593 48.0032 11.765 48.6687C12.0884 49.0943 12.4197 49.4744 12.7223 49.7834C12.7948 49.8575 12.8831 49.9018 12.9457 49.9662C12.951 50.6282 12.9538 51.2488 12.9051 51.9365C12.7744 52.221 12.459 52.5444 11.7067 52.9013C10.9101 53.2792 9.7921 53.633 8.60899 54.0642C7.42589 54.4955 6.1648 55.0092 5.05431 55.8466C3.94382 56.6841 2.99308 57.9031 2.6295 59.5156C2.55353 59.8519 2.61424 60.2046 2.79829 60.4962C2.98233 60.7878 3.27464 60.9943 3.61094 61.0704C3.94724 61.1464 4.29998 61.0858 4.5916 60.9019C4.88322 60.7179 5.08984 60.4257 5.16603 60.0894C5.3868 59.1102 5.8709 58.4866 6.62091 57.921C7.37092 57.3555 8.3965 56.9082 9.49767 56.5068C10.5988 56.1054 11.7622 55.755 12.8213 55.2525C13.8804 54.75 14.9463 54.0379 15.4111 52.7871C15.4515 52.6784 15.4771 52.5648 15.4873 52.4494C15.5961 51.2401 15.5584 50.3902 15.5584 49.3923C15.558 49.1552 15.4927 48.9226 15.3697 48.7199C15.2466 48.5172 15.0704 48.3519 14.8602 48.2421C15.0721 48.3532 14.796 48.1877 14.5783 47.9654C14.3607 47.7431 14.0897 47.4329 13.8344 47.097C13.3239 46.4252 12.9242 45.5581 12.9025 45.3552C12.8743 45.0924 12.7665 44.8444 12.5937 44.6443C12.4209 44.4443 12.1911 44.3016 11.9352 44.2355C11.8925 44.176 11.7543 43.9557 11.6838 43.3697C11.6671 43.23 11.6888 43.1606 11.7092 43.1209C11.9156 42.9664 12.0714 42.7541 12.1569 42.5108C12.2423 42.2676 12.2535 42.0045 12.1891 41.7548C11.8117 40.3027 11.6336 39.3933 11.6609 38.2636C11.6944 36.8962 12.096 35.8612 12.8695 35.1152C13.6407 34.3715 14.8724 33.8415 16.8406 33.8025C18.1455 33.8056 18.8167 34.2223 18.8998 34.3687C18.9984 34.542 19.1356 34.6903 19.3007 34.8022C19.4658 34.914 19.6544 34.9863 19.852 35.0136C20.8003 35.1453 21.2154 35.5008 21.5531 36.0648C21.8909 36.6288 22.0689 37.4795 22.0584 38.3804C22.0405 39.853 21.8049 40.9666 21.5709 41.6685C21.4845 41.9276 21.4819 42.2074 21.5635 42.4681C21.645 42.7288 21.8067 42.9572 22.0254 43.1209C22.0455 43.16 22.0676 43.228 22.0508 43.3671C21.9802 43.9543 21.8417 44.1765 21.7994 44.2355C21.5435 44.3016 21.3137 44.4443 21.1409 44.6443C20.9681 44.8444 20.8603 45.0924 20.832 45.3552C20.8108 45.5546 20.4084 46.42 19.8951 47.0919C19.6385 47.4279 19.3675 47.7377 19.1486 47.9603C18.9297 48.1829 18.6516 48.3497 18.8617 48.2396C18.6516 48.3499 18.4757 48.5157 18.353 48.7189C18.2304 48.9221 18.1657 49.155 18.166 49.3923C18.166 50.3878 18.1231 51.24 18.232 52.4494C18.249 52.6354 18.3058 52.8157 18.3987 52.9778C18.4916 53.1399 18.6184 53.2801 18.7703 53.3888C19.3154 54.2291 20.0877 54.8474 20.9361 55.25C21.9953 55.7524 23.1587 56.1029 24.2598 56.5043C25.3608 56.9056 26.3866 57.3555 27.1365 57.921C27.8864 58.4866 28.3706 59.1077 28.5914 60.0869C28.6271 60.2552 28.6959 60.4148 28.7938 60.5563C28.8917 60.6979 29.0167 60.8186 29.1616 60.9115C29.3064 61.0043 29.4683 61.0675 29.6378 61.0974C29.8073 61.1272 29.981 61.1231 30.1489 61.0853C30.3168 61.0475 30.4755 60.9767 30.6158 60.8771C30.7561 60.7775 30.8753 60.651 30.9664 60.505C31.0574 60.359 31.1186 60.1963 31.1463 60.0265C31.1741 59.8566 31.1678 59.683 31.1279 59.5156C30.7644 57.9032 29.811 56.6815 28.7006 55.8441C27.5902 55.0066 26.3315 54.4929 25.1484 54.0617C23.9654 53.6304 22.8474 53.2793 22.0508 52.9013C21.2763 52.5339 20.9375 52.1989 20.8168 51.9085C20.7704 51.2343 20.7707 50.6198 20.7762 49.9662C20.8394 49.9015 20.9289 49.8579 21.0022 49.7834C21.3057 49.4747 21.637 49.0967 21.9619 48.6712C22.4698 48.0063 22.8325 47.1719 23.0994 46.2947C23.3521 46.144 23.642 46.1265 23.8383 45.8757C24.2453 45.3559 24.4927 44.6726 24.6127 43.8039C25.6714 43.3815 26.8196 43.0099 27.9186 42.5673C29.2606 42.0269 30.6674 41.3185 31.2371 39.7871C31.2775 39.6784 31.3031 39.5648 31.3133 39.4494C31.4221 38.2401 31.3818 37.3902 31.3818 36.3923C31.3817 36.1554 31.3168 35.9231 31.1942 35.7204C31.0716 35.5176 30.8959 35.3523 30.6861 35.2421C30.898 35.3532 30.622 35.1877 30.4043 34.9654C30.1866 34.7431 29.9156 34.4329 29.6604 34.097C29.1498 33.4252 28.7501 32.5581 28.7285 32.3552C28.7004 32.0913 28.5921 31.8422 28.4183 31.6416C28.2444 31.441 28.0133 31.2984 27.7561 31.233C27.7128 31.1723 27.5775 30.9537 27.5072 30.3697C27.4902 30.2266 27.514 30.157 27.5352 30.1183C27.7411 29.964 27.8966 29.7521 27.9821 29.5094C28.0675 29.2667 28.079 29.0041 28.015 28.7548C27.6377 27.3027 27.4596 26.3933 27.4869 25.2636C27.5203 23.8962 27.922 22.8612 28.6955 22.1152C29.4667 21.3715 30.6984 20.8415 32.6666 20.8025C33.9686 20.8065 34.6446 21.2219 34.7283 21.3687C34.8267 21.5417 34.9635 21.6898 35.1281 21.8016C35.2927 21.9135 35.4809 21.986 35.6779 22.0136C36.6263 22.1453 37.0414 22.5008 37.3791 23.0648C37.7169 23.6288 37.8948 24.477 37.8844 25.3779C37.8665 26.8505 37.6309 27.9666 37.3969 28.6685C37.3111 28.9273 37.3087 29.2065 37.3903 29.4667C37.4719 29.7269 37.6332 29.9548 37.8514 30.1183C37.8716 30.1571 37.8937 30.2243 37.8768 30.3646C37.8768 30.3654 37.8768 30.3663 37.8768 30.3671C37.8062 30.9542 37.6677 31.174 37.6254 31.233C37.3694 31.2991 37.1397 31.4417 36.9669 31.6418C36.794 31.8418 36.6863 32.0898 36.658 32.3527C36.6368 32.5521 36.2343 33.42 35.7211 34.0919C35.4645 34.4279 35.1935 34.7377 34.9746 34.9603C34.7557 35.1829 34.4776 35.3497 34.6877 35.2396C34.478 35.3497 34.3023 35.5151 34.1797 35.7178C34.0571 35.9205 33.9922 36.1529 33.992 36.3898C33.992 37.3852 33.9491 38.2375 34.058 39.4468C34.0691 39.5624 34.0955 39.676 34.1367 39.7845C34.7039 41.3071 36.1224 41.9391 37.4451 42.4353C38.4081 42.7966 39.3865 43.1019 40.2965 43.423C40.2994 43.5081 40.2909 43.5871 40.3016 43.6769C40.3016 43.6778 40.3016 43.6786 40.3016 43.6794C40.4139 44.6122 40.6715 45.3303 41.0988 45.8757C41.2946 46.1256 41.5815 46.1442 41.8326 46.2947C42.0979 47.1713 42.4593 48.0032 42.965 48.6687C43.2884 49.0943 43.6197 49.4744 43.9223 49.7834C43.9948 49.8575 44.0831 49.9018 44.1457 49.9662C44.151 50.6282 44.1538 51.2488 44.1051 51.9365C43.9744 52.221 43.659 52.5444 42.9067 52.9013C42.1101 53.2792 40.9921 53.633 39.809 54.0642C38.6259 54.4955 37.3648 55.0092 36.2543 55.8466C35.1438 56.6841 34.1931 57.9031 33.8295 59.5156C33.7534 59.8519 33.8141 60.2048 33.9981 60.4964C34.1821 60.7881 34.4745 60.9947 34.8108 61.0708C35.1472 61.1469 35.5 61.0862 35.7917 60.9022C36.0833 60.7181 36.2899 60.4258 36.366 60.0894C36.5868 59.1103 37.0709 58.4866 37.8209 57.921C38.5709 57.3555 39.5965 56.9082 40.6977 56.5068C41.7988 56.1054 42.9622 55.755 44.0213 55.2525C45.0804 54.75 46.1463 54.0379 46.6111 52.7871C46.6515 52.6784 46.6771 52.5648 46.6873 52.4494C46.7961 51.2401 46.7584 50.3902 46.7584 49.3923C46.758 49.1552 46.6927 48.9226 46.5697 48.7199C46.4466 48.5172 46.2704 48.3519 46.0602 48.2421C46.2721 48.3532 45.996 48.1877 45.7783 47.9654C45.5607 47.7431 45.2896 47.4329 45.0344 47.097C44.5239 46.4252 44.1241 45.5581 44.1026 45.3552C44.0743 45.0924 43.9665 44.8444 43.7937 44.6443C43.6209 44.4443 43.3911 44.3016 43.1352 44.2355C43.0925 44.176 42.9543 43.9557 42.8838 43.3697C42.8831 43.364 42.8843 43.3625 42.8838 43.357C42.9671 43.2404 43.0306 43.1109 43.0717 42.9736C43.2235 42.814 43.3323 42.6184 43.3878 42.4052C43.4433 42.192 43.4438 41.9682 43.3891 41.7548C43.0117 40.3027 42.8336 39.3933 42.8609 38.2636C42.8944 36.8962 43.296 35.8612 44.0695 35.1152C44.8407 34.3715 46.0724 33.8415 48.0406 33.8025C49.3455 33.8056 50.0167 34.2223 50.0998 34.3687C50.1984 34.542 50.3356 34.6903 50.5007 34.8022C50.6658 34.914 50.8544 34.9863 51.052 35.0136C52.0003 35.1453 52.4154 35.5008 52.7531 36.0648C53.0909 36.6288 53.2689 37.4795 53.2584 38.3804C53.2405 39.853 53.0049 40.9666 52.7709 41.6685C52.6845 41.9276 52.6819 42.2074 52.7635 42.4681C52.845 42.7288 53.0067 42.9572 53.2254 43.1209C53.2456 43.1597 53.2677 43.2269 53.2508 43.3671C53.1802 43.9543 53.0417 44.1765 52.9994 44.2355C52.7435 44.3016 52.5137 44.4443 52.3409 44.6443C52.1681 44.8444 52.0603 45.0924 52.032 45.3552C52.0108 45.5546 51.6084 46.42 51.0951 47.0919C50.8385 47.4279 50.5675 47.7377 50.3486 47.9603C50.1297 48.1829 49.8516 48.3497 50.0617 48.2396C49.8516 48.3499 49.6757 48.5157 49.553 48.7189C49.4304 48.9221 49.3657 49.155 49.366 49.3923C49.366 50.3878 49.3231 51.24 49.432 52.4494C49.449 52.6354 49.5058 52.8157 49.5987 52.9778C49.6916 53.1399 49.8184 53.2801 49.9703 53.3888C50.5154 54.2291 51.2877 54.8474 52.1361 55.25C53.1953 55.7524 54.3587 56.1029 55.4598 56.5043C56.5608 56.9056 57.5866 57.3555 58.3365 57.921C59.0864 58.4866 59.5706 59.1077 59.7914 60.0869C59.8271 60.2552 59.8959 60.4148 59.9938 60.5563C60.0917 60.6979 60.2167 60.8186 60.3616 60.9115C60.5064 61.0043 60.6683 61.0675 60.8378 61.0974C61.0073 61.1272 61.181 61.1231 61.3489 61.0853C61.5168 61.0475 61.6755 60.9767 61.8158 60.8771C61.9561 60.7775 62.0753 60.651 62.1664 60.505C62.2574 60.359 62.3186 60.1963 62.3463 60.0265C62.3741 59.8566 62.3678 59.683 62.3279 59.5156C61.9644 57.9032 61.011 56.6815 59.9006 55.8441C58.7902 55.0066 57.5315 54.4929 56.3484 54.0617C55.1654 53.6304 54.0474 53.2793 53.2508 52.9013C52.4763 52.5339 52.1375 52.1989 52.0168 51.9085C51.9704 51.2343 51.9707 50.6198 51.9762 49.9662C52.0394 49.9015 52.1289 49.8579 52.2022 49.7834C52.5056 49.4747 52.837 49.0967 53.1619 48.6712C53.6698 48.0063 54.0325 47.1719 54.2994 46.2947C54.5521 46.144 54.842 46.1265 55.0383 45.8757C55.4654 45.3302 55.7206 44.611 55.833 43.6794V43.6769C55.9308 42.8618 55.6931 42.2423 55.3531 41.7345C55.5976 40.8187 55.8412 39.8205 55.8584 38.4109C55.8727 37.1837 55.6729 35.878 54.985 34.7292C54.3464 33.6629 53.1774 32.8526 51.7172 32.5533C50.792 31.6318 49.4942 31.2 48.033 31.2C48.0254 31.1999 48.0178 31.1999 48.0102 31.2C45.5666 31.2445 43.6035 31.9548 42.2668 33.2439C40.9301 34.533 40.3068 36.3228 40.2609 38.2001C40.2609 38.201 40.2609 38.2018 40.2609 38.2027C40.2398 39.0779 40.3817 39.9018 40.5606 40.7392C39.7667 40.4745 39.0015 40.2422 38.3567 40.0003C37.2771 39.5954 36.7674 39.1737 36.6428 38.9212C36.5954 38.2416 36.5966 37.6233 36.6022 36.9662C36.6654 36.9015 36.7549 36.8579 36.8281 36.7834C37.1316 36.4747 37.4629 36.0942 37.7879 35.6687C38.2957 35.0039 38.6585 34.1717 38.9254 33.2947C39.1781 33.144 39.4679 33.1265 39.6643 32.8757C40.0919 32.3297 40.3468 31.6098 40.459 30.6769C40.52 30.1714 40.4432 29.7486 40.3016 29.3744C41.3174 28.9884 42.3966 28.6384 43.4246 28.214C44.7163 27.6808 46.0601 26.9687 46.6111 25.4871C46.6515 25.3784 46.6771 25.2648 46.6873 25.1494C46.7961 23.9401 46.7584 23.0902 46.7584 22.0923C46.758 21.8552 46.6927 21.6226 46.5697 21.4199C46.4466 21.2171 46.2704 21.0519 46.0602 20.9421C46.2721 21.0532 45.996 20.8877 45.7783 20.6654C45.5607 20.4431 45.2896 20.1329 45.0344 19.797C44.5239 19.1252 44.1241 18.2581 44.1026 18.0552C44.0743 17.7924 43.9665 17.5444 43.7937 17.3443C43.6209 17.1443 43.3911 17.0016 43.1352 16.9355C43.0925 16.876 42.9543 16.6557 42.8838 16.0697C42.8671 15.93 42.8888 15.8606 42.9092 15.8209C43.1156 15.6664 43.2714 15.4541 43.3569 15.2108C43.4423 14.9676 43.4535 14.7045 43.3891 14.4548C43.0117 13.0027 42.8336 12.0933 42.8609 10.9636C42.8944 9.59616 43.296 8.56123 44.0695 7.81519C44.8407 7.07147 46.0724 6.54154 48.0406 6.50249C49.3455 6.50562 50.0167 6.92226 50.0998 7.0687C50.1984 7.24202 50.3356 7.39033 50.5007 7.50216C50.6658 7.61399 50.8544 7.68635 51.052 7.71362C52.0003 7.84527 52.4154 8.20081 52.7531 8.7648C53.0909 9.32878 53.2689 10.1795 53.2584 11.0804C53.2405 12.553 53.0049 13.6666 52.7709 14.3685C52.6845 14.6276 52.6819 14.9074 52.7635 15.1681C52.845 15.4288 53.0067 15.6572 53.2254 15.8209C53.2456 15.8597 53.2677 15.9269 53.2508 16.0671C53.1802 16.6543 53.0417 16.8765 52.9994 16.9355C52.7435 17.0016 52.5137 17.1443 52.3409 17.3443C52.1681 17.5444 52.0603 17.7924 52.032 18.0552C52.0108 18.2546 51.6084 19.12 51.0951 19.7919C50.8385 20.1279 50.5675 20.4377 50.3486 20.6603C50.1297 20.8829 49.8516 21.0497 50.0617 20.9396C49.8516 21.0499 49.6757 21.2157 49.553 21.4189C49.4304 21.6221 49.3657 21.855 49.366 22.0923C49.366 23.0878 49.3231 23.94 49.432 25.1494C49.449 25.3354 49.5058 25.5157 49.5987 25.6778C49.6916 25.8399 49.8184 25.9801 49.9703 26.0888C50.5154 26.9291 51.2877 27.5474 52.1361 27.95C53.1953 28.4524 54.3587 28.8029 55.4598 29.2043C56.5608 29.6056 57.5866 30.0555 58.3365 30.621C59.0864 31.1866 59.5706 31.8077 59.7914 32.7869C59.8271 32.9552 59.8959 33.1148 59.9938 33.2563C60.0917 33.3979 60.2167 33.5186 60.3616 33.6115C60.5064 33.7043 60.6683 33.7675 60.8378 33.7974C61.0073 33.8272 61.181 33.8231 61.3489 33.7853C61.5168 33.7475 61.6755 33.6767 61.8158 33.5771C61.9561 33.4775 62.0753 33.351 62.1664 33.205C62.2574 33.059 62.3186 32.8963 62.3463 32.7265C62.3741 32.5566 62.3678 32.383 62.3279 32.2156C61.9644 30.6032 61.011 29.3815 59.9006 28.5441C58.7902 27.7066 57.5315 27.1929 56.3484 26.7617C55.1654 26.3304 54.0474 25.9793 53.2508 25.6013C52.4763 25.2339 52.1375 24.8989 52.0168 24.6085C51.9704 23.9343 51.9707 23.3198 51.9762 22.6662C52.0394 22.6015 52.1289 22.5579 52.2022 22.4834C52.5056 22.1747 52.837 21.7967 53.1619 21.3712C53.6698 20.7063 54.0325 19.8719 54.2994 18.9947C54.5521 18.844 54.842 18.8265 55.0383 18.5757C55.4654 18.0302 55.7206 17.311 55.833 16.3794V16.3769C55.9308 15.5618 55.6931 14.9423 55.3531 14.4345C55.5976 13.5187 55.8412 12.5205 55.8584 11.1109C55.8727 9.88369 55.6729 8.57802 54.985 7.42925C54.3464 6.36296 53.1774 5.55262 51.7172 5.25327C50.792 4.33178 49.4942 3.89995 48.033 3.89995C48.0254 3.89989 48.0178 3.89989 48.0102 3.89995Z" fill="#438FEF"/>
</svg>
