<svg width="70" height="70" viewBox="0 0 70 70" fill="none" xmlns="http://www.w3.org/2000/svg">
<path d="M19.6 0C17.2964 0 15.4 1.89636 15.4 4.2V51.8C15.4 54.1036 17.2964 56 19.6 56H30.1082L34.3875 67.7605C34.4465 67.9382 34.5405 68.1022 34.664 68.2429C34.7875 68.3836 34.938 68.4981 35.1065 68.5797C35.275 68.6612 35.4582 68.7081 35.6452 68.7176C35.8321 68.7272 36.0191 68.6991 36.195 68.6351C36.371 68.5711 36.5323 68.4724 36.6694 68.345C36.8065 68.2176 36.9167 68.0639 36.9935 67.8932C37.0702 67.7224 37.1119 67.538 37.1161 67.3508C37.1203 67.1637 37.087 66.9776 37.018 66.8035L32.5117 54.4223C32.4848 54.2198 32.4139 54.0257 32.3039 53.8535L29.5258 46.2191C29.1239 45.1147 29.6766 43.9276 30.7809 43.5258C31.8854 43.1238 33.0696 43.6766 33.4715 44.7809L34.0867 46.4734C34.1151 46.6172 34.1659 46.7556 34.2371 46.8836C34.238 46.8854 34.239 46.8872 34.2399 46.8891L37.3024 55.3027C37.303 55.3046 37.3017 55.3064 37.3024 55.3082L38.5 58.5949C38.5457 58.7279 38.6111 58.8533 38.6942 58.9668C38.7225 59.0038 38.7526 59.0394 38.7844 59.0734C38.8156 59.1079 38.8484 59.1407 38.8828 59.1719C38.9024 59.1888 38.9225 59.2052 38.943 59.2211C38.9582 59.2351 38.9737 59.2488 38.9895 59.2621C38.9904 59.2621 38.9913 59.2621 38.9922 59.2621C39.0666 59.3173 39.1463 59.3649 39.2301 59.4043C39.231 59.4043 39.2319 59.4043 39.2328 59.4043C39.2739 59.4236 39.3159 59.441 39.3586 59.4562C39.4473 59.4872 39.5389 59.5092 39.6321 59.5219C39.771 59.541 39.912 59.5392 40.0504 59.5164C40.0965 59.5087 40.1421 59.4986 40.1871 59.4863C40.368 59.4375 40.5372 59.3529 40.6848 59.2375C40.7218 59.2092 40.7574 59.1791 40.7914 59.1473C40.9269 59.017 41.0348 58.8608 41.1086 58.6879C41.1133 58.677 41.1179 58.6661 41.1223 58.6551C41.2221 58.4051 41.2477 58.1317 41.1961 57.8676C41.1808 57.7893 41.1589 57.7124 41.1305 57.6379L39.9356 54.3484C39.5336 53.244 40.0864 52.0597 41.1906 51.6578C42.2951 51.2559 43.4794 51.8086 43.8813 52.9129L44.3598 54.2254V54.2281L45.0789 56.2023C45.1097 56.2899 45.1491 56.3742 45.1965 56.4539C45.22 56.4944 45.2456 56.5336 45.2731 56.5715C45.3013 56.6094 45.3314 56.6459 45.3633 56.6809C45.3936 56.7152 45.4255 56.7481 45.459 56.7793C45.4599 56.7793 45.4608 56.7793 45.4617 56.7793C45.5307 56.8422 45.6058 56.8981 45.686 56.9461C45.7259 56.97 45.7669 56.9919 45.809 57.0117C45.851 57.0311 45.8939 57.0485 45.9375 57.0637C45.9384 57.0637 45.9393 57.0637 45.9403 57.0637C45.9834 57.0786 46.0272 57.0913 46.0715 57.102C46.163 57.1241 46.2564 57.1369 46.3504 57.1402C46.3969 57.1416 46.4435 57.1407 46.4899 57.1375C46.5366 57.1353 46.5831 57.1307 46.6293 57.1238C46.9072 57.077 47.1645 56.9474 47.3676 56.752C47.4021 56.7199 47.4349 56.6861 47.466 56.6508C47.5264 56.5797 47.5796 56.5027 47.6246 56.4211C47.7613 56.1745 47.8204 55.8924 47.7942 55.6117C47.7901 55.5649 47.7837 55.5184 47.775 55.4723C47.7596 55.3949 47.7376 55.319 47.7094 55.2453L46.993 53.2711C46.749 52.6007 46.8615 51.9024 47.2309 51.3652C47.2734 51.3187 47.3126 51.2694 47.3485 51.2176C47.5793 50.9401 47.8789 50.7121 48.2481 50.5777C49.3525 50.1758 50.5368 50.7285 50.9387 51.8328L51.893 54.4578C51.8937 54.4597 51.895 54.4614 51.8957 54.4633L52.1364 55.1223L52.6149 56.4375C52.6739 56.6152 52.7679 56.7792 52.8914 56.9199C53.0149 57.0606 53.1653 57.1751 53.3339 57.2566C53.5024 57.3381 53.6855 57.3851 53.8725 57.3946C54.0595 57.4041 54.2464 57.376 54.4224 57.312C54.5983 57.248 54.7596 57.1494 54.8967 57.0219C55.0339 56.8945 55.1441 56.7409 55.2208 56.5701C55.2975 56.3993 55.3392 56.2149 55.3434 56.0278C55.3477 55.8406 55.3143 55.6545 55.2453 55.4805L54.7668 54.1652L54.5262 53.5062C54.1243 52.4018 54.677 51.2175 55.7813 50.8156C56.8857 50.4137 58.07 50.9664 58.4719 52.0707L64.1293 67.6156C64.2566 67.9648 64.5174 68.2491 64.8543 68.406C65.1912 68.563 65.5766 68.5796 65.9258 68.4523C66.275 68.3251 66.5593 68.0643 66.7162 67.7274C66.8731 67.3905 66.8898 67.005 66.7625 66.6559L61.1051 51.1137C60.4153 49.2182 58.6471 48 56.741 47.898C56.1057 47.8641 55.456 47.9552 54.8242 48.1852C54.0219 48.4771 53.357 48.976 52.8309 49.5824C51.6247 48.024 49.5578 47.3004 47.6 47.868V4.2C47.6 1.89636 45.7037 0 43.4 0H19.6ZM19.6 2.8H23.8V4.2C23.8 4.9728 24.4272 5.6 25.2 5.6H37.8C38.5728 5.6 39.2 4.9728 39.2 4.2V2.8H43.4C44.1764 2.8 44.8 3.42364 44.8 4.2V49.7984C43.5197 48.833 41.8375 48.4427 40.2309 49.0273C39.5175 49.287 38.935 49.7241 38.4371 50.2387L37.4391 47.4934C40.0236 47.0007 42 44.7207 42 42C42 38.9237 39.4763 36.4 36.4 36.4H26.6C23.5238 36.4 21 38.9237 21 42C21 45.0763 23.5238 47.6 26.6 47.6H27.0485L29.0883 53.2H19.6C18.8237 53.2 18.2 52.5764 18.2 51.8V4.2C18.2 3.42364 18.8237 2.8 19.6 2.8ZM31.5 9.8C29.5167 9.8 27.851 10.5942 26.7778 11.8016C25.7045 13.009 25.2 14.5639 25.2 16.1C25.2 17.6361 25.7045 19.191 26.7778 20.3984C27.851 21.6058 29.5167 22.4 31.5 22.4C33.4834 22.4 35.149 21.6058 36.2223 20.3984C37.2955 19.191 37.8 17.6361 37.8 16.1C37.8 14.5639 37.2955 13.009 36.2223 11.8016C35.149 10.5942 33.4834 9.8 31.5 9.8ZM31.5 12.6C32.7834 12.6 33.5677 13.0308 34.1278 13.6609C34.6878 14.291 35 15.1861 35 16.1C35 17.0139 34.6878 17.909 34.1278 18.5391C33.5677 19.1692 32.7834 19.6 31.5 19.6C30.2167 19.6 29.4324 19.1692 28.8723 18.5391C28.3122 17.909 28 17.0139 28 16.1C28 15.1861 28.3122 14.291 28.8723 13.6609C29.4324 13.0308 30.2167 12.6 31.5 12.6ZM29.4 23.8C25.5507 23.8 22.4 26.9507 22.4 30.8V32.2C22.4001 32.5713 22.5476 32.9274 22.8101 33.1899C23.0727 33.4524 23.4287 33.6 23.8 33.6H39.2C39.5713 33.6 39.9274 33.4524 40.1899 33.1899C40.4525 32.9274 40.6 32.5713 40.6 32.2V30.8C40.6 26.9507 37.4493 23.8 33.6 23.8H29.4ZM29.4 26.6H33.6C35.9359 26.6 37.8 28.4641 37.8 30.8H25.2C25.2 28.4641 27.0641 26.6 29.4 26.6ZM26.6 39.2H36.4C37.9634 39.2 39.2 40.4367 39.2 42C39.2 43.5445 37.9914 44.7653 36.4547 44.7945L36.102 43.8238C35.4122 41.9283 33.6467 40.7129 31.7406 40.6109C31.1053 40.577 30.4556 40.6654 29.8239 40.8953C28.0826 41.529 26.9343 43.0754 26.6766 44.8H26.6C25.0367 44.8 23.8 43.5633 23.8 42C23.8 40.4367 25.0367 39.2 26.6 39.2Z" fill="#438FEF"/>
</svg>
