<svg width="68" height="61" viewBox="0 0 68 61" fill="none" xmlns="http://www.w3.org/2000/svg">
<path d="M0.00537109 0.199997V45H2.7999V3H62.9999V0.199997H0.00537109ZM5.5999 5.8V50.6H37.7999V47.8H8.3999V44.9726L26.3319 30.7922C27.7812 32.0609 30.4608 34.3906 30.7999 34.6859C32.9327 36.5453 35.1968 37.0156 36.646 37.0156C38.0952 37.0156 40.3593 36.5453 42.4976 34.6859C44.1546 33.2422 60.4515 19.0344 64.3999 15.5945V39.4L67.1999 42.2V5.8H5.5999ZM8.3999 8.6H64.3999V11.8812C62.9507 13.1445 42.4374 31.0273 40.6601 32.575C39.0905 33.9422 37.4937 34.2156 36.646 34.2156C35.7983 34.2156 34.2069 33.9367 32.6374 32.575C30.8108 30.9836 9.01787 11.9906 8.3999 11.4492V8.6ZM8.3999 15.1625C10.7733 17.2352 17.8062 23.3656 24.1827 28.9219L8.3999 41.4016V15.1625ZM55.9835 37.9836C55.4147 37.9891 54.9062 38.3336 54.6874 38.8586C54.4741 39.3891 54.5999 39.9906 55.0101 40.3898L62.4202 47.8H43.3999V50.6H62.4202L55.0101 58.0101C54.6437 58.3601 54.496 58.8851 54.6272 59.3719C54.753 59.8641 55.1358 60.2469 55.628 60.3726C56.1147 60.5039 56.6397 60.3562 56.9897 59.9898L67.7796 49.2L56.9897 38.4101C56.7272 38.1367 56.3663 37.9891 55.9835 37.9836Z" fill="#438FEF"/>
</svg>
