<svg width="70" height="70" viewBox="0 0 70 70" fill="none" xmlns="http://www.w3.org/2000/svg">
<path d="M35 2.79999C17.2331 2.79999 2.80005 17.233 2.80005 35C2.80005 52.767 17.2331 67.2 35 67.2C52.767 67.2 67.2 52.767 67.2 35C67.2 17.233 52.767 2.79999 35 2.79999ZM35 5.59999C37.3795 5.59999 39.6896 5.88833 41.9043 6.4203L39.7278 13.1332C39.4898 13.8696 39.8924 14.6589 40.6274 14.8969C41.3624 15.1363 42.1517 14.7323 42.3911 13.9973L44.5922 7.20507C49.1567 8.77713 53.1917 11.4533 56.4239 14.8969L50.0227 19.548C49.3969 20.003 49.2587 20.8773 49.7137 21.5031C50.1687 22.1289 51.043 22.2671 51.6688 21.8121L58.2477 17.0351C61.2821 20.9581 63.3622 25.6545 64.0965 30.8H54.6C53.8272 30.8 53.2 31.4272 53.2 32.2C53.2 32.9728 53.8272 33.6 54.6 33.6H64.3645C64.3862 34.064 64.4 34.5306 64.4 35C64.4 51.2537 51.2538 64.4 35 64.4C18.7463 64.4 5.60005 51.2537 5.60005 35C5.60005 34.5306 5.61391 34.064 5.6356 33.6H15.4C16.1728 33.6 16.8 32.9728 16.8 32.2C16.8 31.4272 16.1728 30.8 15.4 30.8H5.90356C6.63785 25.6545 8.71799 20.9581 11.7524 17.0351L18.3313 21.8121C18.9571 22.2671 19.8314 22.1289 20.2864 21.5031C20.7414 20.8773 20.6032 20.003 19.9774 19.548L13.5762 14.8969C16.8078 11.4539 20.8417 8.77724 25.4051 7.20507L27.609 13.9973C27.8484 14.7323 28.6364 15.1349 29.37 14.8969C30.1064 14.6575 30.5076 13.8682 30.2696 13.1332L28.093 6.4203C30.3085 5.88793 32.6197 5.59999 35 5.59999ZM35 26.6C33.25 26.6 31.7594 27.3066 30.8028 28.3828C29.8462 29.459 29.4 30.8389 29.4 32.2C29.4 33.5611 29.8462 34.941 30.8028 36.0172C31.7594 37.0933 33.25 37.8 35 37.8C36.75 37.8 38.2407 37.0933 39.1973 36.0172C39.8162 35.321 40.1996 34.4932 40.4086 33.6301L51.8 26.6L38.2211 27.557C37.3393 26.9673 36.2401 26.6 35 26.6ZM35 29.4C36.05 29.4 36.6594 29.7433 37.1028 30.2422C37.5462 30.741 37.8 31.4611 37.8 32.2C37.8 32.9389 37.5462 33.6589 37.1028 34.1578C36.6594 34.6566 36.05 35 35 35C33.95 35 33.3407 34.6566 32.8973 34.1578C32.4539 33.659 32.2 32.9389 32.2 32.2C32.2 31.4611 32.4539 30.741 32.8973 30.2422C33.3407 29.7433 33.95 29.4 35 29.4ZM32.6457 40.5972C31.4851 40.6602 30.5935 41.6515 30.6551 42.8121C30.7181 43.9727 31.7094 44.8643 32.87 44.8027L32.9 44.8C33.7834 44.7524 34.6651 44.7323 35.5387 44.7617C36.4025 44.8177 37.2708 44.8861 38.0954 45.0625C38.8717 45.2086 39.6169 45.4325 40.3047 45.7297C39.3922 46.3577 38.8397 47.1475 38.5356 47.6H35C33.9191 47.6 32.5979 47.7272 31.3278 47.9555C30.0577 48.1837 28.8905 48.4567 27.929 49.0273C27.9271 49.0291 27.9253 49.031 27.9235 49.0328C26.8092 49.7014 25.8807 50.6584 25.4543 51.8191C25.3626 51.816 25.3037 51.8 25.2 51.8C22.4 51.8 21 53.2 21 54.6C21 55.7836 23.018 55.958 25.3286 55.9863C25.9779 59.1763 28.8114 61.6 32.1864 61.6H40.6C40.9713 61.5999 41.3274 61.4524 41.59 61.1899C41.8525 60.9273 42 60.5713 42 60.2V58.8C42 57.8786 41.5217 57.1251 41.0102 56.4293C41.682 56.1764 42.3634 55.9221 42.8204 55.6336C43.4147 55.2583 43.8167 54.8836 44.1055 54.5644C44.7485 54.5705 45.4418 54.6048 46.2739 54.4551C46.8253 54.3558 47.3978 54.206 47.9555 53.807C48.5132 53.408 49 52.6092 49 51.8C49 50.6057 48.5953 49.1588 47.7614 47.7203C47.0306 46.4596 45.8254 45.1663 44.1411 44.8656C43.8771 44.5451 43.6206 44.2791 43.329 44.0152C42.8936 43.633 42.4336 43.3111 41.9618 43.0199C41.0168 42.4389 40.0207 42.0117 39.0141 41.6855C38.0047 41.3397 36.9859 41.124 35.9625 40.9336C34.9419 40.7712 33.9206 40.6658 32.9 40.5972C32.8202 40.593 32.7269 40.593 32.6457 40.5972ZM21 40.6C20.8145 40.5974 20.6303 40.6316 20.4582 40.7008C20.286 40.77 20.1293 40.8727 19.9972 41.003C19.8651 41.1332 19.7602 41.2884 19.6886 41.4596C19.617 41.6308 19.5801 41.8144 19.5801 42C19.5801 42.1855 19.617 42.3692 19.6886 42.5404C19.7602 42.7115 19.8651 42.8667 19.9972 42.997C20.1293 43.1273 20.286 43.23 20.4582 43.2992C20.6303 43.3683 20.8145 43.4026 21 43.4H26.6C26.7856 43.4026 26.9698 43.3683 27.1419 43.2992C27.3141 43.23 27.4708 43.1273 27.6029 42.997C27.735 42.8667 27.8399 42.7115 27.9115 42.5404C27.9831 42.3692 28.02 42.1855 28.02 42C28.02 41.8144 27.9831 41.6308 27.9115 41.4596C27.8399 41.2884 27.735 41.1332 27.6029 41.003C27.4708 40.8727 27.3141 40.77 27.1419 40.7008C26.9698 40.6316 26.7856 40.5974 26.6 40.6H21ZM16.8 46.2C16.6145 46.1974 16.4303 46.2316 16.2582 46.3008C16.086 46.37 15.9293 46.4727 15.7972 46.603C15.6651 46.7332 15.5602 46.8884 15.4886 47.0596C15.417 47.2308 15.3801 47.4144 15.3801 47.6C15.3801 47.7855 15.417 47.9692 15.4886 48.1404C15.5602 48.3115 15.6651 48.4667 15.7972 48.597C15.9293 48.7273 16.086 48.83 16.2582 48.8992C16.4303 48.9683 16.6145 49.0026 16.8 49H22.4C22.5856 49.0026 22.7698 48.9683 22.9419 48.8992C23.1141 48.83 23.2708 48.7273 23.4029 48.597C23.535 48.4667 23.6399 48.3115 23.7115 48.1404C23.7831 47.9692 23.82 47.7855 23.82 47.6C23.82 47.4144 23.7831 47.2308 23.7115 47.0596C23.6399 46.8884 23.535 46.7332 23.4029 46.603C23.2708 46.4727 23.1141 46.37 22.9419 46.3008C22.7698 46.2316 22.5856 46.1974 22.4 46.2H16.8ZM43.4 47.6C44.1234 47.6 44.7726 48.1493 45.3387 49.1258C45.8602 50.0253 46.089 51.1326 46.1317 51.5894C46.0392 51.6269 45.9855 51.6611 45.7762 51.6988C45.129 51.8153 44.1467 51.8 43.4 51.8C43.14 51.8 42.8852 51.8723 42.664 52.009C42.4428 52.1457 42.264 52.3413 42.1477 52.5738C42.1477 52.5738 42.1889 52.5246 42.0711 52.6586C41.9534 52.7925 41.7268 53.0134 41.3274 53.2656C40.5306 53.7687 39.0272 54.4004 36.329 54.5726H36.3153C36.0821 54.5733 35.8528 54.6322 35.6481 54.744C35.4435 54.8558 35.27 55.0169 35.1434 55.2128C35.0168 55.4086 34.9412 55.633 34.9233 55.8655C34.9054 56.098 34.9459 56.3312 35.0411 56.5441C35.0537 56.5738 35.0674 56.6029 35.0821 56.6316C35.0883 56.6445 35.0946 56.6572 35.1012 56.6699C35.103 56.6726 35.1049 56.6754 35.1067 56.6781C35.1293 56.7185 35.154 56.7577 35.1805 56.7957C35.1805 56.7966 35.1805 56.7975 35.1805 56.7984C35.3093 56.9838 35.4809 57.1354 35.6809 57.2401C35.8809 57.3449 36.1032 57.3997 36.329 57.4H36.4H37.8C38.5764 57.4 39.2 58.0236 39.2 58.8H32.1864C29.8495 58.8 27.9832 56.9297 27.9864 54.5918C27.9871 54.2207 27.9897 53.8985 27.9918 53.6621C27.9939 53.4257 28.0061 53.1799 27.9973 53.3012C27.9994 53.2675 28.0004 53.2337 28 53.2C28 52.6682 28.3773 52.0294 29.3645 51.4363V51.4336C29.6796 51.2479 30.7189 50.91 31.8227 50.7117C32.9291 50.513 34.149 50.4 35 50.4H39.2C39.4035 50.4001 39.6046 50.3559 39.7892 50.2704C39.9738 50.185 40.1376 50.0603 40.2692 49.9051C41.3828 48.591 41.258 47.6 43.4 47.6Z" fill="#438FEF"/>
</svg>
