<svg width="70" height="70" viewBox="0 0 70 70" fill="none" xmlns="http://www.w3.org/2000/svg">
<path d="M4.19995 5.59998V36.4H8.39995V64.4H28H42H61.6V36.4H65.8V35V5.59998H4.19995ZM6.99995 8.39998H63V33.6H60.4351C60.2839 33.575 60.1297 33.575 59.9785 33.6H45.5683L35 16.9914L24.4316 33.6H10.016C9.93736 33.5868 9.85777 33.5804 9.77808 33.5808C9.71025 33.5823 9.64263 33.5887 9.57573 33.6H6.99995V8.39998ZM35 22.2086L44.0316 36.4H58.8V61.6H42V49C42 45.1507 38.8493 42 35 42C31.1506 42 28 45.1507 28 49V61.6H11.2V36.4H25.9683L35 22.2086ZM14 42V43.4V54.6H25.2V42H14ZM44.8 42V43.4V54.6H56V42H44.8ZM16.8 44.8H22.4V51.8H16.8V44.8ZM35 44.8C37.3358 44.8 39.2 46.6641 39.2 49V61.6H30.8V49C30.8 46.6641 32.6641 44.8 35 44.8ZM47.6 44.8H53.2V51.8H47.6V44.8Z" fill="#438FEF"/>
</svg>
