<svg width="70" height="70" viewBox="0 0 70 70" fill="none" xmlns="http://www.w3.org/2000/svg">
<g clip-path="url(#clip0)">
<path d="M37.8 5.59998C31.22 5.59998 26.0271 8.00743 23.1711 12.3894C20.7631 16.0994 20.3567 20.8741 22.0227 25.3121C21.4907 26.0681 21.0271 27.2147 21.1531 28.7547C21.5591 31.7787 22.7225 33.0249 23.6605 33.5289C24.1225 36.0489 25.4935 38.7107 26.7395 39.9847C26.7115 41.0487 26.6563 41.8178 26.5863 42.8258C26.5723 42.9658 26.559 43.1065 26.559 43.2605H26.4605C26.2085 43.2605 25.9709 43.3287 25.7469 43.4547C25.6489 43.5107 23.3391 44.8836 21.4211 47.6136C12.5031 49.6576 7 57.106 7 63C7 63.77 7.63 64.4 8.4 64.4H31.727C31.9565 64.4592 32.1974 64.4592 32.427 64.4H36.4V63V61.6V49C36.4 48.58 36.4418 48.1749 36.5258 47.7968L36.4 47.6H33.9199C33.7473 47.5594 32.6384 47.2931 31.4727 46.7386C30.8432 46.4393 30.2472 46.0611 29.8813 45.6996C29.5153 45.3381 29.4 45.0794 29.4 44.8C29.4022 44.6105 29.3659 44.4226 29.2934 44.2476C29.3223 43.8233 29.3528 43.3935 29.3727 43.0363C29.4707 41.8323 29.5395 40.8654 29.5395 39.3394C29.5395 38.8774 29.2311 38.4023 28.8531 38.1363C28.3071 37.7583 26.5591 34.9571 26.3211 32.3531C26.2511 31.6251 25.7448 31.0953 25.0168 31.0953C24.8208 31.0113 24.1915 30.3524 23.9395 28.4484C23.9255 28.3644 23.9258 28.2808 23.9258 28.1968C23.9258 27.2029 24.4453 26.7832 24.4453 26.7832C25.0053 26.4052 25.2148 25.6765 24.9348 25.0605C23.2548 21.2385 23.4647 17.0789 25.5227 13.9289C27.7207 10.5409 31.7529 8.60965 36.9469 8.41365L37.9531 10.4289C38.1771 10.9049 38.668 11.2 39.2 11.2C41.832 11.2 43.7768 12.4462 44.9668 14.9242C46.7028 18.4802 46.2433 23.421 45.0953 24.891C44.8013 25.283 44.7168 25.788 44.8848 26.25C45.0388 26.642 45.3462 26.9358 45.7242 27.0758C45.8222 27.2438 45.9911 27.7202 45.9211 28.5742C45.7391 30.6462 45.0795 31.1931 44.9395 31.2211C44.2395 31.2211 43.6511 31.7245 43.5531 32.4105C43.1611 34.9865 41.5671 37.8701 41.0211 38.2621C40.5871 38.5141 40.3211 38.9749 40.3211 39.4789C40.3211 40.9209 40.3899 41.9294 40.4879 43.1894C40.5019 43.3294 40.5012 43.4565 40.5152 43.6105C40.9912 43.4705 41.482 43.4 42 43.4H43.3016C43.3016 43.26 43.2882 43.1213 43.2742 42.9953C43.2042 41.9313 43.1491 41.1325 43.1211 40.1105C44.3671 38.7805 45.6273 35.9934 46.1453 33.7394C47.1533 33.2634 48.4271 32.0321 48.7211 28.8121C48.8331 27.4261 48.5647 26.2362 48.0047 25.4242C49.2647 22.5682 49.3779 17.555 47.4879 13.691C45.9619 10.555 43.3592 8.72099 40.0832 8.44099L39.0469 6.37107C38.8229 5.89507 38.332 5.59998 37.8 5.59998ZM51.8 40.6C50.2697 40.6 49 41.8697 49 43.4V46.2H42C40.4697 46.2 39.2 47.4697 39.2 49V51.8V57.4V67.2C39.2 68.7303 40.4697 70 42 70H67.2C68.7303 70 70 68.7303 70 67.2V49C70 47.4697 68.7303 46.2 67.2 46.2H60.2V43.4C60.2 41.8697 58.9303 40.6 57.4 40.6H51.8ZM51.8 43.4H57.4V46.2H51.8V43.4ZM25.5527 47.1351C25.7058 47.7829 25.8832 48.4602 26.1051 49.2597C26.6266 51.1384 27.3137 53.3339 28 55.4367C28.8463 58.0298 29.5625 60.1028 30.0863 61.6H25.8727L21.618 56.2816L24.3332 54.3402C24.5651 54.1745 24.7409 53.9421 24.8372 53.6738C24.9334 53.4056 24.9455 53.1143 24.8719 52.839L23.8629 49.0465C24.4346 48.2723 25.0172 47.6253 25.5527 47.1351ZM28.7437 48.248C29.2496 48.6139 29.748 49.0199 30.2695 49.2679C31.0313 49.6303 31.7687 49.8872 32.3477 50.0664L33.6 53.2L32.0414 58.6605C31.6078 57.3949 31.1621 56.104 30.6605 54.5672C29.9818 52.4874 29.3034 50.3199 28.8012 48.5105C28.7656 48.3824 28.7773 48.3736 28.7437 48.248ZM42 49H49H60.2H67.2V57.4C67.2 58.191 66.591 58.8 65.8 58.8H58.8V57.4C58.8 55.8697 57.5303 54.6 56 54.6H53.2C51.6697 54.6 50.4 55.8697 50.4 57.4V58.8H43.4C42.609 58.8 42 58.191 42 57.4V51.8V49ZM21.3555 50.5148L21.9187 52.623L18.7852 54.8597C18.6302 54.9704 18.4994 55.1115 18.4008 55.2744C18.3022 55.4374 18.2379 55.6187 18.2118 55.8073C18.1857 55.9959 18.1983 56.1879 18.249 56.3715C18.2996 56.5551 18.3871 56.7264 18.5062 56.875L22.2852 61.6H9.92578C10.6787 57.2278 14.8858 52.2619 21.3555 50.5148ZM53.2 57.4H56V58.8H53.2V57.4ZM42 61.3375C42.4408 61.4965 42.9074 61.6 43.4 61.6H65.8C66.2926 61.6 66.7592 61.4965 67.2 61.3375V67.2H42V61.3375Z" fill="#438FEF"/>
</g>
<defs>
<clipPath id="clip0">
<rect width="70" height="70" fill="white"/>
</clipPath>
</defs>
</svg>
