<svg width="65" height="65" viewBox="0 0 65 65" fill="none" xmlns="http://www.w3.org/2000/svg">
<g clip-path="url(#clip0)">
<path d="M33.8008 1.30005C28.0727 1.30005 23.4008 5.97192 23.4008 11.7001C23.4008 14.1122 24.6195 16.4633 26.2852 18.7688C27.9508 21.0743 30.1039 23.3188 32.257 25.3094C36.5633 29.2856 40.8695 32.2563 40.8695 32.2563L41.6008 32.7844L42.332 32.2563C42.332 32.2563 46.6434 29.2907 50.9445 25.3094C53.0977 23.3188 55.2508 21.0692 56.9164 18.7688C58.582 16.4684 59.8008 14.102 59.8008 11.7001C59.8008 5.97192 55.1289 1.30005 49.4008 1.30005C46.2523 1.30005 43.5051 2.77778 41.6008 4.99692C39.6965 2.77778 36.9492 1.30005 33.8008 1.30005ZM33.8008 3.90005C36.6496 3.90005 39.1379 5.4438 40.5039 7.7188L41.6008 9.54693L42.6977 7.7188C44.0637 5.4438 46.552 3.90005 49.4008 3.90005C53.7223 3.90005 57.2008 7.37857 57.2008 11.7001C57.2008 13.1524 56.307 15.143 54.8039 17.2251C53.3008 19.3071 51.2289 21.4805 49.157 23.4001C45.3789 26.8989 42.2457 29.0774 41.6008 29.5344C40.9559 29.0774 37.8227 26.8887 34.0445 23.4001C31.9727 21.4856 29.9008 19.3477 28.3977 17.2657C26.8945 15.1836 26.0008 13.1727 26.0008 11.7001C26.0008 7.37857 29.4793 3.90005 33.8008 3.90005ZM59.8008 33.8407C58.5414 33.9169 57.282 34.4907 56.3477 35.4251L43.632 48.1001H31.7695L31.2414 47.5719L38.8383 46.0688C40.7781 45.6829 42.4438 44.2102 42.8195 42.1688C43.3731 39.1372 41.0016 36.4001 38.0258 36.4001H19.907C16.8043 36.4001 13.8133 37.6188 11.6195 39.8126L0.366406 51.0657L-0.527344 52.0001L0.366406 52.9344L12.0664 64.6344L13.0008 65.5282L13.9352 64.6344L18.3633 60.1657C18.607 59.9219 18.9117 59.8001 19.257 59.8001H43.3477C45.0691 59.8001 46.7195 59.1094 47.9383 57.8907L63.5383 42.2907C65.534 40.295 65.4527 36.9637 63.3352 35.0594C62.3195 34.1454 61.0602 33.7645 59.8008 33.8407ZM59.9227 36.4407C60.5422 36.395 61.1668 36.593 61.6289 37.0094C62.6699 37.9438 62.6801 39.4926 61.7102 40.4626L46.1102 56.0626C45.3789 56.7938 44.3836 57.2001 43.3477 57.2001H19.257C18.2211 57.2001 17.2664 57.6063 16.5352 58.3376L13.0008 61.8313L3.16953 52.0001L13.4883 41.6813C15.1945 39.9751 17.4949 39.0001 19.907 39.0001H38.0258C39.4375 39.0001 40.5344 40.2137 40.2602 41.7219C40.0977 42.6055 39.2852 43.3165 38.3102 43.5094L28.357 45.5407L25.9602 45.9876L27.6664 47.7344L30.2664 50.3344L30.6727 50.7001H44.7289L45.1352 50.3344L58.1758 37.2532C58.648 36.7809 59.3031 36.4864 59.9227 36.4407Z" fill="#438FEF"/>
</g>
<defs>
<clipPath id="clip0">
<rect width="65" height="65" fill="white"/>
</clipPath>
</defs>
</svg>
