<svg width="70" height="70" viewBox="0 0 70 70" fill="none" xmlns="http://www.w3.org/2000/svg">
<path d="M35.0002 2.80005C31.9286 2.80005 29.4078 5.31646 29.4002 8.38638L13.9127 17.2375C12.8864 16.1175 11.427 15.4 9.8002 15.4C6.72398 15.4 4.2002 17.9238 4.2002 21C4.2002 23.5905 5.99809 25.7679 8.4002 26.3977V43.6024C5.99809 44.2322 4.2002 46.4096 4.2002 49C4.2002 52.0763 6.72398 54.6 9.8002 54.6C11.427 54.6 12.8864 53.8826 13.9127 52.7625L29.4002 61.6137C29.4078 64.6836 31.9286 67.2 35.0002 67.2C38.0718 67.2 40.5926 64.6836 40.6002 61.6137L56.0877 52.7625C57.114 53.8826 58.5734 54.6 60.2002 54.6C63.2764 54.6 65.8002 52.0763 65.8002 49C65.8002 46.4096 64.0023 44.2322 61.6002 43.6024V26.3977C64.0023 25.7679 65.8002 23.5905 65.8002 21C65.8002 17.9238 63.2764 15.4 60.2002 15.4C58.5734 15.4 57.114 16.1175 56.0877 17.2375L40.6002 8.38638C40.5926 5.31646 38.0718 2.80005 35.0002 2.80005ZM35.0002 5.60005C36.5632 5.60005 37.8002 6.83707 37.8002 8.40005C37.8002 9.96303 36.5632 11.2 35.0002 11.2C33.4372 11.2 32.2002 9.96303 32.2002 8.40005C32.2002 6.83707 33.4372 5.60005 35.0002 5.60005ZM30.1686 11.1727C31.1395 12.8504 32.9356 14 35.0002 14C37.0648 14 38.8609 12.8504 39.8318 11.1727L54.767 19.7094C54.6671 20.1258 54.6002 20.5545 54.6002 21C54.6002 23.5905 56.3981 25.7679 58.8002 26.3977V43.6024C56.3981 44.2322 54.6002 46.4096 54.6002 49C54.6002 49.4456 54.6671 49.8742 54.767 50.2907L39.8318 58.8274C38.8609 57.1497 37.0648 56 35.0002 56C32.9356 56 31.1395 57.1497 30.1686 58.8274L15.2334 50.2907C15.3333 49.8742 15.4002 49.4456 15.4002 49C15.4002 46.4096 13.6023 44.2322 11.2002 43.6024V26.3977C13.6023 25.7679 15.4002 23.5905 15.4002 21C15.4002 20.5545 15.3333 20.1258 15.2334 19.7094L30.1686 11.1727ZM9.8002 18.2C11.3632 18.2 12.6002 19.4371 12.6002 21C12.6002 22.5198 11.4275 23.7205 9.92598 23.7864C9.87689 23.782 9.8276 23.7801 9.77832 23.7809C9.74272 23.7814 9.70714 23.7832 9.67168 23.7864C8.17148 23.7191 7.0002 22.5189 7.0002 21C7.0002 19.4371 8.23722 18.2 9.8002 18.2ZM60.2002 18.2C61.7632 18.2 63.0002 19.4371 63.0002 21C63.0002 22.5198 61.8275 23.7205 60.326 23.7864C60.2769 23.782 60.2276 23.7801 60.1783 23.7809C60.1427 23.7814 60.1071 23.7832 60.0717 23.7864C58.5715 23.7191 57.4002 22.5189 57.4002 21C57.4002 19.4371 58.6372 18.2 60.2002 18.2ZM35.8916 21C32.6967 21 30.2602 22.11 29.001 24.0899C27.8668 25.8731 27.8491 28.1156 28.3748 30.4172C28.107 30.8859 27.9406 31.4349 28.0166 32.1235C28.105 32.9208 28.3012 33.5551 28.6729 34.0704C28.8097 34.2601 29.0549 34.2705 29.2389 34.4094C29.428 35.1542 29.6259 35.9243 29.9963 36.4247C30.2563 36.776 30.5211 37.0713 30.7674 37.3106C30.778 37.321 30.7898 37.3251 30.8002 37.3352V38.7243C30.7061 38.9357 30.5524 39.132 30.0646 39.4079C29.5262 39.7124 28.721 40.0237 27.8471 40.4497C26.9731 40.8756 26.0092 41.4326 25.2221 42.3528C24.435 43.273 23.8897 44.5554 23.8029 46.1235C23.7925 46.3134 23.821 46.5035 23.8865 46.6821C23.952 46.8607 24.0532 47.0241 24.184 47.1623C24.3148 47.3004 24.4723 47.4105 24.647 47.4858C24.8217 47.5611 25.01 47.5999 25.2002 47.6H44.8002C44.9904 47.5999 45.1787 47.5611 45.3534 47.4858C45.5281 47.4105 45.6856 47.3004 45.8164 47.1623C45.9472 47.0241 46.0484 46.8607 46.1139 46.6821C46.1794 46.5035 46.2078 46.3134 46.1975 46.1235C46.1107 44.5554 45.5654 43.273 44.7783 42.3528C43.9913 41.4325 43.0273 40.8757 42.1533 40.4497C41.2794 40.0236 40.4743 39.7097 39.9357 39.4051C39.448 39.1293 39.2942 38.9353 39.2002 38.7243V37.3188C39.2138 37.3051 39.2298 37.2974 39.2439 37.2832C39.4861 37.0396 39.7477 36.7422 40.0014 36.3918C40.3597 35.8969 40.5492 35.1519 40.7369 34.4313C40.9214 34.2923 41.1658 34.2824 41.3029 34.0922C41.6751 33.5763 41.8744 32.9429 41.9619 32.1454C42.0208 31.6119 41.9716 31.1129 41.7869 30.6497C41.7621 30.5875 41.653 30.554 41.6229 30.4911C42.0136 28.8882 42.1409 27.1789 41.5217 25.6102C40.9306 24.1129 39.4025 23.0858 37.4939 22.7145L37.2068 21.9215C37.1086 21.6516 36.9297 21.4183 36.6945 21.2535C36.4592 21.0886 36.1789 21.0002 35.8916 21ZM34.9674 23.9559L35.085 24.2786C35.1832 24.5485 35.3621 24.7818 35.5973 24.9466C35.8326 25.1115 36.1129 25.1999 36.4002 25.2C38.0706 25.2 38.5544 25.7227 38.9158 26.6383C39.2772 27.5539 39.238 29.0446 38.8229 30.3872C38.7475 30.6326 38.741 30.894 38.8042 31.1428C38.8674 31.3917 38.9977 31.6184 39.1811 31.7981C39.1816 31.8248 39.1828 31.7986 39.1783 31.8391C39.135 32.2342 39.0743 32.3129 39.058 32.3477C38.8153 32.4594 38.6096 32.6382 38.4652 32.863C38.3208 33.0878 38.2438 33.3493 38.2432 33.6165C38.2432 33.7866 38.0522 34.3126 37.7346 34.7512C37.5758 34.9705 37.3987 35.171 37.2588 35.3118C37.1189 35.4525 36.9411 35.5588 37.1057 35.4649C36.8916 35.5872 36.7136 35.7639 36.5897 35.9771C36.4659 36.1903 36.4005 36.4324 36.4002 36.679V39.1071C36.4005 39.2616 36.4264 39.4149 36.4768 39.561C36.8605 40.682 37.7391 41.3829 38.5549 41.8442C39.3707 42.3055 40.202 42.6125 40.9256 42.9653C41.6492 43.318 42.2436 43.6975 42.651 44.1739C42.7723 44.3157 42.7782 44.6306 42.8752 44.8H27.1252C27.2221 44.6306 27.2281 44.3157 27.3494 44.1739C27.7567 43.6977 28.3512 43.3207 29.0748 42.968C29.7984 42.6153 30.6296 42.3056 31.4455 41.8442C32.2614 41.3827 33.1401 40.6823 33.5236 39.561C33.574 39.4149 33.5999 39.2616 33.6002 39.1071V36.679C33.5998 36.4314 33.5339 36.1883 33.409 35.9746C33.2841 35.7608 33.1048 35.584 32.8893 35.4622C33.03 35.5416 32.8601 35.44 32.7197 35.3036C32.5793 35.1671 32.4049 34.9732 32.2467 34.7594C31.9303 34.332 31.7326 33.8254 31.7326 33.5946C31.7323 33.3277 31.6556 33.0665 31.5117 32.8417C31.3679 32.6169 31.1627 32.4379 30.9205 32.3258C30.9039 32.2905 30.8413 32.2126 30.7975 31.8172C30.7915 31.7629 30.8029 31.7806 30.8111 31.7625C30.9858 31.5858 31.1103 31.3658 31.1718 31.125C31.2333 30.8843 31.2296 30.6315 31.1611 30.3926C30.5618 28.3012 30.6991 26.6383 31.3635 25.5938C31.9251 24.7108 33.1055 24.1425 34.9674 23.9559ZM9.67441 46.2137C9.759 46.2214 9.84412 46.2214 9.92871 46.2137C11.4289 46.2809 12.6002 47.4812 12.6002 49C12.6002 50.563 11.3632 51.8 9.8002 51.8C8.23722 51.8 7.0002 50.563 7.0002 49C7.0002 47.4803 8.17289 46.2796 9.67441 46.2137ZM60.0744 46.2137C60.159 46.2214 60.2441 46.2214 60.3287 46.2137C61.8289 46.2809 63.0002 47.4812 63.0002 49C63.0002 50.563 61.7632 51.8 60.2002 51.8C58.6372 51.8 57.4002 50.563 57.4002 49C57.4002 47.4803 58.5729 46.2796 60.0744 46.2137ZM35.0002 58.8C36.5632 58.8 37.8002 60.0371 37.8002 61.6C37.8002 63.163 36.5632 64.4 35.0002 64.4C33.4372 64.4 32.2002 63.163 32.2002 61.6C32.2002 60.0371 33.4372 58.8 35.0002 58.8Z" fill="#438FEF"/>
</svg>
