<svg width="65" height="65" viewBox="0 0 65 65" fill="none" xmlns="http://www.w3.org/2000/svg">
<path d="M49.4005 3.8999C45.1081 3.8999 41.6005 7.40748 41.6005 11.6999C41.6005 15.9923 45.1081 19.4999 49.4005 19.4999C53.6929 19.4999 57.2005 15.9923 57.2005 11.6999C57.2005 7.40748 53.6929 3.8999 49.4005 3.8999ZM15.6005 6.4999C15.4282 6.49747 15.2572 6.52929 15.0973 6.59353C14.9375 6.65777 14.792 6.75314 14.6693 6.87409C14.5466 6.99505 14.4492 7.13919 14.3827 7.29812C14.3162 7.45705 14.282 7.62762 14.282 7.7999C14.282 7.97218 14.3162 8.14275 14.3827 8.30168C14.4492 8.46062 14.5466 8.60475 14.6693 8.72571C14.792 8.84667 14.9375 8.94204 15.0973 9.00627C15.2572 9.07051 15.4282 9.10234 15.6005 9.0999H24.1622L5.58134 27.6808C5.45657 27.8006 5.35696 27.944 5.28834 28.1028C5.21972 28.2616 5.18347 28.4324 5.18171 28.6054C5.17995 28.7783 5.21272 28.9499 5.27809 29.11C5.34347 29.2702 5.44014 29.4156 5.56244 29.5379C5.68474 29.6602 5.83022 29.7569 5.99035 29.8223C6.15048 29.8877 6.32204 29.9204 6.495 29.9187C6.66795 29.9169 6.83881 29.8807 6.99758 29.812C7.15635 29.7434 7.29983 29.6438 7.41962 29.519L26.0005 10.9382L25.9979 19.4999C25.9955 19.6722 26.0273 19.8432 26.0916 20.0031C26.1558 20.1629 26.2512 20.3084 26.3721 20.4311C26.4931 20.5538 26.6372 20.6512 26.7962 20.7177C26.9551 20.7842 27.1257 20.8184 27.2979 20.8184C27.4702 20.8184 27.6408 20.7842 27.7997 20.7177C27.9587 20.6512 28.1028 20.5538 28.2237 20.4311C28.3447 20.3084 28.4401 20.1629 28.5043 20.0031C28.5685 19.8432 28.6004 19.6722 28.5979 19.4999L28.6005 6.4999H15.6005ZM49.4005 6.4999C52.2878 6.4999 54.6005 8.81262 54.6005 11.6999C54.6005 14.5872 52.2878 16.8999 49.4005 16.8999C46.5132 16.8999 44.2005 14.5872 44.2005 11.6999C44.2005 8.81262 46.5132 6.4999 49.4005 6.4999ZM43.5505 20.7999C39.6189 20.7999 36.4005 24.0197 36.4005 27.9499V41.5999C36.3995 41.6946 36.4089 41.7891 36.4284 41.8817C36.5773 43.8888 38.2583 45.4999 40.3005 45.4999C40.7579 45.4999 41.1911 45.4038 41.6005 45.2561V56.5499C41.6005 59.0474 43.6529 61.0999 46.1505 61.0999C47.4205 61.0999 48.572 60.5662 49.4005 59.7161C50.229 60.5662 51.3805 61.0999 52.6505 61.0999C55.148 61.0999 57.2005 59.0474 57.2005 56.5499V45.2561C57.6098 45.4038 58.0431 45.4999 58.5005 45.4999C60.5435 45.4999 62.2249 43.8874 62.3725 41.8792C62.3919 41.7874 62.4013 41.6937 62.4005 41.5999V27.9499C62.4005 24.0197 59.1821 20.7999 55.2505 20.7999H54.08H44.721H43.5505ZM43.5505 23.3999H44.721H54.08H55.2505C57.7721 23.3999 59.8005 25.4295 59.8005 27.9499V41.5999C59.8005 42.3344 59.235 42.8999 58.5005 42.8999C57.7659 42.8999 57.2005 42.3344 57.2005 41.5999V31.1999H54.6005V41.5999V56.5499C54.6005 57.643 53.7435 58.4999 52.6505 58.4999C51.5574 58.4999 50.7005 57.643 50.7005 56.5499V41.5999H48.1005V56.5499C48.1005 57.643 47.2435 58.4999 46.1505 58.4999C45.0574 58.4999 44.2005 57.643 44.2005 56.5499V31.1999H41.6005V41.5999C41.6005 42.3344 41.035 42.8999 40.3005 42.8999C39.5659 42.8999 39.0005 42.3344 39.0005 41.5999V27.9499C39.0005 25.4295 41.0289 23.3999 43.5505 23.3999ZM26.0005 27.2999V28.5999V61.0999H33.8005V27.2999H26.0005ZM28.6005 29.8999H31.2005V58.4999H28.6005V29.8999ZM15.6005 36.3999V37.6999V61.0999H23.4005V36.3999H15.6005ZM18.2005 38.9999H20.8005V58.4999H18.2005V38.9999ZM5.20048 44.1999V45.4999V61.0999H13.0005V44.1999H5.20048ZM7.80048 46.7999H10.4005V58.4999H7.80048V46.7999Z" fill="#438FEF"/>
</svg>
