<svg width="62" height="62" viewBox="0 0 62 62" fill="none" xmlns="http://www.w3.org/2000/svg">
<path d="M50.5291 0.205474C49.4408 0.26563 46.0283 0.369537 40.833 2.80313C35.6377 5.23126 28.5064 9.95625 19.2314 19.2313C9.95644 28.5063 5.22598 35.643 2.79785 40.8383C0.369727 46.0281 0.260352 49.4406 0.200195 50.5289V50.6C0.200195 51.8578 0.83457 52.7164 1.56738 53.6789C2.3002 54.6359 3.23535 55.6148 4.21426 56.5555C6.17754 58.4367 8.27754 60.1211 9.24004 60.8047C11.4549 62.3906 14.0525 62.0188 15.2338 60.3563C16.0814 59.175 22.5072 49.4133 23.4697 47.8219C23.4697 47.8219 23.4643 47.8219 23.4697 47.8219C24.4486 46.3399 24.0549 44.5789 23.1635 42.9438C22.4908 41.7133 20.5986 38.4211 20.0463 37.4641C20.5275 36.7313 22.3869 34.0023 28.1947 28.1945L28.2002 28.1891V28.1836C34.0299 22.2555 36.7479 20.4836 37.4533 20.0406C38.3885 20.5766 41.626 22.4414 42.9002 23.1414C44.4533 24.0711 46.2471 24.3719 47.74 23.5188L47.7564 23.5133L47.7674 23.5023C48.5166 23.0539 51.3002 21.2438 54.1549 19.368C55.5822 18.4328 56.9986 17.4977 58.1252 16.7539C59.2354 16.0102 59.9846 15.5125 60.3564 15.2336C62.0135 14.0523 62.3908 11.4602 60.8049 9.23985C60.1268 8.29376 58.4478 6.15547 56.5611 4.17579C55.6205 3.18594 54.6361 2.24532 53.6682 1.51251C52.7057 0.785162 51.8197 0.139849 50.5291 0.205474ZM50.6713 3.00001C50.54 3.00547 51.2182 3.16954 51.9783 3.74376C52.7439 4.32344 53.6518 5.18204 54.5322 6.10626C56.2932 7.95469 57.9775 10.1039 58.5244 10.8695C59.3939 12.0836 58.7869 12.9148 58.7322 12.9531L58.7158 12.9695L58.6994 12.975C58.5791 13.0734 57.6932 13.675 56.5721 14.4188C55.4564 15.1625 54.0455 16.0977 52.6182 17.0273C49.7854 18.8867 46.8486 20.7898 46.3564 21.0906H46.351C46.1322 21.2109 45.2354 21.2711 44.3385 20.7352L44.3166 20.7188L44.2893 20.7078C43.0096 20.0078 38.0658 17.1695 38.0658 17.1695L37.3713 16.7703L36.6768 17.1695C36.6768 17.1695 33.0182 19.2914 26.215 26.2148C26.215 26.2148 26.215 26.2203 26.2096 26.2203C26.2096 26.2203 26.2096 26.2203 26.2096 26.2258C19.4119 33.018 17.1861 36.6438 17.1861 36.6438L16.7596 37.3492L17.1697 38.0656C17.1697 38.0656 20.008 43.0094 20.7025 44.2891C21.2822 45.35 21.1291 46.2852 21.1346 46.2688L21.1182 46.2961L21.1018 46.3289C20.5439 47.2586 13.3307 58.2016 12.9533 58.732C12.915 58.7867 12.0783 59.3938 10.8697 58.5242C10.115 57.9883 7.9877 56.2984 6.1502 54.5375C5.23691 53.6516 4.37832 52.7492 3.79316 51.9781C3.21348 51.2125 3.01113 50.5234 3.01113 50.6055C3.07129 49.3531 3.1041 46.7883 5.33535 42.025C7.58848 37.2016 12.1111 30.3109 21.2111 21.2109C30.3111 12.1109 37.1963 7.58829 42.0197 5.33516C46.8432 3.08204 49.4299 3.06563 50.6713 3.00001Z" fill="#438FEF"/>
</svg>
