<svg width="56" height="70" viewBox="0 0 56 70" fill="none" xmlns="http://www.w3.org/2000/svg">
<path d="M16.5375 0C15.8703 0.125781 15.3891 0.716407 15.4 1.4V2.8H4.06875C1.82656 2.8 0 4.62656 0 6.86875V65.8C0 68.1023 1.82656 70 4.06875 70H51.8C54.1024 70 55.8688 68.0805 55.8688 65.9313V7C55.8742 6.95625 55.8633 6.9125 55.8688 6.86875C56.0109 4.62109 54.1242 2.8 51.9313 2.8H40.6V1.4C40.6 0.628907 39.9711 0 39.2 0H16.8C16.7563 0 16.7125 0 16.6688 0C16.625 0 16.5813 0 16.5375 0ZM18.2 2.8H37.8V11.2H18.2V2.8ZM4.06875 5.6H15.4V8.4H5.6V64.4H50.4V8.4H40.6V5.6H51.9313C52.4891 5.6 53.118 6.24531 53.0688 6.7375C53.0688 6.78125 53.0688 6.825 53.0688 6.86875V65.9313C53.0688 66.582 52.5766 67.2 51.8 67.2H4.06875C3.51094 67.2 2.8 66.5766 2.8 65.8V6.86875C2.8 6.31094 3.51094 5.6 4.06875 5.6ZM8.4 11.2H15.4V12.6C15.4 13.3711 16.0289 14 16.8 14H39.2C39.9711 14 40.6 13.3711 40.6 12.6V11.2H47.6V61.6H8.4V11.2ZM14 23.8V35H25.2V23.8H14ZM16.8 26.6H22.4V32.2H16.8V26.6ZM29.4 28V30.8H42V28H29.4ZM14 42V53.2H25.2V42H14ZM16.8 44.8H22.4V50.4H16.8V44.8ZM18.2 46.2V49H21V46.2H18.2ZM29.4 46.2V49H42V46.2H29.4Z" fill="#438FEF"/>
</svg>
