<svg width="70" height="70" viewBox="0 0 70 70" fill="none" xmlns="http://www.w3.org/2000/svg">
<g clip-path="url(#clip0)">
<path d="M9.7998 2.80005V67.2H47.8459C47.9453 66.9172 48.0717 66.6403 48.2369 66.3743L49.4729 64.4H12.5998V5.60005H40.5998V22.4H57.3998V44.8438C58.2678 46.01 58.7998 47.439 58.7998 49V49.4758L60.1998 47.2364V20.4204L42.5795 2.80005H9.7998ZM43.3998 7.57974L55.4201 19.6H43.3998V7.57974ZM19.5998 28C19.4143 27.9974 19.2301 28.0317 19.0579 28.1009C18.8858 28.1701 18.7291 28.2728 18.597 28.403C18.4649 28.5333 18.36 28.6885 18.2883 28.8597C18.2167 29.0308 18.1799 29.2145 18.1799 29.4C18.1799 29.5856 18.2167 29.7693 18.2883 29.9404C18.36 30.1116 18.4649 30.2668 18.597 30.3971C18.7291 30.5273 18.8858 30.63 19.0579 30.6992C19.2301 30.7684 19.4143 30.8027 19.5998 30.8H50.3998C50.5853 30.8027 50.7695 30.7684 50.9417 30.6992C51.1138 30.63 51.2705 30.5273 51.4026 30.3971C51.5347 30.2668 51.6397 30.1116 51.7113 29.9404C51.7829 29.7693 51.8197 29.5856 51.8197 29.4C51.8197 29.2145 51.7829 29.0308 51.7113 28.8597C51.6397 28.6885 51.5347 28.5333 51.4026 28.403C51.2705 28.2728 51.1138 28.1701 50.9417 28.1009C50.7695 28.0317 50.5853 27.9974 50.3998 28H19.5998ZM19.5998 36.4C19.4143 36.3974 19.2301 36.4317 19.0579 36.5009C18.8858 36.5701 18.7291 36.6728 18.597 36.803C18.4649 36.9333 18.36 37.0885 18.2883 37.2597C18.2167 37.4308 18.1799 37.6145 18.1799 37.8C18.1799 37.9856 18.2167 38.1693 18.2883 38.3404C18.36 38.5116 18.4649 38.6668 18.597 38.7971C18.7291 38.9273 18.8858 39.03 19.0579 39.0992C19.2301 39.1684 19.4143 39.2027 19.5998 39.2H50.3998C50.5853 39.2027 50.7695 39.1684 50.9417 39.0992C51.1138 39.03 51.2705 38.9273 51.4026 38.7971C51.5347 38.6668 51.6397 38.5116 51.7113 38.3404C51.7829 38.1693 51.8197 37.9856 51.8197 37.8C51.8197 37.6145 51.7829 37.4308 51.7113 37.2597C51.6397 37.0885 51.5347 36.9333 51.4026 36.803C51.2705 36.6728 51.1138 36.5701 50.9417 36.5009C50.7695 36.4317 50.5853 36.3974 50.3998 36.4H19.5998ZM65.7314 44.7836C65.5042 44.7968 65.2835 44.8652 65.0887 44.9829C64.8938 45.1006 64.7305 45.264 64.6131 45.459L50.6131 67.859C50.5071 68.0149 50.4337 68.1905 50.3972 68.3754C50.3607 68.5603 50.3619 68.7507 50.4008 68.9351C50.4397 69.1195 50.5154 69.2942 50.6234 69.4487C50.7313 69.6031 50.8694 69.7342 51.0293 69.834C51.1891 69.9338 51.3675 70.0004 51.5537 70.0296C51.7399 70.0588 51.9301 70.0502 52.1128 70.0041C52.2956 69.9581 52.4672 69.8756 52.6173 69.7617C52.7674 69.6478 52.893 69.5047 52.9865 69.341L66.9865 46.9411C67.12 46.734 67.1965 46.4953 67.2083 46.2492C67.22 46.003 67.1666 45.7582 67.0534 45.5393C66.9402 45.3204 66.7713 45.1353 66.5637 45.0026C66.356 44.8699 66.1171 44.7944 65.8709 44.7836C65.8244 44.7813 65.7779 44.7813 65.7314 44.7836ZM19.5998 44.8C19.4143 44.7974 19.2301 44.8317 19.0579 44.9009C18.8858 44.9701 18.7291 45.0728 18.597 45.203C18.4649 45.3333 18.36 45.4885 18.2883 45.6597C18.2167 45.8308 18.1799 46.0145 18.1799 46.2C18.1799 46.3856 18.2167 46.5693 18.2883 46.7404C18.36 46.9116 18.4649 47.0668 18.597 47.1971C18.7291 47.3273 18.8858 47.43 19.0579 47.4992C19.2301 47.5684 19.4143 47.6027 19.5998 47.6H41.9998C42.1853 47.6027 42.3695 47.5684 42.5417 47.4992C42.7138 47.43 42.8705 47.3273 43.0026 47.1971C43.1347 47.0668 43.2397 46.9116 43.3113 46.7404C43.3829 46.5693 43.4197 46.3856 43.4197 46.2C43.4197 46.0145 43.3829 45.8308 43.3113 45.6597C43.2397 45.4885 43.1347 45.3333 43.0026 45.203C42.8705 45.0728 42.7138 44.9701 42.5417 44.9009C42.3695 44.8317 42.1853 44.7974 41.9998 44.8H19.5998ZM51.7998 44.8C49.4968 44.8 47.5998 46.6971 47.5998 49V51.8V53.2H48.1822C48.803 54.7494 50.0405 56 51.7998 56C54.1028 56 55.9998 54.103 55.9998 51.8V49C55.9998 46.6971 54.1028 44.8 51.7998 44.8ZM51.7998 47.6C52.5908 47.6 53.1998 48.209 53.1998 49V51.8C53.1998 52.5911 52.5908 53.2 51.7998 53.2C51.0088 53.2 50.3998 52.5911 50.3998 51.8V49C50.3998 48.209 51.0088 47.6 51.7998 47.6ZM19.5998 53.2C19.4143 53.1974 19.2301 53.2317 19.0579 53.3009C18.8858 53.37 18.7291 53.4728 18.597 53.603C18.4649 53.7333 18.36 53.8885 18.2883 54.0597C18.2167 54.2308 18.1799 54.4145 18.1799 54.6C18.1799 54.7856 18.2167 54.9693 18.2883 55.1404C18.36 55.3116 18.4649 55.4668 18.597 55.5971C18.7291 55.7273 18.8858 55.83 19.0579 55.8992C19.2301 55.9684 19.4143 56.0027 19.5998 56H41.9998C42.1853 56.0027 42.3695 55.9684 42.5417 55.8992C42.7138 55.83 42.8705 55.7273 43.0026 55.5971C43.1347 55.4668 43.2397 55.3116 43.3113 55.1404C43.3829 54.9693 43.4197 54.7856 43.4197 54.6C43.4197 54.4145 43.3829 54.2308 43.3113 54.0597C43.2397 53.8885 43.1347 53.7333 43.0026 53.603C42.8705 53.4728 42.7138 53.37 42.5417 53.3009C42.3695 53.2317 42.1853 53.1974 41.9998 53.2H19.5998ZM65.7998 58.8C63.4968 58.8 61.5998 60.6971 61.5998 63V65.8V67.2H62.1822C62.803 68.7494 64.0405 70 65.7998 70C68.1028 70 69.9998 68.103 69.9998 65.8V63C69.9998 60.6971 68.1028 58.8 65.7998 58.8ZM65.7998 61.6C66.5908 61.6 67.1998 62.209 67.1998 63V65.8C67.1998 66.5911 66.5908 67.2 65.7998 67.2C65.0088 67.2 64.3998 66.5911 64.3998 65.8V63C64.3998 62.209 65.0088 61.6 65.7998 61.6Z" fill="#438FEF"/>
</g>
<defs>
<clipPath id="clip0">
<rect width="70" height="70" fill="white"/>
</clipPath>
</defs>
</svg>
