<svg width="70" height="70" viewBox="0 0 70 70" fill="none" xmlns="http://www.w3.org/2000/svg">
<path d="M51.7045 4.20001C49.073 4.24796 46.9589 5.01291 45.5194 6.40118C44.0799 7.78945 43.4086 9.71693 43.3592 11.7387C43.3592 11.7396 43.3592 11.7405 43.3592 11.7414C43.3274 13.0588 43.6004 14.2474 43.9143 15.5559C43.553 16.1009 43.2986 16.7623 43.403 17.6367C43.403 17.6376 43.403 17.6385 43.403 17.6395C43.5239 18.644 43.8013 19.4173 44.2616 20.0047C44.4724 20.2738 44.7813 20.2938 45.0518 20.4559C45.3375 21.3999 45.7267 22.2958 46.2713 23.0125C46.6196 23.4708 46.9764 23.8802 47.3022 24.2129C47.3803 24.2927 47.4754 24.3404 47.5428 24.4098C47.5486 25.1209 47.5511 25.7882 47.4991 26.5262C47.3301 26.8948 46.8117 27.3387 45.6998 27.7977C45.0713 28.0571 44.3179 28.3159 43.5206 28.5961C43.5627 28.2159 43.5944 27.8145 43.5998 27.3656C43.5998 27.3647 43.5998 27.3638 43.5998 27.3629C43.6152 26.0414 43.4001 24.6379 42.6592 23.4008C41.9724 22.254 40.7152 21.3837 39.1456 21.0602C38.1486 20.0642 36.7469 19.6 35.1698 19.6C35.1616 19.5999 35.1534 19.5999 35.1452 19.6C32.5136 19.648 30.3995 20.4129 28.96 21.8012C27.5205 23.1894 26.852 25.1169 26.8026 27.1387C26.8026 27.1396 26.8026 27.1405 26.8026 27.1414C26.7906 27.6369 26.8331 28.1129 26.8928 28.5852C25.9409 28.261 25.0144 27.9685 24.2487 27.6801C23.0992 27.2471 22.5573 26.7977 22.4221 26.5262C22.3708 25.7923 22.3724 25.1274 22.3784 24.418C22.4461 24.3487 22.5405 24.3009 22.619 24.2211C22.9458 23.8887 23.3026 23.4817 23.6526 23.0234C24.1995 22.3074 24.5902 21.4088 24.8776 20.4641C25.1501 20.3017 25.4616 20.2832 25.6733 20.0129C26.1333 19.4254 26.4081 18.6509 26.5291 17.6477V17.6449C26.6344 16.767 26.3786 16.1 26.0123 15.5531C26.2757 14.5668 26.538 13.492 26.5565 11.9738C26.5718 10.6522 26.3567 9.24612 25.6159 8.00899C24.929 6.86212 23.6719 5.99186 22.1022 5.66836C21.1056 4.67275 19.706 4.20821 18.1291 4.20821C18.12 4.20812 18.1109 4.20812 18.1018 4.20821C15.4703 4.25694 13.3585 5.02098 11.9194 6.40938C10.4802 7.79778 9.80943 9.72547 9.75922 11.7469C9.75922 11.7478 9.75922 11.7487 9.75922 11.7496C9.72738 13.067 10.0004 14.2557 10.3143 15.5641C9.95297 16.1091 9.69864 16.7705 9.80297 17.6449C9.80297 17.6458 9.80297 17.6468 9.80297 17.6477C9.92393 18.6526 10.2004 19.4282 10.6616 20.0156C10.8734 20.2854 11.1854 20.3021 11.4573 20.4641C11.7433 21.4066 12.1273 22.3049 12.6713 23.0207C13.0196 23.479 13.3764 23.8856 13.7022 24.2184C13.7803 24.2982 13.8754 24.3459 13.9428 24.4152C13.9486 25.13 13.9517 25.7973 13.8991 26.5399C13.7581 26.8465 13.4214 27.1945 12.6112 27.5789C11.7533 27.9859 10.5465 28.3641 9.2725 28.8285C7.99847 29.293 6.64292 29.8462 5.44711 30.7481C4.25131 31.6499 3.22732 32.9655 2.83578 34.702C2.78584 34.8845 2.77341 35.0752 2.79924 35.2626C2.82507 35.4501 2.88862 35.6304 2.98606 35.7925C3.0835 35.9547 3.21281 36.0955 3.36617 36.2063C3.51953 36.3172 3.69376 36.3958 3.87834 36.4374C4.06292 36.479 4.25402 36.4828 4.4401 36.4485C4.62618 36.4142 4.80338 36.3425 4.96099 36.2378C5.1186 36.1331 5.25335 35.9975 5.35712 35.8393C5.46088 35.6811 5.53149 35.5035 5.56469 35.3172C5.80246 34.2626 6.32389 33.5939 7.13149 32.9848C7.93908 32.3757 9.0465 31.8913 10.2323 31.459C11.418 31.0267 12.6682 30.6493 13.8088 30.1082C14.9494 29.5671 16.0996 28.8027 16.6006 27.4559C16.6441 27.3388 16.6716 27.2165 16.6827 27.0922C16.7998 25.7899 16.7565 24.8746 16.7565 23.8C16.7563 23.5449 16.6864 23.2946 16.5544 23.0763C16.4223 22.858 16.2332 22.6799 16.0073 22.5613C16.2355 22.681 15.9382 22.5 15.7038 22.2606C15.4693 22.0211 15.1775 21.6871 14.9026 21.3254C14.3528 20.6019 13.9223 19.6708 13.8991 19.4523C13.8688 19.1681 13.7522 18.8999 13.565 18.6838C13.3777 18.4678 13.1289 18.3142 12.8518 18.2438C12.8054 18.1788 12.6595 17.9426 12.5838 17.3141C12.5659 17.1636 12.5892 17.089 12.6112 17.0461C12.8335 16.8798 13.0013 16.6511 13.0933 16.3891C13.1853 16.1272 13.1974 15.8438 13.128 15.575C12.7216 14.0112 12.5298 13.0318 12.5592 11.8152C12.5963 10.3437 13.031 9.22772 13.8635 8.42461C14.6927 7.62469 16.0151 7.05243 18.1291 7.00821H18.1319C19.5437 7.00924 20.2662 7.4628 20.3577 7.62344C20.4639 7.81009 20.6116 7.96981 20.7894 8.09025C20.9672 8.21068 21.1703 8.2886 21.3831 8.31797C22.4044 8.45975 22.8514 8.83991 23.2151 9.44727C23.5788 10.0546 23.7677 10.9708 23.7565 11.941C23.7372 13.5269 23.4835 14.7261 23.2315 15.482C23.1381 15.7618 23.1354 16.0638 23.2237 16.3452C23.3121 16.6265 23.4871 16.8728 23.7237 17.0488C23.7454 17.0921 23.7687 17.1647 23.751 17.3113C23.6752 17.9415 23.5291 18.179 23.4831 18.2438C23.206 18.3142 22.9571 18.4678 22.7699 18.6838C22.5827 18.8999 22.4661 19.1681 22.4358 19.4523C22.4129 19.6671 21.9823 20.599 21.4295 21.3227C21.1532 21.6845 20.8586 22.0181 20.6229 22.2578C20.3871 22.4976 20.0877 22.6799 20.3139 22.5613C20.088 22.6799 19.8988 22.858 19.7668 23.0763C19.6348 23.2946 19.5649 23.5449 19.5647 23.8C19.5647 24.872 19.5212 25.7898 19.6385 27.0922C19.6495 27.2165 19.6771 27.3388 19.7206 27.4559C20.3286 29.0861 21.8459 29.7691 23.2616 30.3024C24.5428 30.7849 25.8887 31.1632 27.0241 31.6121C26.8667 32.02 26.7802 32.4822 26.8463 33.0367C26.8463 33.0376 26.8463 33.0385 26.8463 33.0395C26.9673 34.044 27.2419 34.8173 27.7022 35.4047C27.9142 35.6752 28.2257 35.6963 28.4979 35.8586C28.7839 36.801 29.1708 37.6967 29.7147 38.4125C30.063 38.8708 30.417 39.2802 30.7428 39.6129C30.821 39.6927 30.916 39.7404 30.9834 39.8098C30.9892 40.5199 30.9914 41.1868 30.9397 41.9234C30.7647 42.3062 30.2026 42.7691 29.0229 43.2441C28.2083 43.5722 27.2075 43.8913 26.1655 44.2777C26.3648 43.4565 26.5419 42.5654 26.5565 41.3656C26.5718 40.044 26.3567 38.6379 25.6159 37.4008C24.9282 36.2525 23.6693 35.3798 22.0967 35.0574C21.1003 34.0651 19.7027 33.6 18.1291 33.6C18.1209 33.5999 18.1127 33.5999 18.1045 33.6C15.473 33.648 13.3589 34.4129 11.9194 35.8012C10.4799 37.1894 9.80863 39.1169 9.75922 41.1387C9.75922 41.1396 9.75922 41.1405 9.75922 41.1414C9.72738 42.4588 10.0004 43.6475 10.3143 44.9559C9.95297 45.5009 9.69864 46.1623 9.80297 47.0367C9.80297 47.0376 9.80297 47.0385 9.80297 47.0395C9.92388 48.044 10.2013 48.8173 10.6616 49.4047C10.8724 49.6738 11.1813 49.6938 11.4518 49.8559C11.7375 50.7999 12.1267 51.6958 12.6713 52.4125C13.0196 52.8708 13.3764 53.2802 13.7022 53.6129C13.7803 53.6927 13.8754 53.7404 13.9428 53.8098C13.9485 54.5227 13.9515 55.1911 13.8991 55.9316C13.7584 56.238 13.4186 56.5863 12.6084 56.9707C11.7507 57.3777 10.5466 57.7586 9.2725 58.2231C7.99839 58.6875 6.64029 59.2407 5.44438 60.1426C4.24846 61.0444 3.22459 62.3573 2.83305 64.0938C2.75123 64.4559 2.81661 64.8358 3.01482 65.1498C3.21302 65.4638 3.52782 65.6862 3.88998 65.7681C4.25215 65.8501 4.63202 65.7848 4.94608 65.5867C5.26013 65.3886 5.48265 65.0739 5.56469 64.7117C5.80245 63.6572 6.32378 62.9857 7.13149 62.3766C7.93919 61.7675 9.04367 61.2858 10.2295 60.8535C11.4154 60.4213 12.6682 60.0439 13.8088 59.5027C14.9494 58.9616 16.0973 58.1947 16.5979 56.8477C16.6413 56.7306 16.6689 56.6083 16.6799 56.484C16.7971 55.1817 16.7565 54.2664 16.7565 53.1918C16.7561 52.9364 16.6858 52.686 16.5532 52.4676C16.4207 52.2493 16.2309 52.0714 16.0045 51.9531C16.2327 52.0728 15.9354 51.8945 15.701 51.6551C15.4666 51.4157 15.1747 51.0817 14.8998 50.7199C14.35 49.9964 13.9196 49.0626 13.8963 48.8441C13.8659 48.5611 13.7499 48.294 13.5637 48.0785C13.3776 47.8631 13.1302 47.7095 12.8545 47.6383C12.8085 47.5742 12.6598 47.337 12.5838 46.7059C12.5659 46.5554 12.5892 46.4808 12.6112 46.4379C12.8335 46.2716 13.0013 46.0429 13.0933 45.7809C13.1853 45.519 13.1974 45.2356 13.128 44.9668C12.7216 43.403 12.5298 42.4236 12.5592 41.207C12.5952 39.7344 13.0277 38.6198 13.8608 37.8164C14.6913 37.0155 16.0177 36.4448 18.1373 36.4027C19.5426 36.4061 20.2654 36.8548 20.3549 37.0125C20.4611 37.1992 20.6089 37.3589 20.7867 37.4793C20.9645 37.5997 21.1676 37.6777 21.3803 37.707C22.4016 37.8488 22.8486 38.2317 23.2123 38.8391C23.5761 39.4464 23.7677 40.3626 23.7565 41.3328C23.7372 42.9187 23.4835 44.1179 23.2315 44.8738C23.1384 45.1529 23.1356 45.4542 23.2235 45.735C23.3113 46.0157 23.4854 46.2617 23.7209 46.4379C23.7426 46.4801 23.7664 46.5533 23.7483 46.7031C23.6722 47.3355 23.5231 47.5748 23.4776 47.6383C23.2019 47.7095 22.9545 47.8631 22.7684 48.0785C22.5823 48.294 22.4662 48.5611 22.4358 48.8441C22.4129 49.0589 21.9795 49.9908 21.4268 50.7145C21.1504 51.0763 20.8586 51.4099 20.6229 51.6496C20.3871 51.8894 20.0877 52.069 20.3139 51.9504C20.0876 52.0692 19.8982 52.2477 19.7661 52.4666C19.634 52.6854 19.5644 52.9362 19.5647 53.1918C19.5647 54.2638 19.5185 55.1816 19.6358 56.484C19.654 56.6844 19.7153 56.8785 19.8153 57.0531C19.9153 57.2277 20.0518 57.3786 20.2155 57.4957C20.8024 58.4006 21.6342 59.0665 22.5479 59.5C23.6885 60.0411 24.9414 60.4185 26.1272 60.8508C27.313 61.2831 28.4176 61.7675 29.2252 62.3766C30.0328 62.9857 30.5543 63.6545 30.792 64.709C30.8305 64.8903 30.9046 65.0621 31.01 65.2146C31.1154 65.367 31.25 65.497 31.406 65.597C31.5621 65.697 31.7364 65.7651 31.9189 65.7972C32.1014 65.8293 32.2885 65.8249 32.4693 65.7842C32.6501 65.7435 32.821 65.6673 32.9721 65.56C33.1233 65.4527 33.2516 65.3165 33.3497 65.1593C33.4477 65.002 33.5136 64.8269 33.5435 64.644C33.5734 64.4611 33.5666 64.274 33.5237 64.0938C33.1321 62.3573 32.1054 61.0417 30.9096 60.1399C29.7138 59.238 28.3583 58.6848 27.0842 58.2203C25.8102 57.7559 24.6062 57.3777 23.7483 56.9707C22.9142 56.575 22.5494 56.2142 22.4194 55.9016C22.3694 55.1754 22.3697 54.5137 22.3756 53.8098C22.4437 53.7402 22.5401 53.6932 22.619 53.6129C22.9458 53.2805 23.3026 52.8735 23.6526 52.4152C24.1995 51.6992 24.5902 50.8006 24.8776 49.8559C25.1497 49.6936 25.4619 49.6747 25.6733 49.4047C26.1117 48.8449 26.3781 48.109 26.5073 47.1734C27.6474 46.7186 28.8839 46.3184 30.0674 45.8418C31.5127 45.2598 33.0277 44.4969 33.6413 42.8477C33.6847 42.7306 33.7123 42.6083 33.7233 42.484C33.8405 41.1816 33.7971 40.2664 33.7971 39.1918C33.7969 38.9367 33.7271 38.6864 33.595 38.4681C33.463 38.2498 33.2738 38.0717 33.0479 37.9531C33.2761 38.0727 32.9788 37.8945 32.7444 37.6551C32.51 37.4157 32.2181 37.0817 31.9432 36.7199C31.3934 35.9964 30.963 35.0626 30.9397 34.8441C30.9094 34.5599 30.7928 34.2917 30.6056 34.0756C30.4184 33.8596 30.1695 33.706 29.8924 33.6356C29.8458 33.5702 29.7002 33.3348 29.6245 32.7059C29.6061 32.5518 29.6317 32.4768 29.6545 32.4352C29.8763 32.269 30.0438 32.0408 30.1358 31.7794C30.2278 31.518 30.2402 31.2352 30.1713 30.9668C29.765 29.403 29.5732 28.4236 29.6026 27.207C29.6386 25.7344 30.0711 24.6198 30.9041 23.8164C31.7346 23.0155 33.0611 22.4448 35.1807 22.4027C36.5829 22.4071 37.3109 22.8544 37.401 23.0125C37.507 23.1988 37.6542 23.3583 37.8316 23.4787C38.0089 23.5992 38.2114 23.6773 38.4237 23.707C39.445 23.8488 39.892 24.2317 40.2557 24.8391C40.6194 25.4464 40.8111 26.3599 40.7999 27.3301C40.7805 28.916 40.5268 30.1179 40.2748 30.8738C40.1824 31.1525 40.1799 31.4532 40.2678 31.7334C40.3556 32.0136 40.5293 32.2591 40.7643 32.4352C40.786 32.477 40.8099 32.5493 40.7916 32.7004C40.7916 32.7013 40.7916 32.7022 40.7916 32.7031C40.7156 33.3354 40.5665 33.572 40.5209 33.6356C40.2453 33.7068 39.9979 33.8604 39.8118 34.0758C39.6256 34.2913 39.5096 34.5583 39.4791 34.8414C39.4563 35.0561 39.0229 35.9908 38.4702 36.7145C38.1938 37.0763 37.902 37.4099 37.6663 37.6496C37.4305 37.8894 37.131 38.069 37.3573 37.9504C37.1314 38.069 36.9422 38.2471 36.8102 38.4654C36.6781 38.6837 36.6082 38.9339 36.6081 39.1891C36.6081 40.2611 36.5618 41.1789 36.6791 42.4813C36.691 42.6057 36.7195 42.728 36.7639 42.8449C37.3747 44.4846 38.9024 45.1653 40.3268 45.6996C41.3639 46.0886 42.4176 46.4175 43.3975 46.7633C43.4006 46.8549 43.3914 46.94 43.403 47.0367C43.403 47.0376 43.403 47.0385 43.403 47.0395C43.5239 48.044 43.8013 48.8173 44.2616 49.4047C44.4724 49.6738 44.7813 49.6938 45.0518 49.8559C45.3375 50.7999 45.7267 51.6958 46.2713 52.4125C46.6196 52.8708 46.9764 53.2802 47.3022 53.6129C47.3803 53.6927 47.4754 53.7404 47.5428 53.8098C47.5486 54.5227 47.5515 55.1911 47.4991 55.9316C47.3584 56.238 47.0186 56.5863 46.2084 56.9707C45.3507 57.3777 44.1466 57.7586 42.8725 58.2231C41.5984 58.6875 40.2403 59.2407 39.0444 60.1426C37.8485 61.0444 36.8246 62.3573 36.4331 64.0938C36.3511 64.456 36.4164 64.836 36.6146 65.15C36.8128 65.4641 37.1277 65.6866 37.4899 65.7686C37.8521 65.8505 38.2321 65.7852 38.5462 65.587C38.8603 65.3888 39.0827 65.074 39.1647 64.7117C39.4025 63.6573 39.9238 62.9857 40.7315 62.3766C41.5392 61.7675 42.6437 61.2858 43.8295 60.8535C45.0154 60.4213 46.2682 60.0439 47.4088 59.5027C48.5494 58.9616 49.6973 58.1947 50.1979 56.8477C50.2413 56.7306 50.2689 56.6083 50.2799 56.484C50.3971 55.1817 50.3565 54.2664 50.3565 53.1918C50.3561 52.9364 50.2858 52.686 50.1532 52.4676C50.0207 52.2493 49.8309 52.0714 49.6045 51.9531C49.8327 52.0728 49.5354 51.8945 49.301 51.6551C49.0666 51.4157 48.7747 51.0817 48.4999 50.7199C47.95 49.9964 47.5196 49.0626 47.4963 48.8441C47.4659 48.5611 47.3499 48.294 47.1637 48.0785C46.9776 47.8631 46.7302 47.7095 46.4545 47.6383C46.4085 47.5742 46.2598 47.337 46.1838 46.7059C46.1831 46.6997 46.1844 46.6981 46.1838 46.6922C46.2736 46.5667 46.3419 46.4271 46.3862 46.2793C46.5497 46.1074 46.6668 45.8968 46.7266 45.6672C46.7864 45.4376 46.7869 45.1966 46.728 44.9668C46.3216 43.403 46.1298 42.4236 46.1592 41.207C46.1952 39.7344 46.6277 38.6198 47.4608 37.8164C48.2913 37.0155 49.6177 36.4448 51.7374 36.4027C53.1426 36.4061 53.8654 36.8548 53.9549 37.0125C54.0611 37.1992 54.2089 37.3589 54.3867 37.4793C54.5645 37.5997 54.7676 37.6777 54.9803 37.707C56.0016 37.8488 56.4486 38.2317 56.8124 38.8391C57.1761 39.4464 57.3678 40.3626 57.3565 41.3328C57.3372 42.9187 57.0835 44.1179 56.8315 44.8738C56.7384 45.1529 56.7356 45.4542 56.8235 45.735C56.9113 46.0157 57.0854 46.2617 57.3209 46.4379C57.3427 46.4797 57.3665 46.5521 57.3483 46.7031C57.2722 47.3355 57.1231 47.5748 57.0776 47.6383C56.8019 47.7095 56.5545 47.8631 56.3684 48.0785C56.1823 48.294 56.0662 48.5611 56.0358 48.8441C56.0129 49.0589 55.5795 49.9908 55.0268 50.7145C54.7504 51.0763 54.4586 51.4099 54.2229 51.6496C53.9872 51.8894 53.6877 52.069 53.9139 51.9504C53.6876 52.0692 53.4982 52.2477 53.3661 52.4666C53.234 52.6854 53.1644 52.9362 53.1647 53.1918C53.1647 54.2638 53.1185 55.1816 53.2358 56.484C53.254 56.6844 53.3153 56.8785 53.4153 57.0531C53.5153 57.2277 53.6518 57.3786 53.8155 57.4957C54.4025 58.4006 55.2342 59.0665 56.1479 59.5C57.2885 60.0411 58.5414 60.4185 59.7272 60.8508C60.913 61.2831 62.0176 61.7675 62.8252 62.3766C63.6328 62.9857 64.1543 63.6545 64.392 64.709C64.4305 64.8903 64.5046 65.0621 64.61 65.2146C64.7154 65.367 64.85 65.497 65.006 65.597C65.1621 65.697 65.3364 65.7651 65.5189 65.7972C65.7014 65.8293 65.8885 65.8249 66.0693 65.7842C66.2501 65.7435 66.421 65.6673 66.5721 65.56C66.7233 65.4527 66.8516 65.3165 66.9497 65.1593C67.0477 65.002 67.1136 64.8269 67.1435 64.644C67.1734 64.4611 67.1666 64.274 67.1237 64.0938C66.7321 62.3573 65.7054 61.0417 64.5096 60.1399C63.3138 59.238 61.9583 58.6848 60.6842 58.2203C59.4102 57.7559 58.2062 57.3777 57.3483 56.9707C56.5142 56.575 56.1494 56.2142 56.0194 55.9016C55.9694 55.1754 55.9697 54.5137 55.9756 53.8098C56.0437 53.7402 56.1401 53.6932 56.219 53.6129C56.5458 53.2805 56.9026 52.8735 57.2526 52.4152C57.7995 51.6992 58.1902 50.8006 58.4776 49.8559C58.7497 49.6936 59.0619 49.6747 59.2733 49.4047C59.7333 48.8172 60.0081 48.0427 60.1291 47.0395V47.0367C60.2344 46.1589 59.9784 45.4917 59.6124 44.9449C59.8757 43.9587 60.138 42.8836 60.1565 41.3656C60.1718 40.044 59.9567 38.6379 59.2159 37.4008C58.5282 36.2524 57.2693 35.3798 55.6967 35.0574C54.7003 34.0651 53.3027 33.6 51.7291 33.6C51.7209 33.5999 51.7127 33.5999 51.7045 33.6C49.073 33.648 46.9589 34.4129 45.5194 35.8012C44.0799 37.1894 43.4086 39.1169 43.3592 41.1387C43.3592 41.1396 43.3592 41.1405 43.3592 41.1414C43.3364 42.084 43.4892 42.9713 43.6819 43.8731C42.827 43.5879 42.0029 43.3379 41.3084 43.0774C40.1458 42.6412 39.5969 42.1871 39.4627 41.9152C39.4117 41.1833 39.413 40.5174 39.419 39.8098C39.487 39.7402 39.5834 39.6932 39.6623 39.6129C39.9892 39.2805 40.346 38.8707 40.6959 38.4125C41.2428 37.6966 41.6335 36.8004 41.9209 35.8559C42.1931 35.6936 42.5052 35.6747 42.7166 35.4047C43.1771 34.8166 43.4517 34.0414 43.5725 33.0367C43.6382 32.4924 43.5555 32.037 43.403 31.634C44.4969 31.2183 45.6592 30.8414 46.7663 30.3844C48.1573 29.8102 49.6045 29.0433 50.1979 27.4477C50.2413 27.3306 50.2689 27.2083 50.2799 27.084C50.3971 25.7816 50.3565 24.8664 50.3565 23.7918C50.3561 23.5364 50.2858 23.286 50.1532 23.0676C50.0207 22.8493 49.8309 22.6714 49.6045 22.5531C49.8327 22.6727 49.5354 22.4945 49.301 22.2551C49.0666 22.0157 48.7747 21.6817 48.4999 21.3199C47.95 20.5964 47.5196 19.6626 47.4963 19.4441C47.4659 19.1611 47.3499 18.894 47.1637 18.6785C46.9776 18.4631 46.7302 18.3095 46.4545 18.2383C46.4085 18.1742 46.2598 17.937 46.1838 17.3059C46.1659 17.1554 46.1893 17.0808 46.2112 17.0379C46.4335 16.8716 46.6013 16.6429 46.6933 16.3809C46.7853 16.119 46.7974 15.8356 46.728 15.5668C46.3216 14.003 46.1298 13.0236 46.1592 11.807C46.1952 10.3344 46.6277 9.21984 47.4608 8.41641C48.2913 7.61549 49.6177 7.04479 51.7374 7.00274C53.1426 7.00611 53.8654 7.4548 53.9549 7.61251C54.0611 7.79916 54.2089 7.95888 54.3867 8.07931C54.5645 8.19974 54.7676 8.27766 54.9803 8.30704C56.0016 8.44881 56.4486 8.8317 56.8124 9.43907C57.1761 10.0464 57.3678 10.9626 57.3565 11.9328C57.3372 13.5187 57.0835 14.7179 56.8315 15.4738C56.7384 15.7529 56.7356 16.0542 56.8235 16.335C56.9113 16.6157 57.0854 16.8617 57.3209 17.0379C57.3427 17.0797 57.3665 17.152 57.3483 17.3031C57.2722 17.9355 57.1231 18.1748 57.0776 18.2383C56.8019 18.3095 56.5545 18.4631 56.3684 18.6785C56.1823 18.894 56.0662 19.1611 56.0358 19.4441C56.0129 19.6589 55.5795 20.5908 55.0268 21.3145C54.7504 21.6763 54.4586 22.0099 54.2229 22.2496C53.9872 22.4894 53.6877 22.669 53.9139 22.5504C53.6876 22.6692 53.4982 22.8477 53.3661 23.0666C53.234 23.2854 53.1644 23.5362 53.1647 23.7918C53.1647 24.8638 53.1185 25.7816 53.2358 27.084C53.254 27.2844 53.3153 27.4785 53.4153 27.6531C53.5153 27.8277 53.6518 27.9786 53.8155 28.0957C54.4025 29.0006 55.2342 29.6665 56.1479 30.1C57.2885 30.6411 58.5414 31.0185 59.7272 31.4508C60.913 31.883 62.0176 32.3675 62.8252 32.9766C63.6328 33.5856 64.1543 34.2545 64.392 35.309C64.4305 35.4903 64.5046 35.6621 64.61 35.8146C64.7154 35.967 64.85 36.097 65.006 36.197C65.1621 36.297 65.3364 36.3651 65.5189 36.3972C65.7014 36.4293 65.8885 36.4249 66.0693 36.3842C66.2501 36.3435 66.421 36.2673 66.5721 36.16C66.7233 36.0527 66.8516 35.9165 66.9497 35.7593C67.0477 35.602 67.1136 35.4269 67.1435 35.244C67.1734 35.0611 67.1666 34.874 67.1237 34.6938C66.7321 32.9573 65.7054 31.6417 64.5096 30.7399C63.3138 29.838 61.9583 29.2848 60.6842 28.8203C59.4102 28.3559 58.2062 27.9777 57.3483 27.5707C56.5142 27.175 56.1494 26.8142 56.0194 26.5016C55.9694 25.7754 55.9697 25.1137 55.9756 24.4098C56.0437 24.3402 56.1401 24.2932 56.219 24.2129C56.5458 23.8805 56.9026 23.4734 57.2526 23.0152C57.7995 22.2992 58.1902 21.4006 58.4776 20.4559C58.7497 20.2936 59.0619 20.2747 59.2733 20.0047C59.7333 19.4172 60.0081 18.6427 60.1291 17.6395V17.6367C60.2344 16.7589 59.9784 16.0917 59.6124 15.5449C59.8757 14.5587 60.138 13.4836 60.1565 11.9656C60.1718 10.644 59.9567 9.23792 59.2159 8.00079C58.5282 6.85248 57.2693 5.9798 55.6967 5.65743C54.7003 4.66505 53.3027 4.20001 51.7291 4.20001C51.7209 4.19993 51.7127 4.19993 51.7045 4.20001Z" fill="#438FEF"/>
</svg>
