<svg width="70" height="70" viewBox="0 0 70 70" fill="none" xmlns="http://www.w3.org/2000/svg">
<path d="M35 0C31.15 0 28 3.15 28 7C28 8.94687 28.8039 10.7133 30.1 11.9875L19.3375 28.525C18.5445 28.2133 17.7023 28 16.8 28C12.95 28 9.8 31.15 9.8 35C9.8 37.5484 11.2055 39.7687 13.2562 40.9937L8.00625 56.0875C7.67266 56.0383 7.34453 56 7 56C3.15 56 0 59.15 0 63C0 66.85 3.15 70 7 70C10.85 70 14 66.85 14 63C14 60.4898 12.6328 58.2859 10.6312 57.05L15.925 41.9125C16.2148 41.9508 16.4992 42 16.8 42C17.1008 42 17.3852 41.9508 17.675 41.9125L23.0125 57.0062C20.9836 58.2367 19.6 60.468 19.6 63C19.6 66.85 22.75 70 26.6 70C30.45 70 33.6 66.85 33.6 63C33.6 59.15 30.45 56 26.6 56C26.2828 56 25.9875 56.0438 25.6812 56.0875L20.3438 40.9937C22.3945 39.7687 23.8 37.5484 23.8 35C23.8 33.0531 22.9961 31.2867 21.7 30.0125L32.4625 13.475C33.2555 13.7867 34.0977 14 35 14C35.9023 14 36.7445 13.7867 37.5375 13.475L48.3 30.0125C47.0039 31.2867 46.2 33.0531 46.2 35C46.2 37.5484 47.6055 39.7687 49.6562 40.9937L44.3187 56.0875C44.0125 56.0438 43.7172 56 43.4 56C39.55 56 36.4 59.15 36.4 63C36.4 66.85 39.55 70 43.4 70C47.25 70 50.4 66.85 50.4 63C50.4 60.468 49.0164 58.2367 46.9875 57.0062L52.325 41.9125C52.6148 41.9508 52.8992 42 53.2 42C53.5008 42 53.7852 41.9508 54.075 41.9125L59.3687 57.05C57.3672 58.2859 56 60.4898 56 63C56 66.85 59.15 70 63 70C66.85 70 70 66.85 70 63C70 59.15 66.85 56 63 56C62.6555 56 62.3273 56.0383 61.9937 56.0875L56.7437 40.9937C58.7945 39.7687 60.2 37.5484 60.2 35C60.2 31.15 57.05 28 53.2 28C52.2977 28 51.4555 28.2133 50.6625 28.525L39.9 11.9875C41.1961 10.7133 42 8.94687 42 7C42 3.15 38.85 0 35 0ZM35 2.8C37.3352 2.8 39.2 4.66484 39.2 7C39.2 9.33516 37.3352 11.2 35 11.2C32.6648 11.2 30.8 9.33516 30.8 7C30.8 4.66484 32.6648 2.8 35 2.8ZM16.8 30.8C19.1352 30.8 21 32.6648 21 35C21 37.3352 19.1352 39.2 16.8 39.2C14.4648 39.2 12.6 37.3352 12.6 35C12.6 32.6648 14.4648 30.8 16.8 30.8ZM53.2 30.8C55.5352 30.8 57.4 32.6648 57.4 35C57.4 37.3352 55.5352 39.2 53.2 39.2C50.8648 39.2 49 37.3352 49 35C49 32.6648 50.8648 30.8 53.2 30.8ZM7 58.8C9.33516 58.8 11.2 60.6648 11.2 63C11.2 65.3352 9.33516 67.2 7 67.2C4.66484 67.2 2.8 65.3352 2.8 63C2.8 60.6648 4.66484 58.8 7 58.8ZM26.6 58.8C28.9352 58.8 30.8 60.6648 30.8 63C30.8 65.3352 28.9352 67.2 26.6 67.2C24.2648 67.2 22.4 65.3352 22.4 63C22.4 60.6648 24.2648 58.8 26.6 58.8ZM43.4 58.8C45.7352 58.8 47.6 60.6648 47.6 63C47.6 65.3352 45.7352 67.2 43.4 67.2C41.0648 67.2 39.2 65.3352 39.2 63C39.2 60.6648 41.0648 58.8 43.4 58.8ZM63 58.8C65.3352 58.8 67.2 60.6648 67.2 63C67.2 65.3352 65.3352 67.2 63 67.2C60.6648 67.2 58.8 65.3352 58.8 63C58.8 60.6648 60.6648 58.8 63 58.8Z" fill="#438FEF"/>
</svg>
