<svg width="70" height="70" viewBox="0 0 70 70" fill="none" xmlns="http://www.w3.org/2000/svg">
<path d="M35.0518 2.80002C34.8293 2.79184 34.6081 2.83684 34.4064 2.93127L3.60645 17.3332C3.36568 17.4459 3.16196 17.6248 3.01912 17.849C2.87628 18.0732 2.80021 18.3334 2.7998 18.5992V21C2.79984 21.3713 2.94735 21.7274 3.2099 21.9899C3.47244 22.2525 3.82851 22.4 4.1998 22.4H6.9998C6.9998 24.2197 8.16857 25.805 9.7998 26.3676V52.0106C8.15905 52.5556 6.9998 54.1732 6.9998 56V57.4H6.78379C4.53592 57.4 2.7998 59.3561 2.7998 61.6V65.8H67.1998V61.6C67.1998 59.3561 65.4637 57.4 63.2158 57.4H62.9998V56C62.9998 54.1732 61.8406 52.5556 60.1998 52.0106V26.3676C61.831 25.805 62.9998 24.2197 62.9998 22.4H65.7998C66.1711 22.4 66.5272 22.2525 66.7897 21.9899C67.0522 21.7274 67.1998 21.3713 67.1998 21V18.5992C67.1994 18.3334 67.1233 18.0732 66.9805 17.849C66.8376 17.6248 66.6339 17.4459 66.3932 17.3332L35.5932 2.93127C35.4233 2.85169 35.2392 2.80706 35.0518 2.80002ZM34.9998 5.74494L64.3998 19.4906V19.6H5.5998V19.4906L34.9998 5.74494ZM9.7998 22.4H60.1998C60.1998 23.2236 59.6126 23.8 58.9283 23.8H30.7998H25.1998H11.0713C10.387 23.8 9.7998 23.2236 9.7998 22.4ZM12.5998 26.6H15.3998V51.8H12.5998V26.6ZM18.1998 26.6H23.7998V51.8H18.1998V26.6ZM26.5998 26.6H29.3998V51.8H26.5998V26.6ZM32.1998 26.6H37.7998V51.8H32.1998V26.6ZM40.5998 26.6H43.3998V51.8H40.5998V26.6ZM46.1998 26.6H51.7998V51.8H46.1998V26.6ZM54.5998 26.6H57.3998V51.8H54.5998V26.6ZM10.9838 54.6H25.1998H30.7998H59.0158C59.6239 54.6 60.1998 55.1527 60.1998 56V57.4H9.7998V56C9.7998 55.1527 10.3757 54.6 10.9838 54.6ZM6.78379 60.2H63.2158C63.8239 60.2 64.3998 60.7527 64.3998 61.6V63H5.5998V61.6C5.5998 60.7527 6.17566 60.2 6.78379 60.2Z" fill="#438FEF"/>
</svg>
