<svg width="70" height="70" viewBox="0 0 70 70" fill="none" xmlns="http://www.w3.org/2000/svg">
<path d="M35 0C26.1242 0 20.6937 3.28125 20.6937 3.28125C20.2289 3.56562 19.9719 4.09609 20.0375 4.6375L21.5687 16.975C21.5687 16.9914 21.5687 17.0023 21.5687 17.0187C21.2023 18.3094 21 19.6437 21 21C21 28.7492 27.2508 35 35 35C42.7492 35 49 28.7492 49 21C49 19.7312 48.7922 18.4953 48.475 17.2812C48.5133 17.1828 48.5461 17.0789 48.5625 16.975L49.9625 4.6375C50.0281 4.09609 49.7711 3.56562 49.3062 3.28125C49.3062 3.28125 43.8758 0 35 0ZM35 2.8C42.2406 2.8 46.1234 4.8125 47.075 5.3375L46.55 9.8H23.4937L22.925 5.3375C23.8766 4.8125 27.7594 2.8 35 2.8ZM23.8438 12.6H46.2437L45.9375 15.4H24.1938L23.8438 12.6ZM24.1062 18.2H45.8937C46.1016 19.0969 46.2 20.0594 46.2 21C46.2 27.2508 41.2508 32.2 35 32.2C28.7492 32.2 23.8 27.2508 23.8 21C23.8 20.0594 23.8984 19.0969 24.1062 18.2ZM24.15 36.6625C24.0898 36.6734 24.0297 36.6898 23.975 36.7062C19.075 38.0242 14.8531 40.4195 11.8125 43.9688C8.77188 47.518 7 52.2266 7 57.9688V68.6C7 69.3711 7.62891 70 8.4 70H61.6C62.3711 70 63 69.3711 63 68.6V57.9688C63 52.2266 61.2281 47.518 58.1875 43.9688C55.1469 40.4195 50.925 38.0242 46.025 36.7062C45.3523 36.5148 44.6414 36.8539 44.3625 37.4937L39.4625 47.8625L37.8875 44.3187L39.1562 39.4188C39.2656 38.9977 39.1727 38.5547 38.9047 38.2102C38.6422 37.8711 38.232 37.6688 37.8 37.6688H32.2C32.1125 37.6578 32.025 37.6578 31.9375 37.6688C31.5492 37.7398 31.2156 37.9695 31.0078 38.3031C30.8 38.6367 30.7398 39.0414 30.8438 39.4188L32.1125 44.3187L30.5375 47.8625L25.6375 37.4937C25.4023 36.9633 24.8609 36.6297 24.2812 36.6625C24.2375 36.6625 24.1938 36.6625 24.15 36.6625ZM23.6687 39.8563L33.7312 61.2062C33.9609 61.6984 34.4586 62.0156 35 62.0156C35.5414 62.0156 36.0391 61.6984 36.2687 61.2062L46.3312 39.8563C50.3016 41.0977 53.7141 42.9898 56.0875 45.7625C58.6852 48.7977 60.2 52.7898 60.2 57.9688V67.2H9.8V57.9688C9.8 52.7898 11.3148 48.7977 13.9125 45.7625C16.2859 42.9898 19.6984 41.0977 23.6687 39.8563ZM34.0375 40.4688H35.9625L35.0437 44.0125C35.0273 44.0562 35.0109 44.1 35 44.1437C34.9891 44.1 34.9727 44.0562 34.9562 44.0125L34.0375 40.4688ZM35 44.5812C35.0273 44.7016 35.0711 44.8219 35.1313 44.9312L37.8875 51.2313L35 57.3563L32.1125 51.2313L34.8687 44.9312C34.9289 44.8219 34.9727 44.7016 35 44.5812ZM44.5375 56C43.8703 56.1258 43.3891 56.7164 43.4 57.4V63C43.4 63.7711 44.0289 64.4 44.8 64.4H56C56.7711 64.4 57.4 63.7711 57.4 63V57.4C57.4 56.6289 56.7711 56 56 56H44.8C44.7562 56 44.7125 56 44.6688 56C44.625 56 44.5812 56 44.5375 56ZM46.2 58.8H54.6V61.6H46.2V58.8Z" fill="#438FEF"/>
</svg>
