<svg width="70" height="70" viewBox="0 0 70 70" fill="none" xmlns="http://www.w3.org/2000/svg">
<path d="M66.3744 14.35L65.6324 12.166L64.0504 13.776L54.2504 23.534L48.6924 21.308L46.4664 15.75L56.2244 5.95005L57.8344 4.36805L55.6504 3.62605C53.9984 3.09405 52.2484 2.80005 50.4004 2.80005C41.1324 2.80005 33.6004 10.332 33.6004 19.6C33.6004 21.728 34.0624 23.73 34.7764 25.592L16.6884 43.68C15.8204 43.498 14.9244 43.4 14.0004 43.4C7.05639 43.4 1.40039 49.056 1.40039 56C1.40039 57.106 1.54039 58.184 1.80639 59.206C2.07239 60.2 2.46439 61.152 2.94039 62.048L5.04039 59.948L10.2344 54.754L14.2524 55.748L15.2464 59.766L10.0524 64.96L7.95239 67.06C8.84839 67.536 9.80039 67.928 10.7944 68.194C11.8164 68.46 12.8944 68.6 14.0004 68.6C20.9444 68.6 26.6004 62.944 26.6004 56C26.6004 55.076 26.5024 54.18 26.3204 53.312L44.4084 35.224C46.2704 35.938 48.2724 36.4 50.4004 36.4C59.6684 36.4 67.2004 28.868 67.2004 19.6C67.2004 17.752 66.9064 16.002 66.3744 14.35ZM50.4004 33.6C48.3424 33.6 46.3964 33.138 44.6324 32.326L43.7504 31.934L25.2844 50.4L23.1564 52.528C23.5624 53.55 23.7864 54.67 23.7864 55.846C23.8004 55.902 23.8004 55.944 23.8004 56C23.8004 61.404 19.4044 65.8 14.0004 65.8C13.7344 65.8 13.4824 65.786 13.2304 65.758L18.3544 60.634L16.5484 53.452L9.36639 51.646L4.24239 56.77C4.21439 56.518 4.20039 56.266 4.20039 56C4.20039 50.596 8.59639 46.2 14.0004 46.2C14.0564 46.2 14.0984 46.2 14.1544 46.214C15.3304 46.214 16.4504 46.438 17.4724 46.844L19.6004 44.716L38.0664 26.25L37.6744 25.368C36.8624 23.604 36.4004 21.658 36.4004 19.6C36.4004 11.844 42.6444 5.60005 50.4004 5.60005C51.0724 5.60005 51.6744 5.81005 52.3324 5.90805L43.7924 14.392L43.1344 15.05L46.2844 22.932L46.5084 23.492L47.0684 23.716L54.9504 26.866L55.6084 26.208L64.0924 17.668C64.1904 18.326 64.4004 18.928 64.4004 19.6C64.4004 27.356 58.1564 33.6 50.4004 33.6Z" fill="#438FEF"/>
</svg>
