<svg width="80" height="32" viewBox="0 0 80 32" fill="none" xmlns="http://www.w3.org/2000/svg">
<g clip-path="url(#clip0)">
<path d="M49.6445 6.28101L45.3853 15.8404H47.0519L48.1482 13.3381H52.5186L53.6297 15.8404H55.3038L51.0445 6.28101H49.6445ZM48.763 11.931L50.3334 8.39161L51.9038 11.931H48.763Z" fill="#0C2331"/>
<path d="M60.8223 15.8405H62.3334V11.8151C62.3334 10.0816 61.2889 8.97192 59.6371 8.97192C58.8297 8.97192 58.0815 9.25479 57.6149 9.82052V9.10973H56.1038V15.8405H57.6149V11.3872C57.9038 10.7707 58.4963 10.321 59.3038 10.321C60.2667 10.321 60.8149 10.9955 60.8149 12.0544V15.8405H60.8223Z" fill="#0C2331"/>
<path d="M65.2369 9.10974H63.7258V15.8405H65.2369V9.10974Z" fill="#0C2331"/>
<path d="M64.4816 5.93286C63.9334 5.93286 63.4816 6.37529 63.4816 6.91201C63.4816 7.46323 63.9334 7.90566 64.4816 7.90566C65.0445 7.90566 65.4964 7.46323 65.4964 6.91201C65.4964 6.37529 65.0445 5.93286 64.4816 5.93286Z" fill="#0C2331"/>
<path d="M72.7704 9.1097H70.8592L68.2296 11.6627V6.0127H66.7185V15.8404H68.2296V12.5766L71.5185 15.8404H73.4518L69.7037 12.1052L72.7704 9.1097Z" fill="#0C2331"/>
<path d="M78.4888 9.10973V9.72623C78.0074 9.24028 77.2962 8.97192 76.4814 8.97192C74.4444 8.97192 73.0592 10.5748 73.0592 12.4751C73.0592 14.3754 74.4444 15.9783 76.4814 15.9783C77.2962 15.9783 78.0074 15.7099 78.4888 15.2095V15.8405H79.9999V9.10973H78.4888ZM78.4888 13.6863C78.1333 14.2231 77.5407 14.6292 76.6592 14.6292C75.4518 14.6292 74.6074 13.6573 74.6074 12.4751C74.6074 11.2929 75.4444 10.321 76.6592 10.321C77.5407 10.321 78.1333 10.7271 78.4888 11.2493V13.6863Z" fill="#0C2331"/>
<path d="M46.3408 19.3363H45.6445V25.7116H49.5927V25.0661H46.3408V19.3363Z" fill="#0C2331"/>
<path d="M52.1261 21.1351C50.6891 21.1351 49.8224 22.1651 49.8224 23.4706C49.8224 24.8051 50.7779 25.806 52.0965 25.806C53.2668 25.806 53.9631 25.1388 54.1853 24.3772H53.5261C53.215 24.9937 52.7039 25.2185 52.0965 25.2185C51.2594 25.2185 50.5039 24.573 50.4816 23.6447H54.2594C54.3779 22.3536 53.5853 21.1351 52.1261 21.1351ZM50.5187 23.1007C50.6816 22.0853 51.415 21.7154 52.0965 21.7154C52.8594 21.7154 53.452 22.1941 53.6002 23.1007H50.5187Z" fill="#0C2331"/>
<path d="M58.6668 21.9765C58.3335 21.4905 57.6964 21.1351 56.9927 21.1351C55.689 21.1351 54.7261 22.1433 54.7261 23.4198C54.7261 24.7036 55.689 25.7117 56.9927 25.7117C57.6964 25.7117 58.3409 25.3563 58.6668 24.8704V25.3999C58.6668 26.5023 58.0002 27.1043 57.089 27.1043C56.2816 27.1043 55.7113 26.7997 55.4964 26.1687H54.8668C55.0224 27.0535 55.8742 27.6773 57.0816 27.6773C58.3483 27.6773 59.3113 26.894 59.3113 25.4361V21.2294H58.6668V21.9765ZM57.052 25.1243C56.052 25.1243 55.3853 24.3917 55.3853 23.4198C55.3853 22.4479 56.052 21.7154 57.052 21.7154C58.052 21.7154 58.7187 22.4479 58.7187 23.4198C58.7187 24.3917 58.052 25.1243 57.052 25.1243Z" fill="#0C2331"/>
<path d="M64.1112 21.9765C63.7779 21.4905 63.1186 21.1351 62.4149 21.1351C61.1112 21.1351 60.1334 22.1868 60.1334 23.4706C60.1334 24.7544 61.1112 25.806 62.4149 25.806C63.1186 25.806 63.7779 25.4506 64.1112 24.9647V25.719H64.7557V21.2294H64.1112V21.9765ZM62.4816 25.2185C61.4816 25.2185 60.7927 24.4352 60.7927 23.4706C60.7927 22.4987 61.4816 21.7226 62.4816 21.7226C63.4816 21.7226 64.1705 22.5059 64.1705 23.4706C64.1631 24.4352 63.4816 25.2185 62.4816 25.2185Z" fill="#0C2331"/>
<path d="M66.4223 18.981H65.7778V25.7117H66.4223V18.981Z" fill="#0C2331"/>
<path d="M37.3851 32H27.274C26.5481 32 25.874 31.5141 25.5481 30.7452L21.1481 20.417L26.874 0L39.111 28.7144C39.7555 30.223 38.8222 32 37.3851 32Z" fill="#BADCE1"/>
<path d="M26.8744 0L19.6596 16.9284L18.8078 18.9302L13.7707 30.7452C13.4448 31.5141 12.7707 32 12.0448 32H1.93368C0.496643 32 -0.429283 30.223 0.207754 28.7144L10.7781 3.90934C11.2522 2.79964 12.0152 1.87851 12.9633 1.21124C14.0522 0.44243 15.3781 0 16.7781 0H26.8744Z" fill="#06879A"/>
<path d="M26.874 0L21.1481 20.4243L19.6592 16.9284L26.874 0Z" fill="#98CAD3"/>
</g>
<defs>
<clipPath id="clip0">
<rect width="80" height="32" fill="white"/>
</clipPath>
</defs>
</svg>
