<?xml version="1.0" encoding="utf-8"?>
<!-- Generator: Adobe Illustrator 23.0.6, SVG Export Plug-In . SVG Version: 6.00 Build 0)  -->
<svg version="1.1" id="Layer_1" xmlns="http://www.w3.org/2000/svg" xmlns:xlink="http://www.w3.org/1999/xlink" x="0px" y="0px"
	 viewBox="0 0 530.8 441.2" style="enable-background:new 0 0 530.8 441.2;" xml:space="preserve">
<style type="text/css">
	.st0{opacity:0.5;fill:#FFFFFF;}
	.st1{fill:#FFFFFF;}
	.st2{opacity:0.4;fill:#2A7586;}
</style>
<g>
	<g>
		<path class="st0" d="M504.7,441.2H368.2c-9.8,0-18.9-6.7-23.3-17.3l-59.4-142.4l-20.1-48.1L175,16.7C189.7,6.1,207.6,0,226.5,0
			h136.4L528,395.9C536.7,416.7,524.1,441.2,504.7,441.2z"/>
		<path class="st1" d="M362.8,0l-97.4,233.4L253.9,261l-68,162.9c-4.4,10.6-13.5,17.3-23.3,17.3H26.1c-19.4,0-31.9-24.5-23.3-45.3
			l142.7-342c6.4-15.3,16.7-28,29.5-37.2C189.7,6.1,207.6,0,226.5,0H362.8z"/>
		<polygon class="st2" points="265.4,233.4 285.5,281.6 362.8,0 		"/>
	</g>
</g>
</svg>
