<svg width="70" height="70" viewBox="0 0 70 70" fill="none" xmlns="http://www.w3.org/2000/svg">
<path d="M7.0001 5.6001C6.62881 5.60013 6.27273 5.74765 6.01019 6.01019C5.74765 6.27273 5.60013 6.62881 5.6001 7.0001V23.8001H8.4001V8.4001H22.4001V5.6001H7.0001ZM47.6001 5.6001V8.4001H61.6001V23.8001H64.4001V7.0001C64.4001 6.62881 64.2526 6.27273 63.99 6.01019C63.7275 5.74765 63.3714 5.60013 63.0001 5.6001H47.6001ZM36.329 16.8001C32.0594 16.8001 28.8608 18.5158 27.1743 21.0931C25.6593 23.4082 25.5645 26.2981 26.4688 29.0036C26.0652 29.5874 25.7768 30.3077 25.8919 31.2813C26.0226 32.3896 26.3201 33.2255 26.8052 33.8544C27 34.107 27.2899 34.1111 27.5353 34.2755C27.707 35.1448 27.9312 36.0135 28.2845 36.731C28.5059 37.1807 28.7436 37.5842 29.0009 37.9368C29.0659 38.026 29.1901 38.0934 29.2552 38.1774C29.2618 39.0795 29.2685 39.8799 29.2005 40.8106C28.9861 41.3194 28.5411 41.7641 27.6528 42.2462C26.7223 42.7513 25.4461 43.229 24.12 43.854C22.794 44.479 21.3962 45.2666 20.2646 46.5228C19.1329 47.7789 18.3328 49.5166 18.2028 51.7181C18.1917 51.9085 18.2195 52.0991 18.2847 52.2784C18.3499 52.4576 18.451 52.6217 18.5818 52.7604C18.7127 52.8992 18.8705 53.0098 19.0456 53.0854C19.2207 53.161 19.4094 53.2 19.6001 53.2001H50.4001C50.5908 53.2 50.7795 53.161 50.9546 53.0854C51.1297 53.0098 51.2875 52.8992 51.4184 52.7604C51.5492 52.6217 51.6503 52.4576 51.7155 52.2784C51.7807 52.0991 51.8085 51.9085 51.7974 51.7181C51.6662 49.4976 50.8087 47.7416 49.6099 46.4899C48.411 45.2383 46.9355 44.4621 45.5329 43.8403C44.1304 43.2186 42.7771 42.7414 41.7868 42.2325C40.8399 41.7459 40.3714 41.2918 40.1653 40.8079C40.0974 39.8766 40.1068 39.0756 40.1134 38.172C40.1779 38.087 40.3036 38.0184 40.3677 37.9286C40.6209 37.5739 40.8499 37.1668 41.0649 36.7173C41.4079 36.0006 41.6248 35.1376 41.7923 34.2755C42.0363 34.1113 42.3258 34.1086 42.5196 33.8571C43.0044 33.2283 43.2995 32.389 43.4302 31.2813C43.5138 30.5743 43.4401 29.9252 43.1978 29.3563C43.1453 29.2332 42.9618 29.1848 42.8915 29.0665C43.1203 28.4747 43.4353 27.9325 43.504 27.2317C43.6159 26.0902 43.5438 24.8187 43.2169 23.5677C42.89 22.3166 42.3031 21.0701 41.3001 20.095C40.5038 19.321 39.376 18.8615 38.1228 18.6622L37.5841 17.5767C37.4679 17.3432 37.2889 17.1468 37.0672 17.0096C36.8454 16.8724 36.5898 16.7998 36.329 16.8001ZM35.5415 19.7587L35.9106 20.5024C36.0268 20.7359 36.2058 20.9323 36.4276 21.0695C36.6493 21.2067 36.905 21.2793 37.1657 21.279C38.1992 21.279 38.8217 21.5906 39.3478 22.1021C39.8739 22.6135 40.2754 23.3891 40.5071 24.2759C40.7388 25.1626 40.7973 26.1458 40.7177 26.9583C40.6381 27.7708 40.3571 28.4222 40.2884 28.5114C40.1714 28.6639 40.087 28.8389 40.0405 29.0254C39.9941 29.2119 39.9865 29.406 40.0183 29.5955C40.0501 29.7851 40.1206 29.9661 40.2254 30.1272C40.3302 30.2884 40.4671 30.4262 40.6274 30.5321C40.6454 30.5926 40.6793 30.6998 40.6493 30.9532C40.5594 31.7149 40.3736 32.0467 40.3048 32.1372C40.0141 32.197 39.7499 32.3476 39.5504 32.5673C39.3508 32.787 39.2263 33.0644 39.1946 33.3595C39.1264 34.005 38.8547 34.8533 38.5411 35.5087C38.3843 35.8364 38.2156 36.1218 38.0872 36.3017C37.9589 36.4815 37.8035 36.5445 38.0435 36.4165C37.8195 36.536 37.6323 36.7141 37.5017 36.9318C37.3712 37.1495 37.3023 37.3986 37.3024 37.6524C37.3024 38.8667 37.252 39.8916 37.3817 41.3466C37.3932 41.4691 37.4208 41.5895 37.4638 41.7048C38.0083 43.1928 39.2522 44.0786 40.5071 44.7235C41.7621 45.3685 43.1346 45.8395 44.3981 46.3997C45.6617 46.9599 46.7917 47.5989 47.5864 48.4286C48.0909 48.9553 48.431 49.62 48.6774 50.4001H21.3091C21.5454 49.6024 21.8702 48.9233 22.3454 48.3958C23.0889 47.5705 24.1329 46.9432 25.3149 46.386C26.497 45.8289 27.7941 45.3563 28.9899 44.7071C30.1858 44.058 31.372 43.1599 31.9048 41.7021C31.9466 41.5875 31.9732 41.468 31.9841 41.3466C32.1138 39.8916 32.0661 38.8667 32.0661 37.6524C32.066 37.3983 31.9967 37.1491 31.8656 36.9313C31.7346 36.7136 31.5468 36.5356 31.3224 36.4165C31.556 36.5408 31.3976 36.4699 31.2649 36.288C31.1322 36.1061 30.9586 35.8225 30.7974 35.495C30.4749 34.8401 30.1966 33.9931 30.1302 33.3595C30.0986 33.0644 29.974 32.787 29.7744 32.5673C29.5749 32.3476 29.3107 32.197 29.02 32.1372C28.9515 32.0472 28.7627 31.7157 28.6728 30.9532C28.6423 30.6959 28.706 30.5548 28.7438 30.4993C29.0041 30.3117 29.192 30.0404 29.2761 29.7308C29.3602 29.4212 29.3354 29.0921 29.206 28.7985C28.2429 26.617 28.3905 24.3468 29.5177 22.6243C30.5419 21.0591 32.5478 19.9682 35.5415 19.7587ZM5.6001 49.0001V63.0001C5.60013 63.3714 5.74765 63.7275 6.01019 63.99C6.27273 64.2526 6.62881 64.4001 7.0001 64.4001H22.4001V61.6001H8.4001V49.0001H5.6001ZM61.6001 49.0001V61.6001H47.6001V64.4001H63.0001C63.3714 64.4001 63.7275 64.2526 63.99 63.99C64.2526 63.7275 64.4001 63.3714 64.4001 63.0001V49.0001H61.6001Z" fill="#438FEF"/>
</svg>
