<svg width="70" height="70" viewBox="0 0 70 70" fill="none" xmlns="http://www.w3.org/2000/svg">
<g clip-path="url(#clip0)">
<path d="M47.9066 5.77492C46.4792 5.85696 45.0738 6.20696 43.7503 6.86867L36.0503 10.6312H14.1753L1.75033 7.61242C1.56439 7.55774 1.37298 7.5468 1.18158 7.56867C0.503452 7.65071 -0.0106104 8.20852 -0.0434229 8.89211C-0.0762354 9.57024 0.38314 10.1773 1.05033 10.3249L13.6503 13.3874L13.8253 13.4312H30.3191L18.4191 19.2499C18.3699 19.2718 18.337 19.3155 18.2878 19.3374C16.4394 20.1523 15.9527 22.6788 17.3253 24.1499L17.2816 24.1937C17.3035 24.2155 17.3472 24.2155 17.3691 24.2374C21.5363 28.8038 28.137 30.3187 33.9503 28.0437H33.9941L42.2191 24.8499L59.1941 41.8687C60.4792 43.1538 60.4792 45.1773 59.1941 46.4624C57.9089 47.7476 55.8855 47.7476 54.6003 46.4624C54.0425 46.014 53.2386 46.0577 52.73 46.5609C52.2269 47.0695 52.1831 47.8734 52.6316 48.4312C53.9167 49.7163 53.9167 51.7835 52.6316 53.0687C51.3464 54.3538 49.323 54.3538 48.0378 53.0687L47.0316 52.0624C46.4738 51.614 45.6699 51.6577 45.1613 52.1609C44.6581 52.6695 44.6144 53.4734 45.0628 54.0312C46.348 55.3163 46.348 57.3835 45.0628 58.6687C43.7777 59.9538 41.7542 59.9538 40.4691 58.6687L39.5066 57.6624C38.9652 57.1046 38.0738 57.0991 37.5159 57.6405C36.9581 58.182 36.9527 59.0734 37.4941 59.6312C38.7792 60.9163 38.7792 62.9835 37.4941 64.2687C36.2089 65.5538 34.1855 65.5538 32.9003 64.2687L31.1503 62.5187L32.2003 61.4687C34.2511 59.4179 34.2511 56.082 32.2003 54.0312C31.1777 53.0085 29.8269 52.4999 28.4816 52.4999C28.4652 52.4999 28.4542 52.4999 28.4378 52.4999C28.4597 51.1218 27.9511 49.7382 26.9066 48.6937C25.8839 47.671 24.5331 47.1624 23.1878 47.1624C23.1167 47.1624 23.0402 47.157 22.9691 47.1624C23.0128 45.757 22.5097 44.3405 21.4378 43.2687C20.4152 42.246 19.0644 41.6937 17.7191 41.6937C17.648 41.6937 17.5714 41.6882 17.5003 41.6937C17.5441 40.2882 17.041 38.8718 15.9691 37.7999C14.9464 36.7773 13.5956 36.2687 12.2503 36.2687C10.905 36.2687 9.55423 36.7773 8.53158 37.7999L7.26283 39.0687L1.61908 38.1062C1.53158 38.0843 1.44408 38.0679 1.35658 38.0624C0.585484 38.0132 -0.0817042 38.6038 -0.130923 39.3749C-0.180141 40.146 0.410484 40.8132 1.18158 40.8624L5.77533 41.6937C5.3597 43.4163 5.79173 45.2976 7.13158 46.6374C8.21439 47.7202 9.65267 48.2288 11.0691 48.1687C11.0089 49.5851 11.5175 51.0234 12.6003 52.1062C13.6831 53.189 15.1214 53.6976 16.5378 53.6374C16.4941 55.0429 16.9972 56.4593 18.0691 57.5312C19.1136 58.5757 20.4972 59.0843 21.8753 59.0624C21.8425 60.446 22.3347 61.8405 23.3628 62.8687L23.4066 62.9124C24.8667 64.3398 26.9667 64.7171 28.7878 64.0937L30.9316 66.2374C33.2831 68.589 37.155 68.589 39.5066 66.2374C40.6495 65.0945 41.18 63.5851 41.2128 62.0812C43.2363 62.6171 45.4566 62.2124 47.0316 60.6374C48.1745 59.4945 48.7488 57.9851 48.7816 56.4812C50.7995 57.0116 53.0253 56.6124 54.6003 55.0374C55.9456 53.6921 56.4542 51.8601 56.2628 50.0937C58.0292 50.2905 59.8613 49.7765 61.2066 48.4312C62.7105 46.9273 63.2464 44.8163 62.8253 42.8749L63.6566 42.0437L68.8191 41.2999C69.5902 41.1796 70.1206 40.4523 70.0003 39.6812C69.88 38.9101 69.1527 38.3796 68.3816 38.4999L62.7816 39.3749L62.3441 39.4187L61.5128 40.2499C61.4144 40.1351 61.3159 40.0093 61.2066 39.8999L43.9691 22.6624C43.9034 22.5968 43.8269 22.5366 43.7503 22.4874C43.7339 22.471 43.723 22.4601 43.7066 22.4437C43.3402 21.9023 42.6511 21.689 42.0441 21.9187L32.9441 25.4187C28.1589 27.3109 22.7722 26.0804 19.3816 22.3124L19.3378 22.2687C19.1574 22.0882 19.1464 21.9624 19.3816 21.8749H19.4691L19.5128 21.8312L36.7941 13.3874C37.0894 13.3437 37.3683 13.207 37.5816 12.9937L44.9753 9.36242H45.0191C47.6003 8.0718 50.6136 8.3343 52.9816 9.93117L53.5066 10.5437L53.6378 10.7187L53.8128 10.8062C56.3558 12.5562 59.4183 13.021 62.3003 12.2499V12.2937L62.3878 12.2499L68.9066 10.8937C69.6667 10.7241 70.148 9.96946 69.9784 9.2093C69.8089 8.44914 69.0542 7.96789 68.2941 8.13742L61.7316 9.53742L61.6878 9.58117H61.6441C59.555 10.1609 57.4003 9.77805 55.5191 8.53117L54.9941 7.91867L54.8628 7.78742L54.6878 7.65617C53.08 6.52961 51.2425 5.91711 49.3503 5.77492C48.8745 5.74211 48.3824 5.74758 47.9066 5.77492ZM12.2503 38.9812C12.8628 38.9812 13.4863 39.2546 14.0003 39.7687C15.0285 40.7968 15.0285 42.2405 14.0003 43.2687L12.9066 44.3187L12.7753 44.4499L12.6003 44.6687C11.5722 45.6968 10.1285 45.6968 9.10033 44.6687C8.25814 43.8265 8.13236 42.7218 8.66283 41.7812C8.90892 41.6062 9.08939 41.3655 9.18783 41.0812L10.3253 39.9874L10.5003 39.7687C11.0144 39.2546 11.6378 38.9812 12.2503 38.9812ZM17.7191 44.4499C18.3316 44.4499 18.955 44.7234 19.4691 45.2374C20.4972 46.2655 20.4972 47.6655 19.4691 48.6937L18.0691 50.0937C17.041 51.1218 15.5972 51.1218 14.5691 50.0937C13.541 49.0655 13.541 47.6655 14.5691 46.6374L15.9691 45.2374C16.4831 44.7234 17.1066 44.4499 17.7191 44.4499ZM23.1878 49.9187C23.8003 49.9187 24.38 50.1921 24.8941 50.7062C25.7417 51.5538 25.8839 52.6585 25.3316 53.5937C25.1402 53.7359 24.9378 53.8562 24.7628 54.0312L23.3628 55.4312V55.4749H23.3191C23.1659 55.6445 23.0511 55.8195 22.9253 55.9999C21.9902 56.5523 20.8855 56.4101 20.0378 55.5624C19.0097 54.5343 19.0097 53.1343 20.0378 52.1062L21.0878 51.0124L21.3503 50.7937L21.4378 50.7062C21.9519 50.1921 22.5753 49.9187 23.1878 49.9187ZM28.4816 55.2562C29.0941 55.2562 29.7175 55.4859 30.2316 55.9999C31.2597 57.028 31.2597 58.4718 30.2316 59.4999L28.8316 60.8999C28.7113 61.0202 28.6128 61.157 28.4816 61.2499C28.4706 61.2554 28.4488 61.2445 28.4378 61.2499C27.4589 61.9281 26.2339 61.8023 25.3316 60.8999C24.6699 60.2382 24.5167 58.9148 24.9816 57.9249C25.1566 57.7882 25.348 57.6898 25.5066 57.5312L26.9066 56.1312C27.0925 55.9452 27.2347 55.7265 27.3878 55.5187C27.7378 55.3437 28.1152 55.2562 28.4816 55.2562Z" fill="#438FEF"/>
</g>
<defs>
<clipPath id="clip0">
<rect width="70" height="70" fill="white"/>
</clipPath>
</defs>
</svg>
