<svg width="70" height="70" viewBox="0 0 70 70" fill="none" xmlns="http://www.w3.org/2000/svg">
<path d="M34.9508 1.40001C34.6545 1.41058 34.3692 1.51494 34.136 1.69806L6.19064 23.5703L1.93596 26.8981C1.79119 27.0115 1.6702 27.1524 1.57988 27.3126C1.48956 27.4728 1.43169 27.6493 1.40958 27.8318C1.38746 28.0144 1.40153 28.1996 1.45098 28.3767C1.50043 28.5539 1.5843 28.7196 1.69778 28.8643C1.81127 29.009 1.95216 29.13 2.11241 29.2203C2.27265 29.3105 2.44911 29.3684 2.6317 29.3904C2.81429 29.4125 2.99945 29.3984 3.17659 29.3489C3.35372 29.2994 3.51938 29.2155 3.66408 29.102L5.60002 27.5871V64.4C5.60005 64.7713 5.74757 65.1274 6.01011 65.3899C6.27265 65.6525 6.62873 65.8 7.00002 65.8H63C63.3713 65.8 63.7274 65.6525 63.9899 65.3899C64.2525 65.1274 64.4 64.7713 64.4 64.4V27.5871L66.3359 29.102C66.4807 29.2155 66.6463 29.2994 66.8234 29.3489C67.0006 29.3984 67.1857 29.4125 67.3683 29.3904C67.5509 29.3683 67.7274 29.3105 67.8876 29.2202C68.0478 29.13 68.1887 29.009 68.3022 28.8643C68.4157 28.7195 68.4996 28.5539 68.549 28.3767C68.5985 28.1996 68.6125 28.0144 68.5904 27.8318C68.5683 27.6493 68.5104 27.4728 68.4201 27.3126C68.3298 27.1524 68.2088 27.0115 68.0641 26.8981L63.8859 23.6305L35.8641 1.69806C35.6043 1.49411 35.2808 1.38855 34.9508 1.40001ZM35 4.57736L61.6 25.3942V63H8.40002V25.3942L35 4.57736ZM34.9973 22.4C34.4624 22.4 33.9285 22.5373 33.4496 22.8102L33.436 22.8184L33.4195 22.8266C33.4195 22.8266 28.3885 25.8644 23.3488 28.9735C20.829 30.528 18.3084 32.1006 16.4035 33.3266C15.4511 33.9396 14.6543 34.4617 14.0738 34.866C13.7836 35.0682 13.5501 35.2371 13.3547 35.3938C13.257 35.4721 13.1702 35.5446 13.0649 35.6508C13.0122 35.7038 12.954 35.7619 12.8735 35.875C12.7929 35.9882 12.6308 36.1259 12.6 36.6379V36.6406C12.5489 37.5304 12.8455 37.575 12.9664 37.7344C13.0874 37.8938 13.2015 38.0148 13.3328 38.1473C13.5955 38.4122 13.9199 38.7013 14.3035 39.0305C14.6386 39.3179 15.1039 39.6795 15.5067 40.0067V46.5172C15.0525 46.7537 14.6719 47.1102 14.4063 47.548C14.1406 47.9858 14.0001 48.488 14 49C14.0005 49.3975 14.0856 49.7904 14.2496 50.1525C14.4137 50.5146 14.653 50.8376 14.9516 51.1C14.3724 51.605 14 52.3357 14 53.1563C14 55.1569 16.8 58.8 16.8 58.8C16.8 58.8 19.6 55.2227 19.6 53.1563C19.6 52.3357 19.2276 51.605 18.6485 51.1C18.947 50.8376 19.1863 50.5146 19.3504 50.1525C19.5145 49.7904 19.5996 49.3975 19.6 49C19.5995 48.5302 19.4808 48.068 19.2547 47.6561C19.0287 47.2442 18.7027 46.8958 18.3067 46.643V42.2188C19.5207 43.1482 20.976 44.2598 21 44.2777V45.768H21.0492C21.0184 45.9061 21 46.051 21 46.2C21 46.8189 21.2976 47.3553 21.6262 47.7121C21.9548 48.069 22.3273 48.3134 22.7391 48.5297C23.5626 48.9624 24.5742 49.2772 25.7879 49.5469C28.2153 50.0863 31.4366 50.4 35 50.4C38.5635 50.4 41.7848 50.0863 44.2121 49.5469C45.4258 49.2772 46.4375 48.9624 47.261 48.5297C47.6727 48.3134 48.0452 48.069 48.3738 47.7121C48.7024 47.3553 49 46.8189 49 46.2C49 46.051 48.9816 45.9061 48.9508 45.768H49V44.275C49.0381 44.2466 50.9672 42.8081 52.9375 41.2645C53.9323 40.4851 54.9265 39.6888 55.6938 39.0305C56.0774 38.7013 56.4018 38.4122 56.6645 38.1473C56.7958 38.0148 56.9099 37.8938 57.0309 37.7344C57.1518 37.575 57.4484 37.5304 57.3973 36.6406C57.3677 36.1276 57.2045 35.9913 57.1238 35.8777C57.0432 35.7642 56.9852 35.704 56.9324 35.6508C56.8269 35.5444 56.7431 35.4749 56.6453 35.3965C56.4498 35.2396 56.2164 35.071 55.9262 34.8688C55.3458 34.4644 54.549 33.9396 53.5965 33.3266C51.6915 32.1006 49.1713 30.528 46.6512 28.9735C41.611 25.8644 36.5777 22.8266 36.5777 22.8266L36.5613 22.8184L36.5477 22.8102C36.0689 22.5374 35.5322 22.4 34.9973 22.4ZM35 25.1973C35.0545 25.1973 35.1076 25.2125 35.1586 25.241C35.1857 25.2574 40.1689 28.2639 45.1801 31.3551C47.6925 32.9049 50.2063 34.4739 52.0817 35.6809C52.8411 36.1696 53.3959 36.5432 53.8973 36.884C53.8866 36.8931 53.8834 36.8967 53.8727 36.9059C53.1664 37.5118 52.1901 38.2944 51.2121 39.0606C50.1095 39.9244 49.7556 40.1811 49 40.7531V39.077C49 38.447 48.6849 37.9105 48.352 37.5649C48.0191 37.2192 47.6493 36.9889 47.2391 36.7828C46.4187 36.3707 45.412 36.0721 44.2012 35.8149C41.7795 35.3004 38.5601 35 35 35C31.44 35 28.2205 35.3004 25.7988 35.8149C24.588 36.0721 23.5813 36.3707 22.761 36.7828C22.3508 36.9889 21.981 37.2192 21.6481 37.5649C21.3152 37.9105 21 38.447 21 39.077V40.7531C20.2445 40.1811 19.8906 39.9244 18.7879 39.0606C17.81 38.2944 16.8336 37.5118 16.1274 36.9059C16.116 36.8962 16.1139 36.8909 16.1028 36.8813C16.6039 36.5407 17.1601 36.1689 17.9184 35.6809C19.7937 34.4739 22.3078 32.9049 24.8199 31.3551C29.8296 28.2645 34.8069 25.2586 34.836 25.241H34.8387C34.8897 25.2125 34.9455 25.1973 35 25.1973ZM35 37.8C38.3994 37.8 41.4803 38.1004 43.6188 38.5547C44.688 38.7819 45.5265 39.0564 45.9813 39.2848C46.1208 39.3549 46.1425 39.3797 46.2 39.4215V43.4328C45.6031 43.2159 44.9587 43.019 44.2121 42.8531C41.7848 42.3137 38.5635 42 35 42C31.4366 42 28.2153 42.3137 25.7879 42.8531C25.0413 43.019 24.3969 43.2159 23.8 43.4328V39.4215C23.8576 39.3797 23.8792 39.3549 24.0188 39.2848C24.4735 39.0564 25.312 38.7819 26.3813 38.5547C28.5197 38.1004 31.6007 37.8 35 37.8ZM35 44.8C38.3953 44.8 41.4721 45.1135 43.6051 45.5875C44.461 45.7777 45.0154 45.9966 45.4945 46.2C45.0154 46.4035 44.461 46.6223 43.6051 46.8125C41.4721 47.2865 38.3953 47.6 35 47.6C31.6047 47.6 28.5279 47.2865 26.3949 46.8125C25.539 46.6223 24.9846 46.4035 24.5055 46.2C24.9846 45.9966 25.539 45.7777 26.3949 45.5875C28.5279 45.1135 31.6047 44.8 35 44.8Z" fill="#438FEF"/>
</svg>
