<svg width="105" height="102" viewBox="0 0 105 102" fill="none" xmlns="http://www.w3.org/2000/svg">
<g clip-path="url(#clip0)">
<path d="M52.4998 60.5209L69.8896 50.4008V70.5744L87.2133 80.6945L104.603 70.5744V10.1201L87.2133 0L52.4998 20.1736L17.7863 0L0.462646 10.1201V70.5744L17.8524 80.6945L35.1761 70.5744V50.4674L52.4998 60.5209Z" fill="url(#paint0_linear)"/>
<path d="M17.7863 0L0.462646 70.5744L52.4998 20.1736L17.7863 0Z" fill="url(#paint1_linear)"/>
<path d="M0.462646 10.1201L17.8524 80.6945L35.1761 70.5744L0.462646 10.1201Z" fill="url(#paint2_linear)"/>
<path d="M69.8896 70.5744L87.2133 80.6945L104.603 70.5744L0.462646 10.1201L35.1761 50.4674L52.4998 60.5209L69.8896 50.4008V70.5744Z" fill="url(#paint3_linear)"/>
<path d="M0.462646 70.5744L52.4998 20.1736L87.2133 0L104.603 10.1201L35.1761 50.4674L0.462646 10.1201L17.7863 0L0.462646 70.5744Z" fill="url(#paint4_linear)"/>
<path d="M52.4998 60.5209L35.1762 50.4674L17.7864 0L52.4998 60.5209Z" fill="url(#paint5_linear)"/>
<path d="M0.462646 10.1201L52.4998 20.1736L17.7863 0L0.462646 10.1201Z" fill="url(#paint6_linear)"/>
<path d="M36.8955 91.3472H31.9364C31.8703 91.3472 31.8042 91.4137 31.8042 91.4803V101.8C31.8042 101.867 31.8703 101.933 31.9364 101.933H33.3911C33.4572 101.933 33.5233 101.867 33.5233 101.8V97.1396H36.102C36.1681 97.1396 36.2343 97.073 36.2343 97.0064V95.5417C36.2343 95.4751 36.1681 95.4085 36.102 95.4085H33.5233V93.2114H36.8955C36.9616 93.2114 37.0277 93.1448 37.0277 93.0782V91.6135C37.0277 91.4803 36.9616 91.3472 36.8955 91.3472ZM48.2021 91.3472H46.2846C46.2185 91.3472 46.1524 91.4137 46.1524 91.4803L45.8879 92.9451L44.6977 96.3407L43.5076 92.9451L43.2431 91.4803C43.2431 91.4137 43.1769 91.3472 43.1108 91.3472H41.1933C41.1272 91.3472 41.0611 91.4137 41.0611 91.4803V101.867C41.0611 101.933 41.1272 102 41.1933 102H42.648C42.7141 102 42.7802 101.933 42.7802 101.867V96.1409C43.2431 97.4725 43.772 98.8707 43.8382 99.137C43.8382 99.2702 43.9704 99.2702 43.9704 99.2702H45.2928C45.3589 99.2702 45.4251 99.2036 45.4251 99.137C45.4912 98.8707 46.0202 97.5391 46.483 96.1409V101.867C46.483 101.933 46.5491 102 46.6152 102H48.0699C48.136 102 48.2021 101.933 48.2021 101.867V91.5469C48.3344 91.4803 48.2683 91.3472 48.2021 91.3472ZM28.4981 91.3472H26.7128C25.7872 91.3472 24.9276 92.1461 24.9276 93.1448V100.202C24.9276 101.201 25.721 102 26.7128 102H28.4981C29.4899 102 30.2834 101.201 30.2834 100.202V93.1448C30.2834 92.2127 29.4899 91.3472 28.4981 91.3472ZM28.4981 99.7362C28.4981 100.069 28.1675 100.202 27.903 100.202H27.3741C27.0435 100.202 26.779 100.069 26.779 99.7362V93.6775C26.779 93.278 26.9112 93.2114 27.3079 93.2114H28.0353C28.432 93.2114 28.5642 93.3446 28.5642 93.6775V99.7362H28.4981ZM20.762 91.3472H19.1751C19.1089 91.3472 19.0428 91.4137 19.0428 91.4803L18.8445 93.0117L18.051 96.4072L17.1914 93.0117L16.9931 91.4803C16.9931 91.4137 16.927 91.3472 16.8608 91.3472H15.2078C15.1417 91.3472 15.0756 91.4137 15.0756 91.5469C15.2078 92.4124 15.2739 93.0782 15.5384 94.1435C16.0013 95.7414 16.9931 98.8707 17.1253 99.2702V101.867C17.1253 101.933 17.1914 102 17.2576 102H18.7122C18.7783 102 18.8445 101.933 18.8445 101.867V99.2702C18.9767 98.8707 20.0346 95.8746 20.4314 94.2101C20.6958 93.0117 20.762 92.6788 20.8942 91.5469C20.9603 91.4137 20.8942 91.3472 20.762 91.3472ZM8.13287 91.3472H6.67821C6.61209 91.3472 6.54597 91.4137 6.54597 91.4803V100.202V101.8C6.54597 101.867 6.61209 101.933 6.67821 101.933H8.13287C8.19899 101.933 8.26511 101.867 8.26511 101.8V91.4803C8.33123 91.4137 8.19899 91.3472 8.13287 91.3472ZM5.15743 91.3472H1.78526C0.859572 91.3472 0 92.1461 0 93.1448V100.269C0 101.401 0.925693 102.067 1.78526 102.067H5.15743C5.22355 102.067 5.28967 102 5.28967 101.933V100.469C5.28967 100.402 5.22355 100.335 5.15743 100.335H2.38035C1.98363 100.335 1.78526 100.202 1.78526 99.8694V93.744C1.78526 93.4111 1.85139 93.278 2.31423 93.278H5.22355C5.28967 93.278 5.35579 93.2114 5.35579 93.1448V91.6801C5.28967 91.4137 5.22355 91.3472 5.15743 91.3472ZM14.0176 91.3472H9.45529C9.38917 91.3472 9.32305 91.4137 9.32305 91.4803V92.9451C9.32305 93.0117 9.38917 93.0782 9.45529 93.0782H10.8438V101.867C10.8438 101.933 10.9099 102 10.9761 102H12.4307C12.4969 102 12.563 101.933 12.563 101.867V93.1448H13.9515C14.0176 93.1448 14.0838 93.0782 14.0838 93.0117V91.5469C14.1499 91.4137 14.0838 91.3472 14.0176 91.3472ZM65.9887 91.3472H63.2777C63.2116 91.3472 63.1455 91.4137 63.1455 91.4803V101.867C63.1455 101.933 63.2116 102 63.2777 102H65.9887C67.4433 102 68.6335 100.801 68.6335 99.3367V98.0717C68.6335 97.4725 68.369 96.8067 67.7739 96.2741C68.4351 95.808 68.6335 95.0756 68.6335 94.4098V93.8772C68.6996 92.4124 67.5094 91.3472 65.9887 91.3472ZM66.8482 99.3367C66.8482 99.8028 66.4515 100.202 65.9887 100.202H64.9307V97.1396H65.9887C66.4515 97.1396 66.8482 97.5391 66.8482 98.0717V99.3367ZM66.8482 94.543C66.8482 95.0091 66.4515 95.342 65.9887 95.342H64.9307V93.0782H65.9887C66.4515 93.0782 66.8482 93.4777 66.8482 94.0104V94.543ZM55.4093 91.3472H50.3841C50.318 91.3472 50.2519 91.4137 50.2519 91.4803V101.867C50.2519 101.933 50.318 102 50.3841 102H55.4093C55.4754 102 55.5416 101.933 55.5416 101.867V100.402C55.5416 100.335 55.4754 100.269 55.4093 100.269H52.0372V97.2062H54.6159C54.682 97.2062 54.7481 97.1396 54.7481 97.073V95.6083C54.7481 95.5417 54.682 95.4751 54.6159 95.4751H52.0372V93.2114H55.4093C55.4754 93.2114 55.5416 93.1448 55.5416 93.0782V91.6135C55.5416 91.4138 55.4754 91.3472 55.4093 91.3472ZM97.6606 91.3472H96.2059C96.1398 91.3472 96.1398 91.3472 96.0737 91.4138C96.0737 91.4138 96.0737 91.4137 96.0737 91.4803V95.6083L94.6851 93.0117L94.4207 91.5469C94.4207 91.4803 94.3545 91.4138 94.2884 91.4138H92.3709C92.3048 91.4138 92.2387 91.4803 92.2387 91.5469V101.867C92.2387 101.933 92.3048 102 92.3709 102H93.8256C93.8917 102 93.9578 101.933 93.9578 101.867V95.2088C94.6851 96.8067 95.8753 98.6709 96.0076 99.0704V101.8C96.0076 101.867 96.0737 101.933 96.1398 101.933H97.5945C97.6606 101.933 97.7267 101.867 97.7267 101.8V91.4803C97.8589 91.4803 97.7928 91.3472 97.6606 91.3472ZM104.868 93.1448C104.934 93.1448 105 93.0782 105 93.0117V91.5469C105 91.4803 104.934 91.4138 104.868 91.4138H99.8426C99.7764 91.4138 99.7103 91.4803 99.7103 91.5469V101.867C99.7103 101.933 99.7764 102 99.8426 102H104.868C104.934 102 105 101.933 105 101.867V100.402C105 100.335 104.934 100.269 104.868 100.269H101.496V97.2062H104.074C104.14 97.2062 104.207 97.1396 104.207 97.073V95.6083C104.207 95.5417 104.14 95.4751 104.074 95.4751H101.496V93.2114H104.868V93.1448ZM82.8495 91.3472H81.3948C81.3287 91.3472 81.2626 91.4137 81.2626 91.4803V99.6696C81.2626 100.003 80.932 100.136 80.6675 100.136H80.1385C79.8079 100.136 79.5434 100.003 79.5434 99.6696V91.4803C79.5434 91.4137 79.4773 91.3472 79.4112 91.3472H77.9566C77.8904 91.3472 77.8243 91.4137 77.8243 91.4803V100.202C77.8243 101.201 78.6178 102 79.6096 102H81.3948C82.3866 102 83.1801 101.201 83.1801 100.202V91.4803C82.9817 91.4137 82.9156 91.3472 82.8495 91.3472ZM61.6908 100.202H58.7815V91.4803C58.7815 91.4137 58.7154 91.3472 58.6492 91.3472H57.1946C57.1285 91.3472 57.0623 91.4137 57.0623 91.4803V101.867C57.0623 101.933 57.1285 102 57.1946 102H61.7569C61.823 102 61.8892 101.933 61.8892 101.867V100.402C61.823 100.269 61.7569 100.202 61.6908 100.202ZM74.1215 91.3472H72.3363C71.4106 91.3472 70.551 92.1461 70.551 93.1448V100.269C70.551 101.268 71.3445 102.067 72.3363 102.067H74.1215C75.1133 102.067 75.9068 101.268 75.9068 100.269V93.1448C75.8407 92.1461 75.0472 91.3472 74.1215 91.3472ZM74.0554 99.7362C74.0554 100.069 73.7248 100.202 73.3942 100.202H72.8652C72.5346 100.202 72.204 100.069 72.204 99.7362V93.6109C72.204 93.2114 72.3363 93.1448 72.733 93.1448H73.4603C73.857 93.1448 73.9893 93.278 73.9893 93.6109V99.7362H74.0554ZM89.3955 98.338L89.5277 98.2049C90.0567 97.872 90.3873 97.1396 90.3873 96.4072V94.0104C90.3873 92.5456 89.1971 91.3472 87.7424 91.3472H85.0315C84.9654 91.3472 84.8992 91.4137 84.8992 91.4803V101.867C84.8992 101.933 84.9654 102 85.0315 102H86.4861C86.5523 102 86.6184 101.933 86.6184 101.867V99.137H87.6763L88.8004 101.933L88.9326 102H90.5856C90.7179 102 90.784 101.933 90.7179 101.8L89.3955 98.338ZM88.5359 96.4072C88.5359 96.8733 88.1392 97.3393 87.6763 97.3393H86.6184V93.1448H87.6763C88.1392 93.1448 88.5359 93.5443 88.5359 94.0104V96.4072Z" fill="black"/>
</g>
<defs>
<linearGradient id="paint0_linear" x1="91.234" y1="79.3242" x2="17.6819" y2="6.279" gradientUnits="userSpaceOnUse">
<stop stop-color="#29ABE2"/>
<stop offset="1" stop-color="#8CC541"/>
</linearGradient>
<linearGradient id="paint1_linear" x1="51.8658" y1="15.9996" x2="-2.632" y2="40.2767" gradientUnits="userSpaceOnUse">
<stop stop-color="#29ABE2"/>
<stop offset="1" stop-color="#8CC541"/>
</linearGradient>
<linearGradient id="paint2_linear" x1="21.7511" y1="39.7008" x2="5.78489" y2="46.8133" gradientUnits="userSpaceOnUse">
<stop stop-color="#5ACAF4"/>
<stop offset="0.4227" stop-color="#348CBF"/>
<stop offset="0.7692" stop-color="#01639D"/>
<stop offset="0.9945" stop-color="#0E4C85"/>
</linearGradient>
<linearGradient id="paint3_linear" x1="134.868" y1="102.227" x2="-53.178" y2="-16.7809" gradientUnits="userSpaceOnUse">
<stop stop-color="#5ACAF4"/>
<stop offset="0.4227" stop-color="#348CBF"/>
<stop offset="0.7692" stop-color="#01639D"/>
<stop offset="0.9945" stop-color="#0E4C85"/>
</linearGradient>
<linearGradient id="paint4_linear" x1="101.69" y1="12.4558" x2="7.83899" y2="35.2999" gradientUnits="userSpaceOnUse">
<stop stop-color="#5ACAF4"/>
<stop offset="0.4227" stop-color="#348CBF"/>
<stop offset="0.7692" stop-color="#01639D"/>
<stop offset="0.9945" stop-color="#0E4C85"/>
</linearGradient>
<linearGradient id="paint5_linear" x1="9.77993" y1="30.2581" x2="81.2137" y2="30.2581" gradientUnits="userSpaceOnUse">
<stop stop-color="#5ACAF4"/>
<stop offset="0.4227" stop-color="#348CBF"/>
<stop offset="0.7692" stop-color="#01639D"/>
<stop offset="0.9945" stop-color="#0E4C85"/>
</linearGradient>
<linearGradient id="paint6_linear" x1="5.10268" y1="-2.84002" x2="41.3851" y2="27.2367" gradientUnits="userSpaceOnUse">
<stop stop-color="#5ACAF4"/>
<stop offset="0.4227" stop-color="#348CBF"/>
<stop offset="0.7692" stop-color="#01639D"/>
<stop offset="0.9945" stop-color="#0E4C85"/>
</linearGradient>
<clipPath id="clip0">
<rect width="105" height="102" fill="white"/>
</clipPath>
</defs>
</svg>
