<?xml version="1.0" encoding="utf-8"?>
<!-- Generator: Adobe Illustrator 26.3.1, SVG Export Plug-In . SVG Version: 6.00 Build 0)  -->
<svg version="1.1" xmlns="http://www.w3.org/2000/svg" xmlns:xlink="http://www.w3.org/1999/xlink" x="0px" y="0px"
	 viewBox="0 0 1537.67 589.9" style="enable-background:new 0 0 1537.67 589.9;" xml:space="preserve">
<style type="text/css">
	.st0{fill:#461C2F;}
	.st1{fill:#A82660;}
	.st2{fill:#DB333C;}
</style>
<g id="Logos">
	<g>
		<g>
			<path class="st0" d="M836.68,73.22v54.55h-19.49v-56.7c0-7.03-1.11-12.49-3.31-16.37c-2.21-3.87-6.41-5.81-12.61-5.81
				c-4.3,0-7.81,0.96-10.55,2.86c-2.74,1.91-5.07,5.9-6.97,11.98c-1.91,6.08-2.86,14.43-2.86,25.04v38.99h-19.49V73.22
				c0-16.22-5.31-24.32-15.92-24.32c-15.15,0-22.72,11.86-22.72,35.59v43.28h-19.49V33.16h19.31l3.22,8.23
				c6.08-6.56,12.99-9.84,20.75-9.84c13.47,0,22.83,4.77,28.08,14.31c4.05-5.25,8.58-8.95,13.59-11.09
				c5.01-2.15,9.36-3.22,13.06-3.22c4.77,0,9.06,0.51,12.88,1.52c3.81,1.02,6.94,2.3,9.39,3.84c2.45,1.55,4.53,3.58,6.26,6.08
				c1.72,2.51,3.04,4.83,3.93,6.98c0.9,2.15,1.58,4.83,2.06,8.05c0.47,3.22,0.74,5.81,0.8,7.78
				C836.65,67.77,836.68,70.24,836.68,73.22z"/>
			<path class="st0" d="M937.13,124.56v3.22h-14.31c-4.3,0-6.44-2.98-6.44-8.94c-3.58,3.58-7.19,6.23-10.82,7.96
				c-3.64,1.73-8.68,2.59-15.11,2.59c-10.01,0-18.33-2.41-24.95-7.24c-6.62-4.83-9.93-12.13-9.93-21.91c0-5.25,0.9-9.77,2.68-13.59
				c1.79-3.81,3.99-6.76,6.62-8.85c2.62-2.09,6.14-3.76,10.55-5.01c4.41-1.25,8.49-2.09,12.25-2.5c3.76-0.42,8.43-0.74,14.04-0.98
				c9.42-0.36,14.13-3.4,14.13-9.12c0-3.22-1.7-6.08-5.1-8.58c-3.4-2.51-7.78-3.76-13.15-3.76c-10.37,0-18.24,3.76-23.61,11.27
				L861.29,48c4.05-5.37,9.27-9.45,15.65-12.25c6.37-2.8,13.26-4.2,20.66-4.2c11.21,0,20.09,3.01,26.65,9.03
				c6.56,6.02,9.84,14.7,9.84,26.02v54.19C934.09,123.3,935.1,124.56,937.13,124.56z M890.44,113.83c10.49,0,17.47-2.44,20.93-7.33
				c3.46-4.89,5.19-11.92,5.19-21.1v-5.37c-0.96,1.32-2.51,2.33-4.65,3.04c-2.15,0.72-3.97,1.16-5.46,1.34
				c-1.49,0.18-3.82,0.33-6.97,0.45c-3.16,0.12-4.86,0.18-5.1,0.18c-12.88,0.6-19.32,5.67-19.32,15.2c0,3.1,1.19,6.14,3.58,9.12
				C881.02,112.34,884.96,113.83,890.44,113.83z"/>
			<path class="st0" d="M954.97,92.18V33.16h19.5v57.77c0,7.99,1.64,13.59,4.92,16.81c3.28,3.22,7.12,4.83,11.53,4.83
				c19.68,0,29.51-13.47,29.51-40.42V33.16h19.49v94.62h-19.49l-3.94-9.48c-7.87,7.39-16.75,11.09-26.65,11.09
				C966.6,129.38,954.97,116.98,954.97,92.18z"/>
			<path class="st0" d="M1114.55,31.55c1.79,0,4.11,0.24,6.97,0.72v16.81c-1.67-0.47-4-0.71-6.97-0.71c-8.95,0-16.28,3.25-22,9.75
				c-5.72,6.5-8.59,17.44-8.59,32.82v36.84h-19.14V33.16h19.14l4.29,10.91C1096.49,35.72,1105.25,31.55,1114.55,31.55z"/>
			<path class="st0" d="M1163.92,0.79v21.1h-20.93V0.79H1163.92z M1143.71,127.78V33.16h19.49v94.62H1143.71z"/>
			<path class="st0" d="M1252.63,97.19l17.35,8.94c-8.47,15.5-21.28,23.25-38.45,23.25c-13.48,0-24.92-4.77-34.34-14.31
				c-9.42-9.54-14.13-21.04-14.13-34.52c0-14.19,4.41-25.9,13.24-35.15c8.82-9.24,20.57-13.86,35.24-13.86
				c16.57,0,29.39,7.51,38.45,22.54l-17.35,9.84c-1.67-3.94-4.35-7.39-8.05-10.37c-3.7-2.98-8.05-4.47-13.05-4.47
				c-9.66,0-16.7,2.98-21.11,8.95c-4.41,5.96-6.62,13.48-6.62,22.53c0,9.06,2.2,16.54,6.62,22.45c4.41,5.9,11.45,8.85,21.11,8.85
				c5.24,0,9.62-1.52,13.14-4.56C1248.18,104.26,1250.84,100.89,1252.63,97.19z"/>
			<path class="st0" d="M1373.98,78.77v8.94h-72.97c0.95,8.23,3.7,14.34,8.23,18.33c4.53,4,11.09,5.99,19.67,5.99
				c12.52,0,21.34-4.41,26.47-13.24l14.49,8.59c-3.82,6.56-9.36,11.86-16.63,15.92c-7.27,4.06-15.38,6.08-24.32,6.08
				c-14.43,0-25.84-4.38-34.25-13.15c-8.41-8.76-12.61-20.66-12.61-35.68c0-14.31,4.26-26.05,12.79-35.23
				c8.52-9.18,19.88-13.77,34.07-13.77c13.47,0,24.21,4.32,32.2,12.97C1369.09,53.16,1373.38,64.58,1373.98,78.77z M1301.54,70.36
				h54.73c-1.19-6.8-4.26-12.16-9.21-16.1s-11-5.9-18.16-5.9c-6.91,0-12.82,1.91-17.7,5.72
				C1306.31,57.9,1303.09,63.33,1301.54,70.36z"/>
			<path class="st0" d="M782.84,200.33c9.18,9.78,13.78,21.46,13.78,35.05c0,13.59-4.53,25.28-13.59,35.06
				c-8.71,9.3-19.92,13.95-33.63,13.95c-8.82,0-16.63-3.28-23.43-9.84l-3.22,8.23h-19.49V155.8h19.49v44
				c7.16-8.82,16.04-13.24,26.65-13.24C763.23,186.56,774.38,191.15,782.84,200.33z M749.4,267.05c8.11,0,14.76-3.16,19.95-9.48
				c5.18-6.32,7.78-13.71,7.78-22.18c0-8.23-2.53-15.53-7.6-21.91c-5.07-6.38-11.78-9.57-20.12-9.57c-7.99,0-14.66,2.98-20.03,8.94
				c-5.24,5.84-7.87,13.35-7.87,22.53c0,9.3,2.68,16.81,8.05,22.54C735.27,264.01,741.88,267.05,749.4,267.05z"/>
			<path class="st0" d="M836.03,282.79h-19.49V155.8h19.49V282.79z"/>
			<path class="st0" d="M937.39,279.57v3.22h-14.31c-4.3,0-6.44-2.98-6.44-8.94c-3.58,3.58-7.19,6.23-10.82,7.96
				c-3.64,1.73-8.68,2.59-15.11,2.59c-10.01,0-18.33-2.41-24.95-7.24c-6.62-4.83-9.93-12.13-9.93-21.91c0-5.25,0.9-9.77,2.68-13.59
				c1.79-3.81,3.99-6.76,6.62-8.85c2.62-2.09,6.14-3.76,10.55-5.01c4.41-1.25,8.49-2.09,12.25-2.5c3.76-0.42,8.43-0.74,14.04-0.98
				c9.42-0.36,14.13-3.4,14.13-9.12c0-3.22-1.7-6.08-5.1-8.58c-3.4-2.51-7.78-3.76-13.15-3.76c-10.37,0-18.24,3.76-23.61,11.27
				l-12.7-11.09c4.05-5.37,9.27-9.45,15.65-12.25c6.37-2.8,13.26-4.2,20.66-4.2c11.21,0,20.09,3.01,26.65,9.03
				c6.56,6.02,9.84,14.7,9.84,26.02v54.19C934.35,278.31,935.36,279.57,937.39,279.57z M890.71,268.84
				c10.49,0,17.47-2.44,20.93-7.33c3.46-4.89,5.19-11.92,5.19-21.1v-5.37c-0.96,1.32-2.51,2.33-4.65,3.04
				c-2.15,0.72-3.97,1.16-5.46,1.34c-1.49,0.18-3.82,0.33-6.97,0.45c-3.16,0.12-4.86,0.18-5.1,0.18
				c-12.88,0.6-19.32,5.67-19.32,15.2c0,3.1,1.19,6.14,3.58,9.12C881.29,267.35,885.22,268.84,890.71,268.84z"/>
			<path class="st0" d="M1020.43,252.2l17.35,8.94c-8.47,15.5-21.28,23.25-38.45,23.25c-13.48,0-24.92-4.77-34.34-14.31
				c-9.42-9.54-14.13-21.04-14.13-34.52c0-14.19,4.41-25.9,13.24-35.15c8.82-9.24,20.57-13.86,35.24-13.86
				c16.57,0,29.39,7.51,38.45,22.54l-17.35,9.84c-1.67-3.94-4.35-7.39-8.05-10.37c-3.7-2.98-8.05-4.47-13.05-4.47
				c-9.66,0-16.7,2.98-21.11,8.95c-4.41,5.96-6.62,13.48-6.62,22.53c0,9.06,2.2,16.54,6.62,22.45c4.41,5.9,11.45,8.85,21.11,8.85
				c5.24,0,9.62-1.52,13.14-4.56C1015.99,259.27,1018.64,255.9,1020.43,252.2z"/>
			<path class="st0" d="M1105.9,223.4l40.78,59.38h-23.79l-29.87-45.43l-17.53,19.32v26.11H1056V155.8h19.49v74.41l37.38-42.03
				h25.04L1105.9,223.4z"/>
			<path class="st0" d="M1238.73,200.33c9.18,9.78,13.78,21.46,13.78,35.05c0,13.59-4.53,25.28-13.59,35.06
				c-8.71,9.3-19.92,13.95-33.63,13.95c-8.82,0-16.63-3.28-23.43-9.84l-3.22,8.23h-19.49V155.8h19.49v44
				c7.16-8.82,16.04-13.24,26.65-13.24C1219.12,186.56,1230.27,191.15,1238.73,200.33z M1205.29,267.05
				c8.11,0,14.76-3.16,19.94-9.48c5.18-6.32,7.78-13.71,7.78-22.18c0-8.23-2.53-15.53-7.6-21.91c-5.07-6.38-11.78-9.57-20.12-9.57
				c-7.99,0-14.66,2.98-20.03,8.94c-5.24,5.84-7.87,13.35-7.87,22.53c0,9.3,2.68,16.81,8.05,22.54
				C1191.16,264.01,1197.77,267.05,1205.29,267.05z"/>
			<path class="st0" d="M1271.46,247.19v-59.02h19.5v57.77c0,7.99,1.64,13.59,4.92,16.81c3.28,3.22,7.12,4.83,11.53,4.83
				c19.68,0,29.51-13.47,29.51-40.42v-38.99h19.49v94.62h-19.49l-3.94-9.48c-7.87,7.39-16.75,11.09-26.65,11.09
				C1283.09,284.4,1271.46,272,1271.46,247.19z"/>
			<path class="st0" d="M1431.04,186.56c1.79,0,4.11,0.24,6.97,0.72v16.81c-1.67-0.47-4-0.71-6.97-0.71c-8.95,0-16.28,3.25-22,9.75
				c-5.72,6.5-8.59,17.44-8.59,32.82v36.84h-19.14v-94.62h19.14l4.29,10.91C1412.97,190.73,1421.74,186.56,1431.04,186.56z"/>
			<path class="st0" d="M1537.67,223.76v59.02h-19.49v-57.77c0-7.99-1.64-13.59-4.92-16.81c-3.28-3.22-7.13-4.83-11.53-4.83
				c-19.68,0-29.51,13.48-29.51,40.42v38.99h-19.49v-94.62h19.49l3.93,9.48c7.87-7.39,16.75-11.09,26.65-11.09
				C1526.05,186.56,1537.67,198.96,1537.67,223.76z"/>
			<path class="st0" d="M722.75,437.8h-19.49V310.81h19.49V437.8z"/>
			<path class="st0" d="M824.1,434.58v3.22H809.8c-4.3,0-6.44-2.98-6.44-8.95c-3.58,3.58-7.19,6.23-10.82,7.96
				c-3.64,1.73-8.68,2.59-15.11,2.59c-10.01,0-18.33-2.41-24.95-7.24c-6.62-4.83-9.93-12.13-9.93-21.91c0-5.25,0.9-9.77,2.68-13.59
				c1.79-3.81,3.99-6.76,6.62-8.85c2.62-2.09,6.14-3.76,10.55-5.01c4.41-1.25,8.49-2.09,12.25-2.5c3.76-0.42,8.43-0.74,14.04-0.98
				c9.42-0.36,14.13-3.4,14.13-9.12c0-3.22-1.7-6.08-5.1-8.58c-3.4-2.51-7.78-3.76-13.15-3.76c-10.37,0-18.24,3.76-23.61,11.27
				l-12.7-11.09c4.05-5.37,9.27-9.45,15.65-12.25c6.37-2.8,13.26-4.2,20.66-4.2c11.21,0,20.09,3.01,26.65,9.03
				c6.56,6.02,9.84,14.7,9.84,26.02v54.2C821.06,433.33,822.08,434.58,824.1,434.58z M777.42,423.85c10.49,0,17.47-2.44,20.93-7.33
				c3.46-4.89,5.19-11.93,5.19-21.11v-5.37c-0.96,1.32-2.51,2.33-4.65,3.04c-2.15,0.72-3.97,1.16-5.46,1.34
				c-1.49,0.18-3.82,0.33-6.97,0.45c-3.16,0.12-4.86,0.18-5.1,0.18c-12.88,0.6-19.32,5.67-19.32,15.2c0,3.1,1.19,6.14,3.58,9.12
				C768,422.36,771.94,423.85,777.42,423.85z"/>
			<path class="st0" d="M896.67,370.91l-19.68,66.89h-18.6l-28.8-94.62h20.21l17.89,64.75l17.89-64.75h22.18l17.89,64.75
				l17.89-64.75h20.21l-28.8,94.62h-18.6L896.67,370.91z"/>
			<path class="st0" d="M1020.51,412.76l27.72-69.58h20.93l-40.24,97.84c-2.86,6.92-5.61,12.4-8.23,16.46
				c-2.63,4.05-5.67,7.12-9.12,9.21c-3.46,2.09-6.95,3.43-10.47,4.03c-3.52,0.6-8.2,0.89-14.04,0.89v-19.32
				c5.13,0,9.18-0.51,12.16-1.52c2.98-1.01,5.01-2.12,6.08-3.31c1.07-1.19,2.32-3.16,3.76-5.9l1.61-3.76l-38.81-94.62h20.75
				L1020.51,412.76z"/>
			<path class="st0" d="M1165.56,388.79v8.94h-72.97c0.95,8.23,3.7,14.34,8.23,18.34c4.53,3.99,11.09,5.99,19.67,5.99
				c12.52,0,21.34-4.41,26.47-13.24l14.49,8.59c-3.82,6.56-9.36,11.87-16.63,15.92c-7.27,4.05-15.38,6.08-24.32,6.08
				c-14.43,0-25.84-4.38-34.25-13.14c-8.41-8.76-12.61-20.66-12.61-35.69c0-14.31,4.26-26.05,12.79-35.23
				c8.52-9.18,19.88-13.77,34.07-13.77c13.47,0,24.21,4.32,32.2,12.97C1160.67,363.19,1164.96,374.6,1165.56,388.79z
				 M1093.12,380.39h54.73c-1.19-6.8-4.26-12.16-9.21-16.1c-4.95-3.94-11-5.9-18.16-5.9c-6.91,0-12.82,1.91-17.7,5.72
				C1097.89,367.93,1094.67,373.35,1093.12,380.39z"/>
			<path class="st0" d="M1235,341.57c1.79,0,4.11,0.24,6.97,0.72v16.81c-1.67-0.47-4-0.71-6.97-0.71c-8.95,0-16.28,3.25-22,9.75
				c-5.72,6.5-8.59,17.44-8.59,32.82v36.85h-19.14v-94.62h19.14l4.29,10.91C1216.93,345.75,1225.7,341.57,1235,341.57z"/>
			<path class="st0" d="M1271.02,369.3c0,3.7,1.99,6.53,5.99,8.5c3.99,1.97,8.88,3.43,14.67,4.38c5.78,0.96,11.53,2.18,17.26,3.67
				c5.72,1.49,10.58,4.27,14.58,8.32c3.99,4.06,5.99,9.48,5.99,16.28c0,9.66-3.52,16.9-10.55,21.73s-15.68,7.24-25.93,7.24
				c-5.84,0-11.18-0.6-16.01-1.79c-4.83-1.19-8.68-2.62-11.53-4.3c-2.86-1.67-5.43-3.64-7.69-5.9s-3.84-4.11-4.74-5.55
				c-0.89-1.43-1.64-2.86-2.24-4.29l15.2-5.37c5.12,6.92,14.25,10.38,27.37,10.38c2.86,0,5.51-0.24,7.96-0.72
				c2.44-0.47,4.74-1.61,6.89-3.4c2.15-1.79,3.22-4.11,3.22-6.98c0-2.98-1.43-5.37-4.3-7.16c-2.86-1.79-6.44-3.07-10.73-3.84
				c-4.29-0.77-8.91-1.82-13.86-3.13c-4.95-1.31-9.57-2.83-13.86-4.56c-4.29-1.73-7.87-4.59-10.73-8.58
				c-2.86-3.99-4.29-8.97-4.29-14.94c0-9.3,3.51-16.24,10.55-20.84c7.03-4.59,15.38-6.89,25.04-6.89c6.68,0,12.91,1.07,18.69,3.22
				c5.78,2.15,9.81,4.11,12.07,5.9c2.26,1.79,3.87,3.34,4.83,4.65l-11.99,10.73c-5.13-5.13-12.99-7.69-23.61-7.69
				C1277.33,358.39,1271.25,362.03,1271.02,369.3z"/>
		</g>
		<g>
			<g>
				<g>
					<path class="st0" d="M557.66,472.05H85.61V0h472.06V472.05z"/>
				</g>
			</g>
			<g>
				<g>
					<path class="st1" d="M117.85,589.9L0,150.09L439.81,32.24l117.85,439.82L117.85,589.9z"/>
				</g>
			</g>
			<g>
				<g>
					<path class="st2" d="M439.47,589.9H0V150.43h439.47V589.9z"/>
				</g>
			</g>
		</g>
	</g>
</g>
<g id="Guides">
</g>
</svg>
