<svg width="425.5" height="425.5" xmlns="http://www.w3.org/2000/svg" xmlns:xlink="http://www.w3.org/1999/xlink">
 <style type="text/css">.st0{fill:#FF0000;}
	.st1{clip-path:url(#SVGID_2_);fill:#FFFFFF;}
	.st2{clip-path:url(#SVGID_4_);fill:#FFFFFF;}
	.st3{clip-path:url(#SVGID_6_);fill:#FFFFFF;}
	.st4{clip-path:url(#SVGID_8_);fill:#FFFFFF;}
	.st5{clip-path:url(#SVGID_10_);fill:#FFFFFF;}
	.st6{fill:#FFFFFF;}
	.st7{clip-path:url(#SVGID_12_);fill:#FFFFFF;}
	.st8{clip-path:url(#SVGID_14_);fill:#FFFFFF;}
	.st9{clip-path:url(#SVGID_16_);fill:#FFFFFF;}
	.st10{clip-path:url(#SVGID_18_);fill:#FFFFFF;}
	.st11{clip-path:url(#SVGID_20_);fill:#FFFFFF;}
	.st12{clip-path:url(#SVGID_22_);fill:#FFFFFF;}
	.st13{clip-path:url(#SVGID_24_);fill:#FFFFFF;}
	.st14{clip-path:url(#SVGID_26_);fill:#FFFFFF;}
	.st15{clip-path:url(#SVGID_28_);fill:#FFFFFF;}
	.st16{clip-path:url(#SVGID_30_);fill:#FFFFFF;}
	.st17{clip-path:url(#SVGID_32_);fill:#FFFFFF;}
	.st18{clip-path:url(#SVGID_34_);fill:#FFFFFF;}
	.st19{clip-path:url(#SVGID_36_);fill:#FFFFFF;}
	.st20{clip-path:url(#SVGID_38_);fill:#FFFFFF;}
	.st21{clip-path:url(#SVGID_40_);fill:#FFFFFF;}
	.st22{clip-path:url(#SVGID_42_);fill:#FFFFFF;}</style>
 <g>
  <title>background</title>
  <rect fill="none" id="canvas_background" height="427.5" width="427.5" y="-1" x="-1"/>
 </g>
 <g>
  <title>Layer 1</title>
  <g id="svg_1">
   <g id="Layer_1_1_">
    <g id="svg_19">
     <rect id="svg_20" height="425.2" width="425.2" class="st0" y="0.2"/>
     <g id="svg_21">
      <g id="svg_22">
       <defs transform="translate(1,0) ">
        <rect height="425.2" width="425.2" y="0.2" id="SVGID_1_"/>
       </defs>
       <clipPath transform="translate(1,0) " id="SVGID_2_">
        <use id="svg_23" xlink:href="#SVGID_1_"/>
       </clipPath>
       <path id="svg_24" d="m350.3,315.8c-7,-2.7 -7.5,-4.1 -7.5,-5.4c0,-2.4 2.7,-2.9 4.9,-2.9c3.9,0 7.4,1.2 10.9,3.7l1.1,0.8l5.1,-8.9l-0.9,-0.7c-4.6,-3.3 -10.4,-5.2 -16,-5.2c-10.2,0 -16.6,5.2 -16.6,13.5s4.7,11.7 14,15.3c6.2,2.3 9.7,3.8 9.7,6.4c0,2.5 -2.3,3.7 -7,3.7c-4,0 -8.5,-1.5 -12.4,-4.2l-1.1,-0.8l-5.3,8.8l0.9,0.7c5,3.7 11.9,6 18,6c11.5,0 18.2,-5.3 18.2,-14.5c0,-9.5 -6,-12.5 -16,-16.3" class="st1"/>
      </g>
      <g id="svg_25">
       <defs transform="translate(1,0) ">
        <rect height="425.2" width="425.2" y="0.2" id="SVGID_3_"/>
       </defs>
       <clipPath transform="translate(1,0) " id="SVGID_4_">
        <use id="svg_26" xlink:href="#SVGID_3_"/>
       </clipPath>
       <path id="svg_27" d="m319.8,297.2c-3.4,0 -6.6,1.2 -9.1,3.3l0,-2.3l-11.3,0l0,47.5l11.3,0l0,-27c0,-4.7 1.3,-10.3 7.6,-10.3c2.5,0 4.3,0.4 6.2,1.5l1.4,0.8l3,-10.8l-0.7,-0.5c-2.3,-1.6 -4.8,-2.2 -8.4,-2.2" class="st2"/>
      </g>
      <g id="svg_28">
       <defs transform="translate(1,0) ">
        <rect height="425.2" width="425.2" y="0.2" id="SVGID_5_"/>
       </defs>
       <clipPath transform="translate(1,0) " id="SVGID_6_">
        <use id="svg_29" xlink:href="#SVGID_5_"/>
       </clipPath>
       <path id="svg_30" d="m273.9,297.2c-12.9,0 -21,9.5 -21,24.8c0,14.5 8.5,24.7 20.7,24.7c6.7,0 11.9,-2 16.4,-6.3l0.9,-0.8l-6.8,-7.4l-0.9,0.7c-3.2,2.4 -5.9,3.4 -9,3.4c-5.3,0 -8.8,-3.6 -9.9,-9.9l29.5,0l0.2,-1.6c0.1,-1 0.2,-2.3 0.2,-3.7c-0.1,-14.6 -8,-23.9 -20.3,-23.9m-0.6,10.4c6.5,0 8.7,4.5 9.3,8.8l-18.1,0c0.7,-4.2 2.9,-8.8 8.8,-8.8" class="st3"/>
      </g>
      <g id="svg_31">
       <defs transform="translate(1,0) ">
        <rect height="425.2" width="425.2" y="0.2" id="SVGID_7_"/>
       </defs>
       <clipPath transform="translate(1,0) " id="SVGID_8_">
        <use id="svg_32" xlink:href="#SVGID_7_"/>
       </clipPath>
       <path id="svg_33" d="m241.9,298.1l-7.9,23c-0.9,2.4 -1.9,5.9 -2.8,8.7c-0.8,-2.9 -2,-6.4 -2.8,-8.9l-7.7,-22.9l-12.4,0l17,45.4l-7,18l12,0l23.6,-63.4l-12,0.1l0,0z" class="st4"/>
      </g>
      <g id="svg_34">
       <defs transform="translate(1,0) ">
        <rect height="425.2" width="425.2" y="0.2" id="SVGID_9_"/>
       </defs>
       <clipPath transform="translate(1,0) " id="SVGID_10_">
        <use id="svg_35" xlink:href="#SVGID_9_"/>
       </clipPath>
       <path id="svg_36" d="m189.8,320.9c-0.4,1.5 -0.7,3.1 -1.1,4.6c-0.4,-1.5 -0.8,-3.1 -1.2,-4.5l-6.3,-22.9l-9,0l-6.3,22.8c-0.4,1.5 -0.8,3.1 -1.2,4.6c-0.3,-1.5 -0.7,-3.1 -1.1,-4.6l-5.6,-22.8l-11.4,0l13,47.5l9.5,0l6.2,-23.6c0.4,-1.4 0.8,-2.9 1.1,-4.4c0.3,1.4 0.7,2.9 1.1,4.3l6.3,23.7l9.5,0l13.2,-47.5l-11.4,0l-5.3,22.8z" class="st5"/>
      </g>
     </g>
     <polygon id="svg_37" points="72.4000015258789,283.1000061035156 60.900001525878906,283.1000061035156 60.900001525878906,345.6000061035156 102.30000305175781,345.6000061035156 102.30000305175781,334.29998779296875 72.4000015258789,334.29998779296875 " class="st6"/>
     <g id="svg_38">
      <g id="svg_39">
       <defs transform="translate(1,0) ">
        <rect height="425.2" width="425.2" y="0.2" id="SVGID_11_"/>
       </defs>
       <clipPath transform="translate(1,0) " id="SVGID_12_">
        <use id="svg_40" xlink:href="#SVGID_11_"/>
       </clipPath>
       <path id="svg_41" d="m132.4,331.2c-2,2.5 -5.6,4.9 -9.6,4.9c-3.4,0 -7.4,-1.1 -7.4,-6.2c0,-3.4 3.1,-5.5 8,-5.5c3.8,0 6.7,0.5 9.1,1.5l0,5.3l-0.1,0zm11.1,-17.7c0,-10.2 -6.8,-16.3 -18.2,-16.3c-6.3,0 -11.4,1.3 -16.1,4.2l-1,0.6l4.5,8.9l1.1,-0.6c3.3,-1.9 6.7,-2.7 11.2,-2.7c4.8,0 7.2,2.2 7.2,6.4l0,1.5c-2.4,-0.8 -5.4,-1.2 -8.8,-1.2c-12,0 -19.2,5.9 -19.2,15.8c0,11.3 8.5,16.4 16.9,16.4c3.9,0 7.8,-1.4 11.1,-3.9l0,3l11.2,0l0,-32.1l0.1,0z" class="st7"/>
      </g>
      <g id="svg_42">
       <defs transform="translate(1,0) ">
        <rect height="425.2" width="425.2" y="0.2" id="SVGID_13_"/>
       </defs>
       <clipPath transform="translate(1,0) " id="SVGID_14_">
        <use id="svg_43" xlink:href="#SVGID_13_"/>
       </clipPath>
       <path id="svg_44" d="m74.9,96.8c0,-1.1 0,-2.4 0,-3.7c0.4,1.1 0.9,2.1 1.3,3.1l15.6,36.1l15.8,-36.1c0.4,-1 0.9,-2.1 1.3,-3.1c0,1.3 0,2.6 0,3.7l0,32.7l11.3,0l0,-62l-11.8,0l-13.6,32.4c-0.6,1.5 -1.8,4.4 -2.9,7.1c-0.8,-2 -1.7,-4.2 -2.6,-6.2l-14.1,-33.3l-11.4,0l0,61.9l11,0l0.1,-32.6l0,0z" class="st8"/>
      </g>
      <g id="svg_45">
       <defs transform="translate(1,0) ">
        <rect height="425.2" width="425.2" y="0.2" id="SVGID_15_"/>
       </defs>
       <clipPath transform="translate(1,0) " id="SVGID_16_">
        <use id="svg_46" xlink:href="#SVGID_15_"/>
       </clipPath>
       <path id="svg_47" d="m147.4,98.4c-12,0 -19.2,5.9 -19.2,15.7c0,11.2 8.5,16.3 16.9,16.3c3.9,0 7.8,-1.4 11.1,-3.9l0,2.9l11.2,0l0,-31.8c0,-10.2 -6.8,-16.2 -18.2,-16.2c-6.4,0 -11.5,1.3 -16.1,4.2l-1,0.6l4.6,8.8l1.1,-0.6c3.3,-1.8 6.8,-2.7 11.2,-2.7c4.8,0 7.3,2.1 7.3,6.3l0,1.5c-2.6,-0.7 -5.5,-1.1 -8.9,-1.1m-0.3,10c3.8,0 6.7,0.5 9.1,1.5l0,5.2c-2,2.5 -5.6,4.9 -9.7,4.9c-3.4,0 -7.4,-1.1 -7.4,-6.2c0,-3.9 4.1,-5.4 8,-5.4" class="st9"/>
      </g>
      <g id="svg_48">
       <defs transform="translate(1,0) ">
        <rect height="425.2" width="425.2" y="0.2" id="SVGID_17_"/>
       </defs>
       <clipPath transform="translate(1,0) " id="SVGID_18_">
        <use id="svg_49" xlink:href="#SVGID_17_"/>
       </clipPath>
       <path id="svg_50" d="m193.5,130.4c3.9,0 7.5,-1.2 10.1,-3.3l0,2.4l11.3,0l0,-47.1l-11.3,0l0,27.3c0,3.8 -1,10.1 -8,10.1c-4,0 -8,-1.3 -8,-11l0,-26.5l-11.4,0l0,26.8c-0.1,17.6 9.4,21.3 17.3,21.3" class="st10"/>
      </g>
      <g id="svg_51">
       <defs transform="translate(1,0) ">
        <rect height="425.2" width="425.2" y="0.2" id="SVGID_19_"/>
       </defs>
       <clipPath transform="translate(1,0) " id="SVGID_20_">
        <use id="svg_52" xlink:href="#SVGID_19_"/>
       </clipPath>
       <path id="svg_53" d="m236.5,102.7c0,-4.7 1.3,-10.2 7.6,-10.2c2.5,0 4.3,0.4 6.2,1.5l1.4,0.7l3,-10.7l-0.8,-0.5c-2.2,-1.4 -4.7,-2.1 -8.3,-2.1c-3.4,0 -6.6,1.2 -9.1,3.2l0,-2.3l-11.3,0l0,47.1l11.3,0l0,-26.7l0,0z" class="st11"/>
      </g>
      <g id="svg_54">
       <defs transform="translate(1,0) ">
        <rect height="425.2" width="425.2" y="0.2" id="SVGID_21_"/>
       </defs>
       <clipPath transform="translate(1,0) " id="SVGID_22_">
        <use id="svg_55" xlink:href="#SVGID_21_"/>
       </clipPath>
       <path id="svg_56" d="m266.1,79.1c3.8,0 6.9,-3.1 6.9,-6.9c0,-3.8 -3.1,-6.9 -6.9,-6.9c-3.9,0 -7,3.1 -7,6.9s3.1,6.9 7,6.9" class="st12"/>
      </g>
     </g>
     <rect id="svg_57" height="47.1" width="11.3" class="st6" y="82.3" x="260.4"/>
     <g id="svg_58">
      <g id="svg_59">
       <defs transform="translate(1,0) ">
        <rect height="425.2" width="425.2" y="0.2" id="SVGID_23_"/>
       </defs>
       <clipPath transform="translate(1,0) " id="SVGID_24_">
        <use id="svg_60" xlink:href="#SVGID_23_"/>
       </clipPath>
       <path id="svg_61" d="m300.9,130.4c8.9,0 13.7,-4.4 17.1,-8.8l0.7,-0.9l-7.4,-7.2l-0.9,0.9c-3.4,3.6 -5.6,5.1 -9.3,5.1c-7.1,0 -9.6,-7.1 -9.6,-13.8c0,-8.3 3.6,-13.5 9.3,-13.5c3.6,0 6.6,1.5 10.1,5.1l0.9,1l6.8,-8l-0.7,-0.8c-4.6,-5.4 -10.1,-8 -16.9,-8c-12.4,0 -21,10.1 -21,24.6c0.1,14 8.8,24.3 20.9,24.3" class="st13"/>
      </g>
      <g id="svg_62">
       <defs transform="translate(1,0) ">
        <rect height="425.2" width="425.2" y="0.2" id="SVGID_25_"/>
       </defs>
       <clipPath transform="translate(1,0) " id="SVGID_26_">
        <use id="svg_63" xlink:href="#SVGID_25_"/>
       </clipPath>
       <path id="svg_64" d="m342.8,130.3c6.7,0 11.9,-2 16.4,-6.2l0.9,-0.9l-6.8,-7.3l-0.9,0.7c-3.2,2.3 -5.9,3.3 -9.1,3.3c-5.3,0 -8.8,-3.5 -9.9,-9.7l29.5,0l0.1,-1.5c0.1,-0.9 0.2,-2.3 0.2,-3.8c0,-14.3 -7.9,-23.6 -20.2,-23.6c-13,0 -21,9.4 -21,24.5c0.1,14.5 8.6,24.5 20.8,24.5m-9.2,-29.8c0.7,-4.3 2.9,-8.7 8.9,-8.7c6.5,0 8.7,4.5 9.3,8.7l-18.2,0z" class="st14"/>
      </g>
     </g>
     <polygon id="svg_65" points="80.4000015258789,174.60000610351562 80.4000015258789,237.39999389648438 91.80000305175781,237.39999389648438 91.80000305175781,168.6999969482422 " class="st6"/>
     <g id="svg_66">
      <g id="svg_67">
       <defs transform="translate(1,0) ">
        <rect height="425.2" width="425.2" y="0.2" id="SVGID_27_"/>
       </defs>
       <clipPath transform="translate(1,0) " id="SVGID_28_">
        <use id="svg_68" xlink:href="#SVGID_27_"/>
       </clipPath>
       <path id="svg_69" d="m126.5,234.5l0,3l11.2,0l0,-31.8c0,-10.1 -6.8,-16.2 -18.2,-16.2c-6.3,0 -11.5,1.3 -16.1,4.2l-1,0.6l4.5,8.8l1.1,-0.6c3.3,-1.8 6.7,-2.7 11.2,-2.7c4.8,0 7.3,2.1 7.3,6.3l0,1.5c-2.4,-0.8 -5.4,-1.2 -8.8,-1.2c-12,0 -19.2,5.9 -19.2,15.7c0,11.2 8.5,16.3 16.9,16.3c3.9,0 7.8,-1.4 11.1,-3.9m-17.1,-12.7c0,-4 4.1,-5.4 8,-5.4c3.8,0 6.7,0.5 9.1,1.5l0,5.2c-2,2.5 -5.6,4.9 -9.7,4.9c-3.3,0 -7.4,-1.1 -7.4,-6.2" class="st15"/>
      </g>
      <g id="svg_70">
       <defs transform="translate(1,0) ">
        <rect height="425.2" width="425.2" y="0.2" id="SVGID_29_"/>
       </defs>
       <clipPath transform="translate(1,0) " id="SVGID_30_">
        <use id="svg_71" xlink:href="#SVGID_29_"/>
       </clipPath>
       <path id="svg_72" d="m165,238.4c8.9,0 13.7,-4.4 17.1,-8.8l0.7,-0.9l-7.4,-7.2l-0.9,0.9c-3.4,3.5 -5.6,5.1 -9.3,5.1c-7.1,0 -9.6,-7.1 -9.6,-13.8c0,-8.3 3.6,-13.5 9.3,-13.5c3.6,0 6.6,1.5 10.1,5.1l1,1l6.8,-8l-0.7,-0.8c-4.6,-5.4 -10.1,-8 -16.9,-8c-12.4,0 -21,10.1 -21,24.6c0.1,14 8.8,24.3 20.8,24.3" class="st16"/>
      </g>
      <g id="svg_73">
       <defs transform="translate(1,0) ">
        <rect height="425.2" width="425.2" y="0.2" id="SVGID_31_"/>
       </defs>
       <clipPath transform="translate(1,0) " id="SVGID_32_">
        <use id="svg_74" xlink:href="#SVGID_31_"/>
       </clipPath>
       <path id="svg_75" d="m201,202.4l0,-33.7l-11.3,5.9l0,62.9l11.3,0l0,-14l5.3,-7l9.4,21l12.4,0l-14.1,-30.7l12.5,-16.3l-13.2,0l-9.8,13.5c-0.7,1.1 -1.7,2.5 -2.7,3.9c0,-0.1 0,-0.1 0,-0.2c0.1,-1.9 0.2,-3.9 0.2,-5.3" class="st17"/>
      </g>
      <g id="svg_76">
       <defs transform="translate(1,0) ">
        <rect height="425.2" width="425.2" y="0.2" id="SVGID_33_"/>
       </defs>
       <clipPath transform="translate(1,0) " id="SVGID_34_">
        <use id="svg_77" xlink:href="#SVGID_33_"/>
       </clipPath>
       <path id="svg_78" d="m246.5,168.7l-11.3,5.8l0,62.9l11.3,0l0,-2.6c2.5,1.9 6.1,3.5 10.1,3.5c9.5,0 19,-7.3 19,-23.7c0,-22.8 -13,-25.2 -18.6,-25.2c-3.7,0 -7.1,1.2 -10.5,3.8l0,-24.5zm-0.1,36.2c2.6,-3.1 5.9,-4.9 9,-4.9c2.2,0 8.9,0 8.9,14.9c0,8.6 -2.9,13 -8.5,13c-3.6,0 -7.3,-2.6 -9.3,-5.1l0,-17.9l-0.1,0z" class="st18"/>
      </g>
      <g id="svg_79">
       <defs transform="translate(1,0) ">
        <rect height="425.2" width="425.2" y="0.2" id="SVGID_35_"/>
       </defs>
       <clipPath transform="translate(1,0) " id="SVGID_36_">
        <use id="svg_80" xlink:href="#SVGID_35_"/>
       </clipPath>
       <path id="svg_81" d="m308.8,237.4l11.3,0l0,-47.1l-11.3,0l0,27.3c0,3.8 -1,10.1 -8,10.1c-4,0 -8,-1.3 -8,-11l0,-26.5l-11.4,0l0,26.8c0,17.5 9.4,21.2 17.3,21.2c3.9,0 7.5,-1.2 10.1,-3.3l0,2.5z" class="st19"/>
      </g>
      <g id="svg_82">
       <defs transform="translate(1,0) ">
        <rect height="425.2" width="425.2" y="0.2" id="SVGID_37_"/>
       </defs>
       <clipPath transform="translate(1,0) " id="SVGID_38_">
        <use id="svg_83" xlink:href="#SVGID_37_"/>
       </clipPath>
       <path id="svg_84" d="m328.5,190.3l0,47.1l11.4,0l0,-26.7c0,-4.7 1.3,-10.2 7.6,-10.2c2.5,0 4.3,0.4 6.2,1.5l1.4,0.7l3,-10.7l-0.8,-0.5c-2.2,-1.4 -4.8,-2.1 -8.3,-2.1c-3.4,0 -6.6,1.2 -9.1,3.2l0,-2.3l-11.4,0z" class="st20"/>
      </g>
      <g id="svg_85">
       <defs transform="translate(1,0) ">
        <rect height="425.2" width="425.2" y="0.2" id="SVGID_39_"/>
       </defs>
       <clipPath transform="translate(1,0) " id="SVGID_40_">
        <use id="svg_86" xlink:href="#SVGID_39_"/>
       </clipPath>
       <path id="svg_87" d="m383.9,189.4c-3.9,0 -7.5,1.2 -10.1,3.3l0,-2.4l-11.3,0l0,47.1l11.3,0l0,-27.3c0,-3.8 1,-10.1 8,-10.1c4,0 8,1.3 8,11l0,26.5l11.3,0l0,-26.8c0.1,-17.6 -9.3,-21.3 -17.2,-21.3" class="st21"/>
      </g>
      <g id="svg_88">
       <defs transform="translate(1,0) ">
        <rect height="425.2" width="425.2" y="0.2" id="SVGID_41_"/>
       </defs>
       <clipPath transform="translate(1,0) " id="SVGID_42_">
        <use id="svg_89" xlink:href="#SVGID_41_"/>
       </clipPath>
       <path id="svg_90" d="m51.8,226.8l-14.8,0l0,-17.2l15.1,0c6,0 9.4,3.1 9.4,8.6c-0.1,5.9 -3.1,8.6 -9.7,8.6m-14.8,-40.7l14.9,0c4.7,0 7.1,2.2 7.1,6.6c0,4 -2.7,6.3 -7.1,6.3l-14.9,0l0,-12.9zm27.5,17.7c3.9,-2.7 6,-6.7 6,-11.6c0,-10.5 -6.9,-16.7 -18.5,-16.7l-26,0l0,62l25.1,0c14.1,0 21.9,-6.9 21.9,-19.5c-0.1,-7.5 -4.2,-12.1 -8.5,-14.2" class="st22"/>
      </g>
     </g>
    </g>
   </g>
   <g id="Layer_3"/>
  </g>
 </g>
</svg>