<svg width="51" height="62" viewBox="0 0 51 62" fill="none" xmlns="http://www.w3.org/2000/svg">
<g clip-path="url(#clip0c)">
<path d="M13.1322 61.8033H10.5878V57.0404C10.5878 55.829 10.1467 55.2181 9.26433 55.2181C8.84369 55.2181 8.50513 55.4045 8.23838 55.7669C7.97164 56.1293 7.83826 56.5849 7.83826 57.1336V61.8033H5.2939V56.9887C5.2939 55.8083 4.86301 55.2181 3.99095 55.2181C3.54979 55.2181 3.20097 55.3941 2.94448 55.7358C2.68799 56.0879 2.55462 56.5538 2.55462 57.1543V61.7929H0V53.4476H2.55462V54.7522H2.5854C2.85214 54.307 3.22148 53.9446 3.69342 53.665C4.16536 53.3855 4.68859 53.2405 5.25287 53.2405C6.42245 53.2405 7.22269 53.7582 7.65359 54.7936C8.27942 53.7582 9.21304 53.2405 10.4339 53.2405C12.2293 53.2405 13.1322 54.3587 13.1322 56.5952V61.8033Z" fill="white"/>
<path d="M19.1032 62C17.7285 62 16.641 61.6066 15.851 60.83C15.061 60.0535 14.6711 58.987 14.6711 57.6513C14.6711 56.2742 15.0815 55.1871 15.9023 54.4105C16.723 53.634 17.8311 53.2405 19.2264 53.2405C20.6011 53.2405 21.6784 53.634 22.4581 54.4105C23.2378 55.1871 23.6277 56.2225 23.6277 57.5064C23.6277 58.8938 23.2276 59.9913 22.4171 60.7886C21.5963 61.5962 20.4985 62 19.1032 62ZM19.1648 55.2181C18.5595 55.2181 18.0978 55.4252 17.7593 55.8497C17.4207 56.2639 17.2565 56.8644 17.2565 57.6306C17.2565 59.2355 17.8926 60.0328 19.1751 60.0328C20.3959 60.0328 21.0115 59.2044 21.0115 57.5581C21.0115 55.9947 20.3959 55.2181 19.1648 55.2181Z" fill="white"/>
<path d="M30.6656 55.7773C30.3578 55.6116 29.9987 55.5288 29.5883 55.5288C29.0343 55.5288 28.6034 55.7359 28.2854 56.1397C27.9776 56.5538 27.8134 57.113 27.8134 57.817V61.8033H25.2588V53.458H27.8134V55.0111H27.8442C28.2443 53.8825 28.9727 53.313 30.0295 53.313C30.2962 53.313 30.5117 53.3441 30.6553 53.4062V55.7773H30.6656Z" fill="white"/>
<path d="M38.7399 61.8034H36.3186V60.6023H36.2878C35.7338 61.5342 34.9131 62.0001 33.8256 62.0001C33.0253 62.0001 32.3892 61.7723 31.9276 61.3064C31.4659 60.8508 31.2402 60.2295 31.2402 59.4633C31.2402 57.8481 32.1943 56.9059 34.0923 56.6574L36.3391 56.3571C36.3391 55.446 35.8467 54.9904 34.872 54.9904C33.8871 54.9904 32.9535 55.2907 32.0609 55.8808V53.9446C32.42 53.7583 32.9022 53.5926 33.5178 53.458C34.1334 53.313 34.6976 53.2509 35.2003 53.2509C37.56 53.2509 38.7399 54.4416 38.7399 56.8127V61.8034ZM36.3391 58.4072V57.8481L34.8413 58.0448C34.0102 58.1587 33.5999 58.5315 33.5999 59.1734C33.5999 59.4633 33.7025 59.7118 33.9076 59.8982C34.1128 60.0846 34.3796 60.1778 34.7284 60.1778C35.2106 60.1778 35.6005 60.0121 35.898 59.6808C36.1853 59.3391 36.3391 58.9146 36.3391 58.4072Z" fill="white"/>
<path d="M48.189 58.3554H42.7925C42.8745 59.5668 43.6337 60.1777 45.0598 60.1777C45.9729 60.1777 46.7732 59.9603 47.4605 59.5254V61.3892C46.6911 61.8033 45.7062 62.0104 44.475 62.0104C43.1413 62.0104 42.1051 61.6376 41.3664 60.8922C40.6277 60.1467 40.2584 59.1009 40.2584 57.7652C40.2584 56.3778 40.6585 55.2803 41.4587 54.4726C42.259 53.665 43.2336 53.2612 44.4032 53.2612C45.6138 53.2612 46.5474 53.6236 47.2041 54.3484C47.8607 55.0732 48.189 56.0568 48.189 57.289V58.3554ZM45.819 56.7816C45.819 55.5909 45.3368 54.9904 44.3827 54.9904C43.9723 54.9904 43.6235 55.1664 43.3157 55.5081C43.0182 55.8497 42.8335 56.2743 42.7719 56.792H45.819V56.7816Z" fill="white"/>
<path d="M48.2094 0V42.4516C48.2094 42.6069 48.2094 42.7518 48.1991 42.8968V48.2084H41.9305V0.0828324L48.2094 0Z" fill="white"/>
<path d="M0.0821533 13.6053V42.4827C0.184748 42.462 0.287343 42.5241 0.277084 42.6483C0.277084 42.6898 0.266824 42.7312 0.256565 42.7726C0.246305 42.814 0.215527 42.8451 0.195008 42.8658C1.38511 43.5698 1.73393 45.1851 1.24148 46.4276C1.75445 47.0488 2.42132 47.5458 3.17026 47.8564L6.99706 47.2145L7.15095 13.8123L0.0821533 13.6053Z" fill="white"/>
<path d="M48.1991 48.1773H41.9203V0.745491L48.1991 0V48.1773Z" fill="white"/>
<path d="M49.2867 61.3167V61.1199C49.3175 61.151 49.3585 61.1717 49.3995 61.1821C49.4406 61.1924 49.4816 61.2028 49.5227 61.2028C49.5432 61.2028 49.5637 61.2028 49.5842 61.1924C49.6047 61.182 49.615 61.182 49.6253 61.1717C49.6355 61.1613 49.6458 61.151 49.656 61.1406C49.6663 61.1303 49.6663 61.1199 49.6663 61.1096C49.6663 61.0889 49.6663 61.0785 49.656 61.0682C49.6458 61.0578 49.6355 61.0474 49.615 61.0267C49.5945 61.006 49.574 61.006 49.5534 60.9957C49.5329 60.9853 49.5021 60.975 49.4816 60.9646C49.4098 60.9336 49.3688 60.9025 49.3277 60.8611C49.2867 60.8197 49.2764 60.7679 49.2764 60.7161C49.2764 60.6747 49.2867 60.6333 49.3072 60.6022C49.3277 60.5712 49.3482 60.5401 49.379 60.5194C49.4098 60.4987 49.4508 60.478 49.4919 60.478C49.5329 60.478 49.574 60.4676 49.6253 60.4676C49.6663 60.4676 49.7073 60.4676 49.7484 60.478C49.7894 60.4883 49.8099 60.4883 49.8407 60.4987V60.6851C49.8304 60.6747 49.8099 60.6643 49.7894 60.654C49.7689 60.6436 49.7586 60.6436 49.7381 60.6333C49.7176 60.6229 49.6971 60.6229 49.6868 60.6229C49.6766 60.6229 49.656 60.6229 49.6355 60.6229C49.615 60.6229 49.5945 60.6229 49.574 60.6333C49.5534 60.6436 49.5432 60.6436 49.5329 60.654C49.5227 60.6643 49.5124 60.6747 49.5021 60.6851C49.4919 60.6954 49.4919 60.7058 49.4919 60.7161C49.4919 60.7265 49.4919 60.7472 49.5021 60.7575C49.5124 60.7679 49.5227 60.7782 49.5329 60.7886C49.5432 60.7989 49.5637 60.8093 49.5842 60.8197C49.6047 60.83 49.6253 60.8404 49.656 60.8507C49.6868 60.8611 49.7176 60.8818 49.7484 60.8921C49.7791 60.9025 49.7997 60.9232 49.8202 60.9439C49.8407 60.9646 49.851 60.9853 49.8612 61.0164C49.8715 61.0474 49.8817 61.0785 49.8817 61.1096C49.8817 61.1613 49.8715 61.2028 49.851 61.2338C49.8304 61.2649 49.8099 61.2959 49.7791 61.3167C49.7484 61.3374 49.7073 61.3477 49.6663 61.3581C49.6253 61.3684 49.5842 61.3684 49.5329 61.3684C49.4816 61.3684 49.4406 61.3684 49.3995 61.3581C49.3585 61.3477 49.3175 61.327 49.2867 61.3167Z" fill="white"/>
<path d="M51 61.3477H50.8051V60.83C50.8051 60.7782 50.8051 60.7161 50.8153 60.6436C50.8051 60.6954 50.7948 60.7368 50.7845 60.7575L50.5794 61.3477H50.4255L50.2203 60.7575C50.21 60.7368 50.21 60.7058 50.1895 60.6333H50.1792C50.1895 60.7161 50.1895 60.799 50.1895 60.8611V61.3374H50.0151V60.4676H50.3023L50.4768 60.9853C50.487 61.0267 50.4973 61.0682 50.5075 61.1096C50.5178 61.0578 50.5281 61.0164 50.5383 60.9853L50.7127 60.4676H50.9897V61.3477H51Z" fill="white"/>
<path d="M0.0821533 13.6053V41.7993L0.718243 43.6527H7.13043V14.8167L0.0821533 13.6053Z" fill="white"/>
<path d="M41.9409 0C40.5456 7.85872 36.9856 13.5949 32.5432 20.0144C28.819 25.3881 24.6537 29.8404 18.9699 33.9923C12.4243 38.7759 6.13525 41.5611 2.66754 42.8865C2.40079 42.9693 2.18534 42.99 1.99041 42.99C1.0568 42.99 0.266814 42.3377 0.0718833 41.4679C6.67349e-05 43.9529 0.472004 45.2368 0.492523 45.2989C0.492523 45.2989 0.574599 45.4646 0.615637 45.5474C1.42614 47.1316 3.06766 48.2084 4.95541 48.2084C5.42734 48.2084 5.87876 48.136 6.30966 48.0117C10.1262 46.4068 15.6048 43.6941 21.3501 39.511C27.4545 35.0691 32.5843 29.8921 36.5957 24.1146C41.6126 16.8874 46.7526 8.89412 48.189 0H41.9409V0Z" fill="white"/>
<path d="M21.6476 27.3451L7.12017 13.6053H0.0821533L17.3284 30.9379C18.8776 29.7679 20.3036 28.5772 21.6476 27.3451Z" fill="white"/>
</g>
<defs>
<clipPath id="clip0c">
<rect width="51" height="62" fill="white"/>
</clipPath>
</defs>
</svg>
