<svg width="154" height="105" viewBox="0 0 154 105" fill="none" xmlns="http://www.w3.org/2000/svg">
<g clip-path="url(#clip0)">
<path d="M59.5258 3.20294L84.2803 0L91.5089 24.3779C91.5089 24.3779 89.2666 46.4426 91.1106 68.181L60.0864 64.9188C60.0864 64.9336 59.0389 66.9948 59.5258 3.20294Z" fill="#179FAE"/>
<path d="M69.2919 42.6169L69.4246 33.275L79.8546 31.0359L82.2149 42.4389L69.2919 42.6169Z" fill="#FBC19F"/>
<path d="M34.432 17.5123L12.4657 38.1831L15.2096 38.7614L12.9968 68.1217L21.1253 67.751V65.0522H16.021L16.1243 63.7177L21.1253 63.7473V61.0041L19.2813 60.8558L20.1074 50.209L21.1401 50.2238V47.3768H17.3045L17.8356 40.7485L38.3414 41.7568L62.5648 44.8856L56.5458 70.4498H33.1633C33.5321 70.8056 34.6533 71.903 35.3024 73.0447H58.8472C58.8472 73.0447 65.3677 44.8708 65.5595 44.0404C65.766 43.21 66.0611 43.1507 66.3414 43.0617C66.6217 42.9875 68.5542 43.1358 68.5542 43.1358L34.432 17.5123ZM39.138 39.0432L18.9272 36.2703L34.55 21.3974L47.3993 30.6058L59.3487 39.7994L39.138 39.0432ZM31.5995 71.0429H21.1253V70.4794H18.765L14.6195 71.1764V73.0744H33.7386C33.4141 72.674 32.5289 71.5916 31.5995 71.0429Z" fill="#038394"/>
<path d="M32.0128 50.7874V63.7474H32.7799L34.0781 50.7874H32.0128ZM32.0128 47.3917V50.2387L34.7715 50.3277L33.1045 64.3702L32.0128 64.4592V67.2321L35.7599 67.0541L38.1646 47.3768H32.0128V47.3917ZM32.0128 50.7874V63.7474H32.7799L34.0781 50.7874H32.0128Z" fill="#038394"/>
<path d="M86.6407 64.6073C86.6407 64.6073 82.2002 54.7908 81.4331 50.9206C80.666 47.0504 80.2381 42.0681 80.4889 39.9624C80.7545 37.8716 83.4542 34.1349 91.509 33.1858C99.5637 32.2368 107.323 34.1497 112.28 35.2766C116.854 36.3295 120.748 37.234 123.02 37.5751C123.418 37.6344 123.802 37.7085 124.185 37.8123C127.697 38.7613 140.457 42.2905 140.457 42.2905C140.457 42.2905 146.565 46.1904 141.269 60.5443C141.269 60.5443 138.584 65.7935 137.935 66.8019C136.518 68.9816 134.291 70.1086 132.107 70.3755C132.107 70.3755 127.505 70.8352 125.675 71.1762C123.861 71.5173 119.17 70.0493 119.17 70.0493C119.17 70.0493 119.952 66.4312 120.645 65.2152C121.545 65.4228 123.625 66.0011 125.174 65.9566C126.708 65.9122 130.617 65.408 132.447 64.8149C133.332 64.2514 134.512 63.2727 135.81 59.9808C135.81 59.9808 139.233 53.5453 137.846 47.0801C137.846 47.0801 124.687 43.3137 122.577 42.8985C120.468 42.4684 115.968 41.2228 105.288 39.2655C95.6396 37.4861 90.373 37.8123 85.9473 40.5407C85.4457 41.638 84.8999 44.6482 87.2455 51.6621C89.5911 58.6759 91.1992 61.9381 91.1992 61.9381L86.6407 64.6073Z" fill="#038393"/>
<path d="M118.683 46.5019C118.683 46.5019 121.412 46.0126 122.533 45.8495C123.654 45.6864 124.864 45.9533 125.941 46.1757C127.239 46.2795 129.142 45.9978 130.544 46.324C131.945 46.6502 133.804 47.5103 133.76 49.9273C133.715 52.3443 133.76 52.7595 133.76 52.7595C133.76 52.7595 133.406 55.2211 131.075 54.8503C128.729 54.4796 127.18 54.0644 124.422 54.8948C122.946 55.2804 120.689 55.6214 119.037 54.2275C118.683 53.6789 118.181 53.7827 118.683 46.5019Z" fill="#179FAE"/>
<path d="M111.543 60.1737C110.82 59.9216 110.038 59.9067 109.3 60.1292C107.678 60.6333 104.875 62.2496 104.875 67.4989C104.875 74.8983 110.436 74.4683 110.436 74.4683C110.436 74.4683 115.998 74.2755 115.998 67.1875C116.013 62.3831 113.165 60.7223 111.543 60.1737Z" fill="#038393"/>
<path d="M32.0126 44.0552H21.1254V71.0577H32.0126V44.0552Z" fill="#FBC19F"/>
<path d="M67.4479 21.4715V12.1444L77.627 10.0092L79.8841 21.6198L67.4479 21.4715Z" fill="#FBC19F"/>
<path d="M67.6398 50.0459V59.0616L80.0465 59.2543L78.0697 47.8661L67.6398 50.0459Z" fill="#FBC19F"/>
<path d="M153.926 65.3192L152.008 61.9383C152.008 61.9383 147.745 63.866 140.605 61.8345C140.207 61.7159 139.823 61.6121 139.454 61.5083C139.366 61.4786 138.761 62.6501 138.672 62.6353C138.584 62.6056 138.982 61.7307 138.908 61.7011C132.993 59.3878 130.913 58.6464 129.334 58.0829C127.623 57.4601 115.024 53.234 102.706 52.1071C97.5723 51.6474 90.9042 50.8912 87.7324 53.0709C87.7324 53.0709 84.9885 54.7465 87.4226 58.513C87.4226 58.513 88.1012 59.3878 88.8241 59.9513C89.7387 59.284 90.8747 57.9347 90.9042 57.8457C90.9337 57.7567 89.7683 56.4815 89.606 56.1552C89.4437 55.829 89.3552 55.4435 89.9748 55.2359C90.5944 55.0283 93.2203 54.1682 98.5164 54.7169C96.5691 55.0876 93.5449 55.3249 93.0138 57.4601C92.4679 59.5806 94.0612 61.9532 94.5038 62.3535C95.1086 62.5611 96.9969 62.828 97.3215 62.9467C97.646 62.7094 97.9558 61.9976 97.6018 61.4935C97.2477 60.9893 96.0085 59.6251 95.9642 58.8985C95.92 58.1867 96.2593 58.1126 98.7819 57.7122C101.305 57.3119 113.608 55.8735 133.76 63.9105C137.566 65.6306 137.758 65.6454 137.758 65.6454L137.964 65.3785C137.964 65.3489 147.568 68.8039 153.926 65.3192Z" fill="#F79B6D"/>
<path d="M0.17688 72.7928C0.811232 72.6446 13.5573 69.6937 21.1252 69.0116V70.0496C13.572 70.7465 0.575194 73.7715 0.412918 73.8012L0.17688 72.7928Z" fill="#FBC19F"/>
<path d="M140.929 84.8632L140.796 85.8864C136.99 85.4118 129.053 86.346 115.894 87.8734L113.077 88.1996C109.212 88.5851 106.114 88.7334 103.62 88.7334C95.6541 88.7334 93.8543 87.1764 93.0577 86.4795L92.9839 86.4054C91.8775 85.4563 92.0398 84.6704 92.3938 83.1283C92.7036 81.7492 92.7184 80.7261 92.4529 79.8215C92.3643 79.525 92.1726 79.2729 91.9218 79.0801C90.4023 78.0125 87.8206 77.0041 79.279 76.8855C70.5013 76.6631 57.8438 79.2877 50.2906 80.8744C47.5909 81.4378 45.6288 81.8382 44.6404 81.9568C40.7753 82.4165 38.9313 81.6306 36.8069 80.7261L36.7184 80.6816C34.9481 79.7326 34.7121 79.2284 34.5793 78.2497C34.5646 78.1608 34.5498 78.057 34.5351 77.968C34.417 77.2562 34.4318 76.3665 34.4465 75.2544C34.4465 74.8392 34.4613 74.3943 34.4613 73.905C33.7679 72.437 32.1599 71.3397 31.6731 71.0283H32.0272V70.0348C32.1304 70.0941 34.5203 71.4731 35.4497 73.5788L35.494 73.6826V73.8012C35.494 74.3499 35.494 74.8392 35.4792 75.284C35.4645 76.3517 35.4497 77.1821 35.553 77.8049C35.5677 77.9235 35.5825 78.0273 35.5972 78.1311C35.6857 78.7539 35.7152 78.9763 37.1757 79.7771L37.2052 79.7919C39.2853 80.6816 40.9228 81.3785 44.5224 80.9485C45.4813 80.8299 47.5024 80.4147 50.0841 79.8809C57.6963 78.2942 70.4276 75.6548 79.3085 75.8772C87.6288 75.9958 90.6088 76.9152 92.5266 78.2646C92.9692 78.576 93.2937 79.0356 93.456 79.5546C93.7806 80.6371 93.7658 81.8234 93.4265 83.3804C93.0724 84.967 93.0872 85.1449 93.6773 85.6343L93.7658 85.7084C97.2326 88.7334 109.094 87.562 112.988 87.1764L115.791 86.8502C129.467 85.2636 137.005 84.3739 140.929 84.8632Z" fill="#FBC19F"/>
<path d="M25.7282 98.5792L22.3646 92.5144H18.588V104.629H22.3646V98.5792L25.7282 104.629H29.5048V92.5144H25.7282V98.5792Z" fill="#F79B6D"/>
<path d="M2.1981 92.5144H0V96.4736H2.1981V104.629H6.13699V96.4736H8.32034V92.5144H6.13699H2.1981Z" fill="#F79B6D"/>
<path d="M57.1064 92.5144H54.9083V96.4736H57.1064V104.629H61.0453V96.4736H63.2287V92.5144H61.0453H57.1064Z" fill="#F79B6D"/>
<path d="M13.4395 100.018H16.567V96.9629H13.4395V95.8063H16.921V92.5144H13.4395H9.58911V95.8063V96.9629V100.018V101.278V104.629H13.4395H16.98V101.278H13.4395V100.018Z" fill="#F79B6D"/>
<path d="M49.9219 98.5792L46.5583 92.5144H42.7817V104.629H46.5583V98.5792L49.9219 104.629H53.6985V92.5144H49.9219V98.5792Z" fill="#F79B6D"/>
<path d="M36.1729 92.5144H33.96L30.0211 104.629H34.3141L34.6829 103.057H37.6481L38.0169 104.629H42.3098L38.371 92.5144H36.1729ZM35.3467 100.196L35.8926 97.8378L36.1581 96.1622L36.4236 97.8378L36.9695 100.196H35.3467Z" fill="#F79B6D"/>
<path d="M72.5226 99.9732C72.4636 98.09 70.5163 97.1113 69.2918 96.9333C68.6132 96.7702 67.7576 96.4143 68.1412 95.8657C68.4067 95.5691 69.2328 95.0205 71.1359 96.5478L72.3603 93.3745C72.3603 93.3745 70.236 91.6841 67.2118 92.381C65.6628 92.7666 63.0516 95.0205 64.4826 98.2382C64.7776 98.9797 65.6775 99.7211 67.315 100.062C67.9494 100.196 68.4657 100.477 68.3182 100.907C68.1707 101.337 67.5363 101.738 66.6069 101.293C65.6775 100.848 64.7186 100.151 64.7186 100.151L63.5089 103.532C63.5089 103.532 66.5036 105.638 69.2181 104.822C71.9325 103.977 72.5964 101.856 72.5226 99.9732Z" fill="#F79B6D"/>
<path d="M106.66 92.5144H104.461V96.4736H106.66V104.629H110.598V96.4736H112.797V92.5144H110.598H106.66Z" fill="#038394"/>
<path d="M94.0315 92.5144H89.9894V104.629H94.0315V92.5144Z" fill="#038394"/>
<path d="M141.195 92.5144H137.153V104.629H141.195V92.5144Z" fill="#038394"/>
<path d="M135.737 96.5922C135.737 92.633 131.916 92.5144 131.916 92.5144H126.236V104.629H130.145V100.729L132.078 104.629H136.533C136.533 104.629 136.533 104.629 133.642 99.7507C134.261 99.7507 135.737 98.9499 135.737 96.5922ZM131.886 97.1557C131.783 97.6895 131.311 98.0602 130.78 98.0602H130.16V95.6432H130.78C131.311 95.6432 131.798 96.0139 131.886 96.5477C131.901 96.6367 131.916 96.7405 131.916 96.8591C131.916 96.9481 131.901 97.0519 131.886 97.1557Z" fill="#038394"/>
<path d="M149.692 104.629H153.985L150.046 92.5144H147.834H145.621L141.682 104.629H145.975L146.344 103.057H149.309L149.692 104.629ZM147.022 100.196L147.568 97.8378L147.834 96.1622L148.099 97.8378L148.645 100.196H147.022Z" fill="#038394"/>
<path d="M83.5723 98.0899L83.351 99.7803L83.115 98.0899L81.5807 92.5144H77.2288L81.4627 104.629H83.1592H83.5428H85.2393L89.4732 92.5144H85.1213L83.5723 98.0899Z" fill="#038394"/>
<path d="M95.0496 98.5793C95.0496 103.68 98.9589 104.97 100.951 104.97C102.927 104.97 103.591 104.273 103.591 104.273V99.7804C103.591 99.7804 102.529 100.967 101.305 100.967C100.08 100.967 99.136 100.181 99.136 98.5793C99.136 96.9778 100.08 96.1919 101.305 96.1919C102.514 96.1919 103.591 97.3782 103.591 97.3782V92.8852C103.591 92.8852 102.927 92.1882 100.951 92.1882C98.9737 92.1734 95.0496 93.4783 95.0496 98.5793Z" fill="#038394"/>
<path d="M119.11 92.1733C115.821 92.1733 113.151 95.0352 113.151 98.5644C113.151 102.094 115.821 104.955 119.11 104.955C122.4 104.955 125.07 102.094 125.07 98.5644C125.07 95.0352 122.4 92.1733 119.11 92.1733ZM119.11 100.833C118.063 100.833 117.222 99.8248 117.222 98.5792C117.222 97.3336 118.063 96.3253 119.11 96.3253C120.158 96.3253 120.999 97.3336 120.999 98.5792C120.999 99.8248 120.158 100.833 119.11 100.833Z" fill="#038394"/>
</g>
<defs>
<clipPath id="clip0">
<rect width="154" height="105" fill="white"/>
</clipPath>
</defs>
</svg>
