<svg width="168" height="95" viewBox="0 0 168 95" fill="none" xmlns="http://www.w3.org/2000/svg">
<path d="M100.654 29.6693C94.2264 29.6693 88.9673 34.4924 88.9673 40.9232C88.9673 47.3539 94.2264 52.177 100.654 52.177C107.082 52.177 112.341 47.3539 112.341 40.9232C112.341 34.4924 107.082 29.6693 100.654 29.6693ZM100.654 46.1847C97.8786 46.1847 95.3951 43.7001 95.3951 40.9232C95.3951 38.1462 97.7325 35.6616 100.654 35.6616C103.576 35.6616 105.913 38.1462 105.913 40.9232C105.913 43.7001 103.868 46.1847 100.654 46.1847Z" fill="#305397"/>
<path d="M132.794 38.1463C132.794 33.7616 129.142 30.5463 124.759 30.5463H115.117V51.8847H120.668V46.1847H123.444L126.22 51.8847H132.648L128.995 44.577C131.187 42.9693 132.794 40.9232 132.794 38.1463ZM124.759 40.4847H120.815V35.2232H124.759C125.928 35.2232 126.804 36.8309 126.804 37.7078C127.096 38.877 126.366 40.4847 124.759 40.4847Z" fill="#305397"/>
<path d="M141.997 29.9614H136.445V51.2999H141.997V29.9614Z" fill="#305397"/>
<path d="M156.459 29.9614H154.414L144.772 51.2999H151.2L152.369 48.8153H159.527L160.696 51.2999H167.124L156.459 29.9614ZM153.684 44.1383L155.29 40.046L156.897 44.1383H153.684Z" fill="#305397"/>
<path d="M74.2122 29.9613L87.7983 0.438232H0.730469L14.3166 30.2536H20.7444L26.0035 41.5075L31.2626 30.2536H37.6905L28.0487 51.2998H24.1044L44.1183 94.9998L64.5705 50.569C62.9635 51.4459 60.9183 52.1767 59.3113 52.1767C53.3218 52.1767 48.0626 47.3536 48.0626 41.2152C48.0626 35.2229 52.8835 30.2536 59.3113 30.2536C63.2557 30.2536 66.4696 32.2998 68.5148 35.5152L63.6939 38.2921C62.9635 36.6844 61.3566 35.8075 59.3113 35.8075C56.5357 35.8075 54.0522 38.2921 54.0522 41.069C54.0522 43.8459 56.3896 46.3305 59.3113 46.3305C61.3566 46.3305 62.9635 45.1613 63.6939 43.8459L66.9079 45.8921L71.2905 35.8075H76.1113V51.8844H81.8087V35.8075H87.7983V29.8152H74.2122V29.9613ZM45.7253 51.4459H39.7357V30.3998H45.7253V51.4459Z" fill="#305397"/>
<path d="M82.9773 62.7002C82.2469 62.2617 80.9321 61.8233 80.2017 61.8233C79.033 61.8233 78.1564 62.2617 78.1564 62.9925C78.1564 63.8694 78.8869 64.1617 80.2017 64.1617H80.6399C82.6851 64.6002 83.8538 65.331 83.8538 66.9386C83.8538 69.4233 81.8086 70.5925 79.4712 70.5925C77.8643 70.5925 76.2573 70.154 75.0886 69.4233L76.2573 67.8156C76.9878 68.6925 78.3025 68.9848 79.4712 68.9848C80.6399 68.9848 81.5164 68.5463 81.5164 67.8156C81.5164 66.9387 80.786 66.6463 79.1791 66.6463H78.4486C76.4034 66.2079 75.2347 65.4771 75.2347 63.431C75.2347 61.3848 77.2799 60.2156 79.6173 60.2156C81.2243 60.2156 82.393 60.654 83.5617 61.3848L82.9773 62.7002Z" fill="#305397"/>
<path d="M91.0117 65.1843H88.236V67.9613C88.236 68.8382 88.6743 69.1305 89.4047 69.1305C89.843 69.1305 90.1351 68.692 90.5734 68.692L91.3038 70.2997C90.5734 70.7382 90.1351 71.1767 88.9664 71.1767C86.9212 71.1767 86.1908 70.0074 86.1908 68.3997V65.1843H85.0221V63.5767H86.629V61.092H88.6743V63.1382H91.4499V65.1843H91.0117Z" fill="#305397"/>
<path d="M93.7885 67.0846C93.7885 68.2538 94.5189 69.1307 95.8337 69.1307C97.0024 69.1307 97.8789 68.2538 97.8789 67.0846C97.8789 65.9154 97.1485 65.0384 95.8337 65.0384C94.665 65.1846 93.7885 65.9154 93.7885 67.0846ZM99.4859 70.7384H97.4407V69.8615C97.0024 70.3 96.272 70.7384 95.3955 70.7384C93.3502 70.7384 91.7433 69.1307 91.7433 66.6461C91.7433 64.6 93.3502 62.5538 95.3955 62.5538C96.5642 62.5538 97.0024 62.9923 97.4407 63.7231V62.8461H99.4859V70.7384Z" fill="#305397"/>
<path d="M106.644 65.1843H103.868V67.9613C103.868 68.8382 104.306 69.1305 105.037 69.1305C105.475 69.1305 105.767 68.692 106.206 68.692L106.936 70.2997C106.206 70.7382 105.767 71.1767 104.599 71.1767C102.553 71.1767 101.823 70.0074 101.823 68.3997V65.1843H100.216V63.5767H101.823V61.092H103.868V63.1382H106.644V65.1843Z" fill="#305397"/>
<path d="M109.419 66.3539H112.633C112.633 65.477 111.903 64.7462 111.026 64.7462C110.15 64.7462 109.419 65.477 109.419 66.3539ZM114.679 67.0847C114.679 67.5231 114.679 67.5231 114.679 67.9616H109.419C109.858 69.1308 110.15 69.5693 111.465 69.5693C112.195 69.5693 112.633 69.1308 113.51 68.6923L114.679 69.8616C113.948 70.7385 112.633 71.0308 111.465 71.0308C109.127 71.0308 107.812 69.4231 107.812 66.9385C107.812 64.4539 109.419 62.8462 111.465 62.8462C113.072 63.1385 114.679 64.7462 114.679 67.0847Z" fill="#305397"/>
<path d="M85.0225 75.2692L83.4156 76.8769C82.9773 76 81.8086 75.7077 81.0782 75.7077C79.033 75.7077 77.8643 77.3153 77.8643 79.3615C77.8643 81.4077 79.4712 83.0154 81.0782 83.0154C82.6851 83.0154 83.8538 82.1384 83.8538 80.5307H81.0782V78.923H85.899C85.899 79.3615 85.899 79.3615 85.899 79.3615C85.899 82.5769 83.8538 85.0615 80.6399 85.0615C77.8643 85.0615 75.0886 83.0154 75.0886 79.3615C75.0886 76.1461 77.426 73.6615 80.6399 73.6615C82.5391 73.6615 84.146 74.3923 85.0225 75.2692Z" fill="#305397"/>
<path d="M88.9667 80.823C88.9667 81.9923 89.6971 82.8692 91.0119 82.8692C92.1806 82.8692 93.0571 81.9923 93.0571 80.823C93.0571 79.6538 92.3267 78.7769 91.0119 78.7769C89.8432 78.923 88.9667 79.6538 88.9667 80.823ZM95.1023 80.823C95.1023 82.8692 93.4954 84.9153 91.158 84.9153C88.8206 84.9153 87.2136 83.3076 87.2136 80.823C87.2136 78.7769 88.8206 76.7307 91.158 76.7307C93.4954 76.8769 95.1023 78.4846 95.1023 80.823Z" fill="#305397"/>
<path d="M100.216 84.477H98.1703L95.3947 77.1693H97.4399L99.4851 82.4309L101.092 77.1693H103.429L100.216 84.477Z" fill="#305397"/>
<path d="M105.474 80.0923H108.688C108.688 79.2154 107.958 78.4846 107.081 78.4846C106.205 78.4846 105.913 79.2154 105.474 80.0923ZM110.733 80.8231C110.733 81.2615 110.733 81.2615 110.733 81.7H105.474C105.913 82.8692 106.205 83.3077 107.52 83.3077C108.25 83.3077 108.688 82.8692 109.565 82.4307L110.733 83.6C110.003 84.4769 108.688 84.7692 107.52 84.7692C105.182 84.7692 103.867 83.1615 103.867 80.6769C103.867 78.1923 105.474 76.5846 107.52 76.5846C109.126 76.8769 110.733 78.4846 110.733 80.8231Z" fill="#305397"/>
<path d="M117.162 77.1695L116.723 79.2157C116.285 79.2157 115.993 78.7772 115.555 78.7772C114.824 78.7772 113.948 79.2157 113.948 80.3849V84.4772H111.902V77.1695H113.948V78.0465C114.386 77.1696 115.116 77.1695 115.993 77.1695C116.285 76.8772 116.723 76.8772 117.162 77.1695Z" fill="#305397"/>
<path d="M125.196 79.6538V84.4769H123.151V80.3845C123.151 79.2153 122.713 78.7768 121.544 78.7768C120.814 78.7768 119.937 79.2153 119.937 80.3845V84.4769H117.892V77.1691H119.937V78.0461C120.375 77.1691 121.106 76.8768 121.982 76.8768C123.881 76.8768 125.196 78.0461 125.196 79.6538Z" fill="#305397"/>
<path d="M138.345 79.6538V84.4769H136.299V80.3845C136.299 79.2153 135.861 78.7768 134.692 78.7768C133.962 78.7768 133.085 79.2153 133.085 80.3845V84.4769H131.04V80.3845C131.04 79.2153 130.602 78.7768 129.433 78.7768C128.703 78.7768 127.826 79.2153 127.826 80.3845V84.4769H125.781V77.1691H127.826V78.0461C128.265 77.1691 128.995 76.8768 129.872 76.8768C131.04 76.8768 131.917 77.3153 132.209 78.0461C132.647 77.1691 133.816 76.8768 134.546 76.8768C137.614 76.8768 138.345 78.0461 138.345 79.6538Z" fill="#305397"/>
<path d="M141.996 80.0923H145.21C145.21 79.2154 144.48 78.4846 143.603 78.4846C142.435 78.4846 141.996 79.2154 141.996 80.0923ZM147.256 80.8231C147.256 81.2615 147.256 81.2615 147.256 81.7H141.996C142.435 82.8692 142.727 83.3077 144.042 83.3077C144.772 83.3077 145.21 82.8692 146.087 82.4307L147.256 83.6C146.525 84.4769 145.21 84.7692 144.042 84.7692C141.704 84.7692 140.389 83.1615 140.389 80.6769C140.389 78.1923 141.996 76.5846 144.042 76.5846C145.649 76.8769 147.256 78.4846 147.256 80.8231Z" fill="#305397"/>
<path d="M155.291 79.6538V84.4769H153.246V80.3845C153.246 79.2153 152.808 78.7768 151.639 78.7768C150.909 78.7768 150.032 79.2153 150.032 80.3845V84.4769H147.987V77.1691H150.032V78.0461C150.47 77.1691 151.201 76.8768 152.077 76.8768C153.976 76.8768 155.291 78.0461 155.291 79.6538Z" fill="#305397"/>
<path d="M162.01 78.9233H159.234V81.7002C159.234 82.5771 159.673 82.8694 160.403 82.8694C160.841 82.8694 161.134 82.431 161.572 82.431L162.302 84.0387C161.572 84.4771 161.134 84.9156 159.965 84.9156C157.92 84.9156 157.189 83.7463 157.189 82.1386V79.3617H155.582V77.3156H157.189V75.2694H159.234V77.3156H162.01V78.9233Z" fill="#305397"/>
</svg>
