<?xml version="1.0" encoding="UTF-8" standalone="no"?>
<!-- Created with Inkscape (http://www.inkscape.org/) -->

<svg
   version="1.1"
   id="svg18"
   width="248.93333"
   height="63.013332"
   viewBox="0 0 248.93333 63.013332"
   xmlns="http://www.w3.org/2000/svg"
   xmlns:svg="http://www.w3.org/2000/svg">
  <defs
     id="defs22" />
  <g
     id="g26"
     transform="matrix(1.3333333,0,0,-1.3333333,0,63.013333)">
    <g
       id="g28"
       transform="scale(0.1)">
      <path
         d="m 1004.08,27.6641 c 32.69,0 46.93,23.6328 46.93,51.7968 h -22.34 c -19.09,0 -57.283,0 -57.283,-26.875 0,-19.414 16.824,-24.9218 32.693,-24.9218 z m 46.93,12.9492 h -0.64 c -6.48,-23.3125 -25.9,-33.67189 -49.54,-33.67189 -29.443,0 -57.947,12.62499 -57.947,45.64449 0,45 44.039,47.5981 79.647,47.5981 h 28.48 v 8.738 c 0,23.625 -12.3,31.406 -35.6,31.406 -20.074,0 -36.59,-4.219 -38.527,-25.262 h -28.485 c 1.938,33.993 31.715,45.977 63.442,45.977 34.97,0 65.72,-7.441 65.72,-45.656 V 30.8945 h 25.9 V 10.1836 h -52.45 v 30.4297"
         style="fill:#211d1d;fill-opacity:1;fill-rule:nonzero;stroke:none"
         id="path30" />
      <path
         d="M 234.133,439.508 H 215.668 L 138.305,248.512 H 105.926 L 28.5469,439.508 H 10.4297 v 20.722 h 82.2305 v -20.722 h -32.711 l 63.4648,-162.188 64.41,162.188 h -32.687 v 20.722 h 78.996 v -20.722"
         style="fill:#211d1d;fill-opacity:1;fill-rule:nonzero;stroke:none"
         id="path32" />
      <path
         d="m 289.738,429.801 h -30.422 v 30.429 h 30.422 z M 237.621,269.227 h 25.586 v 106.191 h -25.586 v 20.711 h 52.117 V 269.227 h 25.586 v -20.715 h -77.703 v 20.715"
         style="fill:#211d1d;fill-opacity:1;fill-rule:nonzero;stroke:none"
         id="path34" />
      <path
         d="m 460.508,342.848 h -21.051 c -2.254,23.312 -18.121,38.203 -41.754,38.203 -31.402,0 -48.242,-25.899 -48.242,-56.336 0,-30.422 16.84,-56.328 48.242,-56.328 20.719,0 37.231,10.359 40.149,32.051 h 24.593 c -1.289,-35.93 -31.718,-52.766 -64.742,-52.766 -45.976,0 -76.726,28.808 -76.726,77.043 0,48.242 30.75,77.058 76.726,77.058 16.516,0 33.024,-6.804 41.442,-21.699 h 0.644 v 18.457 h 20.719 v -55.683"
         style="fill:#211d1d;fill-opacity:1;fill-rule:nonzero;stroke:none"
         id="path36" />
      <path
         d="M 581.402,377.809 H 533.16 v -86.114 c 0,-12.304 2.274,-23.308 16.199,-23.308 15.864,0 16.825,15.547 16.825,27.84 h 22.664 c 0,-30.43 -11.649,-48.555 -43.379,-48.555 -37.551,0 -38.84,25.566 -38.84,55.683 v 74.454 h -28.816 v 20.722 h 28.816 v 32.375 l 26.531,9.063 v -41.438 h 48.242 v -20.722"
         style="fill:#211d1d;fill-opacity:1;fill-rule:nonzero;stroke:none"
         id="path38" />
      <path
         d="m 681.469,265.555 c 33.34,0 48.89,25.906 48.89,56.328 0,30.43 -15.55,56.336 -48.89,56.336 -33.34,0 -50.184,-25.906 -50.184,-56.336 0,-30.422 16.844,-56.328 50.184,-56.328 z m 0,133.379 c 47.914,0 77.379,-28.809 77.379,-77.051 0,-48.235 -29.465,-77.051 -77.379,-77.051 -47.914,0 -78.672,28.816 -78.672,77.051 0,48.242 30.758,77.051 78.672,77.051"
         style="fill:#211d1d;fill-opacity:1;fill-rule:nonzero;stroke:none"
         id="path40" />
      <path
         d="m 767.051,268.797 h 25.57 v 106.18 h -25.57 v 20.722 h 52.121 v -30.105 h 0.644 c 4.539,22.332 22.989,33.34 45.329,33.34 4.855,0 8.418,-0.325 11.976,-0.645 v -21.691 c -4.207,0.644 -9.707,1.621 -15.863,1.621 -37.231,0 -42.086,-39.18 -42.086,-69.278 v -40.144 h 30.441 v -20.723 h -82.562 v 20.723"
         style="fill:#211d1d;fill-opacity:1;fill-rule:nonzero;stroke:none"
         id="path42" />
      <path
         d="m 951.043,429.801 h -30.426 v 30.429 h 30.426 z M 898.926,269.227 h 25.586 v 106.191 h -25.586 v 20.711 h 52.117 V 269.227 h 25.586 v -20.715 h -77.703 v 20.715"
         style="fill:#211d1d;fill-opacity:1;fill-rule:nonzero;stroke:none"
         id="path44" />
      <path
         d="m 1048.66,265.719 c 32.69,0 46.93,23.633 46.93,51.797 h -22.34 c -19.1,0 -57.29,0 -57.29,-26.875 0,-19.422 16.83,-24.922 32.7,-24.922 z m 46.93,12.949 h -0.64 c -6.48,-23.309 -25.9,-33.672 -49.54,-33.672 -29.45,0 -57.949,12.629 -57.949,45.645 0,45 44.039,47.589 79.649,47.589 h 28.48 v 8.75 c 0,23.622 -12.3,31.395 -35.61,31.395 -20.07,0 -36.58,-4.207 -38.52,-25.254 h -28.487 c 1.937,33.996 31.717,45.977 63.447,45.977 34.96,0 65.72,-7.442 65.72,-45.653 v -84.492 h 25.9 v -20.715 h -52.45 v 30.43"
         style="fill:#211d1d;fill-opacity:1;fill-rule:nonzero;stroke:none"
         id="path46" />
      <path
         d="M 28.7578,30.8945 H 61.1367 V 201.18 H 28.4453 v 20.722 H 207.465 V 154.891 H 182.867 V 201.18 H 89.6211 v -73.809 h 46.2929 v 27.52 h 24.609 V 75.5742 H 135.914 V 106.656 H 89.6211 V 30.8945 H 128.148 V 10.1836 H 28.7578 v 20.7109"
         style="fill:#211d1d;fill-opacity:1;fill-rule:nonzero;stroke:none"
         id="path48" />
      <path
         d="m 282.121,27.6641 c 33.34,0 48.895,25.8984 48.895,56.3281 0,30.4298 -15.555,56.3358 -48.895,56.3358 -33.34,0 -50.18,-25.906 -50.18,-56.3358 0,-30.4297 16.84,-56.3281 50.18,-56.3281 z m 0,133.3789 c 47.914,0 77.379,-28.82 77.379,-77.0508 0,-48.2422 -29.465,-77.05079 -77.379,-77.05079 -47.914,0 -78.668,28.80859 -78.668,77.05079 0,48.2308 30.754,77.0508 78.668,77.0508"
         style="fill:#211d1d;fill-opacity:1;fill-rule:nonzero;stroke:none"
         id="path50" />
      <path
         d="m 518.695,30.8945 h 25.571 V 10.1836 H 492.148 V 35.75 h -0.652 C 485.672,17.625 464.637,6.94141 443.254,6.94141 c -38.191,0 -53.731,19.10159 -53.731,53.74999 v 76.3946 h -25.585 v 20.723 H 416.07 V 66.1875 c 0,-23.6328 7.446,-38.5234 33.993,-38.5234 28.816,0 42.085,19.4218 42.085,46.289 v 63.1329 h -25.574 v 20.723 h 52.121 V 30.8945"
         style="fill:#211d1d;fill-opacity:1;fill-rule:nonzero;stroke:none"
         id="path52" />
      <path
         d="m 561.531,30.8945 h 25.586 V 137.086 h -25.586 v 20.723 h 52.125 v -26.875 h 0.645 c 7.133,18.769 27.523,30.109 49.535,30.109 36.898,0 52.449,-18.457 52.449,-53.742 V 30.8945 h 25.574 V 10.1836 h -77.695 v 20.7109 h 25.574 v 70.9105 c 0,23.621 -8.097,38.523 -34.004,38.523 -28.484,0 -42.078,-20.078 -42.078,-46.2967 V 30.8945 h 25.586 V 10.1836 h -77.711 v 20.7109"
         style="fill:#211d1d;fill-opacity:1;fill-rule:nonzero;stroke:none"
         id="path54" />
      <path
         d="m 832.801,140.504 c -33.672,0 -48.875,-24.93 -48.875,-56.3282 0,-29.1289 15.203,-56.3281 48.875,-56.3281 32.379,0 47.265,27.1992 47.265,56.3281 0,31.3982 -14.886,56.3282 -47.265,56.3282 z M 880.066,38.5313 h -0.644 C 871.652,19.7539 849.961,7.125 826.973,7.125 c -49.211,0 -71.551,33.0273 -71.551,77.0508 0,45.3322 27.523,77.0512 71.551,77.0512 21.047,0 44.347,-10.36 52.449,-30.43 h 0.644 v 70.566 h -26.214 v 20.723 h 52.761 V 31.082 H 932.52 V 10.3672 h -52.454 v 28.1641"
         style="fill:#211d1d;fill-opacity:1;fill-rule:nonzero;stroke:none"
         id="path56" />
      <path
         d="M 1207.34,137.086 H 1159.1 V 50.9727 c 0,-12.3047 2.27,-23.3086 16.2,-23.3086 15.86,0 16.82,15.5351 16.82,27.8398 h 22.66 c 0,-30.4375 -11.64,-48.56249 -43.38,-48.56249 -37.54,0 -38.83,25.57419 -38.83,55.68359 v 74.461 h -28.82 v 20.723 h 28.82 v 32.363 l 26.53,9.074 v -41.437 h 48.24 v -20.723"
         style="fill:#211d1d;fill-opacity:1;fill-rule:nonzero;stroke:none"
         id="path58" />
      <path
         d="m 1278.98,191.473 h -30.42 v 30.429 h 30.42 z M 1226.86,30.8945 h 25.59 V 137.086 h -25.59 v 20.723 h 52.12 V 30.8945 h 25.59 V 10.1836 h -77.71 v 20.7109"
         style="fill:#211d1d;fill-opacity:1;fill-rule:nonzero;stroke:none"
         id="path60" />
      <path
         d="m 1389.56,27.6641 c 33.34,0 48.89,25.8984 48.89,56.3281 0,30.4298 -15.55,56.3358 -48.89,56.3358 -33.34,0 -50.18,-25.906 -50.18,-56.3358 0,-30.4297 16.84,-56.3281 50.18,-56.3281 z m 0,133.3789 c 47.91,0 77.38,-28.82 77.38,-77.0508 0,-48.2422 -29.47,-77.05079 -77.38,-77.05079 -47.92,0 -78.67,28.80859 -78.67,77.05079 0,48.2308 30.75,77.0508 78.67,77.0508"
         style="fill:#211d1d;fill-opacity:1;fill-rule:nonzero;stroke:none"
         id="path62" />
      <path
         d="m 1477.29,30.8945 h 25.59 V 137.086 h -25.59 v 20.723 h 52.12 v -26.875 h 0.65 c 7.14,18.769 27.53,30.109 49.54,30.109 36.9,0 52.45,-18.457 52.45,-53.742 V 30.8945 h 25.57 V 10.1836 h -77.7 v 20.7109 h 25.58 v 70.9105 c 0,23.621 -8.1,38.523 -34,38.523 -28.49,0 -42.09,-20.078 -42.09,-46.2967 V 30.8945 H 1555 V 10.1836 h -77.71 v 20.7109"
         style="fill:#211d1d;fill-opacity:1;fill-rule:nonzero;stroke:none"
         id="path64" />
      <path
         d="m 1367.89,248.316 h -185.16 v 36.594 h 21.36 v 142.762 h -21.36 v 36.582 h 113.95 v -36.582 h -30.43 V 284.91 h 50.17 v 46.289 h 51.47 v -82.883"
         style="fill:#449ada;fill-opacity:1;fill-rule:nonzero;stroke:none"
         id="path66" />
      <path
         d="m 1486.22,318.621 c -11.66,0 -22.99,-0.969 -28.81,-2.266 -12.96,-3.234 -20.08,-10.363 -20.08,-20.39 0,-11.008 7.77,-17.481 21.05,-17.481 20.72,0 32.05,12.95 34.96,39.813 -3.24,0.324 -5.83,0.324 -7.12,0.324 z m -98.1,36.258 c 1.62,36.582 27.84,54.394 79.96,54.394 22.99,0 41.44,-3.886 54.39,-11.66 17.16,-10.359 24.61,-25.254 24.61,-49.851 V 283.98 h 18.13 v -35.937 h -69.28 v 27.199 c -11.98,-22.668 -28.81,-32.051 -55.68,-32.051 -36.91,0 -59.58,19.422 -59.58,50.497 0,19.433 10.7,35.617 29.46,44.679 12.64,5.828 29.14,8.426 55.69,8.75 19.42,0 19.42,0 25.9,0.645 0,16.191 -0.65,19.09 -4.21,23.633 -3.89,5.175 -10.04,7.761 -19.43,7.761 -15.53,0 -22.01,-6.797 -22.98,-24.277 h -56.98"
         style="fill:#449ada;fill-opacity:1;fill-rule:nonzero;stroke:none"
         id="path68" />
      <path
         d="m 1650.34,283.98 c 0.65,8.098 5.19,33.02 10.69,55.352 l 16.18,65.078 h 69.94 l 17.47,-71.543 c 5.83,-23.633 7.77,-34.637 8.75,-48.887 h 1.94 c 1.29,18.458 3.24,29.141 11.66,61.184 l 6.14,23.309 h -16.83 v 35.937 h 81.26 v -35.937 h -12.31 l -38.19,-120.43 h -75.44 l -14.24,58.926 c -5.18,21.367 -6.48,30.429 -8.42,55.031 h -1.29 c -0.98,-16.184 -4.2,-35.93 -8.41,-52.766 l -15.56,-61.191 h -75.42 l -37.23,120.43 h -11.66 v 35.937 h 89.35 v -35.937 h -17.47 l 9.06,-35.282 c 4.85,-20.714 7.77,-37.226 8.41,-49.211 h 1.62"
         style="fill:#449ada;fill-opacity:1;fill-rule:nonzero;stroke:none"
         id="path70" />
    </g>
  </g>
</svg>
