<svg viewBox="0 0 2560 1760" xmlns="http://www.w3.org/2000/svg" version="1.1">
<rect x="0" y="0" width="2560" height="1760" fill="#9c9592" />
<g transform="scale(10.000000) translate(0.5 0.5)">
<polygon fill="#000000" fill-opacity="0.501961" points="95,170 141,94 271,191" />
<polygon fill="#dde8f4" fill-opacity="0.501961" points="63,142 19,-4 271,-3" />
<polygon fill="#5a2a00" fill-opacity="0.501961" points="-16,20 2,191 60,152" />
<polygon fill="#000000" fill-opacity="0.501961" points="91,153 245,191 229,144" />
<polygon fill="#000000" fill-opacity="0.501961" points="195,46 196,101 216,72" />
<polygon fill="#dabfb6" fill-opacity="0.501961" points="102,141 199,120 164,154" />
<polygon fill="#623e2c" fill-opacity="0.501961" points="131,55 174,168 163,43" />
<polygon fill="#000008" fill-opacity="0.501961" points="164,158 124,191 85,135" />
<polygon fill="#dddddd" fill-opacity="0.501961" points="200,41 232,103 271,2" />
<polygon fill="#ded3c9" fill-opacity="0.501961" points="213,85 246,154 168,123" />
<polygon fill="#030000" fill-opacity="0.501961" points="208,54 184,50 222,94" />
<polygon fill="#dde6f1" fill-opacity="0.501961" points="177,102 175,40 153,99" />
<polygon fill="#c4c0c3" fill-opacity="0.501961" points="52,179 61,109 113,177" />
<polygon fill="#070b0c" fill-opacity="0.501961" points="163,135 120,100 172,101" />
<polygon fill="#cbcfd4" fill-opacity="0.501961" points="51,-16 135,125 70,142" />
<polygon fill="#b17d44" fill-opacity="0.501961" points="228,72 271,63 255,191" />
<polygon fill="#0c040c" fill-opacity="0.501961" points="177,133 235,155 157,183" />
<polygon fill="#c8c2c1" fill-opacity="0.501961" points="175,135 115,147 114,130" />
<polygon fill="#030000" fill-opacity="0.501961" points="170,64 158,48 141,50" />
<polygon fill="#300200" fill-opacity="0.501961" points="215,79 176,87 184,96" />
<polygon fill="#a9afb4" fill-opacity="0.501961" points="-16,-7 78,163 37,-7" />
<polygon fill="#d4dce3" fill-opacity="0.501961" points="99,13 204,40 177,60" />
<polygon fill="#000921" fill-opacity="0.501961" points="90,148 133,159 97,134" />
<polygon fill="#745235" fill-opacity="0.501961" points="55,113 51,189 -16,144" />
<polygon fill="#917455" fill-opacity="0.501961" points="23,49 -9,55 38,134" />
<polygon fill="#3e2a22" fill-opacity="0.501961" points="169,131 123,104 130,132" />
<polygon fill="#d5a589" fill-opacity="0.501961" points="155,100 148,47 130,99" />
<polygon fill="#cbc5c1" fill-opacity="0.501961" points="174,134 237,102 170,95" />
<polygon fill="#d4e2ea" fill-opacity="0.501961" points="60,95 98,6 50,-16" />
<polygon fill="#cc8f68" fill-opacity="0.501961" points="200,68 189,102 181,51" />
<polygon fill="#aa9886" fill-opacity="0.501961" points="205,149 224,143 182,101" />
<polygon fill="#a76b52" fill-opacity="0.501961" points="165,162 147,149 178,128" />
<polygon fill="#000000" fill-opacity="0.501961" points="154,149 119,152 148,177" />
<polygon fill="#c3c4c8" fill-opacity="0.501961" points="167,39 271,79 255,9" />
<polygon fill="#ccbdb2" fill-opacity="0.501961" points="228,119 262,191 237,169" />
<polygon fill="#cf8658" fill-opacity="0.501961" points="123,111 138,122 103,140" />
<polygon fill="#71605c" fill-opacity="0.501961" points="219,148 214,174 238,186" />
<polygon fill="#000000" fill-opacity="0.501961" points="185,55 179,64 198,55" />
<polygon fill="#0b0400" fill-opacity="0.501961" points="139,70 141,52 133,60" />
<polygon fill="#d0dbe3" fill-opacity="0.501961" points="113,34 134,9 134,97" />
<polygon fill="#afb0b4" fill-opacity="0.501961" points="118,77 106,-16 82,162" />
<polygon fill="#210700" fill-opacity="0.501961" points="208,75 200,102 193,91" />
<polygon fill="#adaeb0" fill-opacity="0.501961" points="27,-2 32,116 63,112" />
<polygon fill="#c1c0c4" fill-opacity="0.501961" points="197,2 265,54 217,83" />
<polygon fill="#010007" fill-opacity="0.501961" points="171,147 196,134 223,191" />
<polygon fill="#262728" fill-opacity="0.501961" points="124,131 173,133 170,105" />
<polygon fill="#2e190e" fill-opacity="0.501961" points="224,97 226,89 207,78" />
<polygon fill="#11273d" fill-opacity="0.501961" points="124,145 131,191 93,150" />
<polygon fill="#8f633f" fill-opacity="0.501961" points="271,163 230,109 262,191" />
<polygon fill="#0f0500" fill-opacity="0.501961" points="176,87 185,95 177,75" />
<polygon fill="#87543c" fill-opacity="0.501961" points="154,95 168,60 136,97" />
<polygon fill="#c3b9b0" fill-opacity="0.501961" points="206,85 233,110 183,137" />
<polygon fill="#ffdeba" fill-opacity="0.501961" points="153,171 180,191 123,191" />
<polygon fill="#412c1d" fill-opacity="0.501961" points="49,147 -16,147 -16,165" />
<polygon fill="#bbb8bb" fill-opacity="0.501961" points="172,133 147,149 124,132" />
<polygon fill="#cdd3d9" fill-opacity="0.501961" points="181,53 176,80 146,14" />
<polygon fill="#aba4a3" fill-opacity="0.501961" points="46,191 59,127 103,125" />
<polygon fill="#f0c8af" fill-opacity="0.501961" points="158,61 136,71 148,55" />
<polygon fill="#a7aaac" fill-opacity="0.501961" points="45,53 33,-16 -16,51" />
<polygon fill="#d6dae2" fill-opacity="0.501961" points="96,122 106,133 124,99" />
<polygon fill="#9c7e67" fill-opacity="0.501961" points="56,183 -14,183 55,153" />
<polygon fill="#2c180b" fill-opacity="0.501961" points="187,151 236,158 227,145" />
<polygon fill="#663e27" fill-opacity="0.501961" points="106,131 120,133 114,141" />
<polygon fill="#050000" fill-opacity="0.501961" points="207,53 198,67 215,83" />
<polygon fill="#b7b2b2" fill-opacity="0.501961" points="61,168 66,121 111,172" />
<polygon fill="#b89b77" fill-opacity="0.501961" points="264,71 235,115 232,65" />
<polygon fill="#111a2d" fill-opacity="0.501961" points="153,172 185,137 210,141" />
<polygon fill="#c2c7d1" fill-opacity="0.501961" points="172,127 173,78 192,131" />
<polygon fill="#998268" fill-opacity="0.501961" points="4,49 30,84 -16,85" />
<polygon fill="#c99276" fill-opacity="0.501961" points="194,59 181,88 201,79" />
<polygon fill="#9c8b7b" fill-opacity="0.501961" points="191,131 188,119 223,133" />
<polygon fill="#000004" fill-opacity="0.501961" points="271,163 250,169 271,178" />
<polygon fill="#030000" fill-opacity="0.501961" points="146,181 114,148 154,152" />
<polygon fill="#5d4531" fill-opacity="0.501961" points="-3,85 30,85 31,98" />
<polygon fill="#24201e" fill-opacity="0.501961" points="140,51 164,56 151,47" />
<polygon fill="#ccbcaf" fill-opacity="0.501961" points="205,143 200,148 219,144" />
<polygon fill="#bc9078" fill-opacity="0.501961" points="138,100 137,69 159,63" />
<polygon fill="#3e1808" fill-opacity="0.501961" points="164,61 164,68 154,71" />
<polygon fill="#ffd2ac" fill-opacity="0.501961" points="135,173 151,188 102,191" />
<polygon fill="#d1cbc6" fill-opacity="0.501961" points="203,99 217,87 235,146" />
<polygon fill="#17293d" fill-opacity="0.501961" points="134,169 97,132 118,191" />
<polygon fill="#7d411b" fill-opacity="0.501961" points="185,138 173,137 181,127" />
<polygon fill="#132b47" fill-opacity="0.501961" points="153,168 187,151 166,183" />
<polygon fill="#d09d7f" fill-opacity="0.501961" points="177,76 190,94 185,61" />
<polygon fill="#cfd7de" fill-opacity="0.501961" points="126,12 159,26 127,64" />
<polygon fill="#b8c1ca" fill-opacity="0.501961" points="54,108 112,141 38,25" />
<polygon fill="#8a6646" fill-opacity="0.501961" points="4,115 51,145 55,116" />
<polygon fill="#bb8465" fill-opacity="0.501961" points="174,133 159,160 160,135" />
<polygon fill="#7e6245" fill-opacity="0.501961" points="244,113 245,94 271,96" />
<polygon fill="#240a00" fill-opacity="0.501961" points="201,99 195,88 206,68" />
<polygon fill="#bfc1c5" fill-opacity="0.501961" points="232,101 231,69 202,42" />
<polygon fill="#95785d" fill-opacity="0.501961" points="207,114 215,123 205,100" />
<polygon fill="#cfd7df" fill-opacity="0.501961" points="173,82 160,83 171,48" />
<polygon fill="#020000" fill-opacity="0.501961" points="237,186 252,191 232,160" />
<polygon fill="#d2eeff" fill-opacity="0.501961" points="252,108 259,108 253,114" />
<polygon fill="#e2b49a" fill-opacity="0.501961" points="138,123 118,122 120,128" />
<polygon fill="#312d2c" fill-opacity="0.501961" points="122,100 170,102 127,112" />
<polygon fill="#beb2a9" fill-opacity="0.501961" points="246,148 229,138 247,188" />
<polygon fill="#c4c7ce" fill-opacity="0.501961" points="108,101 123,69 141,99" />
<polygon fill="#c6c9ce" fill-opacity="0.501961" points="113,7 163,52 232,47" />
<polygon fill="#1f110c" fill-opacity="0.501961" points="211,76 203,80 226,92" />
<polygon fill="#b6b1b2" fill-opacity="0.501961" points="172,82 149,99 180,102" />
<polygon fill="#000000" fill-opacity="0.501961" points="129,120 133,122 139,120" />
<polygon fill="#c7bcb3" fill-opacity="0.501961" points="204,141 223,138 197,126" />
<polygon fill="#ad8357" fill-opacity="0.501961" points="232,107 235,131 268,151" />
<polygon fill="#dab4a2" fill-opacity="0.501961" points="160,76 141,70 137,78" />
<polygon fill="#000000" fill-opacity="0.501961" points="183,93 186,90 180,89" />
<polygon fill="#dfbaa3" fill-opacity="0.501961" points="121,121 134,118 114,117" />
<polygon fill="#b9bbbe" fill-opacity="0.501961" points="126,140 111,140 116,147" />
<polygon fill="#94908f" fill-opacity="0.501961" points="119,131 146,148 131,149" />
<polygon fill="#937455" fill-opacity="0.501961" points="6,56 25,92 24,51" />
<polygon fill="#a9aaad" fill-opacity="0.501961" points="29,-4 47,81 24,83" />
<polygon fill="#302e2d" fill-opacity="0.501961" points="169,133 170,114 127,130" />
<polygon fill="#322620" fill-opacity="0.501961" points="203,56 191,51 179,60" />
<polygon fill="#5f4832" fill-opacity="0.501961" points="-16,180 11,164 2,105" />
<polygon fill="#ccc5bc" fill-opacity="0.501961" points="196,121 197,97 187,92" />
<polygon fill="#c6c2be" fill-opacity="0.501961" points="234,95 233,106 198,101" />
<polygon fill="#af9b8e" fill-opacity="0.501961" points="96,186 90,147 123,191" />
<polygon fill="#a0765e" fill-opacity="0.501961" points="158,74 137,85 139,97" />
<polygon fill="#d0d9df" fill-opacity="0.501961" points="76,88 56,-16 94,26" />
<polygon fill="#b5a99f" fill-opacity="0.501961" points="222,138 243,139 252,173" />
<polygon fill="#39271b" fill-opacity="0.501961" points="227,144 213,169 211,148" />
<polygon fill="#0c0000" fill-opacity="0.501961" points="199,144 216,173 177,168" />
<polygon fill="#3f2411" fill-opacity="0.501961" points="217,141 199,141 209,144" />
<polygon fill="#352822" fill-opacity="0.501961" points="157,49 167,58 138,53" />
<polygon fill="#d6b099" fill-opacity="0.501961" points="164,67 144,54 140,65" />
<polygon fill="#bfbdc2" fill-opacity="0.501961" points="190,-16 181,56 271,10" />
<polygon fill="#5d565d" fill-opacity="0.501961" points="185,172 220,185 141,187" />
<polygon fill="#c1c3ca" fill-opacity="0.501961" points="181,127 186,134 197,134" />
<polygon fill="#ac8b77" fill-opacity="0.501961" points="170,143 156,136 179,140" />
<polygon fill="#9b8777" fill-opacity="0.501961" points="197,129 184,111 185,95" />
<polygon fill="#ac7862" fill-opacity="0.501961" points="165,137 154,158 157,140" />
<polygon fill="#a5a0a2" fill-opacity="0.501961" points="55,152 103,127 57,129" />
<polygon fill="#a58969" fill-opacity="0.501961" points="38,109 17,116 54,115" />
<polygon fill="#172839" fill-opacity="0.501961" points="95,152 99,134 123,182" />
<polygon fill="#9c5e3a" fill-opacity="0.501961" points="209,74 187,91 199,74" />
<polygon fill="#12192a" fill-opacity="0.501961" points="169,175 160,190 166,151" />
<polygon fill="#281006" fill-opacity="0.501961" points="179,66 181,63 182,69" />
<polygon fill="#7a5d47" fill-opacity="0.501961" points="2,153 21,171 56,152" />
<polygon fill="#010000" fill-opacity="0.501961" points="124,153 120,144 123,144" />
<polygon fill="#ceb19c" fill-opacity="0.501961" points="184,61 196,63 176,75" />
<polygon fill="#babec4" fill-opacity="0.501961" points="82,15 123,89 116,-16" />
<polygon fill="#ccd2d8" fill-opacity="0.501961" points="112,15 178,62 191,44" />
<polygon fill="#cdc8c4" fill-opacity="0.501961" points="202,101 208,84 214,87" />
<polygon fill="#9d918f" fill-opacity="0.501961" points="175,91 175,82 162,94" />
<polygon fill="#060000" fill-opacity="0.501961" points="144,179 120,151 154,150" />
<polygon fill="#b0806a" fill-opacity="0.501961" points="168,157 174,130 167,140" />
<polygon fill="#b49879" fill-opacity="0.501961" points="232,68 234,114 262,66" />
<polygon fill="#c6c8ce" fill-opacity="0.501961" points="188,114 170,102 188,133" />
<polygon fill="#bf8361" fill-opacity="0.501961" points="162,60 144,53 163,67" />
</g>
</svg>
