<svg 
     viewBox="0 0 1080 743"
     xmlns="http://www.w3.org/2000/svg"
>
<polygon points="532,393 625,438 590,368" style="fill:rgb(189,183,173)"/>
<polygon points="532,393 603,484 625,438" style="fill:rgb(194,188,183)"/>
<polygon points="532,393 571,508 603,484" style="fill:rgb(197,191,187)"/>
<polygon points="532,393 488,461 571,508" style="fill:rgb(170,162,149)"/>
<polygon points="625,438 638,318 590,368" style="fill:rgb(152,135,109)"/>
<polygon points="590,368 446,226 532,393" style="fill:rgb(207,208,214)"/>
<polygon points="488,461 474,492 571,508" style="fill:rgb(175,167,153)"/>
<polygon points="638,318 626,298 590,368" style="fill:rgb(207,207,208)"/>
<polygon points="625,438 677,318 638,318" style="fill:rgb(150,124,93)"/>
<polygon points="638,318 677,318 626,298" style="fill:rgb(45,50,40)"/>
<polygon points="474,492 518,559 571,508" style="fill:rgb(165,156,142)"/>
<polygon points="571,508 613,590 603,484" style="fill:rgb(187,180,173)"/>
<polygon points="632,271 625,272 626,298" style="fill:rgb(96,103,101)"/>
<polygon points="626,298 446,226 590,368" style="fill:rgb(213,214,220)"/>
<polygon points="677,318 632,271 626,298" style="fill:rgb(31,41,35)"/>
<polygon points="384,300 418,411 532,393" style="fill:rgb(185,186,185)"/>
<polygon points="532,393 418,411 488,461" style="fill:rgb(173,172,163)"/>
<polygon points="488,461 394,479 474,492" style="fill:rgb(177,149,86)"/>
<polygon points="474,492 467,614 518,559" style="fill:rgb(170,159,141)"/>
<polygon points="771,417 740,386 625,438" style="fill:rgb(181,147,132)"/>
<polygon points="625,438 740,386 677,318" style="fill:rgb(161,127,98)"/>
<polygon points="771,417 625,438 781,480" style="fill:rgb(145,108,87)"/>
<polygon points="518,559 613,590 571,508" style="fill:rgb(171,163,152)"/>
<polygon points="573,630 626,595 613,590" style="fill:rgb(145,136,121)"/>
<polygon points="613,590 626,595 603,484" style="fill:rgb(142,132,115)"/>
<polygon points="418,411 394,479 488,461" style="fill:rgb(154,149,129)"/>
<polygon points="781,480 625,438 760,546" style="fill:rgb(152,133,115)"/>
<polygon points="726,257 690,251 677,318" style="fill:rgb(114,90,52)"/>
<polygon points="626,595 675,590 603,484" style="fill:rgb(184,176,170)"/>
<polygon points="632,271 656,197 625,272" style="fill:rgb(174,177,177)"/>
<polygon points="677,318 690,251 632,271" style="fill:rgb(26,33,25)"/>
<polygon points="773,352 677,318 740,386" style="fill:rgb(173,127,103)"/>
<polygon points="771,417 773,352 740,386" style="fill:rgb(227,203,199)"/>
<polygon points="534,660 573,630 518,559" style="fill:rgb(203,198,197)"/>
<polygon points="518,559 573,630 613,590" style="fill:rgb(156,148,133)"/>
<polygon points="626,595 642,639 675,590" style="fill:rgb(192,185,181)"/>
<polygon points="729,573 625,438 603,484" style="fill:rgb(215,211,212)"/>
<polygon points="771,417 833,394 773,352" style="fill:rgb(220,214,214)"/>
<polygon points="678,645 729,573 675,590" style="fill:rgb(208,203,203)"/>
<polygon points="675,590 729,573 603,484" style="fill:rgb(216,213,214)"/>
<polygon points="770,304 726,257 677,318" style="fill:rgb(157,122,92)"/>
<polygon points="729,573 760,546 625,438" style="fill:rgb(181,171,163)"/>
<polygon points="773,352 770,304 677,318" style="fill:rgb(154,123,108)"/>
<polygon points="442,614 467,614 474,492" style="fill:rgb(123,88,24)"/>
<polygon points="446,226 384,300 532,393" style="fill:rgb(199,200,205)"/>
<polygon points="418,411 246,460 394,479" style="fill:rgb(156,152,130)"/>
<polygon points="446,226 626,298 625,272" style="fill:rgb(216,216,222)"/>
<polygon points="573,630 642,639 626,595" style="fill:rgb(134,125,107)"/>
<polygon points="656,197 446,226 625,272" style="fill:rgb(219,218,225)"/>
<polygon points="671,176 656,197 690,251" style="fill:rgb(42,45,31)"/>
<polygon points="690,251 656,197 632,271" style="fill:rgb(38,44,35)"/>
<polygon points="394,479 442,614 474,492" style="fill:rgb(174,135,57)"/>
<polygon points="467,614 534,660 518,559" style="fill:rgb(186,179,173)"/>
<polygon points="573,630 632,678 642,639" style="fill:rgb(200,195,192)"/>
<polygon points="521,687 534,660 467,614" style="fill:rgb(155,141,120)"/>
<polygon points="632,678 678,645 642,639" style="fill:rgb(210,197,193)"/>
<polygon points="642,639 678,645 675,590" style="fill:rgb(200,194,191)"/>
<polygon points="768,627 816,562 760,546" style="fill:rgb(143,128,112)"/>
<polygon points="781,480 833,394 771,417" style="fill:rgb(220,211,209)"/>
<polygon points="773,352 836,279 770,304" style="fill:rgb(189,169,162)"/>
<polygon points="871,485 833,394 781,480" style="fill:rgb(217,212,209)"/>
<polygon points="760,205 690,251 726,257" style="fill:rgb(101,87,57)"/>
<polygon points="691,161 671,176 690,251" style="fill:rgb(56,56,39)"/>
<polygon points="656,197 512,0 446,226" style="fill:rgb(221,220,225)"/>
<polygon points="770,304 764,236 726,257" style="fill:rgb(197,166,149)"/>
<polygon points="794,239 764,236 770,304" style="fill:rgb(229,206,203)"/>
<polygon points="534,660 632,678 573,630" style="fill:rgb(187,181,172)"/>
<polygon points="494,731 521,687 467,614" style="fill:rgb(131,113,80)"/>
<polygon points="534,660 521,687 632,678" style="fill:rgb(169,160,145)"/>
<polygon points="768,627 760,546 729,573" style="fill:rgb(201,191,188)"/>
<polygon points="760,546 816,562 781,480" style="fill:rgb(155,128,109)"/>
<polygon points="768,627 729,573 726,668" style="fill:rgb(197,189,185)"/>
<polygon points="794,239 760,205 764,236" style="fill:rgb(172,155,143)"/>
<polygon points="764,236 760,205 726,257" style="fill:rgb(144,123,91)"/>
<polygon points="760,205 691,161 690,251" style="fill:rgb(82,74,48)"/>
<polygon points="671,176 512,0 656,197" style="fill:rgb(224,223,225)"/>
<polygon points="836,279 794,239 770,304" style="fill:rgb(228,213,211)"/>
<polygon points="726,668 729,573 678,645" style="fill:rgb(209,204,203)"/>
<polygon points="246,460 332,564 394,479" style="fill:rgb(210,176,109)"/>
<polygon points="394,479 332,564 442,614" style="fill:rgb(219,185,123)"/>
<polygon points="442,614 494,731 467,614" style="fill:rgb(102,73,21)"/>
<polygon points="683,698 726,668 678,645" style="fill:rgb(174,147,127)"/>
<polygon points="833,394 836,279 773,352" style="fill:rgb(210,205,209)"/>
<polygon points="800,170 740,154 760,205" style="fill:rgb(119,116,105)"/>
<polygon points="871,485 853,532 912,521" style="fill:rgb(230,229,230)"/>
<polygon points="816,562 853,532 781,480" style="fill:rgb(226,210,208)"/>
<polygon points="833,394 1080,364 836,279" style="fill:rgb(221,220,222)"/>
<polygon points="660,723 683,698 632,678" style="fill:rgb(154,114,86)"/>
<polygon points="632,678 683,698 678,645" style="fill:rgb(189,159,141)"/>
<polygon points="853,532 871,485 781,480" style="fill:rgb(221,216,214)"/>
<polygon points="239,504 323,596 332,564" style="fill:rgb(169,131,51)"/>
<polygon points="332,564 374,655 442,614" style="fill:rgb(214,182,119)"/>
<polygon points="816,214 760,205 794,239" style="fill:rgb(143,129,112)"/>
<polygon points="760,205 740,154 691,161" style="fill:rgb(84,81,65)"/>
<polygon points="323,596 374,655 332,564" style="fill:rgb(183,146,68)"/>
<polygon points="836,279 816,214 794,239" style="fill:rgb(211,196,182)"/>
<polygon points="629,743 660,723 632,678" style="fill:rgb(125,97,75)"/>
<polygon points="683,698 761,715 726,668" style="fill:rgb(171,138,116)"/>
<polygon points="629,743 632,678 521,687" style="fill:rgb(152,141,122)"/>
<polygon points="476,743 494,731 442,614" style="fill:rgb(165,125,46)"/>
<polygon points="494,731 629,743 521,687" style="fill:rgb(126,110,81)"/>
<polygon points="816,214 800,170 760,205" style="fill:rgb(143,138,125)"/>
<polygon points="228,431 418,411 226,336" style="fill:rgb(165,166,155)"/>
<polygon points="228,431 246,460 418,411" style="fill:rgb(155,155,138)"/>
<polygon points="374,655 476,743 442,614" style="fill:rgb(216,183,121)"/>
<polygon points="494,731 476,743 629,743" style="fill:rgb(118,95,51)"/>
<polygon points="912,521 853,532 847,647" style="fill:rgb(227,225,225)"/>
<polygon points="912,521 913,505 871,485" style="fill:rgb(227,224,221)"/>
<polygon points="871,485 975,472 833,394" style="fill:rgb(229,203,156)"/>
<polygon points="836,279 1080,364 816,214" style="fill:rgb(232,231,233)"/>
<polygon points="847,647 816,562 768,627" style="fill:rgb(156,145,131)"/>
<polygon points="246,460 239,504 332,564" style="fill:rgb(176,138,60)"/>
<polygon points="323,596 288,626 374,655" style="fill:rgb(155,118,39)"/>
<polygon points="660,723 761,715 683,698" style="fill:rgb(153,116,97)"/>
<polygon points="726,668 761,715 768,627" style="fill:rgb(176,144,126)"/>
<polygon points="629,743 761,715 660,723" style="fill:rgb(213,214,223)"/>
<polygon points="226,336 418,411 384,300" style="fill:rgb(177,178,172)"/>
<polygon points="246,460 230,489 239,504" style="fill:rgb(152,120,48)"/>
<polygon points="847,647 853,532 816,562" style="fill:rgb(175,157,144)"/>
<polygon points="833,682 847,647 768,627" style="fill:rgb(217,196,191)"/>
<polygon points="228,431 230,489 246,460" style="fill:rgb(177,150,90)"/>
<polygon points="239,504 288,626 323,596" style="fill:rgb(142,107,31)"/>
<polygon points="374,655 399,743 476,743" style="fill:rgb(204,169,100)"/>
<polygon points="259,635 288,626 229,623" style="fill:rgb(32,46,31)"/>
<polygon points="152,221 226,336 384,300" style="fill:rgb(189,191,191)"/>
<polygon points="761,715 833,682 768,627" style="fill:rgb(207,177,173)"/>
<polygon points="847,647 863,692 912,521" style="fill:rgb(215,212,210)"/>
<polygon points="339,743 399,743 374,655" style="fill:rgb(159,121,42)"/>
<polygon points="229,623 288,626 239,504" style="fill:rgb(31,42,24)"/>
<polygon points="288,626 339,743 374,655" style="fill:rgb(143,107,30)"/>
<polygon points="871,705 863,692 833,682" style="fill:rgb(98,89,72)"/>
<polygon points="833,682 863,692 847,647" style="fill:rgb(202,195,187)"/>
<polygon points="1080,743 966,497 912,521" style="fill:rgb(59,70,66)"/>
<polygon points="912,521 966,497 913,505" style="fill:rgb(75,83,80)"/>
<polygon points="913,505 975,472 871,485" style="fill:rgb(234,230,223)"/>
<polygon points="816,214 1080,0 800,170" style="fill:rgb(234,233,235)"/>
<polygon points="966,497 975,472 913,505" style="fill:rgb(217,215,213)"/>
<polygon points="761,715 814,743 833,682" style="fill:rgb(218,211,217)"/>
<polygon points="629,743 814,743 761,715" style="fill:rgb(218,222,234)"/>
<polygon points="288,743 339,743 288,626" style="fill:rgb(31,39,20)"/>
<polygon points="184,536 239,504 230,489" style="fill:rgb(65,81,62)"/>
<polygon points="184,536 229,623 239,504" style="fill:rgb(44,60,44)"/>
<polygon points="259,635 288,743 288,626" style="fill:rgb(33,47,32)"/>
<polygon points="184,536 230,489 118,525" style="fill:rgb(81,95,77)"/>
<polygon points="118,525 230,489 228,431" style="fill:rgb(148,148,132)"/>
<polygon points="814,743 871,705 833,682" style="fill:rgb(215,208,203)"/>
<polygon points="863,692 871,705 912,521" style="fill:rgb(181,176,170)"/>
<polygon points="1080,0 512,0 740,154" style="fill:rgb(229,228,230)"/>
<polygon points="740,154 512,0 691,161" style="fill:rgb(225,224,226)"/>
<polygon points="691,161 512,0 671,176" style="fill:rgb(224,223,225)"/>
<polygon points="446,226 152,221 384,300" style="fill:rgb(198,200,202)"/>
<polygon points="139,743 288,743 229,623" style="fill:rgb(118,142,127)"/>
<polygon points="229,623 288,743 259,635" style="fill:rgb(75,93,73)"/>
<polygon points="251,0 152,221 446,226" style="fill:rgb(205,206,211)"/>
<polygon points="0,488 118,525 228,431" style="fill:rgb(157,161,153)"/>
<polygon points="0,488 228,431 226,336" style="fill:rgb(172,175,169)"/>
<polygon points="184,536 118,525 229,623" style="fill:rgb(74,91,71)"/>
<polygon points="1080,485 975,472 966,497" style="fill:rgb(214,216,219)"/>
<polygon points="1080,485 1080,439 975,472" style="fill:rgb(235,233,233)"/>
<polygon points="975,472 1080,364 833,394" style="fill:rgb(233,207,163)"/>
<polygon points="1080,439 1080,364 975,472" style="fill:rgb(240,214,174)"/>
<polygon points="1080,743 1080,485 966,497" style="fill:rgb(71,81,79)"/>
<polygon points="512,0 251,0 446,226" style="fill:rgb(212,212,218)"/>
<polygon points="0,488 49,540 118,525" style="fill:rgb(136,140,130)"/>
<polygon points="118,525 139,743 229,623" style="fill:rgb(104,128,110)"/>
<polygon points="49,540 139,743 118,525" style="fill:rgb(95,118,100)"/>
<polygon points="0,284 0,488 226,336" style="fill:rgb(180,184,182)"/>
<polygon points="49,540 73,743 139,743" style="fill:rgb(86,111,92)"/>
<polygon points="0,284 226,336 152,221" style="fill:rgb(189,193,193)"/>
<polygon points="0,0 0,284 152,221" style="fill:rgb(191,196,197)"/>
<polygon points="0,488 0,559 49,540" style="fill:rgb(129,134,124)"/>
<polygon points="871,705 1080,743 912,521" style="fill:rgb(40,50,46)"/>
<polygon points="814,743 1080,743 871,705" style="fill:rgb(32,39,32)"/>
<polygon points="0,559 73,743 49,540" style="fill:rgb(68,91,72)"/>
<polygon points="1080,364 1080,0 816,214" style="fill:rgb(236,235,236)"/>
<polygon points="800,170 1080,0 740,154" style="fill:rgb(233,232,234)"/>
<polygon points="0,559 0,743 73,743" style="fill:rgb(48,67,51)"/>
<polygon points="251,0 0,0 152,221" style="fill:rgb(197,200,203)"/>
</svg>