<svg viewBox="0 0 2560 1760" xmlns="http://www.w3.org/2000/svg" version="1.1">
<rect x="0" y="0" width="2560" height="1760" fill="#9e9897" />
<g transform="scale(10.000000) translate(0.5 0.5)">
<polygon fill="#000000" fill-opacity="0.501961" points="92,170 271,191 141,94" />
<polygon fill="#dce7f1" fill-opacity="0.501961" points="28,-2 59,139 271,-1" />
<polygon fill="#4f2200" fill-opacity="0.501961" points="62,140 9,191 -16,117" />
<polygon fill="#000000" fill-opacity="0.501961" points="179,191 89,149 240,147" />
<polygon fill="#000000" fill-opacity="0.501961" points="196,43 217,76 195,100" />
<polygon fill="#dfc3b7" fill-opacity="0.501961" points="201,120 164,154 105,140" />
<polygon fill="#633f2c" fill-opacity="0.501961" points="130,49 164,48 173,168" />
<polygon fill="#dee0e2" fill-opacity="0.501961" points="191,46 271,3 250,76" />
<polygon fill="#00000f" fill-opacity="0.501961" points="87,134 123,191 163,159" />
<polygon fill="#dbd0c3" fill-opacity="0.501961" points="247,154 168,123 213,84" />
<polygon fill="#000000" fill-opacity="0.501961" points="220,91 208,54 184,51" />
<polygon fill="#bebdbf" fill-opacity="0.501961" points="109,171 64,178 33,75" />
<polygon fill="#090d0e" fill-opacity="0.501961" points="119,106 170,99 170,135" />
<polygon fill="#c2c8ce" fill-opacity="0.501961" points="119,148 -16,30 143,1" />
<polygon fill="#e1ebf5" fill-opacity="0.501961" points="175,40 177,101 154,99" />
<polygon fill="#ac7437" fill-opacity="0.501961" points="269,34 231,113 261,191" />
<polygon fill="#090007" fill-opacity="0.501961" points="175,134 237,157 161,182" />
<polygon fill="#3b0d00" fill-opacity="0.501961" points="202,81 172,89 203,98" />
<polygon fill="#0b0705" fill-opacity="0.501961" points="135,54 153,46 166,56" />
<polygon fill="#d7d9de" fill-opacity="0.501961" points="119,132 171,134 147,145" />
<polygon fill="#77573b" fill-opacity="0.501961" points="55,127 53,191 -16,132" />
<polygon fill="#d1d3d6" fill-opacity="0.501961" points="213,75 223,19 233,97" />
<polygon fill="#201310" fill-opacity="0.501961" points="247,189 162,158 227,144" />
<polygon fill="#d39066" fill-opacity="0.501961" points="139,122 119,108 105,139" />
<polygon fill="#d8e5ed" fill-opacity="0.501961" points="95,-16 71,100 48,-5" />
<polygon fill="#292422" fill-opacity="0.501961" points="171,103 120,99 150,132" />
<polygon fill="#a5a8ab" fill-opacity="0.501961" points="32,-16 68,142 -16,73" />
<polygon fill="#c7a28f" fill-opacity="0.501961" points="145,50 133,100 185,100" />
<polygon fill="#d2dbe8" fill-opacity="0.501961" points="172,123 173,81 190,135" />
<polygon fill="#b9babf" fill-opacity="0.501961" points="122,117 109,-16 73,151" />
<polygon fill="#122a41" fill-opacity="0.501961" points="93,153 96,131 144,179" />
<polygon fill="#5a2d19" fill-opacity="0.501961" points="154,94 154,71 167,57" />
<polygon fill="#fff0cf" fill-opacity="0.501961" points="181,191 152,170 139,191" />
<polygon fill="#d5dce3" fill-opacity="0.501961" points="176,65 122,17 194,42" />
<polygon fill="#d5c6b9" fill-opacity="0.501961" points="247,191 245,151 228,134" />
<polygon fill="#c98d65" fill-opacity="0.501961" points="181,52 189,106 201,69" />
<polygon fill="#c39c6d" fill-opacity="0.501961" points="271,67 233,68 232,111" />
<polygon fill="#d7e1e9" fill-opacity="0.501961" points="152,34 127,66 119,19" />
<polygon fill="#080000" fill-opacity="0.501961" points="184,55 198,54 180,64" />
<polygon fill="#180000" fill-opacity="0.501961" points="195,54 227,94 202,77" />
<polygon fill="#aa725a" fill-opacity="0.501961" points="164,163 148,148 182,124" />
<polygon fill="#090000" fill-opacity="0.501961" points="188,93 183,96 175,78" />
<polygon fill="#170600" fill-opacity="0.501961" points="135,58 145,52 137,69" />
<polygon fill="#000005" fill-opacity="0.501961" points="222,191 197,134 174,144" />
<polygon fill="#ac9a89" fill-opacity="0.501961" points="199,149 233,142 217,133" />
<polygon fill="#000000" fill-opacity="0.501961" points="118,150 147,182 154,149" />
<polygon fill="#2a2626" fill-opacity="0.501961" points="170,109 124,131 173,133" />
<polygon fill="#63544f" fill-opacity="0.501961" points="209,141 222,191 231,165" />
<polygon fill="#4a1c04" fill-opacity="0.501961" points="118,133 107,134 115,139" />
<polygon fill="#bdb4b2" fill-opacity="0.501961" points="110,172 78,134 49,176" />
<polygon fill="#d4cfca" fill-opacity="0.501961" points="233,95 205,100 223,135" />
<polygon fill="#b9b0a7" fill-opacity="0.501961" points="232,145 172,128 189,89" />
<polygon fill="#543c2a" fill-opacity="0.501961" points="0,178 -16,118 22,141" />
<polygon fill="#241711" fill-opacity="0.501961" points="145,53 155,48 171,63" />
<polygon fill="#000000" fill-opacity="0.501961" points="198,93 213,75 192,88" />
<polygon fill="#d9dbe0" fill-opacity="0.501961" points="115,86 115,121 94,135" />
<polygon fill="#000000" fill-opacity="0.501961" points="271,145 271,183 252,170" />
<polygon fill="#cbcbd0" fill-opacity="0.501961" points="130,79 104,101 141,99" />
<polygon fill="#142537" fill-opacity="0.501961" points="125,191 120,147 90,142" />
<polygon fill="#c6c7cc" fill-opacity="0.501961" points="169,65 145,17 221,31" />
<polygon fill="#a6a8a9" fill-opacity="0.501961" points="-16,8 40,124 39,-16" />
<polygon fill="#c0bfc4" fill-opacity="0.501961" points="190,48 271,74 216,-16" />
<polygon fill="#a9acaf" fill-opacity="0.501961" points="115,140 135,150 158,142" />
<polygon fill="#b1bbc6" fill-opacity="0.501961" points="153,99 165,69 185,101" />
<polygon fill="#daac8f" fill-opacity="0.501961" points="144,52 137,74 162,64" />
<polygon fill="#9f6a46" fill-opacity="0.501961" points="154,93 137,74 139,96" />
<polygon fill="#8a8e8b" fill-opacity="0.501961" points="-10,111 -16,128 52,127" />
<polygon fill="#9b8672" fill-opacity="0.501961" points="190,120 194,134 218,131" />
<polygon fill="#0f2848" fill-opacity="0.501961" points="191,150 159,183 158,162" />
<polygon fill="#cc9275" fill-opacity="0.501961" points="183,88 205,76 177,68" />
<polygon fill="#3d291a" fill-opacity="0.501961" points="222,97 227,90 219,85" />
<polygon fill="#322c2b" fill-opacity="0.501961" points="161,108 121,112 124,101" />
<polygon fill="#e8ba9d" fill-opacity="0.501961" points="112,122 122,128 136,123" />
<polygon fill="#cfd6dd" fill-opacity="0.501961" points="175,81 160,81 184,37" />
<polygon fill="#cfc7c0" fill-opacity="0.501961" points="202,92 228,101 207,85" />
<polygon fill="#c1c0c4" fill-opacity="0.501961" points="228,95 186,3 240,27" />
<polygon fill="#afaaab" fill-opacity="0.501961" points="137,137 115,147 124,131" />
<polygon fill="#1b0500" fill-opacity="0.501961" points="198,98 213,70 205,54" />
<polygon fill="#8e6d53" fill-opacity="0.501961" points="56,162 50,128 -1,191" />
<polygon fill="#b1b2b6" fill-opacity="0.501961" points="102,-16 87,151 118,73" />
<polygon fill="#ffcc9d" fill-opacity="0.501961" points="136,173 131,175 145,188" />
<polygon fill="#2c2725" fill-opacity="0.501961" points="166,125 159,116 130,121" />
<polygon fill="#ddffff" fill-opacity="0.501961" points="252,111 259,116 271,101" />
<polygon fill="#ccced5" fill-opacity="0.501961" points="170,101 187,135 182,96" />
<polygon fill="#dcb09a" fill-opacity="0.501961" points="165,74 134,71 141,79" />
<polygon fill="#0b0103" fill-opacity="0.501961" points="198,144 196,139 209,142" />
<polygon fill="#000000" fill-opacity="0.501961" points="232,161 235,180 254,191" />
<polygon fill="#cdc0b4" fill-opacity="0.501961" points="235,164 246,161 256,191" />
<polygon fill="#a8a2a3" fill-opacity="0.501961" points="53,129 102,128 57,164" />
<polygon fill="#835d43" fill-opacity="0.501961" points="252,170 271,141 246,141" />
<polygon fill="#050000" fill-opacity="0.501961" points="151,170 120,153 154,150" />
<polygon fill="#824a27" fill-opacity="0.501961" points="181,127 186,137 174,136" />
<polygon fill="#160a04" fill-opacity="0.501961" points="188,93 177,89 174,81" />
<polygon fill="#b39878" fill-opacity="0.501961" points="234,66 271,66 236,109" />
<polygon fill="#0b1a2a" fill-opacity="0.501961" points="99,134 109,144 89,146" />
<polygon fill="#26160a" fill-opacity="0.501961" points="223,145 234,156 184,160" />
<polygon fill="#c5cdd5" fill-opacity="0.501961" points="88,128 90,18 54,68" />
<polygon fill="#cfc8c1" fill-opacity="0.501961" points="206,105 201,131 187,91" />
<polygon fill="#aa8d72" fill-opacity="0.501961" points="57,169 -10,174 48,191" />
<polygon fill="#c18b6c" fill-opacity="0.501961" points="161,135 159,159 172,133" />
<polygon fill="#81573d" fill-opacity="0.501961" points="107,132 123,131 112,140" />
<polygon fill="#826749" fill-opacity="0.501961" points="271,97 244,113 245,93" />
<polygon fill="#342821" fill-opacity="0.501961" points="204,58 194,50 186,56" />
<polygon fill="#362113" fill-opacity="0.501961" points="193,92 202,88 201,99" />
<polygon fill="#a38a73" fill-opacity="0.501961" points="205,99 206,114 216,126" />
<polygon fill="#f3c5a8" fill-opacity="0.501961" points="135,117 128,120 119,117" />
<polygon fill="#e5bda1" fill-opacity="0.501961" points="184,61 193,60 188,71" />
<polygon fill="#cbd2d8" fill-opacity="0.501961" points="118,54 186,39 118,11" />
<polygon fill="#514749" fill-opacity="0.501961" points="137,191 223,191 186,170" />
<polygon fill="#baaea6" fill-opacity="0.501961" points="252,163 227,114 231,150" />
<polygon fill="#865d49" fill-opacity="0.501961" points="148,72 142,65 153,67" />
<polygon fill="#030000" fill-opacity="0.501961" points="133,132 126,129 137,126" />
<polygon fill="#9e9392" fill-opacity="0.501961" points="159,90 170,95 179,82" />
<polygon fill="#783d2a" fill-opacity="0.501961" points="151,87 154,95 153,78" />
<polygon fill="#bfbec1" fill-opacity="0.501961" points="271,-16 216,81 205,19" />
<polygon fill="#0a0000" fill-opacity="0.501961" points="172,172 201,146 206,170" />
<polygon fill="#080000" fill-opacity="0.501961" points="113,147 151,172 153,152" />
<polygon fill="#c7cdd3" fill-opacity="0.501961" points="105,119 99,133 109,141" />
<polygon fill="#5d5350" fill-opacity="0.501961" points="219,145 229,172 222,191" />
<polygon fill="#040918" fill-opacity="0.501961" points="172,143 190,143 169,157" />
<polygon fill="#cad0d5" fill-opacity="0.501961" points="182,44 161,34 173,87" />
<polygon fill="#2a2221" fill-opacity="0.501961" points="155,48 165,59 141,51" />
<polygon fill="#cad1db" fill-opacity="0.501961" points="187,127 176,128 171,117" />
<polygon fill="#ddbfac" fill-opacity="0.501961" points="143,55 157,58 141,68" />
<polygon fill="#373433" fill-opacity="0.501961" points="142,132 165,132 129,100" />
<polygon fill="#956c47" fill-opacity="0.501961" points="241,108 243,141 235,127" />
<polygon fill="#927156" fill-opacity="0.501961" points="264,156 271,139 235,161" />
<polygon fill="#b2a398" fill-opacity="0.501961" points="202,148 215,138 234,141" />
<polygon fill="#cc9b78" fill-opacity="0.501961" points="111,134 123,131 123,109" />
<polygon fill="#3b2d25" fill-opacity="0.501961" points="238,169 229,168 224,144" />
<polygon fill="#c68d77" fill-opacity="0.501961" points="157,143 154,158 158,150" />
<polygon fill="#ad8069" fill-opacity="0.501961" points="156,144 179,141 160,138" />
<polygon fill="#c2c0be" fill-opacity="0.501961" points="114,147 120,144 116,138" />
<polygon fill="#b8c2cb" fill-opacity="0.501961" points="101,127 57,128 50,48" />
<polygon fill="#b2b7bf" fill-opacity="0.501961" points="130,132 157,132 143,147" />
<polygon fill="#cccfd3" fill-opacity="0.501961" points="135,94 118,44 137,69" />
<polygon fill="#826a57" fill-opacity="0.501961" points="222,140 209,139 202,145" />
<polygon fill="#c4b9af" fill-opacity="0.501961" points="197,131 203,141 237,137" />
<polygon fill="#826c59" fill-opacity="0.501961" points="53,130 22,128 56,157" />
<polygon fill="#e6b199" fill-opacity="0.501961" points="154,172 125,186 180,191" />
<polygon fill="#bcc2ce" fill-opacity="0.501961" points="188,116 184,134 191,135" />
<polygon fill="#a7a9ac" fill-opacity="0.501961" points="27,-16 -16,9 64,145" />
<polygon fill="#1c2c3d" fill-opacity="0.501961" points="97,155 93,138 134,169" />
<polygon fill="#080000" fill-opacity="0.501961" points="214,76 197,66 207,57" />
<polygon fill="#3e2f29" fill-opacity="0.501961" points="140,111 123,116 160,117" />
<polygon fill="#000000" fill-opacity="0.501961" points="159,157 156,162 158,151" />
<polygon fill="#4c2e22" fill-opacity="0.501961" points="152,73 164,62 165,68" />
<polygon fill="#72533c" fill-opacity="0.501961" points="50,162 15,135 7,166" />
<polygon fill="#d4dde3" fill-opacity="0.501961" points="56,-16 57,64 84,5" />
<polygon fill="#967d68" fill-opacity="0.501961" points="184,107 192,116 184,97" />
</g>
</svg>
