<svg width="70" height="70" viewBox="0 0 70 70" fill="none" xmlns="http://www.w3.org/2000/svg">
<g clip-path="url(#clip0)">
<path d="M36.4 4.19995C27.2447 4.19995 19.7851 11.5724 19.6164 20.6882C19.5704 20.8916 19.5704 21.1028 19.6164 21.3062C19.7822 30.4246 27.2428 37.7999 36.4 37.7999C41.1553 37.7999 45.4656 35.8133 48.5215 32.6292C51.3504 29.6825 53.1034 25.6917 53.1836 21.3089C53.2292 21.1064 53.2292 20.8962 53.1836 20.6937C53.0178 11.5753 45.5571 4.19995 36.4 4.19995ZM36.4 6.99995C36.95 6.99995 37.5206 7.22779 38.1719 7.83394C38.8231 8.44008 39.4971 9.41991 40.075 10.6914C40.338 11.2699 40.5786 11.9117 40.7969 12.6H32.0031C32.2213 11.9117 32.462 11.2699 32.725 10.6914C33.3029 9.41991 33.9768 8.44008 34.6281 7.83394C35.2794 7.22779 35.8499 6.99995 36.4 6.99995ZM30.923 8.11011C30.6595 8.55935 30.4062 9.02663 30.1765 9.53198C29.7552 10.4589 29.4105 11.5053 29.1047 12.6H25.1972C26.6677 10.641 28.637 9.07981 30.923 8.11011ZM41.8769 8.11011C44.163 9.07981 46.1323 10.641 47.6027 12.6H43.6953C43.3894 11.5053 43.0447 10.4589 42.6234 9.53198C42.3937 9.02663 42.1404 8.55935 41.8769 8.11011ZM23.5894 15.4H28.4867C28.2606 16.739 28.0899 18.1304 28.0328 19.5999H22.4683C22.6152 18.1142 23.0164 16.7109 23.5894 15.4ZM31.3277 15.4H41.4722C41.7192 16.7144 41.9024 18.1122 41.9672 19.5999H30.8328C30.8976 18.1122 31.0807 16.7144 31.3277 15.4ZM44.3133 15.4H49.2105C49.7835 16.7109 50.1847 18.1142 50.3316 19.5999H44.7672C44.7101 18.1304 44.5394 16.739 44.3133 15.4ZM22.4683 22.4H28.0328C28.0899 23.8695 28.2606 25.2609 28.4867 26.5999H23.5894C23.0164 25.289 22.6152 23.8857 22.4683 22.4ZM30.8328 22.4H41.9672C41.9024 23.8877 41.7192 25.2854 41.4722 26.5999H31.3277C31.0807 25.2854 30.8976 23.8877 30.8328 22.4ZM44.7672 22.4H50.3316C50.1846 23.8834 49.7973 25.2914 49.2242 26.5999H44.3133C44.5394 25.2609 44.7101 23.8695 44.7672 22.4ZM25.1972 29.3999H29.1047C29.4105 30.4946 29.7552 31.541 30.1765 32.4679C30.4062 32.9733 30.6595 33.4405 30.923 33.8898C28.637 32.9201 26.6677 31.3589 25.1972 29.3999ZM32.0031 29.3999H40.7969C40.5786 30.0882 40.338 30.73 40.075 31.3085C39.4971 32.58 38.8231 33.5598 38.1719 34.166C37.5206 34.7721 36.95 34.9999 36.4 34.9999C35.8499 34.9999 35.2794 34.7721 34.6281 34.166C33.9768 33.5598 33.3029 32.58 32.725 31.3085C32.462 30.73 32.2213 30.0882 32.0031 29.3999ZM43.6953 29.3999H47.5836C47.2449 29.8496 46.8901 30.285 46.5008 30.6906C45.2014 32.0445 43.6342 33.1323 41.8851 33.8789C42.146 33.433 42.3957 32.9688 42.6234 32.4679C43.0447 31.541 43.3894 30.4946 43.6953 29.3999ZM18.8508 36.3999C14.8791 36.3999 13.0755 37.3615 11.0879 38.1472C11.087 38.1472 11.086 38.1472 11.0851 38.1472C7.2956 39.6489 0.792943 42.7765 0.792943 42.7765C0.626992 42.8562 0.478364 42.9678 0.355549 43.1049C0.232734 43.2421 0.138138 43.402 0.0771625 43.5757C0.0161874 43.7494 -0.00997171 43.9334 0.000179408 44.1173C0.0103305 44.3011 0.0565929 44.4811 0.136324 44.647C0.216056 44.8129 0.327694 44.9615 0.464863 45.0843C0.602032 45.2071 0.762044 45.3016 0.93576 45.3625C1.10948 45.4235 1.29349 45.4496 1.4773 45.4394C1.66111 45.4292 1.8411 45.3829 2.00701 45.3031C2.00701 45.3031 8.54938 42.1639 12.116 40.7503C14.3004 39.8868 15.2876 39.1999 18.8508 39.1999C20.7833 39.1999 22.2415 39.4448 23.3734 39.807C25.1283 40.3682 26.1321 41.1897 27.0047 42.0738C27.8594 42.9399 28.5231 43.9418 29.7254 44.6632C30.881 45.3563 32.669 45.9237 34.7129 46.4433C34.9242 46.5614 35.1626 46.6226 35.4047 46.621H35.4074C37.7056 47.177 40.1374 47.5999 42 47.5999C43.6362 47.5999 44.7922 47.9138 45.407 48.2999C46.0218 48.6861 46.2 49.0048 46.2 49.6999C46.2 50.5149 46.0124 50.7932 45.3988 51.1574C44.7852 51.5216 43.6108 51.7999 42 51.7999H33.8789C30.4507 51.7999 25.5855 50.4546 25.5855 50.4546C25.4069 50.3974 25.2187 50.3767 25.032 50.3936C24.8452 50.4105 24.6638 50.4648 24.4984 50.5532C24.333 50.6415 24.187 50.7622 24.0692 50.9081C23.9514 51.054 23.864 51.222 23.8124 51.4023C23.7607 51.5825 23.7458 51.7713 23.7685 51.9575C23.7912 52.1436 23.851 52.3233 23.9445 52.4859C24.0379 52.6484 24.1631 52.7906 24.3125 52.9038C24.462 53.0171 24.6327 53.0992 24.8144 53.1453C24.8144 53.1453 29.7583 54.5999 33.8789 54.5999H42C43.8948 54.5999 45.5189 54.3439 46.8289 53.5664C47.2227 53.3326 47.5692 53.03 47.8707 52.6859C47.9759 52.6461 48.076 52.5938 48.1687 52.53L60.7578 44.0617H60.7605C62.9438 42.7664 64.4493 42.3985 65.3461 42.4156C66.2431 42.4327 66.5827 42.7167 66.8691 43.091C67.2843 43.634 67.3168 43.9221 67.0469 44.5621C66.7769 45.202 66.0052 46.1256 64.6543 47.0831C62.9733 48.2759 44.4748 60.5634 42.3008 61.8214C40.692 62.7538 39.3949 63.7465 37.9121 64.1675C36.4298 64.5884 34.6763 64.5837 31.809 63.1886H31.8062C29.8911 62.2557 21.8017 58.031 19.1761 56.6753C17.7253 55.9255 16.5021 55.5112 15.2523 55.5816C14.0026 55.652 12.9441 56.1971 11.8316 56.9078C11.828 56.9105 11.8243 56.9132 11.8207 56.916L8.04451 59.3796C7.88815 59.4789 7.75305 59.6083 7.64704 59.7602C7.54103 59.9121 7.46621 60.0835 7.42692 60.2645C7.38763 60.4455 7.38465 60.6326 7.41815 60.8147C7.45165 60.9969 7.52096 61.1706 7.62208 61.3258C7.72319 61.481 7.8541 61.6146 8.00721 61.7189C8.16032 61.8231 8.33259 61.8959 8.51405 61.9331C8.69551 61.9703 8.88254 61.9711 9.06432 61.9355C9.2461 61.8999 9.419 61.8286 9.57302 61.7257L13.3519 59.2621C14.3165 58.6475 14.8872 58.4084 15.4109 58.3789C15.9381 58.3492 16.6413 58.5177 17.891 59.1636C20.4926 60.5069 28.4765 64.679 30.5812 65.7042C33.8876 67.3136 36.5464 67.466 38.6777 66.8609C40.809 66.2557 42.3289 65.0407 43.7035 64.2441C46.6198 62.5565 64.1656 50.8617 66.273 49.3664V49.3691C67.8789 48.2308 69.0396 47.0389 69.6254 45.6503C70.2111 44.2617 70.0224 42.607 69.0922 41.3902C68.3607 40.4344 67.0542 39.6471 65.398 39.6156C64.2268 39.5933 62.8256 40.036 61.2828 40.7285C61.2245 40.4484 61.3605 40.1394 61.2363 39.8699C60.7604 38.8374 59.6996 38.11 58.5074 37.8738C58.5065 37.8738 58.5056 37.8738 58.5047 37.8738C56.9407 37.5646 55.1695 38.0464 53.416 38.8527C53.2911 38.4726 53.1959 38.0741 52.9429 37.7726C52.1922 36.8778 51.1122 36.5599 50.1074 36.482C48.0978 36.3262 46.0074 36.9823 44.4965 37.882C42.3994 39.1299 36.1329 43.0962 35.2215 43.6734C33.3501 43.169 31.6634 42.5594 31.1636 42.2597C30.686 41.9731 30.0166 41.1428 28.9953 40.1078C27.9527 39.0515 26.4728 37.8593 24.2265 37.141C22.7769 36.6771 21.0203 36.3999 18.8508 36.3999ZM49.8914 39.2738C50.4509 39.3171 50.7185 39.4789 50.7965 39.5718C50.8558 39.6425 50.9486 39.7744 50.9058 40.1871L43.9933 44.9531C43.367 44.8606 42.7127 44.7999 42 44.7999C41.2591 44.7999 40.2452 44.6887 39.1398 44.5128C41.5757 42.9763 44.5947 41.0781 45.9265 40.2855C46.8656 39.7263 48.7723 39.187 49.8914 39.2738ZM57.0308 40.5972C57.4011 40.563 57.7205 40.5711 57.9633 40.6191C58.5448 40.7343 58.6009 40.8424 58.6933 41.0429C58.762 41.1919 58.7831 41.567 58.7344 42.0492L48.8715 48.6828C48.6269 47.6731 48.0298 46.7716 47.1953 46.1453L52.973 42.164C53.0227 42.1306 53.0702 42.0941 53.1152 42.0546C54.4482 41.1613 55.9548 40.6965 57.0308 40.5972Z" fill="#438FEF"/>
</g>
<defs>
<clipPath id="clip0">
<rect width="70" height="70" fill="white"/>
</clipPath>
</defs>
</svg>
